<?xml version="1.0" encoding="UTF-8" standalone="no"?>
<!-- Created with Inkscape (http://www.inkscape.org/) -->

<svg
   width="480"
   height="360"
   viewBox="0 0 48 36"
   version="1.1"
   id="svg26393"
   inkscape:version="1.1.2 (b8e25be833, 2022-02-05)"
   sodipodi:docname="BG_12x9_xadrez.svg"
   xmlns:inkscape="http://www.inkscape.org/namespaces/inkscape"
   xmlns:sodipodi="http://sodipodi.sourceforge.net/DTD/sodipodi-0.dtd"
   xmlns="http://www.w3.org/2000/svg"
   xmlns:svg="http://www.w3.org/2000/svg">
  <sodipodi:namedview
     id="namedview26395"
     pagecolor="#ffffff"
     bordercolor="#666666"
     borderopacity="1.0"
     inkscape:pageshadow="2"
     inkscape:pageopacity="0.0"
     inkscape:pagecheckerboard="0"
     inkscape:document-units="px"
     showgrid="false"
     units="px"
     inkscape:snap-page="true"
     inkscape:lockguides="false"
     showguides="false"
     inkscape:zoom="1.3666667"
     inkscape:cx="239.99999"
     inkscape:cy="180"
     inkscape:window-width="1920"
     inkscape:window-height="1017"
     inkscape:window-x="-8"
     inkscape:window-y="-8"
     inkscape:window-maximized="1"
     inkscape:current-layer="layer1" />
  <defs
     id="defs26390" />
  <g
     inkscape:label="Camada 1"
     inkscape:groupmode="layer"
     id="layer1">
    <path
       style="opacity:0.2;fill:#000000;stroke:#000000;stroke-width:0.981755"
       d="M 0.7317073,20.121951 V 1.0975609 H 20.121951 39.512194 V 20.121951 39.146341 H 20.121951 0.7317073 Z"
       id="path997"
       transform="scale(0.1)" />
    <rect
       style="opacity:0.2;fill:none;stroke:#519dd6;stroke-width:0.0529167;stroke-dasharray:0.0529167, 0.105833;stop-color:#000000"
       id="rect26476"
       width="127"
       height="95.25"
       x="0"
       y="0" />
    <path
       style="fill:none;stroke:#000000;stroke-width:0.1px;stroke-linecap:butt;stroke-linejoin:miter;stroke-opacity:1"
       d="M 0,0 V 36"
       id="path26868" />
    <path
       style="fill:none;stroke:#000000;stroke-width:0.1px;stroke-linecap:butt;stroke-linejoin:miter;stroke-opacity:1"
       d="M 48.05,0 V 36"
       id="path26950" />
    <path
       style="fill:none;stroke:#000000;stroke-width:0.1px;stroke-linecap:butt;stroke-linejoin:miter;stroke-opacity:1"
       d="M 4.0041668,0 V 36"
       id="path26952" />
    <path
       style="fill:none;stroke:#000000;stroke-width:0.1px;stroke-linecap:butt;stroke-linejoin:miter;stroke-opacity:1"
       d="M 8.0083336,0 V 36"
       id="path26954" />
    <path
       style="fill:none;stroke:#000000;stroke-width:0.1px;stroke-linecap:butt;stroke-linejoin:miter;stroke-opacity:1"
       d="M 12.0125,0 V 36"
       id="path26956" />
    <path
       style="fill:none;stroke:#000000;stroke-width:0.1px;stroke-linecap:butt;stroke-linejoin:miter;stroke-opacity:1"
       d="M 16.016667,0 V 36"
       id="path26958" />
    <path
       style="fill:none;stroke:#000000;stroke-width:0.1px;stroke-linecap:butt;stroke-linejoin:miter;stroke-opacity:1"
       d="M 20.020835,0 V 36"
       id="path26960" />
    <path
       style="fill:none;stroke:#000000;stroke-width:0.1px;stroke-linecap:butt;stroke-linejoin:miter;stroke-opacity:1"
       d="M 24.025,0 V 36"
       id="path26962" />
    <path
       style="fill:none;stroke:#000000;stroke-width:0.1px;stroke-linecap:butt;stroke-linejoin:miter;stroke-opacity:1"
       d="M 28.029169,0 V 36"
       id="path26964" />
    <path
       style="fill:none;stroke:#000000;stroke-width:0.1px;stroke-linecap:butt;stroke-linejoin:miter;stroke-opacity:1"
       d="M 32.033334,0 V 36"
       id="path26966" />
    <path
       style="fill:none;stroke:#000000;stroke-width:0.1px;stroke-linecap:butt;stroke-linejoin:miter;stroke-opacity:1"
       d="M 36.0375,0 V 36"
       id="path26968" />
    <path
       style="fill:none;stroke:#000000;stroke-width:0.1px;stroke-linecap:butt;stroke-linejoin:miter;stroke-opacity:1"
       d="M 40.041668,0 V 36"
       id="path26970" />
    <path
       style="fill:none;stroke:#000000;stroke-width:0.1px;stroke-linecap:butt;stroke-linejoin:miter;stroke-opacity:1"
       d="M 44.045834,0 V 36"
       id="path26972" />
    <path
       style="fill:none;stroke:#000000;stroke-width:0.1px;stroke-linecap:butt;stroke-linejoin:miter;stroke-opacity:1"
       d="M 0,0 H 48.05"
       id="path27013" />
    <path
       style="fill:none;stroke:#000000;stroke-width:0.1px;stroke-linecap:butt;stroke-linejoin:miter;stroke-opacity:1"
       d="M 0,4.0055557 H 48.05"
       id="path27099" />
    <path
       style="fill:none;stroke:#000000;stroke-width:0.1px;stroke-linecap:butt;stroke-linejoin:miter;stroke-opacity:1"
       d="M 0,8.0111113 H 48.05"
       id="path27101" />
    <path
       style="fill:none;stroke:#000000;stroke-width:0.1px;stroke-linecap:butt;stroke-linejoin:miter;stroke-opacity:1"
       d="M 0,12.016667 H 48.05"
       id="path27103" />
    <path
       style="fill:none;stroke:#000000;stroke-width:0.1px;stroke-linecap:butt;stroke-linejoin:miter;stroke-opacity:1"
       d="M 0,16.022223 H 48.05"
       id="path27105" />
    <path
       style="fill:none;stroke:#000000;stroke-width:0.1px;stroke-linecap:butt;stroke-linejoin:miter;stroke-opacity:1"
       d="M 0,20.027779 H 48.05"
       id="path27107" />
    <path
       style="fill:none;stroke:#000000;stroke-width:0.1px;stroke-linecap:butt;stroke-linejoin:miter;stroke-opacity:1"
       d="M 0,24.033334 H 48.05"
       id="path27109" />
    <path
       style="fill:none;stroke:#000000;stroke-width:0.1px;stroke-linecap:butt;stroke-linejoin:miter;stroke-opacity:1"
       d="M 0,28.038892 H 48.05"
       id="path27111" />
    <path
       style="fill:none;stroke:#000000;stroke-width:0.1px;stroke-linecap:butt;stroke-linejoin:miter;stroke-opacity:1"
       d="M 0,32.044445 H 48.05"
       id="path27113" />
    <path
       style="fill:none;stroke:#000000;stroke-width:0.1px;stroke-linecap:butt;stroke-linejoin:miter;stroke-opacity:1"
       d="M 0,36.05 H 48.05"
       id="path27115" />
    <path
       style="opacity:0.2;fill:#000000;stroke:#000000;stroke-width:0.981755"
       d="M 81.21951,20.121951 V 1.0975609 h 19.02439 19.02439 V 20.121951 39.146341 H 100.2439 81.21951 Z"
       id="path22911"
       transform="scale(0.1)" />
    <path
       style="opacity:0.2;fill:#000000;stroke:#000000;stroke-width:0.981755"
       d="M 160.97561,20.121951 V 1.0975609 H 180 199.02439 V 20.121951 39.146341 H 180 160.97561 Z"
       id="path22950"
       transform="scale(0.1)" />
    <path
       style="opacity:0.2;fill:#000000;stroke:#000000;stroke-width:0.981755"
       d="M 241.46341,20.121951 V 1.0975609 h 19.02439 19.02439 V 20.121951 39.146341 H 260.4878 241.46341 Z"
       id="path22989"
       transform="scale(0.1)" />
    <path
       style="opacity:0.2;fill:#000000;stroke:#000000;stroke-width:0.981755"
       d="M 321.2195,20.121951 V 1.0975609 h 19.02439 19.02439 V 20.121951 39.146341 H 340.24389 321.2195 Z"
       id="path23028"
       transform="scale(0.1)" />
    <path
       style="opacity:0.2;fill:#000000;stroke:#000000;stroke-width:0.981755"
       d="M 400.9756,20.121951 V 1.0975609 h 19.39024 19.39025 V 20.121951 39.146341 H 420.36584 400.9756 Z"
       id="path23067"
       transform="scale(0.1)" />
    <path
       style="opacity:0.2;fill:#000000;stroke:#000000;stroke-width:0.981755"
       d="M 40.975609,59.999999 V 40.609755 h 19.02439 19.024389 V 59.999999 79.390242 H 59.999999 40.975609 Z"
       id="path23106"
       transform="scale(0.1)" />
    <path
       style="opacity:0.2;fill:#000000;stroke:#000000;stroke-width:0.981755"
       d="M 120.7317,59.999999 V 40.609755 h 19.39025 19.39024 V 59.999999 79.390242 H 140.12195 120.7317 Z"
       id="path23145"
       transform="scale(0.1)" />
    <path
       style="opacity:0.2;fill:#000000;stroke:#000000;stroke-width:0.981755"
       d="M 201.21951,59.999999 V 40.609755 h 19.02439 19.02439 V 59.999999 79.390242 H 220.2439 201.21951 Z"
       id="path23184"
       transform="scale(0.1)" />
    <path
       style="opacity:0.2;fill:#000000;stroke:#000000;stroke-width:0.981755"
       d="M 280.9756,59.999999 V 40.609755 h 19.39025 19.39024 V 59.999999 79.390242 H 300.36585 280.9756 Z"
       id="path23223"
       transform="scale(0.1)" />
    <path
       style="opacity:0.2;fill:#000000;stroke:#000000;stroke-width:0.981755"
       d="M 361.46341,59.999999 V 40.609755 h 19.02439 19.02439 V 59.999999 79.390242 H 380.4878 361.46341 Z"
       id="path23262"
       transform="scale(0.1)" />
    <path
       style="opacity:0.2;fill:#000000;stroke:#000000;stroke-width:0.981755"
       d="M 441.2195,59.999999 V 40.609755 h 19.39024 19.39025 V 59.999999 79.390242 H 460.60974 441.2195 Z"
       id="path23301"
       transform="scale(0.1)" />
    <path
       style="opacity:0.2;fill:#000000;stroke:#000000;stroke-width:0.981755"
       d="m 441.2195,140.12195 v -19.02439 h 19.39024 19.39025 v 19.02439 19.02439 H 460.60974 441.2195 Z"
       id="path23340"
       transform="scale(0.1)" />
    <path
       style="opacity:0.2;fill:#000000;stroke:#000000;stroke-width:0.981755"
       d="m 441.2195,220.2439 v -19.39025 h 19.39024 19.39025 v 19.39025 19.39024 H 460.60974 441.2195 Z"
       id="path23379"
       transform="scale(0.1)" />
    <path
       style="opacity:0.2;fill:#000000;stroke:#000000;stroke-width:0.981755"
       d="m 441.2195,300.36585 v -19.02439 h 19.39024 19.39025 v 19.02439 19.02439 H 460.60974 441.2195 Z"
       id="path23418"
       transform="scale(0.1)" />
    <path
       style="opacity:0.2;fill:#000000;stroke:#000000;stroke-width:0.981755"
       d="m 400.9756,340.60975 v -19.02439 h 19.39024 19.39025 v 19.02439 19.02439 H 420.36584 400.9756 Z"
       id="path23457"
       transform="scale(0.1)" />
    <path
       style="opacity:0.2;fill:#000000;stroke:#000000;stroke-width:0.981755"
       d="m 321.2195,340.60975 v -19.02439 h 19.02439 19.02439 v 19.02439 19.02439 H 340.24389 321.2195 Z"
       id="path23496"
       transform="scale(0.1)" />
    <path
       style="opacity:0.2;fill:#000000;stroke:#000000;stroke-width:0.981755"
       d="m 241.46341,340.60975 v -19.02439 h 19.02439 19.02439 v 19.02439 19.02439 H 260.4878 241.46341 Z"
       id="path23535"
       transform="scale(0.1)" />
    <path
       style="opacity:0.2;fill:#000000;stroke:#000000;stroke-width:0.981755"
       d="M 160.97561,340.60975 V 321.58536 H 180 199.02439 v 19.02439 19.02439 H 180 160.97561 Z"
       id="path23574"
       transform="scale(0.1)" />
    <path
       style="opacity:0.2;fill:#000000;stroke:#000000;stroke-width:0.981755"
       d="m 81.21951,340.60975 v -19.02439 h 19.02439 19.02439 v 19.02439 19.02439 H 100.2439 81.21951 Z"
       id="path23613"
       transform="scale(0.1)" />
    <path
       style="opacity:0.2;fill:#000000;stroke:#000000;stroke-width:0.981755"
       d="M 0.7317073,340.60975 V 321.58536 H 20.121951 39.512194 v 19.02439 19.02439 H 20.121951 0.7317073 Z"
       id="path23652"
       transform="scale(0.1)" />
    <path
       style="opacity:0.2;fill:#000000;stroke:#000000;stroke-width:0.981755"
       d="M 0.7317073,260.4878 V 241.09756 H 20.121951 39.512194 v 19.39024 19.39024 H 20.121951 0.7317073 Z"
       id="path23691"
       transform="scale(0.1)" />
    <path
       style="opacity:0.2;fill:#000000;stroke:#000000;stroke-width:0.981755"
       d="M 0.7317073,180.36585 V 161.34146 H 20.121951 39.512194 v 19.02439 19.02439 H 20.121951 0.7317073 Z"
       id="path23730"
       transform="scale(0.1)" />
    <path
       style="opacity:0.2;fill:#000000;stroke:#000000;stroke-width:0.981755"
       d="M 0.7317073,100.2439 V 80.853657 H 20.121951 39.512194 V 100.2439 119.63414 H 20.121951 0.7317073 Z"
       id="path23769"
       transform="scale(0.1)" />
    <path
       style="opacity:0.2;fill:#000000;stroke:#000000;stroke-width:0.981755"
       d="M 81.21951,100.2439 V 80.853657 h 19.02439 19.02439 V 100.2439 119.63414 H 100.2439 81.21951 Z"
       id="path23808"
       transform="scale(0.1)" />
    <path
       style="opacity:0.2;fill:#000000;stroke:#000000;stroke-width:0.981755"
       d="M 160.97561,100.2439 V 80.853657 H 180 199.02439 V 100.2439 119.63414 H 180 160.97561 Z"
       id="path23847"
       transform="scale(0.1)" />
    <path
       style="opacity:0.2;fill:#000000;stroke:#000000;stroke-width:0.981755"
       d="M 241.46341,100.2439 V 80.853657 h 19.02439 19.02439 V 100.2439 119.63414 H 260.4878 241.46341 Z"
       id="path23886"
       transform="scale(0.1)" />
    <path
       style="opacity:0.2;fill:#000000;stroke:#000000;stroke-width:0.981755"
       d="M 321.2195,100.2439 V 80.853657 h 19.02439 19.02439 V 100.2439 119.63414 H 340.24389 321.2195 Z"
       id="path23925"
       transform="scale(0.1)" />
    <path
       style="opacity:0.2;fill:#000000;stroke:#000000;stroke-width:0.981755"
       d="M 400.9756,100.2439 V 80.853657 h 19.39024 19.39025 V 100.2439 119.63414 H 420.36584 400.9756 Z"
       id="path23964"
       transform="scale(0.1)" />
    <path
       style="opacity:0.2;fill:#000000;stroke:#000000;stroke-width:0.981755"
       d="m 400.9756,180.36585 v -19.02439 h 19.39024 19.39025 v 19.02439 19.02439 H 420.36584 400.9756 Z"
       id="path24003"
       transform="scale(0.1)" />
    <path
       style="opacity:0.2;fill:#000000;stroke:#000000;stroke-width:0.981755"
       d="m 400.9756,260.4878 v -19.39024 h 19.39024 19.39025 v 19.39024 19.39024 H 420.36584 400.9756 Z"
       id="path24042"
       transform="scale(0.1)" />
    <path
       style="opacity:0.2;fill:#000000;stroke:#000000;stroke-width:0.981755"
       d="m 321.2195,260.4878 v -19.39024 h 19.02439 19.02439 v 19.39024 19.39024 H 340.24389 321.2195 Z"
       id="path24081"
       transform="scale(0.1)" />
    <path
       style="opacity:0.2;fill:#000000;stroke:#000000;stroke-width:0.981755"
       d="m 361.46341,300.36585 v -19.02439 h 19.02439 19.02439 v 19.02439 19.02439 H 380.4878 361.46341 Z"
       id="path24120"
       transform="scale(0.1)" />
    <path
       style="opacity:0.2;fill:#000000;stroke:#000000;stroke-width:0.981755"
       d="m 280.9756,300.36585 v -19.02439 h 19.39025 19.39024 v 19.02439 19.02439 H 300.36585 280.9756 Z"
       id="path24159"
       transform="scale(0.1)" />
    <path
       style="opacity:0.2;fill:#000000;stroke:#000000;stroke-width:0.981755"
       d="m 241.46341,260.4878 v -19.39024 h 19.02439 19.02439 v 19.39024 19.39024 H 260.4878 241.46341 Z"
       id="path24198"
       transform="scale(0.1)" />
    <path
       style="opacity:0.2;fill:#000000;stroke:#000000;stroke-width:0.981755"
       d="m 201.21951,300.36585 v -19.02439 h 19.02439 19.02439 v 19.02439 19.02439 H 220.2439 201.21951 Z"
       id="path24237"
       transform="scale(0.1)" />
    <path
       style="opacity:0.2;fill:#000000;stroke:#000000;stroke-width:0.981755"
       d="M 160.97561,260.4878 V 241.09756 H 180 199.02439 v 19.39024 19.39024 H 180 160.97561 Z"
       id="path24276"
       transform="scale(0.1)" />
    <path
       style="opacity:0.2;fill:#000000;stroke:#000000;stroke-width:0.981755"
       d="m 120.7317,300.36585 v -19.02439 h 19.39025 19.39024 v 19.02439 19.02439 H 140.12195 120.7317 Z"
       id="path24315"
       transform="scale(0.1)" />
    <path
       style="opacity:0.2;fill:#000000;stroke:#000000;stroke-width:0.981755"
       d="m 81.21951,260.4878 v -19.39024 h 19.02439 19.02439 v 19.39024 19.39024 H 100.2439 81.21951 Z"
       id="path24354"
       transform="scale(0.1)" />
    <path
       style="opacity:0.2;fill:#000000;stroke:#000000;stroke-width:0.981755"
       d="m 40.975609,300.36585 v -19.02439 h 19.02439 19.024389 v 19.02439 19.02439 H 59.999999 40.975609 Z"
       id="path24393"
       transform="scale(0.1)" />
    <path
       style="opacity:0.2;fill:#000000;stroke:#000000;stroke-width:0.981755"
       d="m 40.975609,220.2439 v -19.39025 h 19.02439 19.024389 v 19.39025 19.39024 H 59.999999 40.975609 Z"
       id="path24432"
       transform="scale(0.1)" />
    <path
       style="opacity:0.2;fill:#000000;stroke:#000000;stroke-width:0.981755"
       d="m 81.21951,180.36585 v -19.02439 h 19.02439 19.02439 v 19.02439 19.02439 H 100.2439 81.21951 Z"
       id="path24471"
       transform="scale(0.1)" />
    <path
       style="opacity:0.2;fill:#000000;stroke:#000000;stroke-width:0.981755"
       d="m 40.975609,140.12195 v -19.02439 h 19.02439 19.024389 v 19.02439 19.02439 H 59.999999 40.975609 Z"
       id="path24510"
       transform="scale(0.1)" />
    <path
       style="opacity:0.2;fill:#000000;stroke:#000000;stroke-width:0.981755"
       d="m 120.7317,140.12195 v -19.02439 h 19.39025 19.39024 v 19.02439 19.02439 H 140.12195 120.7317 Z"
       id="path24549"
       transform="scale(0.1)" />
    <path
       style="opacity:0.2;fill:#000000;stroke:#000000;stroke-width:0.981755"
       d="M 160.97561,180.36585 V 161.34146 H 180 199.02439 v 19.02439 19.02439 H 180 160.97561 Z"
       id="path24588"
       transform="scale(0.1)" />
    <path
       style="opacity:0.2;fill:#000000;stroke:#000000;stroke-width:0.981755"
       d="m 201.21951,140.12195 v -19.02439 h 19.02439 19.02439 v 19.02439 19.02439 H 220.2439 201.21951 Z"
       id="path24627"
       transform="scale(0.1)" />
    <path
       style="opacity:0.2;fill:#000000;stroke:#000000;stroke-width:0.981755"
       d="m 241.46341,180.36585 v -19.02439 h 19.02439 19.02439 v 19.02439 19.02439 H 260.4878 241.46341 Z"
       id="path24666"
       transform="scale(0.1)" />
    <path
       style="opacity:0.2;fill:#000000;stroke:#000000;stroke-width:0.981755"
       d="m 280.9756,140.12195 v -19.02439 h 19.39025 19.39024 v 19.02439 19.02439 H 300.36585 280.9756 Z"
       id="path24705"
       transform="scale(0.1)" />
    <path
       style="opacity:0.2;fill:#000000;stroke:#000000;stroke-width:0.981755"
       d="m 321.2195,180.36585 v -19.02439 h 19.02439 19.02439 v 19.02439 19.02439 H 340.24389 321.2195 Z"
       id="path24744"
       transform="scale(0.1)" />
    <path
       style="opacity:0.2;fill:#000000;stroke:#000000;stroke-width:0.981755"
       d="m 361.46341,140.12195 v -19.02439 h 19.02439 19.02439 v 19.02439 19.02439 H 380.4878 361.46341 Z"
       id="path24783"
       transform="scale(0.1)" />
    <path
       style="opacity:0.2;fill:#000000;stroke:#000000;stroke-width:0.981755"
       d="m 361.46341,220.2439 v -19.39025 h 19.02439 19.02439 v 19.39025 19.39024 H 380.4878 361.46341 Z"
       id="path24822"
       transform="scale(0.1)" />
    <path
       style="opacity:0.2;fill:#000000;stroke:#000000;stroke-width:0.981755"
       d="m 280.9756,220.2439 v -19.39025 h 19.39025 19.39024 v 19.39025 19.39024 H 300.36585 280.9756 Z"
       id="path24861"
       transform="scale(0.1)" />
    <path
       style="opacity:0.2;fill:#000000;stroke:#000000;stroke-width:0.981755"
       d="m 201.21951,220.2439 v -19.39025 h 19.02439 19.02439 v 19.39025 19.39024 H 220.2439 201.21951 Z"
       id="path24900"
       transform="scale(0.1)" />
    <path
       style="opacity:0.2;fill:#000000;stroke:#000000;stroke-width:0.981755"
       d="m 120.7317,220.2439 v -19.39025 h 19.39025 19.39024 v 19.39025 19.39024 H 140.12195 120.7317 Z"
       id="path24939"
       transform="scale(0.1)" />
  </g>
</svg>
