<svg xmlns="http://www.w3.org/2000/svg" viewBox="0 0 69.94 79.77"><defs><style>.cls-1{fill:#9cce59;stroke:#fff;stroke-miterlimit:10;stroke-width:0.8px;fill-rule:evenodd;}</style></defs><g id="Camada_2" data-name="Camada 2"><g id="svg2"><path id="path52" class="cls-1" d="M1.21,28.24l1-.1.6-.4.8.3-.1,1.2.5.5.7-.2L7,31.24l3.3.5,2.6-.7.2-.1.2.1.1-.2h.2l.1.1.1-.1v-.1l.1-.1-.1-.3h0v-.1l.1-.1v.1h.2v.2l.2.1.1-.3.1.1v-.1l.1-.1-.1-.1.1-.2h.2l.1.1.1-.1.1.1h.1l.3-.1h.1l-.1-.2h-.1l-.1-.1.3-.1.1-.2h.1l.1-.1H16l.1-.1.1-.1h.5l.1.1h-.1l-.2.1.2.1.1-.1.1.2.1-.1-.1.2-.2.1.1.2h-.1l-.1.1v.1h.2l.1-.1.3.1h.2l.1.2h.1V30h.3v.1L18,30v.3h.4l.1.1h.1v-.1h.2l.2.2h.3l.2.2h.3l.2-.1h.1l.2.1.2-.1.2.1.2-.1v-.1l-.1-.1-.1-.2h.1l.4.2.1-.2h.1l.1-.1h.2l.1-.2H22l.1-.1.1-.1.1-.2v-.2l.2-.1h.2l.1.2.1-.1.1.2v.2l.1.1.2.1h.2v.2l.3.1v.2l.2.1.2-.1.1.2-.4.3-.1-.1v.3l-.1.1h-.2l.1.1-.1.2-.1.1v.1l.1.1h.1l-.1-.1h.1l.1.1.1-.1.1-.1H24l.1-.1h.1l.1.1.1.1v-.1l.1.1.1-.1h.3l.2-.1.5-.1h.8l.2.2v.1l.2.2.1.1h.5l.4.2.5-.1.1-.3-.1-.1h.1l.1.1v-.1h.2l.1.1.1-.1.1-.3.1-.1v-.2l.2-.1v-.3h.3v-.1l-.1-.2h.3v-.1h.1l.5-.2.2-.2.1.1v-.2l.1.1.1-.1.3-.1.1-.1h.1l.2-.1v-.1l.7-.5.1-.2-.1-.1.3-.3v-.2l.1-.1.1-.1H33l.1-.1-.1-.1.1-.2h.3v-.3l.3-.3h.2v-.2l-.1-.3.2-.1h.1v-.1l.1-.2h.1l-.1-.3-.3-.2.1-.2-.2-.2.2-.2.1-.1.1.1.2-.5.1-.2.2-.4.2-.4v-.1l.1-.2-.1-.2-1.6.4.3-.5.1-.3.4-.5.2-.2.1.1h.1l.2-.3v-.1h-.1l-.1-.1v-.2h.1l.1-.2.2-.4v-.3L35,20l.1-.1.2-.4v-.2L35,19l.1-.2.1-.1-.1-.1-.1.1-.1-.1.1-.2.1.1.1-.1-.1-.1.1-.2.1-.2.2-.1.2.1-.1-.5.2-.2V17l.2-.1.2-.1v-.1l.1-.1.1.1.1.2.2-.1.1-.1.4-.5.1-.1v-.2l.5-.5.1-.3.5-1.1.2-.2.1-.4.1-.1.2-.2-.1-.1.3-.1.5-1,.3-.3.1-.2.1-.6.1-.1.1-.1.1-.5-.2.2.4.1.1-.3-.1-.4.1-.2.2-.1.1-.1h.2l.2-.1.2-.3v-.1l.1-.1.1-.1.3-.1.1-.2v-.1l.3-.2.2-.3.1-.3v-.5l.1-.2.3-.3.1-.1.5-.1.2-.1.2-.2.3-.1.3-.2v-.5l.1-.2.3-.7.2-.4.1-.4v-.5l-.3.4.1-.4.1-1.2.3-1,.1-.1.1-.1.4-.1.2.2h.2l.5.5.4.3,1.1,1.1,1.3,1.4V4l.3.4.1.3.2.3.3.8v.1l.1.1v.5l.1.3v.7l.1.1.6.4h.4l.2.2v.1h.1v.5l-.1.3v1l-.1.1.1.3-.1.2v.6l.1.6.2,2-.2.5v-.1l-.1.1v.9l.1.3.8,2.3-.1.3-.1.2v.1l.1.4.3.3v.1l-.1.2v.3l.1.2.1.3.2.2v.6l.1.4.1.2.1.3.3.3V23l.1.3-.1.2.3-.1.2.2H55l.1.2L55,24v.2l.2.1.1.2v.7l.2.1.3.3v-.3l.1.1v.7l.1.2.1.5-.1.4-.2.1-.1.2h.1v-.1H56l.3-.2h.2l.2.1.1.2v.2l.2.3.1.1v.2l-.1.3.1.2.1.2-.1.3.2.1.1.2v.5l.1.2.2.3v.6h.1l.1.1.2.4.1.2.1.3v.3l-.1.1H58v-.3l.5-.2.9-.4.3-.1.7-.3h.9l.2.1v.1h.1l.2.2.1.3.4.5v.1l.1.1.1.2h.1l.2.2.1.1-.1.2.1.1v.1l.2.3v.2l.3.2v.5l.1.1.1.2.4.9.5,1.2.9-.2.9.4h.2l.5.2.3.1.5.3,1.1.6.1.1v.2l-.1.1v.1h.2l.1.5.2,1.3.1.8v.5l-.1.6.1.2-.2.8-.3.5.1.3.1.6.1.2v.4l-.3.5-.1.3-.2.4h-.1l-.1.1h.1l-.1.9.1.1v.6l-.1.2-.3.3h-.1l-.3.5-.1.3-.3.5-.3.2v.1H67l-.1-.1v-.3l-.1.2h.1v.3l-.1-.1-.1.1v.2h-.2v.1h-.1l-.1,1.1H65l-.5.1-.2.1-.9.2-.5.2-.6.5-.1.1h-.1l-.4.4-.2.4-.3.5-.1.7-.1.3-.3.4-.3.8-.2.4-.3.5-.3.5-.3.3-.4.3-.3.3-.3.4-1,.7-.5.3-.5.1-1.2.4h-.8l-.2.1-.5.5-.1.1-.3.4v.1h-.1l-.3.4-.1.1-.2.3-.3.3-.3.2h-.1l-.3.2-.8.1-.5.2-.5.7-.2.4-.4.5-.2.3-.3.3-.1.1-.2.3-.1.2v-.7l-.1.7-.6.6-.2.2-.2.6-.3.5-.5.5-.4.3-.2.2-.5.6-.4.4-.9,1.6-.1.1-.1.2-.1.1v.4l-.1.9v.5h-.1l.1,1,.1.3v.3l-.1.2-.2.3-1,1-.4.3-1.1.1-.1-.1-.4-.4-.2.1-.2.4v.1l-.1-.1h-.1v-.6l-.2-.1h-.1l-.1.1.1.5-.1.1v.1l-.3-.1-.4.1-.2.1-.2.1v.1l.1.1.2.2V79l-.1.2-.3.1-.4-.2h.6l-.1-.1v-.2l.1-.3-.2-.5v-.1h-.4l-.2-.2h-.8l-.2-.1H36l-.4-.2h-.3l-.3-.6-.1-.1-.4-.1-.2-.2-.3.2-.1-.1-.1-.1.2-.2.1-.3-.1-.1v-.5l-.3-.3v-.3l.1-.1.1-.1h.3l.1-.4-.1-.2-.2-.3-.2-.1-.2-.2-.1-.1-.2.2h-.1l-.3.1-.3.1h-.4l.1-.2.4-.5-.2-.1v-.4l.3-.5v-.8l-.1-.2-.1-.2V70l-.1-.5-.2-.2h-.5l-.4.1-.3.2h.2l-.2-.1-.4-.5v-.3l-.2-.2-.2-.3.1-.3-.1.4.4-.5-.1-.1-.2-.4V67l.2-.4v-.3l-.1-.2-.2-.2h-.2l-.3-.2-.2-.2-.1-.4-1-.7-.1-.2-.1-.2-.1-.1-.3-.1-.4.1-.4-.1-.1-.1-.4-1-.1-.4-.1-.5v-.5l-.1-.1v.1l-.2-.2.1-.5-.3-.1-.1-.2V60l-.1-.1-.1-.2-.3-.2-.2-.3-.2-.1-.1-.5.1-.3.1-.1-.3-.5-.3-.2-.1-.4-.1-.3-.3-.2-.1-.3L24,56v.1l-.1-.4.4-.4-.1-.1-.2-.1.2-.3-.1-.1.2-.2.1-.1v-.1l-.1-.2v-.2l.1-.3.4-.5.1-.5.1-.1v-.1l-.3-.2-.2.1-.1-.1-.1-.3-.1-.2-.4-.3-.1-.3-.1-.1h-.1l-.1-.1-.5-.4-.3-.2-.2-.4-.2-.2-.7-.4-.1-.1-.6-.5-.1-.3.1-.1v-.4l-.1-.1-.1-.1-.1-.3v-.1l.1-.1v-.1l-.1-.2h-.1v.4l-.2-.2-.1-.1v-.9l.2-.2h.1l.2.1h.2l.1-.1v-.1l.1-.3-.1-.2-.2-.2-.1-.3v-.3h-.1l-.1.1v.1l-.5-.1-.7.4H19l-.1-.2v-.1l.2-.2.1-.3-.1-.2-.3-.1h-.1v-.4l.2-.1.2-.1L19,43l-.1-.1h-.3V43l-.1.1-.3-.3-.5.1-.1.2h-.2l-.1-.2.2-.1.1-.1-.1-.3.1-.2-.1-.2-.2.1-.1.4H17v-.1l-.1-.1-.2.2-.1-.1-.1-.2.3-.3v.4l-.3-.2-.1.1.1.2v.1l-.2.2v.1l-.4-.1-.1-.2-.1.2h-.1l-.1-.1-.1-.2-.2-.1H15l-.1.1.2.2.1.1-.1.1h.2l-.1-.1-.3.1v-.1l.1-.1v-.1l-.2.1-.3-.1-.1.1v-.1l.1-.4V42h-.2l-.1-.2h-.3V42l-.2.1h-.1V42l.1-.1v-.1l.1-.2h-.1l-.2-.1-.1.1v-.2l-.2-.1-.1.2-.2-.1-.2.1V41l-.1-.2-.2.1h-.1l.1.1-.1.1-.2-.1-.2.2h-.1l-.1-.1-.2.1.1.1h-.2l.1-.2-.1-.1.1-.2-.2-.4H11v-.1l.1-.2.1-.2v-.1l-.1.1L11,40l-.1-.2h-.1v-.1h.1v-.1l-.2-.2.1-.1h-.2l-.1-.1v.1l-.1-.1h-.3V39H10l-.1.2v.3l.4-.2-.1-.3-.2-.1-.2-.1v-.2h-.2l-.1-.1-.2.1v-.1l-.1-.1.1-.1h0l-.1.1-.2-.1.1-.1.1-.1-.2.1v-.1h-.1l-.1-.1h-.1l.1-.1h-.3v-.1l-.1.1h-.1v-.1h-.1v-.1l-.4-.2-.1.3-.2-.2h-.2l-.2.1-.4-.1h-.1v.1l-.2-.1v.1l-.2.1-.1-.1H6l-.2-.1-.1-.1-.1-.1-.5-.1h0l-.2.1-.3-.1-.1.1-.2-.1-.3.2h-.1l-.3.1-.1-.1h-.2l-.1-.1v.1h-.3l-.4-.1v-.1l-.1-.1v-.1l.1-.1-.1-.2.3-.2h-.1v-.1l-.1-.1-.1-.1v-.4l-.1-.2v-.2l-.1-.1-.1-.5h.1l.1-.2v-.1h.1v-.2l-.1-.1h-.2l.1-.2L2,34l-.1-.1-.1-.1-.1-.2-.1-.2v-.2l-.1-.1v-.2h.1l-.1-.4.2-.1-.1-.2.1-.2-.1-.1h.1v-.2l.2-.1.1-.1v-.1l.2-.1v-.1l.1-.1v-.2h-.1l-.1-.2-.1-.1-.3-.3-.1-.3v.3l.1-.1-.1-.1.1-.2h.1l-.1-.3-.1-.2-.7-.8-.1-.1-.1-.1.5-.2Z"/></g></g></svg>