<svg xmlns="http://www.w3.org/2000/svg" viewBox="0 0 242.36 168.36"><defs><style>.cls-1{fill:#9cce59;stroke:#fff;stroke-miterlimit:10;stroke-width:0.8px;fill-rule:evenodd;}</style></defs><g id="Camada_2" data-name="Camada 2"><g id="svg2"><path id="path48" class="cls-1" d="M1.36,130.3h0l.4-.4.5-.5.2-.4v-.2l-.2-.1v-.5l-.2-.4v-.1l.2-.4.3-.3.1-.3v-.1l.1-.3h.1l.1-.1.2-.3.2-.1.3-.5.1-.2.4-.3.1-.1.3-.2h0l.1-.3.5-.4.3-.1h.1l.1-.1H6l.3-.2h.1l.2-.1h.2l.3-.1v-.3l.1-.1.2-.1.1-.2h.1v.7l.1-.1h.4l.3-.1h.5l.2-.1v-.1l.2-.1v.1l.1.1.2-.2-.1-.1.1-.1v-.1h0l.1-.1v-.1l.2-.1.1.1h.1l.2-.3.1-.1-.1-.1.1-.1.1-.3.1-.1h0l.1-.1-.1-.3.1-.1h-.1v-.2l-.1-.2-.2-.1-.1-.4-.1-.1-.1-.5-.1.1v-.2l-.1-.2v-.4l-.3-.3h.1l-.1-.3-.2-.1-.1-.1V117l-.5-.5v-.6l.3-.3-.1-.1.1-.1-.1-.5H9l.2-.2v-.1l.1-.1h.1l.2-.1v-.2l.1-.4v.1l.1-.2.1.1v-.5l.2-.2v-.2l.1-.1h.2l.3-.1v-.4l.1-.1H11v-.1l.3-.1.2-.3h.1v-.3h.1l.1-.3h.1l.2-.1v-.2l.3-.1v-.2l.1-.1v-.1h.1v-.1l.2-.1-.2.1.1-.1-.1-.2v-.2l-.1-.1v-.2l.1-.2.2-.1-.1-.2.1-.1v-.4l-.1-.2v-.5l.1-.4.1-.2-.1-.1.2-.1.1-.3.1-.1v-.1l.1-.2V106l.2-.1v-.1l.1-.3v-.2l.2-.2V105l.1-.1.1-.1v-.1l.1-.1v-.3l-.1-.2.1-.2v-.5H14l.1-.1-.2-.3v-.1h-.1v-.1l.1-.1.1-.1h.1l.1-.2h.2v.1l.3-.1.1-.1.1-.4.2.1.2-.1.1-.1.1-.1.1.1.1-.1.1-.2.2.1v.6l.1-.1L16,102v-.1h.2v-.1h.2v-.1l.3.2.2-.1h-.3l.2.1.1-.2H17v.1l.2-.1.3-.2v-.3l.1-.1V101l-.1-.1.2-.1.1-.1H18l.1-.1.3-.3h.3l-.1-.1h.2v.2h.1l.1-.2.1.1v.1h.1v-.3l.3-.1v-.2l-.1-.1v-.1l.2-.1v.2l.1-.1.1.2h.1v-.2h.2v-.2l-.1-.1h.1l.1.1.2-.2h.2v-.6l.1-.1.1-.3h.3l.2-.2h.2v-.1l-.1-.1h.3l.1-.1.4.1-.1.1v.2l.2-.1.2-.4.1.2.2-.1.3-.1v-.2l.1-.1.2.2.1-.1-.1-.1.4-.2h.1V97l-.3.2.1-.1.2.1.4-.3.1-.2.2-.1-.1-.1.3-.3.3-.1.1-.2v-.2l.3.1.1.1.1.1v-.3H26l.1-.2.1-.1.1.1.3-.1-.1-.1.1-.1-.1-.1.1-.1h.1l.1-.1v-.1h-.2v-.1l-.1-.2.3-.1v.2l.1-.1v-.2l.1.1.1-.1v-.1l.1-.1.2.1.2-.2.2-.1.4-.1.2-.1h.2l.1-.1.1.2v.1H29l.1-.1v-.3l.1-.1.1.2v.2h.2l.2.2h.1l.2-.1.3.1.2-.2.1.2.4-.3-.1-.1.1-.1.1-.1v.2l-.5.6-.2.1v.1l.2.1.1.1h.2l.3-.2.2-.2.2-.4.2.1v-.2l.1-.1.2.1.3.2h.1v-.1l-.2-.2v-.3l.2.1.1.1.1-.1v-.1l.1-.1H33l.2.2h.1l.1.1v.1h.2l.3-.4.2-.2.2.2.2-.1.1-.1.1.1v.2h.4l.1.1v.1l.1-.1v-.2l-.2-.1-.1-.2h.2l.2.3.2.1.2-.2.1-.1-.1-.4-.1-.2h.1l.3.1.2-.1h.1v.3h.1l.1-.4h.1l.1.1-.1.2.1.4.2-.2v-.2l.1-.1h-.3v.2l.2-.1-.1-.2h.3l.3.4.1-.2v-.2l.1-.1.2-.1.1.1-.1.2.1.1.3-.2v-.2h.2l-.1.3.2.1h.1l.1-.2h.5l.1-.2-.1-.2-.1-.1v-.1l.2.1.1.1.1.2.3.1.1.1.1-.2v-.1l.1-.1h.1l.1-.1.1-.3.2-.1.3-.1-.1-.3L41,91l.4-.2-.2-.3-.1-.2h.2l.2.1.2-.1v-.1l.1-.1-.1-.2.1-.3.1-.1.1-.2.3.1.2-.3.1-.1h.3l.3.3.3.1h.1l.1.2h.2l.1-.2v-.2l.1.1.1.1.1.2v-.5h.4v.2l-.2.4v.2l.1.1.1.1.2-.1.3-.1.2-.1.2-.1.1-.1.2-.2-.1-.2.5.1.1.3-.2.4.1.1h-.7l.1-.4.1-.1.3.2h.1v-.2h.3l.1-.1-.2-.2.2-.1.2.1h.4l.1-.1.2.1.2.4.1.2.2.1.1-.2.1-.1-.1-.2.1-.1.2.2.2.1.1.1v.4l.1.5-.1.1-.3.1v.2l.4.3-.2.2h0l.5-.2v.1l-.1.1-.2.1.1.2.2.1h.3l.1.1.1-.1.1.1.1.5.1.1H50l.2-.1v-.2l.1-.1.3-.1v-.1l-.3-.2.2-.4.1-.1v-.2l.1.1.2-.1.1-.1v-.2l.1.3.1.1h.4l-.2.2.1.3h.1l.3.1.1.1v.2h.1l.4-.2.4-.2.3-.4.1-.5v-.5l.2-.2h.1l.6-3.7.6-3.6,2-11.3,1-5.9,1.3-7.6L60,53l-.1-.5.1-.2.2-.2v-.7l.1-.3v-.2l.2-.1.3-.1v-.2l-.2-.4v-.6l-.2-.4-.1-.4.1-.3.2-.4v-.4l.2-.2v-.5l-.4-.5-.1-.1.1-.4-.4.3h-.1v-.1H60l.1-.2h.2l-.1-.2-.2-.1-.2.1-.2-.3v-.2l-.3-.3-.2-.1-.1-.1h-.2l-.1-.1V44l-.1-.2h-.1l-.4-.3.2-.3V43l-.2-.1H58l-.1-.2-.3-.2.1-.1-.2-.1.1-.1h-.2l.1-.2v-.1l.1-.1h.2l-.1-.2.1-.1.2-.3.1-.3.1-.2.1-.2h-.1v-.2l-.1-.1h-.2l-.2-.1.1-.2.1-.3-.2-.3h-.1l.1-.4-.2-.2h-.3v-.3l-.4-.1h-.2v-.1l-.4-.1L56,38l-.1-.1-.1-.2h-.1l-.1-.2-.2-.1h-.2v-.2l-.3-.1h-.2l-.3-.5-.2.1-.4-.1-.1.1-.4-.3v-.2l-.1-.2h-.1l-.1-.2-.1-.1-.3-.4h0l-.1-.2-.7-.6-.1-.1V34l.1-.2.1-.3-.1-1.6V30.8l.1-2.6V24.1h.2l.1.2.1.1h.2l.1-.1.1-.2-.2-.2h.4l.1.2.4.1.2-.2.2-.3.1.1.2-.1.1.2.4-.1.2-.1h-.2l.1-.1.2.1H55v.2l.3-.2.1-.2.3-.1.2-.3.2.2.2-.1.1-.4.2-.1h0v-.2l.1-.1.4.1.1.1.2.3h.1l.1.1h.2v-.1H58v-.3l.4-.2v-.2h.3l.1-.2H59l.1-.2.1-.1.3-.1h.1l.1.1.1.2H60l.1.1v.2l.1.1.3.2v.2l.5.5.2.2.1-.1.1-.1V23l.3.1.2-.1.1-.2.2.1-.1.1.1.3-.1.2h.6l.2-.1v.1l.4-.1.2.1v-.4l.1-.1v-.2l.2-.1.1.1h.2l.2.1h.2l.1.1h.1l.1-.2-.5-.7-.7-.2-.2-.1-.1-.1v-.3l.2-.2h.3l.1-.3-.1-.4-.1-.1h-.1v-.3l.2-.1H64v-.1l.1-.2-.2-.2h-.1l-.3-.2h-.2v-.2l-.1-.2.1-.1.3-.1-.1-.2-.5-.2-.1-.1.3-.2-.1-.2-.1-.1-.7-.6h-.1l-.2.1-.1-.2h-.2v-.1l-.2-.2h-.4l-.2.1-.2-.1-.1.1-.5.5-.1-.1v-.3l-.1-.1-.2.1-.5-.1-.4.1h-.6l-.3-.1-.3-.3h-.2l-.1.2H57l-.3.1-.2.1-.2-.1-.1.1-.1-.2v-.5l-.3.1h-.4l-.4.3-.2.1-.1.3-.1.1-.3-.1-.2-.2V8.1h.3l.3.1.1.1.4-.1.2.1V8.2l.1-.2h.1l.4-.3h.4l.1-.1.1.1h.3v.1h.4l.1-.1.2.1.1-.2h.1l.3-.2.5-.2.2-.2.8.4.1-.1v.1l.1.1.1-.2.1.1.1.1.1-.1.4.1.5.3V8l.1-.1h16.5V7.7l-.1-.1h-.3l.2-.3-.8-.1h-.2l-.2.1h-.2L76,6.9l.1-.5h-.4V5.9l.2-.2L76,5l.1-.1.2-.2.2-.2h.1l.2-.3.2-.1.2.2.2-.1h.1l.2.2.1.4.2.1.1.4.1.1h.1l.2.1.3-.1.3.3.3.3.5.5h.5l.1-.1.1-.2.2-.1.1-.2-.1-.4.4-.1.4-.3.3-.4.1-.1.2-.2.5-.9.2-.1h.3l.6.3h1.1l.2-.2.3-.7.4-.3.1-.5.2-.3.2-.2,1-.5.2-.4.1-.2h.6l.3.2.4.4L89,2.5l.1.3v.7l.4,1.4.2.5.1.2.5.3.2-.1.7.1-.6.3.3.4.2.4.1.4.3.5-.1.4.1.4.1.3v.2l.1,1.9v.4l.1.5-.2.5-.1,1.1v1.3l.1.3-.1.5,3.1-.9,3.5,3.2,3.8,3.4,1.4-.4.4.1.1.1.2.2.1.2h.1l.5-.1.1-.2h.1l.2.1.2-.2v-.1l.1-.3v-.1h.2l.3-.1.3.1h.2l.2-.1h.4v-.2l.2-.2v-.3l.2-.1v-.3l.1-.1h.3l.1.1.1-.2.2-.1.1-.3-.1-.2.3.1.4-.2.3-.2.1.1.2-.1.1-.1.1-.1.1.1.1-.1.1-.2h.1l.2-.3h.5l.1-.1.1.1.1.1.1.1.1-.2.3-.2.4.4-.1-.3h.2l.1-.1v.1l.3.1.1-.1.1.3.1-.1h.2l-.1.1.1.2h.2l.1.2.1.1-.1.1.2.2v.1l.2.2-.1.3v.1h.3v.1l-.2.2.1.4h-.1l-.1.1-.1-.1-.1.1.1.2-.1.3h-.2v.1l-.1.3H113l-.3.2v.3l-.2.3.1.1.1.1.2.5.1.1v.2h.1l.1.1.2-.3h.4l.1-.1h.1l.1-.1h.4l.2-.1v-.2l.2-.2.1-.3.1-.1v-.3l.2.1.1-.1-.1-.2.1-.1-.1-.1v-.1l-.2-.4.2-.1.1-.3.1-.1h.1l.1-.2.3-.2-.1-.1.2-.2.2-.5.1.1.3-.2h.5l.1.1-.1.1.1.1.1-.1.2.1.3-.1h.2l.1.2-.1.1h.2l.2-.2.2-.4.1-.5.1-.1.1-.3-.3-.1v-.2l.1-.1.1-.4v-.4l.1-.3-.1-.3h.2l.3-.1v-.2l.3-.2.2.2h.1l.1-.1.2.2-.1.3.1.1.2-.1.4.1v-.2l.2-.1.2-.3.3-.3.2-.3-.1-.1-.1-.3.2-.2h.1l.1.1v.1l.1.1.2-.1.1-.2.2-.2-.1-.1h.3v.3h.3V14l.2-.3-.1-.1.5-.4.2-.3.1.1.2.4-.1.1v.1l.2.2.3.4.1.1h.1l.4-.2v-.2h.1l.1-.3v.5l.1-.1.2.1h.1l.2-.1h.1l.2-.2.2-.3h.1l.2-.2h.3l.2-.3h-.1l.1-.2-.1-.1.2-.1.3-.5.3-.2v-.2l.1.1.3-.1.2-.2.2-.2.3-.2.1.1h.1l.3-.2v.2l.2-.2v-.1l.2-.2.2.1h.4l.1.3-.2.3-.3.3.1.1-.1.1-.2.4v.1l-.1.3.1.1h.5l.1.1.1.2.1.1.1-.1-.1-.1v-.2l.2-.1V12l.1-.1.1-.1v-.1l.1-.1.1-.1.3-.2v-.1h.2l.1-.2.2-.1.1-.1.2.1h.1l.3-.3.1-.2-2.4-.2V10h.3l.2-.1h.3l.2-.1V9.5l.2-.2.1-.3.2-.2.1-.4V8.3l.1-.3h-.1l-.1-.3.1-.1V7.3h-.1V7.2l.2-.5V6.5l.1-.1-.1-.2h.1V5.9h-.2v.3l.1-.5V5l.2-.1.1-.1.3-.1V4.5h.1l.2-.2.1-.1h.1l.2-.2.1.1.1-.1.1.1h.2l.2.1.3-.2h.1l.1.1.1.1h.5l.1.3.2-.1.1-.3h.4l.2.1.1-.1.1-.2h.1l.2.1.1-.1V3.8l.1-.1.1-.1V3.5l.4-.3.1.1.1.1-.1.2h.3l.1.1.1-.1V3.4l-.1-.4.1-.1h.3l.2-.3h.1V2.3h.2l.2-.2h.1l.3-.1.1-.1h.3l.4.2v.1h.3l.2-.2.1-.2h.1l.3.2h.1l.1-.1h.1l.3-.2h.1V1.4l.1-.3h-.1V.9l.4-.2.1.2.7.5.4.2.3-.1.9-.3h.4l.1.1h.3v.9l.1.3.2.4.2.2.3.3.2.3.6.4.5-.1.5-.2.4.1,1.1.2h.2l.2.3v.1l.9.3.3.2h.1l.2.2.1.5-.1.5-.4.8.1,1.5-.1.2-.4.3-.1.1-.1.2-.4.4-.1.4v.3l.4.2.3.4.1.2.2.1.1.4.2.2.3.2.3.3.4.2h.1l.1.1.2.5v.1l-.1.2.1.3.2.1.3,1.4.5,1.1.1.7.3.5h.8v.1l-.1.3v.2l.1.1-.1.2.1.2.2.3.2.3v.2l-.1.4-.3.3-.2.6.1.4.2.2.1.1V22l-.1.1-.5.4-.4.5-.1.3-.1.2.3,1.3-.1.5-.1.5.2.3v.6h.2l.3-.2.3.4.1.1.1.4.1.2-.1.1v.1l-.1.2-1.7-.8.1.3-.1.5.2.5V29l.2.2.2.4v1l.2.3.3.2.3.1.1.2.3.1.3.8v.5h-.1v.1l.1.1.1.2h0l.3.4.1.2.1.2.2.2h.1v.1l-.1.2.1.3-.2.1v.3l.1.2h.2l-.1.2-.2.1v.1l.2.3-.1.1.1.1.1.1h.1l.1-.1.5.3-.1.1v.4l-.1.1-.1.1.1.3-.2.1v.1h-.1l-.1.3-.2.1-.1.1-.4.2v.2h.1l-.1.2-.1-.1-.1.1v.2l-.1.2h-.1l-.1.1.1.3-.1.1v.1l-.1.1.1.2v.2l.1.1.2.2v.2h-.2V41l.1.1.1.2v.1l-.1.1h-.1l-.1.1h-.2v.2l-.2.1-.1-.1v-.6h-.3v.3h.1l.1.1-.1.1-.3-.1-.1.1v.1l-.2.1-.1-.2-.1-.1-.1-.1v-.1h-.4l-.2-.1v.1l-.3-.2-.1.1v.3l-.2.1V42h.1l.1.3-.2.1v.1l.1.3.3.2.2-.1.1.2h.1l.1.1v-.1h.2l.1.1.4.1.1.2.2.1v.1l.1.1v.1l-.1.1.2.1v.1h.1l.3.4.1.2h.2l.1.2.2.2v.1l.2-.1.2.2.2.3h.4l.2.1h.2v.3l.4.1.1.1.2.2h.1l.1.1h.2l.2.4-.1.2.1.1.1.1.1.1.2.1h.4l.3.3.3.3.1.2.3.6v.3l.4.4.1.3.1.5.4.5.2.3.1.4.1.3.4.1h.6l.2-.1.2-.2.2-.1.3.1.4.1.3.3.8.3.3.1.5.2.5.4.2.3.2.5.7.6.1.1h.1v-.4l.1-.1V54l-.1-.1-.1-.2-.5-.2-.3-.5v-.4l-.2-.1h-.4l-.1-.3-.4-.1h-.1v-.9l.3-.4.1-.1.1-.2v-.2l-.4-.4-.3-.1.1-.2.2-.2.1-.5.1-.3.1-.4.1-.1.1-.1-.1-.3.1-.2.1-.2.1-.1-.1-.2-.1-.1v.3l.2-.1-.2-.2v-.1l.1-.1h.3l.1-.2v-.3l-.1-.2-.2-.2v-.3h-.2l-.1-.1.1-.4-.1-.3.1-.1v-.3l.3-.2v-.5l.2-.2v-.1l-.1-.1v-.7l.2-.5.3-.2.5-.4.1-.2v-.3l.2-.3.1-.1h.3l.1-.1v-.3h.3l.2-.2.4-.2.1-.1.2-.1.3.1.4-.4h.3l.6-.1.1-.1v-.3l.1-.1-.1-.2v-.2l.1-.1h.1l.2.1h.3l.3.1v-.1l.1-.1.3-.1.1.1.1.1.3-.1h.1l.4.2.1.4.1.1h.3l.4.2h.6l.1-.1.1.1h.1l.1-.1h.2l.1.4-.1.1v.4h.1V40l.4.4.3-.2.1.1.1.1v.3l.1.3h.5l.2.1v.7h.1l.1.1.1.1.1-.1.1.2-.1.2-.1.1v.1l.3.1-.1.2.1.1-.1.2.1.2.1.1-.1.2.3-.1.3.2.1-.1.5.2h.1l-2,.4.1.1.2-.2.3-.1v-.1h.1l.1-.1h.1l.3.1v-.3l.5.2v.1h.2l.1.1h.1l.4-.4v-.1l-.2-.1.2-.2h.1l.1-.2-.1-.1.1-.1-.1-.1.1-.1.2-.2h.6l.1.1.1-.1.1-.1.2-.1h.3l.1-.2h.4l.1-.1.4-.2h.1l.1-.2v-.3H183l.1-.3-.2-.2v-.3h-.2l-.2-.2-.1-.1-.1-.2-.2-.1v-.2l-.2.1-.1-.2.1-.1v-.2l-.2-.1V39l-.1-.5.2-.1v-.1l.1-.2v-.2l.5-.4v-.2l-.1-.1.1-.1-.1-.1.1-.1.1-.3.2-.1v-.1l.1-.2-.1-.3v-.1h.3v-.4l.1-.1.1-.1-.3-.4.1-.1.1-.4L183,34l.1-.1.1.1.2-.1.1-.2v-.2l.1-.1.2.1-.1-.2.3-.3h.1l.1-.2-.1-.1v-.1l-.1-.1-.4.7.1-.2.2-.4v-.4l.4-.4-.1-.1h.2l.2-.3.3-.1-.1-.2.1-.1v-.3l.2-.2-.1-.1-.1-.1v-.2l.3-.3v-.1l.5-.2.2-.1.2-.2.1-.9.2-.5h15.3v3.9l.1.2v.4l.1.1h.1l.2.2-.1.8.1.1v.2l-.3.5v.5l.1.5h.1v.3l-.1.2v.6l.4.3.4.2v.1h.3v.3l.1-.1.2.1.2.3.3.1.1.3h.1l.1.1-.1.5.1.4.1.1.1.2v.4l-.1.2h-.2v.3l.1.1h0l-.1.1v.2l.2.2v.1h.1l.1.4h0l.3.1.3.3v.1l.1.1.1-.1.2.1.3.5.2.1h.2v.1l.2.2h.1v.1l.1.1V43l.5.4v.1h.1l.1-.1.1.1.1-.1v.2l.1.2h.1l.1.2h.1v-.1h.1l.4.3h0l-.3.1.1.2-.1.3.4.3v.1l.2.1v.2l-.1.1-.1.2.1.1-.1.3.2.2h.3l.1.1.3.3v.4l.1.1v-.1l.1.1.1-.1.1.3.3.1-.1.2.7-.1v-.1h.2l.2.4.4.1.3.5.2.1.3.4.1-.1.4-.5.1-.1v-.3l.4-.1.2-.2-.1-.1.1-.2.5-.4h.1l.2.1.1.2v.1l.1.3.4.1.1.1v.2l-.1.3.2.2V49l-.1.1-.3.8v.3l-.1.1v.4l.2.2h.2l-.1.1v.2l.3.1v.3h.1l.2-.1.3.1.1.1-.1.2.1.1.1-.1.1.2.3-.2h.2l.3.1v.1l.3.1v.1h.1l.1.3.1.1.1.2h.2v.3h.1l.2-.1.2.1v-.1l.3.1.2-.1v.5l.1.2.1.2-.1.2h.2l.2.3.3-.2.1.1.5-.1v-.1l.1-.1.2.2-.1.1.1.2.1-.1.3.2h.3l.1.3h.2l-.1.4.3-.2.1.2.1.1.2-.1v.2l.1.2.5-.2v.1l-.1.2.2.1.2-.3h.2v.2l.1.1h.1v.2l-.2.1.1.2.3-.2.3.3.2-.1-.1-.2.3.1.3.2.1-.3h.4v.1h.1l.1-.2v-.1h.1l.1.1-.1.1.1.1.2.1h.1l.1-.1.2-.1.1.2h.1l.1-.1.1.2.2-.2v.1l-.1.4.1.1v.1h.5l.2.4.3-.3.2.2v.2l.2.1.1.1v.1l-.2.2.1.3.2.2.3.6.1.1.5-.1.1.2.2.2.1.3.1.1.5.1h.1l.1.1.3.2.3.4.2.1h.7l.4-.2h.2l.2.2.1.1.1.3v.4l-.1.3-.3.3-.3.4v.4l.1.1h.2l.3.1.3.1.1.2.3.2h.4l.3-.1h.2l.1.1.1-.1.1-.4v-.1h.2l.1.1.2-.1.1-.2.3-.1.2-.2h.3l.4.5.1-.1.2-.1.2-.1.1.1.2.2h.2l.3-.2.1-.2.2-.1.3.1h.3l.2-.1.1-.3h.1v-.2l.1-.1.2-.1.4-.1.4-.5.3.1.1-.1.1-.1.1-.1h.6l.6-.2v.1l-.1.2-.5.7-.4.6-.4.4-.4.3-.5.4-.9.5-.5.1-.3.2-.1.1-.3.6-.1.2v.3l-.1.2-.5.7v.1l.1.1.3.1.2.1h.2l.1.1-.4.8-.7,1.6L236,71l-.5,1.2-1,2.2-1.6,3.5-.1.1-.5,1.3-1,2.3-.4.9-.5,1.3-.9,2-3.1,6.7-4,8.8-.9,2.2-1.2,2.6-2.1,4.7-5.4,11.9-.1.2-.2.1v.1h-3.3l-.1.1-.1.5-.1.2-.2.3-.3.1-.7.6-.3.5-.3.3-.2.4v1.2l.2.3.1.5.4,1,.4.5.2.1.1.3h.1l.4.1.2.2.2.2.5.8.3.3.3.1h.1l.2.4.1.2.2.1.1.4.3.3.2.7-.1.5.1.5v.2l.3.4.2.2-.1.1-.5.5-.5.9-.1.5-.1.5.1.4.1.5.1.2v.3l-.5.5-.2.4-.4.4-.1.1v.6l-.2.3-.5.5-.5.3-.1.2h-.1v.2l.2.2v.6l.3.5.3.4.1.4v.2l.1.3.4.6.1.2-.1.3.1.3-.1.2-.4.2-.1.3.2.5-.2.3.1.5-.1.2v.2l.1.1.1.3-.1.1-.4.2-.1.2.1.2-.1.2v.2l-.4.5-.1.2-.2.3-.1.1-.2.4.1.3.1.2v.2l-.1.4.2.2.1.2v.2l-.1.1-.1.3-.1.2-.4.8.1.1.3.1.4-.2h.1l.4-.1.4.2v.1l-.1.1-.3.2-.5.5-.2.2h-.3l-.2.1-.8.1h-18.3l-7.6-.1h-15.9l-.3-.5-.1-.1.1-.3-.1-.1-.2-.1-.1-.1-.3-.1-.4.1-.1-.1-.1-.3-.2.1h-.2l-.1.2.1.1-.1.1v.1l-.2.1v.1l-.2.2-.2-.1h-.3l-.3-.2h-.1l-.1.2v.5l-.2.2-.1.2.1.2-.1.1v.4l-.3.2h-.3v.2h-.3l-.2.1-.5-.2-.1.1-.1-.1v-.3l-.2-.3-.2-.1-.2-.4h-.6l-.4.2-.4-.1-.4-.9V156l.1-.2-.1-.1-.2-.1-.1-.2.1-.2-.2-.3-.3-.2.1-.1h.3v-3.4l-.1-.2-.1-.3H156l-.2-.2-.4-.1-.1.1-.2.1-.1.1v.2l.3.3-.1.2h-.1l-.6-.5-.1-.1v-.1l.2-.3.1-.2-.2-.2.1-.3-.1-.2h-.2l-.1-.1-.1-.2v-.3l-.1-.4.1-.4.1-.2v-.2l-.1-.1-.2-.1-.2-.1h-.2l-.4-.1-.2-.1-.1-.2.8.2-.1.1h-.1l-.1.2-.2.1-.3.3h-.1v-.1l-.1-.1-.1-.2h-.2l.1-.2-.1-.2v-.2h-.1l.1-.2-.1-.3h-.1l-.1-.1h-.1l-.1-.1-.1.1-.1-.1-.1-.2-.5-.3-.1-.1.1-.1-.2-.4-.2-.1-.1-.2v-.2l.1-.1.1-.2-.1-.1h0l.1-.1-.2-.2v-.1l-.3-.2-.2-.2-.3-.3-.5-.3h-.4l-.1-.2-.2-.3h-.1l-.1-.1h-.1l-.2-.2h-9l-1.2-.1-.1.6.1.2-.1.2-.2.1-.1.3-.3.2v.2l.1.1-.1.3-.1.1-.3.5-.5.3-.3.3v.1l.4.6-.4.3-.2.3v.2l-.2.3-.1.1h-.1l-.5-.4-.3-.1-.3-.1h-.3l-.1.2-.2.3-.1.1-.3-.1-.2.1v.8l-.5.3v.2l.4.1.2.2v.2l-.5.4v.1l.1.3.3.3v.3l.2.2h.1v.2l-.3.5h.6l-.2-.2V151l-.1-.1h-.1l-.1.1-.1.5-.2.1v.2l-.1.2-.1.1.1.1-.3.4.1.4-.5-.1h-.1l-.3.2h-.2l-.2-.1-.1.1-.2.3v.5l.2.4-.1.2-.3.3v.2l.1.3v.4l.1.6v.2l-.1.1h-.2l-.7.5-.5-.1-.5.1h-.2l-.2-.1v-.8l.2-.5v-.3h-.1l-.7.3-.4.2-.4.1-.2.1h-.3l-.4.1-.5-.1h-.1l-.1.1-.2.1h-.1v.2l-.2.1-.1.1h-.2l-.4-.1H124l-.2.1-.2-.3-.1-.1h-.2v.1l-.4.3-.3.1h-.1l-.3-.4-.1-.1h-.4l-.4.1-.4.3-.3.2-.1.2-.1.1-.2-.1v.5l-.2.6-.1.1v.3l.1.1v.5l.1.2v.1l.1.2-.1.1-.1.2-.1.3v.1l-.2.1v.1l-.2.2h-.3l-.2.2v.2l-.2.2.1.2h-.2l-.1.1-.1.1h-.1l.1.3-.2.2v.1l-.1.1h-.5l-.1.1.1.2-.2.1h-.2l-.4.3-.2-.2-.3-.1h-.2v-.7l.2-.3v-.2l-.3-.1v-.1l.1-.4-.3-.5v-.5l-.5-.3h-.1l-.5.2-.2.2-.6.4-.1.2h-.4v.1l-.1.1h-.1l-.3-.2-.4-.2-.1.1v.8l-.1.5v.1l.1.2.2.5v.2l-.1-.1-.2.1-.2-.2-.1.2-.3.1-.1-.1v-.2l-.1-.1h.9l-.5-.4-.2-.1h-.3l-.3.1-.3.1-.1.1-.1.2h-.4l-.1.7-.2.1-.4.7h-.1l-.2-.1h-.1l-.1.2h-.2l-.1.1-.2.2h-.1l-.1-.3.2-.1h-.1l-.1-.5-.2.1h-.1v-.3l-.1-.1h-.1l-.3-.3h-.2l-.3-.1-.1-.2-.1-.3-.3-.2-.1-.1-.2-.1v-.2H106l-.2-.1h-.3v.1l-.2.1h-.5l-.3-.1h-.2l-.3.2h-.1l-.2.2-.5-.2H103l-.2.1h-.1l-.3-.3H102l.1.3-.1.1h-.4v-.2l-.1-.1-.2.2-.3-.2-.2.1h-.1l-.5-.2-.1.1v.1l.3.2.1.3v.6l-.5.4-.2.4-.4.4-.4.3-.1.2v.3l-.5.1-.2.3-.4.1-.1.1-.3-.1-.2.2-.8.5-.1.3-.2.2-.3.2h-.6L95,167l-.1.1.1.1v.4l-.4.3-3.5-1.5-.5-.3-.5-.1-.4-.3-2.2-.9-8.2-3.6L76,159.7l-5.8-2.6-1.5-.6-.4-.2-.5-.2-2.7-1.6-2.6-1.3L59,151.4l-1.6-.8-2.7-1.6-5-2.7-2.2-1.2-1-.6-1.3-.3-1.5-.4-4.9-1-4.1-1-3.6-.8-.8-.2-5.6-1.4h-.3l-.3-.1-2-.6-.2-.1-6.3-1.3-.5-.2-2.4-1.2-6.2-2.8-5.6-2.5Z"/></g></g></svg>