<svg xmlns="http://www.w3.org/2000/svg" viewBox="0 0 101.25 101.33"><defs><style>.cls-1{fill:#ffd42a;stroke:#fff;stroke-miterlimit:10;stroke-width:0.8px;fill-rule:evenodd;}</style></defs><g id="Camada_2" data-name="Camada 2"><g id="svg2"><path id="path58" class="cls-1" d="M1.87,72.23h0l.1-.3v-.1l.1-.2v-.3H2l.1-.1-.1-.1.1-.1.1-.1v-.1h.1v-.1h.1v-.1h-.1l.1-.1v0l.1-.1v-.2h0l.1-.1h-.2v-.2h.1v-.1h-.1l.1-.1-.1-.1-.2-.1h.1v-.1l.1-.1h-.1v-.1l-.1.1v-.2l.2-.1v-.1l.2-.1-.1-.3h.2l.1-.2.1-.1v.1H3v-.2l.1-.3v-.2l.1-.1.1.1.1-.2.1-.1h.1l.1-.3v-.2l.1-.1H4l-.1-.1h.2v-.1h.1l-.1-.1h.2l-.1-.1h.1l.1.1v-.1h.1l.1-.1v-.1l-.1-.1v-.1h-.1v-.1h.1l-.1-.2h.1v-.1h.1l-.1-.1h.1v-.1h0l.1-.1-.1-.1v-.4h.1v.1l.1-.2v-.1l.1-.1v-.1h0V64H5v-.1h.1l.1-.1v-.2h.1l-.1-.1v-.2l.1-.1v.1l.1-.1.1.1h.3l.1.1.1-.1H6l.1.1v-.2h.1v.1h.1l-.1-.2h.3V63h-.1l.1-.2-.2-.2h.1v-.1h.1v.2h.1l.1-.1h.1v-.2l.2-.1.1-.1H7l.2-.1h.2l.1-.2.1.1.1-.1h.1V62h.1v-.2H8l.3-.3.1.1.1-.1h.1v-.2h0l.1-.2h.2v-.4l.1-.1h-.2v-.1l.2-.1.2-.1.1.1-.2-.3.1-.1.1-.1.1.1.1.2.1-.1-.1-.4h-.2v-.1l.1-.1-.1-.2h.2l.3.2-.1-.4h.1l.2.2h.2l.1-.1-.1-.2h.2l-.1-.1v-.2h.1l.2.2v-.2l.2.1v-.2l.1-.1v-.3h-.1v.1h.3l.1-.2v-.2l-.1-.1.2-.1-.2-.1-.1.1v-.1l.1-.1-.3-.2-.1-.1v-.3h-.5l-.2-.2v-.1l.2-.1-.2-.2h0v-.1l.1-.1v-.3l-.1-.1.1-.2h.1v-.2l.3-.2h.1v.1H11l.2-.2h.3v-.1l.1-.2h.1l.2.2h.2v-.1l-.3-.4v-.1h.3v-.5l.1-.2-.1-.2.3-.1h0l.2-.1.2.1h.1l.1-.1.2-.1h.2l.3-.2.5-.3.3.1.1-.1.1-.1.1-.1.1.1.3-.2h0l.1-.3v-.1l.1-.2.1-.3.2-.2.1-.1v-.3l.4-.3v-.2h.1l.1-.4-.1-.3H17l.2-.1.9.2.3-.2.1.1.1-.1h.2l.3.1.6-.1.2-.1.2-.5.2-.1.2.1v-.3l.1-.2h.5l.3.3.1-.1.1-.3.3-.3.1-.2.3-.5.4-.2v-.2l.5-.8.1-.1.1-.3v-.2l-.3-.7-.1-.3h.1v-.1h.2l.1.3h.4v-.2l-.1-.3v-.1l.1-.2.3-.1.1-.1v-.2l-.1-.3.2-.3v-.1l-.1-.2v-.1l.4-.5v-.2l-.2-.2v-.5l.1-.3.2-.1.3-.2v-.1l-.2-.1-.1-.2v-.3l.2-.3v-.4l.3-.2h.4l.1-.1.3-.6.4-.1.2-.5.2-.2.1-.1.5.1.2-.2.1-.2h.2l.2-.4.4-.1.3.2.3-.2.2-.2.1-.2h.2l.3.2.1.5.1.2.3.1.4-.1.6-.4.6-.4v-.3l.2-.3h.1l.5-.4h.1v1.1l-.2-.2.1-.3v-.5l.3-.5.3-.2.1-.2-.2-.3v-.3l.1-.1.1-.2.1-.1.1-.2v-.1l-.1-.3.1-.2h.1l.4-.7-.1-.5.5-.7-.1-.4.1-.3-.1-.2-.2-.2v-.2l-.2-.3.1-.2.1-.2v-.1l-.1-.4.2-.1.1-.3-.1-.5.1-.2.2-.5.3-.5.2-.4.2-.2v-.3l-.1-.4v.5h.2l.2.2H36l.4-.3.1-.2.1-.3-.3-.6v-.4l-.2-.3v-.3l.3-.3v-1.2l-.2-.4.1-.3-.1-.2.1-.5-.3-.4.1-.2.1-.1h.1l.2-.1.2.1.3-.4.2-.5.1-.5.2-.3.1-.9.3-.4.4-.2.3-.3.2-.4.2-.1.1-.2-.1-.4v-.4l.3-.2.1-.2.2-.2.2-.3.1-.1V13l.1-.1.2-.3V12l-.2-.2h-.1l.1-.2.1-.2L40,11l.1-.5v-.2l-.1-.1-.2-.4.1-.1.4-.1.1-.2v.9l-.2-.1-.1-.3.2-.1.2.1h.1l.2-.3.3-.1V9l.1-.3.1-.3.1-.2V8l-.1-.2.2-.3.1-.2-.1-.1.1-.1h.1l-.1-.4.1-.2h.1v-.2l.1-.1h-.2v.1l.2-.1.1-.1-.1-.1-.1-.1v-.1l.2-.1v-.1h.4l.1-.1-.1-.2.1-.1-.1-.1.1-.1v-.1h-.1V5h-.1l.2-.2.2.1.1-.1-.1-.3.1-.1.2-.1.1-.1h-3l.1-.2.1-.2h.2v-.3l.1-.1-.1-.1h.3v-.2l.2.1.1-.1-.1-.2h.1l.2.1v-.1l-.1-.1v-.1l.1-.1.4-.2v-.1h.4l.1-.3h.3l.1-.2h.3l-.2-.1h.1l.2-.1h.2v-.1l-.2-.1v-.1h.1v.1l.1.1h.1l.1-.1v-.2l.4-.2-.2.3v.3h-.1v.1h-.2v.1l-.1.1L43,2l-.1.1v.2l-.1.1h-.1v.5l-.2.2.1.2.2.1v.2l.1-.1v-.1l.1.1.1.1h-.2v.1l-.3.2h-.1v-.1h-.1l-.3.5.1.4-.1.1-.1-.1-.1.2V5l-.1.2v.1l-.1.2.1.1h-.1l-.1-.1v.2l-.1-.1h-.1v-.1l-.1.1.1.2v.1l-.1.1.2.1v.3l-.2.1h.1l-.1.1.1.1-.2.2.1.2-.1.1-.1.2.1.1v.2h.1v.1h.1V8l.1-.1V8h.1l.1.1V8l.2.1H42v.1h.2v.1l.1-.1v.1h.1v.2l.2.1v-.1l.1.2h.1v.1l.2.1v-.1h.1l.1.1.2-.1.1.1.4.1.2.1.1-.1h.4l.1.2H45l.1.2h.1l.3-.1.2.1.2.2.1-.1.4.3h.2l.3.1H47l.1.1,4,2.4,1.9,1.1,1.3.7.4-.3v-.3l-.1-.3.1-.2-.1-.2.1-.2-.2-.3.1-.2.1-.2v-.2l-.2-.1v-.4l.3-.5.2-.2.3-.4.3-.5h.1v-.2h-.1v-.1l.2-.4.1-.1H56v-.1l.1-.2v-.3l.2-.1v.1l.1-.1.1-.1.1.1.1-.1.2-.1v-.2l.1-.1.3-.2.2-.2h.1l.1-.3.3-.2.2.6h.1l.2.2h.3l-.1.1v.2l-.2.2.1.1h-.1v.1l.1.2H59v.1h.1l.2-.1h.1l.1.1.1.1.1.2.3.2.1.2,1.3-1.9.1-.1h.1l-.1-.1.1-.1.1.1h.2v.2l.1.1-.1.2.1.1h.1v-.1l.1.1h.1v.1l.1.1v.1h.1l.1.1h.1v.2h.1v-.1l.3.3.1.1h.1l.1.2h.1l.1.2-.1.2.1.2V10h.1l.1.2.1-.1.1.1v-.1h.2v.1h.1V10h.1l.1.2.1-.1.1.1v.1H65v.3l.1.3h.2l.1.1h.1v.3h.1v.1l.1.2-.1.1h.2l.1.3-.1.1v.2h-.1v.1h-.1l.1.1v.2l.2.1-.1.1.1.1h-.1v.5l-.2.2h-.1l.1.2.1.1v.1l-.1.3-.1.2.3.3H66l.2-.2v-.3l-.1-.1.1-.3v-.3l.1-.1-.1-.1v-.3l.2-.1.2-.1v-.1l.1-.2v-.4l.2-.2.2.1.1.1h.1v-.2l.1.1v.1l.1.3h-.1V13l-.1.1.1.1v.5h.1v.1l.2.1h-1.6V14l.1.1h-.1v.3h.2l.1.2.1-.1v-.2l.1-.1.1.1.2-.1h.2l.1-.1v.1l.1-.2h.1v-.7h.1l.1-.1h.1l.1.1h.1l-.1-.1.1-.1-.1-.1h.4v.1h.2V13h-.3l.3-.1v-.3h.2v.1l.1-.1h.1v-.1H69l.1-.1v-.1h.1l.1-.2.1.1.1-.1.1.1.2-.1V12l.1-.1H70l.1-.1.2.1h.1l.1-.1v.1l-.1.1v.2l-.1.1v.4l.1.2-.1.1-.1.1v.1l.1.1h.1v.5l-.2.3v.1l.1-.1.1.1v-.1l.1.1.1-.1.3-.1v-.1l.1.1.1-.1.1.1.1-.1h.2v-.3h.1l-.1-.4.1-.1v.1l.2-.1v.1l.1-.1v.3h.3l.1.1-.1.1v.1l.1-.1.1.2.3-.1h.2l.1.3.1.1v.1l.1.1.1-.1h.2l.1-.3.1.1h.2v0H74l.1.1v.2h.1l.1-.1v.1l.1.1h.2l.1-.1.3.1.3-.1.3.2v.1l1.6,1.8.1-.3.1-.2.1-.1.1-.2.1-.1.1-.2h.1l.1-.1v-.3h-.9l-.2-.2v-.2l-.1-.3.1-.1-.1-.2v-.4h.1l.2-.2-.1-.2V13l-.2-.1.1-.1v-.1l-.2-.1v-.1h.1l-.1-.1.1-.1h-.1l.1-.1.1-.2-.3-.1.2-.1.1-.1v-.1H77v-.2l-.1-.1H77v-.1l.1-.1.1-.2.1.1.1-.1.4.2h.3l.1.1-.1.4.1.5.3.1.2-.1h.1l.2.1h.1l.2-.1h.2l-.2.4v.2l.4.1.2-.1.2.1.1.1-.3.1-.1.1.3.3v.2l.1.1h.1l.1-.3.3-.1h0l.1-.1h.1L81,13l.1.1.2.2h.2l.3.1.1-.1h.3v.1h.1l-.1.1h.2l.1-.2h.1v-.2h.2l.1-.1-.1-.3.3-.1v-.1h.2l.1-.1.2.1.2-.1.1.1-.1.1.2.1.1-.1.2.1.2-.1v-.2h-.1l.2-.2h.2l.1-.1v.2H85l.1-.1.1.1v.1l.1-.1v-.2h.2V12l.1.1.2-.1.1-.1H86l.2-.1h.2v-.3h.3v.1h.1v-.1l.2-.2h.2l.1-.2.3-.1v-.1l.2-.2.2-.1.1-.2h.2v.2l.1-.1v.2l.3-.1v-.2h.1v-.1l.1-.2H89v-.2l.2-.1-.1-.1h.1l.9-.5,1.6.1h2.5v-.4l.1-.1.1-.1h.1l.2-1.5.1.1v.3h.1l.1.1.2-.1.1.1v.1l.2.1-.1.2h.1l-1.4.2.1.1-.1.1.1.1V9l-.1.1v.3l-.1.1.1.1-.1.2.2.1.4-.1v-.1H95l.3-.1.1-.1.1.1.5-.2v.1l.3-.1h.4l.1-.1.1-.1v-.1l.3-.1.2.1.4-.2.1-.1V9l-.2.4-.2.1-.2.2h-.2l-.1.1-.3.1-.1.1h-.1l-.1.1h-.3l-.2-.1h-.2l-.1.1-.3.1v.2l-.1.1v.2l-.1.1L95,11l-.1.2-.3.3.1.2.1.2h.1l.1.1v.3l-.2.1.1.2-.2.1.1.1h.1v.3l-.2.1v.2l-.1.3-.1.1v.1h.4v.4l-.2.3.3.2h.1V15l.1.3h.2l.4-.2.3-.3.2.1.5-.1.5-.4.1-.1h.2l.2-.1.5-.2.2.1.1.1v.1l-.1.4L98,15l-.2.1-.2.4-.2.1-.1.1-.3.1-.3.1-.3.1-.3.1-.1.2-.3.2v.2l.2-.1.1.2.2.3v.1l-.3.1v.1H96v.2l-.1.2-.2.2.1.2-.1.2.1.2.1.1.1-.1.1.1.4-.1.3.3.1.1-.4.4-.4.2-.1.2h.1l-.2.2-.2.4-.1.1.1.1.2.1.1.1v.1h-.1l-.4.3v.1l.2.1.3-.1.2.4-.1.1-.6.2-.1.1.3.2-.1.2v.1h.3l.2.2V23l-.4.6V24l-.1.3.5.3.2.1.1.1-.1.3.2.2-.1.1-.3-1.1-.3.2H96l.1.2-.2.3h-.1l-.1-.1-.2.2.2.1H96l.3.2h.2v.4l.2.1.5.1.3-.1.2.1.1.2-.1.3H98v.2h.1l.2-.1.2-.1.2.2-.2.4.3.2H99l.1.2v.1h.1l.1-.1h.2l.1.1-.1.2h.3l.2.1.1.5.1.1.1.2.2.1h.2l.1.1-.1.2v.1l-.1.1-.1.1v.3l-.1.1h-.2l-.2.2h-.1l-.1.1-.3-.1-.2-.3-.1.1v.1h.1V30l.1.1v.2l-.1.1-.1.2.1.1.2.2v.2l-.1.1h.1l-.1.1.1.1.2.2.1.1-.1.1-.2-.1.1.2h-.1l.1.1v.1h0l.1.1-.1.3-.2.1.3.3V33l-.2.2.1.1v.2l-.2.1h-.1v0h-.2v.2l-.1.1.1.1.2.2h.1v.4h-.1v1l-.1.1-.1.1v.1l-.2.1-.2.1v.1h.1l.2.3-.1.3h-.1l-.1.2-.2.3-.2-.1-.1.4-.1.1h-.3l-.1-.2h-.2l-.1.1h-.1l-.2-.2v-1.1H97l.1.3-.3.3-.4-.2h-.1v.1h-.2l-.1-.3h-.2l-.2.1h-.4l-.1-.1v-.2h-.2l-.1-.1h-.1l.1-.2v-.1l.1-.1.1-.3h-.2l-.1-.1V35h-.2v-.2l-.3-.1h-.1l-.1-.1h.1l-.4-.4-.4-.2-.2-.3h-.3l-.1-.3v-.1l-.3.1-.2-.1-.1.2.1.2-.1.1-.1.1-.3.1h-.1v.3l-.3.2v.2l.1.2v.2l.3.1h.1l.2.3-.2.5-.1.2-.1.5.1.2v.2l.1.1.2.1v.2l-.1.1-.1.3.2.1v.1l.1.1.1.4-.1.1-.2-.1h-.1l-.2.2h-.1l-.1.1-.2.2L91,39l-.2.1h-.1l-.3.1-.2-.1L90,39l-.4-.3-.3-.1-.4-.2-.4-.1-.4-.2-.5-.1-.5-.1-.1.2-.7.5-.1.1v.2l.2.2.2.1v.2l.2.1-.1.1-.1.2-.2.4-.1.3-.3.4.1.3-.1.1.2.4.2-.2.1-.1h.2V42H87l.5.5-.1.4h-.2l-.2.2.3.1v.1l-.2.2-.3.1-.2.1-.2.2-.3.4v.5l-.2.5V46l.4.3.3.1.2.2h.1v.1l.4.1v.1l-.1.2.1.2-.1.5.2.4.3.3v.3l.2.5-.2.4.1.1-.1.1.3.5v.2l-.1.1v.1h-.2l-1.8.5-1.3.3-.4.3-.1.1-.1-.1-.1.1-.1-.1-.2-.2-.2.1.1-.2-.1-.1h0l-.1.1h-.1v.1h-.1v.1l-.1-.1-.1.2h0V52h0l.1.1h0l-.1.1h-.1l-.1-.1v.2H83v.1h-.1v.1l-.1.1-.1.1v.1h-.3l-.2.1-.1-.1h-.3v0l-.1-.1v.1h-.2V53l-.2.1h-.1V53h-.1l-.1-.2-.1.1v-.1h-.1v-.1h-.2v-.1h-.1v-1.3h-.1v-.6h.1v-.2l-.1-.1h.2v-.1h-.1v-.1l.1-.1h-.2l.1-.1-.1-.1v-.2h0l.1-.2v-.1h-.1l.1-.1h0V49l.1-.1h.1v-.2h.1v-.1l.1-.1.1-.3h.1V48l.1-.1v-.2h.1v-.1l-.1-.1v-.2l.1-.2v-.2l-.1-.1h-.1l-.1-.1.1-.1v-.4L81,46l.2-.5.1-.1-.1-.1h-.1l-.3-.1h-.4l-.1-.1V45h-.1l-.2-.3h.1v-.6H69.37v1.7h-.2l-.2.3-.1.3-.1.4v.3l.2.1.2-.1.1.2.1.4-.1.2h-.1l-.3.4-.1.2-.4.1-.2.3v.3l.1.5.1.1-.1.1v.3h.1v.2h-.1v.1l.1.1.1-.1.2.1v.3l-.2.2.1.1-.1.3-.1.2V52l-.1.3v.1h6.2l1.8-.1h5v.2l-.1.1.1.1v.1h-.1v.1l-.1.1v-.1H81V53l-.1-.1v.3l-.1.1.1.1h.2v.1l-.2.1.1.1v.1h.1l-.1.1.1.1-.1.1h.1l.1.1v.1l-.1.1h.1l.1.2h-.1l.1.1.1.1h-.1l.1.3-.1.3h-.1v.1l-.2.1-.1.2.1.1-.1.1v.2l-.1.1-.1.3h-.1l-.1.2-.3.5-.2.1-.1.1-.1.1.1.4-.1.3-.2.1-.1.2-.1.1v.6l.1.1.1.2v.2h.2l-.1.1.1.1v-.1l.1.1.1-.1.1.1-.1.1h.1v-.8h.3v.1l.1.1v-.1h.2v.3h.1v-.1l.2-.1v.1h.2v.1h-.1l.1.1-.1.1.1.1.2-.2v-.1l.1.1-.1.2.1-.1.1.2v.1l.1-.1h.1v.2l.1-.1v.2H82v.2l.1.1.1-.1.1-.1.1.2h0l.1.1-.2.1.1.1.1-.1v.3l-.1.1h.2l.2.1v.3h-.1l.1.1-.1.1-.1.2.1.1h0v.2h.2v.5l.2.1-.1.1v.1l.3-.1-.2.2.1.3v.1H83l.1.2h.1V64h.1l-.1.1h-.1l.1.1h.1l-.1.2.2-.1h.1l.1.2h.1l.1.1-.3.1.1.1v.1l.1-.1.1.1-.1.1.2.1-.1.1.1.1.1-.1v.1l.2.1.1.1-.1.1-.3.1h.2v.1H84v.1l.2-.1v.1L84,66l.1.1h-.2l.1.1h-.1v.1l-.1-.1v0l-.1.1v.1h-.1l.1.1-.2-.1v-.1h-.1v.3h.1l-.1.1v-.1l-.1.1h-.1v.1h.1l-.1.1-.1-.1-.1.1.1.1-.3-.1V67h-.1v.1h0l-.1-.1-.1.1v.2h-.1l-.1-.1v.1l-.1-.1v.3l-.1-.2-.1.2.1.1H82v.1l-.1.1.1.2-.2-.1-.2.1.1.1-.1.1-.1-.2-.2.1v-.8l-.1.1.1.1-.1.1h-.3l.1.1-.1.1.2.1h-.3l.1.1.1.1v.1h-.1v-.1l-.1.1v.2h-.3l-.1.1.1.2h-.1l.1.1-.1.1-.1-.1h-.2V69h-.2l.1.1v.1l-.3.1v.1h.1l.1.1v.1l-.1.1.1.2V70l-.2-.1-.1.1h-.1v.1h-.1l.2.2-.1.1v-.1h-.2l.1.1-.1.1-.1-.2-.3.1v-.1h-.1v-.1l-.2-.1v.1h.1l-.3.2.1.1v.3l-.1.1-.1-.1V71h-.1l.1.1v.1h.1v.1h-.2l.1.1v.1h.1v.3h-.2l-.1.2h.1l.3.1.1.2.1.1V73h.1l.1.1.2-.3.1.4h.2l.1-.1L80,73l.2-.1h.2l.2.1.3.1.3-.1.2.1.1.2.1.2.3.3.2.3.1.2v.5H82v.3h.1v.2l-.2.2h-.2v.1h-.1l-.1.1v.2l-.1.2-.2.2-.1.1v.1l.1.1v.1l-.1.1v.1l-.2.1v.1l.1.1-.1.1h-.1l.2.1h-.1l-.1.1-.1.1-.1.1.1.1.1.2v.2l.1.1-.1.2.1.1h-.1l.1.1H81l.1.1-.1.1h.1L81,79l.1.1H81l.1.1v.1h.1v.2l.3.2v.2h-.1v.3h.1v.1l.2.1.1.1-.1.1.1.1h0l.1.2v.2l-.1.1h-.2l.1.2-.2-.1h-.1l-.3.2-.1.1-.2-.1v.2h.1v.1l-.2.1V82h-.2l-.1.1-.1-.1v.2l-.2.1h.2v.1h-.2l-.1.1v-.1h-.2l-.1.2.1.1v.1h-.1l-.1-.1h-.1l-.2.2h-.1V83l-.2-.1V83l-.1.1.1.1h.1l-.1.1-.1-.1-.2.1v.2l-.2.1v.2l-.1-.1v-.5h-.1l-.2.2h0l-.1.2-.1.1h-.2l.2.1h-.2l-.2.2v.3l-.1-.1v-.1l-.2.1.1.2-.2.1-.1.1.1.1.1.2.2.1-.2.2v.1h-.1l-.2.1v-.1l-.1-.1h-.1l-.2.5h-.2v.1l-.2.2h0v-.2h-.4l.1.2h-.1l-.1.1-.1.2.1.1v.1h-.2l-.1.1-.2.1-.1-.1h-.1l-.1-.1.1-.1h-.1l-.1-.1-.1.1-.2.1v.2l-.1.2.1.1v.1h-.1l-.2-.1-.1-.1-.1.1v.1l-.1.1.1.1v.1l-.1.1h-.1l-.1-.1-.1.1-.4-.2-.1.1-.1.3h.2l-.2.1-.1.1-.1-.1v-.3h-.2v-2.3l-.3.2h-.1v-.2l-.2-.1-.2-.1-.1-.2-.1-.1h-.1l-.1.2-.1.1H71l-.3-.1-.2-.1-.3-.1v-.2l-.2-.2v-.2h-.2l-.3-.1h-.4l-.1-.1v-.2h-.4l-.1-.2h-.2l-.2.2-.4.3v.1l.2.1v.1h0l-.1-.2h-.2l-.1-.1-.2.1h-.6v-.2h-.2l-.2.1-.2-.1-.5.3-.1-.1.1-.2-.1-.1h-.1l-.3.2-.2-.2h-.3l-.1-.1v-.2l-.1-.1h-.3l-.1.1h-.1l-.5-.1-.1.1v.2h-.2l-.2.1-.2-.1-.3.1-.3-.1-.3.2-.2-.1-.2.1-.2.3H61l-.1-.5-.1-.1-.5-.1-.1-.2h-.1l-.1-.2h-.3l-.3.3-.2.1-.1.1h0v.3H59l-.1.2h-.1l-.3-.1-.3.2v.2l-.1.2-.4.2v-.1h-.2l-.1-.1h-.2v-.1l.1-.1v-.1h-.2l-.4.3-.1.1-.4.1-.3-.1-.1.1v.1l.3.2v.2l-.1.1-.2.1-.2.2-.2.4-.1.3-.3.1h.1l-.1.1-.1.1-.1.3-.1.1-.3-.1h-.1l-.2.5-.3.3-.1.3-.1.1-.3.1-.2-.1H53l-.2-.5-.6-.6-.1-.3v-.6l-.1-.1h.1l-.3-.1-.2.1h-.1l-.1.1.1.4-.1.1v.1h-.1l-.1.1-.2-.1-.7.1L50,87v.1l-.1.1.3.3-.1.2h0l-.3-.2h-.3l-.2.1-.3.2-.2.1h-.1l-.2-.1-.2.1-.1.2-.1.2h0l-.3-.1h-.3l-.2-.2h-.2l-.1-.1-.1-.1h-.1l-.3.2h-.4l-.5-.1-.1-.2h-.7l-.1.1-.2.5-.2.2-.3.3-1.1-.2-.5.3h-.3l-.5-.1-.3.1-.2.1-.1.1-.2.1-.2.2-.5.6-.3.7-.1.1h.4l-.3.1-.1.1v.1l-.3.7-.3.4h0l-.4.2-.2.1v.2l.2.5-.1.3.1.1V94l-.4.5-.2.4h0V95l-.4.2-.2.2h-1.2l-.1.1.1.3-.1.2-.7.2-.1.2v.3l-.1.2-.3.4h-.3l-.4.4-.2.3v.1l-.1.2v.3l-.2.3-.1.4-.2.2v.1l-.1.2.1.1.5.4.2.3v.1l-.2.2h.1l-.8-.3-.5-.2v-1.1l-.1-.1-.1-.1-.2-.2h-.3v-.3h-.3l.1-.1-.1-.1-.1.1-.3-.1.2-.1h0l-.1-.1-.1-.3h-.1v-.2l-.2-.2-.1-.1-.1.1v-.1l-.3-.2v-.1h-.3l-.1-.1H30l-.2-.2h-.4l-.2-.1-.1-.2h-.2v-.1l-.1.1-.1-.1h-.2v.1h-.2l-.1.1-.1-.1-.3-.1v-.1l-.1.1.4-.1-.1-.1h-.1v-.3h-.4l-.2-.1-.3.1v-.1l-.1-.1v-.2h-.3l-.1-.1h-.1v-.1h-.1l.1-.1h-.1l-.1-.1h-.1L26,95h-.1l-.1.1-.2-.2-.1.1h-.2l-.1-.1v-.1h-.1l-.3-.1h-.3l-.1-.1h-.3v-.1h0l-.1.1-.2.1v-.1h-.2l-.2-.1h-.1l-.2.1-.5-.3-.1.1-.2-.2h.1l-.1-.1-.1.1h-.1v.1H22v-.1h-.2l-.2-.2-.1.1-.2-.1h.1l-.2-.1h.1l-.4-.2h-.3v-.1l.1-.1h-.2v.1h-.1l-.2-.2v-.1h-.1l-.1-.2h-.1V93l-.1-.2h-.2l-.1-.2h-.1v-.1h-.2l-.1-.1v.1h0l-.1-.1-.1-.1.1.2h-.2l-.1-.1h-.2v-.1l-.1.1-.1.1-.1.1v-.1l.1-.1-.1-.1h-.1l-.2-.1v.1h0l-.1-.1h-.1l-.1-.1-.1.1h-.2l-.1-.1h-.1V92h0l-.2-.2H17l-.1-.1v-.2l-.1-.1v.1l-.2-.1h-.1l-.1-.1h-.1l-.1-.1-.1-.1H16v-.2l-.1-.1v-.1h.2v-.1H16l-.2.1v-.1l-.1.1v-.1l-.2-.1h-.4l-.2-.2v.1l-.2-.1h-.3v.2h-.2l-.2-.1-.2-.1v-.1h-.1v.1h-.1v-.2h-.3l.1-.1h-.2v-.1l-.3-.3v-.1l-.2-.1v-.1h0l-.2-.1v-.1l-.3-.5h-.4l-.4-.2-.3-.1v-.1l-.2-.1h.2v.1l-.2.1-.3.2-.1.1h-.4l-.2.1-.1-.1-.5-.1h-.1l-.5.2-.2-.1h-.3l-.2-.1h-.3l-.4-.2-.2.1-.2-.1h-.1v-.1l-.4-.2-.5-.1v-.3l-.1-.1h-.3l.1-.2-.1-.2-.2-.2v-.2l-.1-.2v-.1l.3-.4.4-.1.1-.3.1-.2.3-.2.1-.4v-.1l.1-.1H7l.5-.1.2-.4.3-.3.1-.3-.1-.1v-.1l-.3-.2-.2-.1-.3-.1h-.7l-.6-.2h-.4l-.5.1-.5.3-.1.4h-.1l-.2-.1h-.4l-.5-.5v-.5l-.1-.4v-.4l-.3-.8v-.3l-.1-.5-.1-.3.1-.2.2-.1.1-.1h.5l.1-.1.1-.1v-.8l-.1-.2-.1-.1-.2-.4-.5-.3.1-.3-.1-.1v-.1l-.1-.1-.1-.1.1-.5-.1-.2v-.1l-.2-.2-.1-.2.1-.1-.2-.2.1-.1h-.1l-.1-.2H2l-.1-.1-.1-.1v-.1l-.2-.1-.1-.1v.1l-.3-.2.1-.1-.1-.1v-.1h-.1l.1-.1v-.1l-.1-.1.1-.1h-.1v.8l-.1-.2v-.2l.1-.1H1l.1-.1v-.1l.1-.1v-.2h0v-.2l-.1-.1.1-.1-.1-.1v-.2h0v-.1l.1-.2v-.1Z"/></g></g></svg>