<?xml version="1.0" encoding="UTF-8" standalone="no"?>
<!-- Created with Inkscape (http://www.inkscape.org/) -->

<svg
   width="50"
   height="50"
   viewBox="0 0 13.229166 13.229167"
   version="1.1"
   id="svg915"
   inkscape:version="1.1.2 (b8e25be833, 2022-02-05)"
   sodipodi:docname="led_branco.svg"
   xmlns:inkscape="http://www.inkscape.org/namespaces/inkscape"
   xmlns:sodipodi="http://sodipodi.sourceforge.net/DTD/sodipodi-0.dtd"
   xmlns="http://www.w3.org/2000/svg"
   xmlns:svg="http://www.w3.org/2000/svg">
  <sodipodi:namedview
     id="namedview917"
     pagecolor="#ffffff"
     bordercolor="#666666"
     borderopacity="1.0"
     inkscape:pageshadow="2"
     inkscape:pageopacity="0.0"
     inkscape:pagecheckerboard="0"
     inkscape:document-units="px"
     showgrid="false"
     units="px"
     inkscape:zoom="16.16"
     inkscape:cx="24.597772"
     inkscape:cy="25.030941"
     inkscape:window-width="1500"
     inkscape:window-height="930"
     inkscape:window-x="-6"
     inkscape:window-y="-6"
     inkscape:window-maximized="1"
     inkscape:current-layer="layer1" />
  <defs
     id="defs912" />
  <g
     inkscape:label="Camada 1"
     inkscape:groupmode="layer"
     id="layer1">
    <path
       style="fill:#000000;fill-opacity:1;stroke-width:0.0331987"
       d="m 7.4191234,11.393014 c 0,-1.7263374 0,-1.7263374 -0.7967705,-1.7263374 -0.7967705,0 -0.7967705,0 -0.7967705,1.1951564 0,1.195156 0,1.195156 -0.2655906,1.195156 -0.2655906,0 -0.2655906,0 -0.2655906,-1.193204 0,-1.1932052 0,-1.1932052 -0.9046661,-1.2034567 C 3.5366671,9.6507172 3.4774949,9.6459865 3.3522743,9.5784215 3.1784314,9.4846193 3.0565522,9.3528897 2.9731738,9.1686957 2.9168051,9.0441753 2.9054839,8.9502073 2.9051469,8.6043165 2.9047824,8.2364972 2.9136347,8.1704661 2.9832218,8.0233381 3.0263845,7.9320411 3.1046716,7.8171416 3.1571908,7.7680048 3.2678436,7.6644817 3.5184159,7.5437433 3.6247937,7.542685 3.6981129,7.5419573 3.6981129,7.5419573 3.7087351,5.0437489 3.7190951,2.5932207 3.7207178,2.5407763 3.7915781,2.2958481 4.1550674,1.0391675 5.1738588,0.20155666 6.4424636,0.11639353 7.8212932,0.02383082 9.0541158,0.91627891 9.4531501,2.2958481 c 0.070848,0.2449282 0.072421,0.2973726 0.082843,2.7479008 0.01061,2.4982072 0.01061,2.4982072 0.083941,2.4989361 0.1068584,0.00107 0.3574805,0.1221276 0.4664449,0.2253198 0.205713,0.1948154 0.237651,0.3072061 0.237651,0.8363117 0,0.5294633 -0.03273,0.6443975 -0.237651,0.8344789 -0.2223021,0.2062063 -0.2453963,0.2103603 -1.231395,0.2215329 -0.9046661,0.010235 -0.9046661,0.010235 -0.9046661,1.7346367 0,1.724385 0,1.724385 -0.2655906,1.724385 -0.2655894,0 -0.2655894,0 -0.2655894,-1.726336 z M 9.7279462,9.0540088 c 0.076727,-0.076722 0.081482,-0.1030239 0.081482,-0.4496923 0,-0.5945815 0.3804078,-0.5311802 -3.1870807,-0.5311802 -3.5674895,0 -3.187082,-0.063401 -3.187082,0.5311802 0,0.5945816 -0.3804075,0.5311803 3.187082,0.5311803 3.0241059,0 3.0241059,0 3.1055933,-0.081489 z M 5.2944012,6.4282884 c 0,-1.1136678 0,-1.1136678 0.081495,-1.1951555 0.076277,-0.076279 0.1040125,-0.081489 0.4337667,-0.081489 0.193753,0 0.3811264,0.015439 0.4163843,0.034309 0.035262,0.01887 0.094988,0.094834 0.1327248,0.1688118 C 6.427386,5.4892675 6.427386,5.4892675 6.6058842,5.3204557 6.784378,5.151644 6.784378,5.151644 7.2858557,5.151644 c 0.7252587,0 0.6644539,-0.1168289 0.6644539,1.2766436 0,1.1136677 0,1.1136677 0.5323807,1.1136677 0.5323807,0 0.5323807,0 0.5226722,-2.4816079 C 8.9956265,2.57874 8.9956265,2.57874 8.9178886,2.3463485 8.7740611,1.9165488 8.6222963,1.6716831 8.2999439,1.3493317 7.9701559,1.0195424 7.7181232,0.86578626 7.2863274,0.73095877 6.9288607,0.61933981 6.3158451,0.61933981 5.958377,0.73095877 5.5265812,0.86578626 5.2745498,1.0195424 4.9447606,1.3493317 4.6224094,1.6716831 4.4706446,1.9165488 4.3268221,2.346349 c -0.077763,0.2323915 -0.077763,0.2323915 -0.087474,2.7139992 -0.00974,2.4816079 -0.00974,2.4816079 0.522671,2.4816079 0.5323806,0 0.5323806,0 0.5323821,-1.1136677 z M 4.5114033,2.8028321 C 4.5596088,2.3319696 4.775918,1.888299 5.1298224,1.5343943 5.483728,1.1804894 5.927398,0.96418056 6.3982612,0.9159751 6.6223529,0.8930332 6.6223529,0.8930332 6.6223529,1.1558605 c 0,0.2628267 0,0.2628267 -0.2297361,0.2990012 -0.6859079,0.1080041 -1.2339423,0.6540057 -1.341396,1.3364199 -0.037109,0.2356423 -0.037109,0.2356423 -0.2999311,0.2356423 -0.262827,0 -0.262827,0 -0.2398864,-0.2240918 z m 2.9077201,3.8095584 c 0,-0.9295654 0,-0.9295654 -0.2052265,-0.9295654 -0.2052251,0 -0.2052251,0 -0.4773251,0.2655901 C 6.3515286,6.3242461 6.2429702,6.31426 6.0252618,5.8829821 5.969692,5.7728959 5.9020271,5.6828245 5.8749025,5.6828245 c -0.042451,0 -0.049316,0.1294207 -0.049316,0.9295654 0,0.9295656 0,0.9295656 0.7967705,0.9295656 0.7967705,0 0.7967705,0 0.7967705,-0.9295656 z"
       id="path2555"
       sodipodi:nodetypes="sssssssscsssssssccssssssssssssssssssssssccssssssssssssssssssssssss" />
    <path
       style="opacity:1;fill:#ffffff;fill-opacity:1;stroke:#000000;stroke-width:0.0123762;stroke-dasharray:0.0123762, 0.0247525;stop-color:#000000"
       d="M 17.017327,28.394037 C 16.547026,28.222039 16.31283,27.746781 16.168154,26.670792 16.060252,25.868305 16.059563,10.937797 16.167382,9.9585854 c 0.109203,-0.9917797 0.632324,-2.3530111 1.268963,-3.3020182 0.580146,-0.8647937 1.550429,-1.868553 2.522088,-2.6091023 0.798325,-0.6084429 2.172605,-1.1989925 3.32492,-1.4287693 0.759815,-0.1515106 2.73536,-0.1515106 3.495175,0 1.189711,0.2372337 2.512667,0.8159155 3.411014,1.4920312 0.653115,0.4915484 1.804425,1.6641648 2.266559,2.3085054 0.747205,1.0418031 1.313181,2.4543142 1.435671,3.5830108 0.10874,1.002003 0.110498,15.799372 0.002,16.606668 -0.155928,1.159907 -0.356083,1.578583 -0.843693,1.764803 -0.22771,0.08696 -0.438419,0.100825 -1.223218,0.08047 -1.089436,-0.02826 -1.272195,-0.0881 -1.473369,-0.482433 -0.206936,-0.405628 -0.245681,-0.974102 -0.248936,-3.652444 -0.0047,-3.874824 -0.07668,-4.477848 -0.566308,-4.744988 -0.185588,-0.101255 -0.379165,-0.112685 -1.908272,-0.112685 -1.280676,0 -1.760951,0.02092 -1.941071,0.08455 -0.131637,0.04651 -0.470434,0.290163 -0.752882,0.541461 -0.282448,0.251298 -0.557167,0.456905 -0.610485,0.456905 -0.05332,0 -0.164896,-0.132271 -0.247952,-0.293935 -0.08306,-0.161665 -0.229719,-0.386006 -0.325919,-0.498536 -0.168287,-0.196855 -0.199505,-0.207055 -0.824661,-0.269438 -0.357364,-0.03566 -0.998694,-0.05414 -1.425178,-0.04107 -0.846235,0.02594 -1.066075,0.09886 -1.318342,0.437307 -0.167268,0.224409 -0.216091,1.217817 -0.222212,4.521393 -0.0047,2.555477 -0.04932,3.170951 -0.259625,3.584217 -0.197535,0.388169 -0.3789,0.443673 -1.508554,0.461667 -0.605182,0.0096 -1.062271,-0.01062 -1.175742,-0.05212 z m 1.894962,-17.131661 c 0.06243,-0.08509 0.167885,-0.433168 0.23434,-0.773515 0.271068,-1.3882583 0.820411,-2.4045721 1.808372,-3.3455811 0.896208,-0.8536169 1.92897,-1.372831 3.205205,-1.6113954 0.538025,-0.100572 0.741325,-0.1738344 0.823376,-0.2967177 0.07329,-0.1097581 0.05509,-1.5778731 -0.02133,-1.7206622 -0.06441,-0.1203592 -0.1039,-0.1258521 -0.634282,-0.088236 -0.638701,0.045298 -1.3365,0.1988942 -2.0198,0.4445885 -2.273624,0.8175276 -4.242124,2.8808881 -4.975303,5.2150577 -0.175864,0.5598861 -0.345834,1.4970652 -0.34623,1.9090462 -4.15e-4,0.427686 0.07179,0.459252 1.004941,0.439342 0.780262,-0.01665 0.810988,-0.02239 0.920713,-0.171927 z"
       id="path896"
       transform="scale(0.26458333)" />
  </g>
</svg>
