<?xml version="1.0" encoding="UTF-8"?><svg id="a" xmlns="http://www.w3.org/2000/svg" width="900" height="900" viewBox="0 0 900 900"><defs><style>.ad,.ae{fill:none;}.ad,.ae,.af,.ag,.ah,.ai,.aj,.ak{stroke:#000;}.ad,.ae,.af,.aj,.ak,.al{stroke-linecap:round;}.ad,.ae,.aj,.ak,.al{stroke-miterlimit:7.32;}.ad,.aj,.ak,.al{stroke-width:5.12px;}.ae,.ag{stroke-width:15px;}.af{stroke-linejoin:round;stroke-width:19.36px;}.af,.am,.ak{fill:#fff;}.ag,.ah,.ai{stroke-miterlimit:14.63;}.an{fill:#519dd6;}.an,.ao,.am,.ap,.aq{stroke-width:0px;}.ah{stroke-width:15px;}.ai{stroke-width:10px;}.al{fill:#4ebe45;}.al,.ar{stroke:#fff;}.ap{fill:#d62408;}.ar{stroke-linejoin:bevel;stroke-width:50px;}.aq{fill:#ffd600;}</style></defs><path id="b" class="af" d="m191.04,450.01l346.31,346.31,346.31-346.31"/><path id="c" class="af" d="m883.66,450.01L537.35,103.7,191.04,450.01"/><path id="d" class="af" d="m17.88,276.86L191.04,103.7h346.31s-173.15,173.15-173.15,173.15H17.88Z"/><path id="e" class="af" d="m190.65,794.35h346.31l-173.15-173.15-.14,1.31-173.02,171.85Z"/><path id="f" class="af" d="m17.52,621.19l173.15,173.15,173.02-171.85.14-1.31-173.15-173.15L17.52,621.19Z"/><path id="g" class="af" d="m17.88,276.86v346.31l346.31-346.31H17.88Z"/><path id="h" class="aj" d="m90.75,449.05l49.9-49.9h99.8v99.8h-99.8l-49.9-49.9Z"/><g id="i"><path class="aq" d="m525.77,499.82c-27.21,0-49.34-22.13-49.34-49.34s22.13-49.34,49.34-49.34,49.34,22.13,49.34,49.34-22.13,49.34-49.34,49.34Z"/><path class="am" d="m525.77,408.64c23.11,0,41.84,18.73,41.84,41.84s-18.73,41.84-41.84,41.84-41.84-18.73-41.84-41.84,18.73-41.84,41.84-41.84m0-15c-31.34,0-56.84,25.5-56.84,56.84s25.5,56.84,56.84,56.84,56.84-25.5,56.84-56.84-25.5-56.84-56.84-56.84h0Z"/></g><g id="j"><g id="k"><circle class="an" cx="367.14" cy="624.04" r="48.34"/><path class="am" d="m367.14,582.2c23.11,0,41.84,18.73,41.84,41.84s-18.73,41.84-41.84,41.84-41.84-18.73-41.84-41.84,18.73-41.84,41.84-41.84m0-13c-30.24,0-54.84,24.6-54.84,54.84s24.6,54.84,54.84,54.84,54.84-24.6,54.84-54.84-24.6-54.84-54.84-54.84h0Z"/></g></g><g id="l"><g id="m"><circle class="ap" cx="365.75" cy="276.16" r="48.34"/><path class="am" d="m365.75,234.32c23.11,0,41.84,18.73,41.84,41.84s-18.73,41.84-41.84,41.84-41.84-18.73-41.84-41.84,18.73-41.84,41.84-41.84m0-13c-30.24,0-54.84,24.6-54.84,54.84s24.6,54.84,54.84,54.84,54.84-24.6,54.84-54.84-24.6-54.84-54.84-54.84h0Z"/></g></g><path id="n" class="aj" d="m395.73,558.34c-35.98-15.69-77.88.76-93.57,36.74-2.5,5.77-4.22,11.85-5.12,18.08l12.77,5.57c.52-6.31,2.08-12.49,4.61-18.3,12.74-29.22,46.76-42.57,75.97-29.83,0,0,0,0,0,0,29.22,12.74,42.57,46.76,29.83,75.97,0,0,0,0,0,0-6.74,15.4-19.86,27.1-35.93,32.04l-.16.38-3.65-9.25-9.44,21.71,21.71,9.43-3.82-9.7c19.49-6.21,35.35-20.52,43.54-39.26,15.69-35.98-.76-77.88-36.74-93.57h0Z"/><g id="o"><ellipse id="p" class="ak" cx="165.41" cy="277.84" rx="45.27" ry="43.77"/><ellipse id="q" class="ad" cx="165.41" cy="277.84" rx="49.9" ry="48.25"/></g><g id="r"><g id="s"><ellipse class="ao" cx="358.14" cy="449.49" rx="52.77" ry="51.27"/><path class="am" d="m358.14,405.72c25,0,45.27,19.6,45.27,43.77s-20.27,43.77-45.27,43.77-45.27-19.6-45.27-43.77,20.27-43.77,45.27-43.77m0-15c-33.23,0-60.27,26.37-60.27,58.77s27.04,58.77,60.27,58.77,60.27-26.37,60.27-58.77-27.04-58.77-60.27-58.77h0Z"/></g><g id="t"><path class="ao" d="m357.37,401.75c27.56,0,49.9,21.6,49.9,48.25s-22.34,48.25-49.9,48.25-49.9-21.6-49.9-48.25,22.34-48.25,49.9-48.25m0-15c-35.79,0-64.9,28.37-64.9,63.25s29.12,63.25,64.9,63.25,64.9-28.37,64.9-63.25-29.12-63.25-64.9-63.25h0Z"/></g></g><path id="u" class="aj" d="m392.83,342.28c-36.32,14.91-77.84-2.45-92.75-38.76-2.37-5.83-3.96-11.94-4.73-18.18l12.88-5.29c.38,6.32,1.81,12.54,4.21,18.4,12.1,29.49,45.82,43.58,75.3,31.47h0c29.49-12.1,43.58-45.82,31.47-75.3-6.4-15.54-19.26-27.53-35.22-32.81l-.16-.38-3.84,9.17-8.96-21.91,21.91-8.96-4.03,9.62c19.35,6.63,34.9,21.28,42.68,40.2,14.91,36.32-2.45,77.84-38.76,92.75h0Z"/><path id="v" class="ai" d="m749.14,419.05c-6.39-16.22-17.65-32.86-33.35-49.28-2.14-2.23-2.81-3.22-3.46-5.03-.74-2.07-.74-2.38-.11-3.74.38-.82,1.32-2.02,2.09-2.67,1.48-1.25,1.84-2.49.9-3.15-1.75-1.24-9.61.79-12.61,3.25-2.38,1.95-4.37,5.91-3.88,7.73.05.19.61.21,1.24.04,1.43-.38,5.58-.43,7.17-.09,2.42.53,6.99,3.54,9.37,6.17,8.74,9.67,17.16,23.15,23.24,37.2,3.2,7.39,7.93,24.63,8.79,32.02,1.18,10.15.89,19.44-.86,27.59-2.67,12.43-6.76,21.76-13.76,31.39-6.84,9.41-18.83,20.25-29.03,26.23-1.4.82-2.8,1.73-3.1,2.02-.31.29-1.83.86-3.39,1.28-4.09,1.09-10.53.44-16.1-1.64-.68-.25-1.59-.37-2.01-.25-1.55.42-1.7.28,12.11,11.43,6.14,4.96,7.59,5.9,8.66,5.61.62-.17.59-.51-.27-3.64-.82-2.96-.89-3.68-.49-5.01.51-1.69,1.94-3.96,2.63-4.16.24-.07,1.01-.63,1.72-1.24.71-.61,1.42-1.15,1.57-1.2.68-.21,6.71-4.85,10.1-7.77,13.49-11.6,23-23.29,29.64-36.45,2.75-5.44,4.14-9.08,6.02-15.65,4.68-16.4,3.67-34.44-2.85-50.99h0Zm-88.9-10.68c-1.34-1.47-2.7-2.19-5.77-3.05-10.56-2.98-26.71.3-28.73,5.83-1.56,4.29,6.45,7.96,16.47,7.56,8.9-.36,16.36-2.99,18.37-6.46,1-1.73.93-2.48-.35-3.88h0Zm-16.88,59.42c-1.38-.23-6.31,2.16-8.65,4.21-2.06,1.79-4,4.97-4.77,7.8-1.35,4.94-.76,12.65,1.21,15.89l.93,1.53-.33-2.49c-.59-4.39-.61-6.37-.12-9.08.89-4.88,4.18-10.9,6.72-12.28.92-.5.96-.48.75.43-.12.53-.77,2.13-1.43,3.56-1.36,2.94-2.32,7.61-2.22,10.77.13,4.17,2.54,8.9,6.12,12.01.54.47,1.03.77,1.08.67.06-.1-.45-1.27-1.13-2.6-4.17-8.21-3.69-16.51,1.54-26.16,1.59-2.94,1.67-4.05.3-4.28h0Z"/><ellipse id="w" class="ae" cx="526.06" cy="450" rx="49.9" ry="48.25"/><ellipse id="x" class="ae" cx="526.06" cy="451" rx="49.9" ry="48.25"/><ellipse id="y" class="ae" cx="526.06" cy="450" rx="49.9" ry="48.25"/><path id="z" class="ag" d="m191.04,450.01h116.43"/><path id="aa" class="ah" d="m407.28,450h68.87"/><circle id="ab" class="al" cx="190.55" cy="449.05" r="41.84"/><circle id="ac" class="ar" cx="181.36" cy="630.01" r="44.98"/></svg>