<svg xmlns="http://www.w3.org/2000/svg" viewBox="0 0 95.82 133.42"><defs><style>.cls-1{fill:#f90;stroke:#fff;stroke-miterlimit:10;stroke-width:0.8px;fill-rule:evenodd;}</style></defs><g id="Camada_2" data-name="Camada 2"><g id="svg2"><path id="path84" class="cls-1" d="M1.77,62.19,4.37,60l1.3-.9.1-.2.3-.2-.1-.2.1-.1h.1l.1.1.3-.2,2.6-2,.2-.2,1.6-1.3.3-.2.5-.4,1.1-.9,1.7-1.4.2-.3.2-.2.3.1h.2l.1.2.1-.1.2.1h.4l.3.1.4-.3.2-.3.2-.1.2-.1.1-.1.4-.5.2-.5.5-.5.2-.3.2-.3v-.2l.2-.2v-.2l.2-.2h-.1l.1-.2v-.2l.1-.1-.1-.1.4-.2.1-.2h.2v-.2l.2.1.1-.2h.1l.2-.3h.2L21,46h.1v.5l.1-.1v-.2l.1-.1-.1-.1.2-.1.1.1.1-.1v-.1l-.1-.2.1-.1-.1-.1v-.2l-.1-.2.1-.1v-.1l.2-.2v-.1h.1v-.2l.1-.1h.2l-.1.1h.1v-.1h.2v-.1h.1V44l.1-.1h.2v-.1l.3-.2.1-.2h.3l.1-.2h.1l.1-.2.1.1v-.2h.1v-.3H24l.1-.1v-.3l.2-.1.2-.2.1.1v-.4H25l.1-.3.2-.1.1-.2-.1-.2.2-.1v-.3l.2-.1v-.5l.1-.2v-.2l-.1-.1.2-.1v.3l-.1-.4.3-.2-.1-.1-.1.1v-.2l-.1-.1h.1l.1-.1-.1-.1h0l.1-.1-.1-.1.1-.1.1-.2h.1l-.1-.2.1-.1-.1-.1h.2v-.2l.2-.1v-.1h.2l.1-.1.2-.1-.1-.1h.2l-.2-.3h.2v.1h.1l-.1-.4.3.1v-.2h-.1V36h.1l-.1-.1h.2l-.1-.2h-.1v-.2h.1v.1l.1-.1-.1-.2v-.2h.1v-.3l.1.1.1-.1.1-.1h0l.1-.1.1.1v-.1h.1v-.1H28l.2-.2.1-.1.1.1v.1l.2-.1v-.1l-.1-.1h.1l.1.2h.1V34l.2.1.1-.2h.3v-.2l-.2-.1.2-.2-.2-.2h.3v-.4l.1-.1.1.1h.1l.1-.2-.1-.1.1-.1h.2l.1.1v0l-.2-.1.2-.1v-.1l-.3-.2h.2l.2.2.1-.1-.1-.3h.3l.1-.2-.1-.1v-.2l-1.9.2-.1-.2h.3l.1-.2h.1v.3h.1l.1-.1-.1-.4.3-.1.1.1v-.3l.1-.1-.1-.2V30l.2-.1-.1-.1.2-.2-.2-.1v-.1l.1-.1.2.1.1-.2-.1-.1h-.1V29h.2v-.1l-.1-.1h-.3v-.3l.2-.1v-.1l-.1-.1-.1-.2h.1l-.2-.2h-.1v-.1l.2-.1h.2l.1.1.1-.1.1-.1h-.1v-.1l.1-.1-.1-.1h.1l.2.1.2-.1-.1-.1V27h-.1l.1-.1h.2l.2.2L31,27h.1l-.2-.1H31v-.1l-.2.1v-.1h.1l-.1-.1h-.1v-.5h-.1v.1l-.1.1-.2.1-.1-.2v-.6h-.1l-.1.1-.1-.3v-.2l-.2.1v-.1l-.1-.2.2-.3.2-.1v-.1l.2.1v-.2l.2-.1v-.3l.1-.1h.1l.2.4.1-.1v-.4l.2-.1h.3l.2-.1.5-.1-.1-.4.2-.1h.1l.1-.2-.1-.1-.1-.1v-.2l.1-.1h.1l.1.1h.2l.6-.2v-.1l-.2-.1L33,22l.1-.2-.1-.2v-.2l.1-.2H33v.3l.2-.2.1-.2.1-.2v-.1l-.2-.1-.3.4h-.2l-.2-.1v-.3l.4-.3.1-.1v-.5l.1-.1.1-.5L33,19v-.1l.3-.1.1.2.2.1.2-.1.1-.3h.2l.2-.1v-.1l.2-.4.2-.2.3-.1.2-.2-.2-.1v-.1l.3-.3.1-.1v-.3l-.1-.2v-.3l.1-.2.1-.1.2-.3v-.3l.2-.5.2-.8-.1-.4h-.2v-.1l.5-.6-.1-.2-.1-.1-.1-.2-.5-.1-.3.1h-.1l-.1-.1-.2.2-.1-.1-.1-.5.1-.4.1-.1.1-.1h.6l.3-.1.2.1h.2l.1-.1v-.1l.1-.1h.1l.3-.1.2-.2.1-.2v-.2l-.1-.1v-.4l.2-.3v-.1l-.1-.1v-.1l.3-.1-.2-.8v-.2l-.2-.2-.1-.1-.2-.2.5-.5V7l-.3-.2.4-.3.1-.4.1-.1.1-.3.1-.2v-.1l-.4.1v-.4h-.6l-.2-.5.4-.4-.2-.4.3-.3.3-.1h.1v.1l.4-.1v-.5l.1-.1V3l.1-.1v-.2l.1-.2h.1v.3l.2.3V3l-.1-.2v-.5l.1-.2h.1l.2-.4v-.2h.1l.1.1v.2H39v-.5l.1.1v-.2h.4v.2h-.2v.1l.1-.1.1.1v.2h.1v.1l-.2.1v-.1h0v1.7h-.1l-.1.2.1-.1.2-.1h.1v.4h-.3l-.2.1.1.1-.1.1-.1.1.2-.1v.2l.1-.1-.1-.1.1-.2h.2v.1l.1-.1h.2l-.1.2v.1h.1l-.1.2v.3l-.1.1.1.1-.1.4.1.1.1-.1.1-.5v-.1l.4-.7.1.1-.1-.1.2-.4h.1v-.2l.2-.1h-.2v-.1l.3-.3H41l-.1-.1-.1-.1.1-.1.3-.1h-.4l.1.1.1.5-.1.2v0l-.2.2v.2l-.4.1V4l-.4.4v.1l-.1.1H40l-.1.2h-.1v.1l.2-.1v-.3l.2-.3.2-.1h.1l.1.1v.1l-.1.1h-.1l-.1.1h-.1v.1l.2-.1.1-.1.1-.1v.1l-.2.3.2-.1-.1.2-.1.1-.1.1-.2.2h-.2l.2.1v.1H40l-.1.2.1.1v-.3l.1-.1v-.1l.1-.1h.3l.3-.2V5l-.3.2v.2l.1-.1.2-.3v.2l-.5.4v.1h.4l-.1.1-.1.1.1.1v-.2l.1-.1.2-.5.1-.5v-.1l.2.2.1.2-.1.3-.1.2.2-.5-.2-.5.2-.2.2-.1.1.1v.1l.1-.1-.1.2-.1.1-.1.3V5l.2.2-.3.5h0v.1l.1-.1v-.2h.2l-.1-.1.1-.2.1.1-.1.2h.1l.1.2-.3.2-.2-.1v.1l.1-.1.2.1.2-.1v.1l.1-.1h-.2l-.1-.4.2-.4.1-.4v-.1H42v.2l.2-.4v-.2h.1V4l.1-.1.1-.1-.2-.1.4-.1H43l.1.1.1.1v.1h-.1l-.1.2v0h-.1v.1l-.2.2-.1.2-.1.1v.2h-.1l.1.2-.2.2h0l.1-.1h.2l.1.3.2.3V6l-.1.2.1.2h-.3l-.1.2-.1.3.1.1v-.1l.1-.2v-.2h.2l.1-.1.1.1v.3l.2.1-.4.2-.1.1h-.1v.2h-.2l-.1.1-.2-.2h.1l-.1.1h.1l.1.1.1-.1h.2l.1-.1.2-.2.3-.1.1-.1-.1-.1-.1-.1v-.2l.1-.1.1-.1-.1-.2v.2l-.1.1v-.1l-.1-.1V6l.1.1h.1l-.1-.1v-.3l.4-.3.1.3v-.1l.2-.3h-.1v.2h-.1v-.1h.2v-.9l.1-.3V4l.1-.2.1.1v-.2h-.4l.1-.1.1-.1.1.2h.1v.7l-.1.1v-.1l-.2.3-.1.4v.2h.1v.3l-.2.2v.7l-.1-.1.1.3h.1v-.2l.1.1-.1.2V7l-.2.1.1.1h-.2v-.1l-.6.1v-.1l-.1.5-.2.2-.1.2.1-.2.2-.3.1-.1.1.1H43l-.2-.2v-.1l.1-.1h.3l-.1.1.2-.1h.4l.1-.1.2-.3v-.2h0l-.1-.2.1-.5.1-.1.3-.1v0l.1-.1.1.1-.1.1.1.1-.2.3h-.1l-.1.1h0l.1-.1h.1v.5l-.1.1h-.1l-.1.1h.1v-.1l.1.1.1-.2.1.1v.1l.1.1-.1-.1v-.1l-.1-.1.1-.1-.1-.2.1-.2.2-.3.2-.1v.1l-.1.1.4-.3h.1l-.1.4-.2-.1-.1.1H45l.1.1v.1l-.2.1v.1l-.1.2h-.2v.1l.1-.1h.2l.1-.3.2-.1v.2h.1l-.1.1-.1.1-.1-.1-.2.1v.2l.1.1-.1.1-.1.3.1-.2.2-.2-.1-.2v-.1H45l.1.1h.1l.2-.2v-.2l.1-.2.2-.1-.1.2v.2l-.1.2-.1.2-.1.1.1-.1.1-.1v.2l-.1.1v.1l-.3.1h.3l.1-.2v.1l.1.2-.3.4.1.1v-.1l.1-.1h.1l.2-.1h-.1l.2-.4L46,7v.1l.2-.2v-.1l-.1.1-.2.1v-.1l.2-.2.1.1v-.4h.3v-.1h.1v-.1h-.1l.1-.1L47,6l.2.3-.1.3-.1.2-.1.1-.2-.3.1.2v.1h-.1V7l-.2.1v0h-.1l-.2.1v.3l-.2.4.1.1v.2h-.4l-.1-.1.2.3v.1l-.2.3h.2l.1.2-.1.2.1-.1h.2v.3l-.1.2-.2-.1-.1.2-.1-.1.1.1v-.3l.1-.1.4.2v-.1h-.1l.1-.2v-.3l-.2-.3v-.1l.2-.2v-.2l.3-.4h.1v-.1l.1.1-.1.2v.3l-.1.1.1.1.1.2.1.1-.3-.4.2-.1V8l.1-.1.1.1v.1h-.2v.1l.1.1-.1-.1v-.1l.1.1.1-.1-.2-.2.1-.2.1-.1.1.1h.1l.1.1v.1l.1-.1h.1l-.1-.1H47l-.1-.2.2-.2.2-.1v-.1l.2.1h-.1v0h.2l-.1-.1-.2-.1h-.1l.1.2h-.1v-.4l.2-.1.1-.2.2.1h-.2v.1l.2-.1.1.2-.1-.1.1-.1-.1.1.1-.1-.1-.1v-.1l-.3-.2v-.1l.2-.1.4.1.1.2v.2l.1-.1v.7h.1l.1.7h-.2v.1l-.1.1v.1h-.2l-.4.2-.4.2v.1l-.1.1v.2l.1.3h0l-.1-.5h.1l.2-.2h.3v.3l-.2.1v.2l-.1.2v.1l-.1.2v.1l-.1-.1-.1-.1-.1.1V10h-.1v.1l.1-.1.1-.4h.1l.1.1.1-.1v-.3l.2-.2V9l.1-.2.1-.2.1.1.1.1-.1.2h-.1l.2.1v-.5l.2.1.2.2-.2.3v.2l-.1.2v.2l-.1.1-.2.4v.1l-.1.1.1.3v.1l-.2-.2-.1.1h-.1l.1.1.1-.2.2.2-.3.5v.1h-.2l-.1.1h-.2v.2h-.1l-.1.2.1-.2h.1l.1-.2.1.1.1-.1.1-.1-.2.3.1.1-.2.2.2-.2v-.4l.1-.1h.1l-.1.5.1.2.1.2v-.1h.2v-.7l.1-.1.2-.5v-.5l.1-.1.3-.1.2.3v.1l.1-.1.1.2.2-.1v-.1l-.1-.3.1-.1v-.2l.2-.3v-.1l.4-.3.2-.2h.1l.1.1.1-.2h.1l-.1-.2.1-.1h.1v-.1l.1-.2v-.1h.1v.3l.1-.1h.1v.2h-.1l.1.1v0l-.1.1.1.2.1.1-.3.2h.1l.2-.2v.4l.1.1h.2l-.1-.1-.1.1-.1-.1v-.2l.1-.2-.1-.3v-.5l.1-.1V8l.1-.1.1-.3.1-.1h-.5v0h0l-.1-.1h0v-.1l.1-.2V7h.1l.1.1-.1.2.1.1-.1.1-.1.5.2.4-.1.2-.1.2V9h.2v.1l-.1.2h.1v-.2h0V9l-.1-.1v-.1l.1-.1.2.1.1-.1-.3-.1.1-.3.2.2h0v.1l-.1.1-.2.1.2-.1v.1l.2-.2v-.3l-.2-.2L51,8v-.2l.1-.1v.4l.1-.3.1.1.1.2-.1-.1-.1.1h.1l-.1.1v.1l.1-.1V9l-.2.3.2-.2.1-.3-.1-.1.2-.1.2.2v0H52l.1-.1h.1l.1.1.2.2h.2l.1.2h.1l-.1-.2v-.1l.1-.2.2-.1.1.2H53v.3l.1.1L53,9l.1-.1.1.2h0l-.1-.2.5-.1h-.3v-.1l.1-.1.3-.4.2-.1.2.2L54,8l.2.2-.1-.2v-.1h.1l-.1-.1.2-.1.2.1v-.1h.4l.1.2-.2.1v-.1l-.2.3.1.5-.2-.1v-.4l-.1.2v.3l-.3-.1H54l.3.2H54l.2.1-.1.1-.1.1-.2.1H54l-.1.2v.1l-.2.1h-.2l.1.2-.1.2.1.2v.3l.1.1v-.1h.2l.2-.1.2.2.1.2v-.1l.3-.4V10h.1l.3.3v.2l.1.2-.1.1h.1l.1-.1-.2-.3h.1l.3.4-.1.2-.3.3.3-.1.1-.3v-.2l-.1-.1-.1-.4v-.1h.2l-.1-.1h.1v.1l.1-.1.1-.2v.4l-.1.4h.1v.2l.1-.1.1-.1-.3-.1.2-.1.2.2-.1-.3v-.1l.4-.3.1-.1h.1l.1.1v.2l-.3.3v.3h-.4l.1-.2.2-.2v-.1h.1v.1h-.1l.1.1.1-.4.1-.2.1.1.1.2v.1l.1.1.1.3.1.2v.3l-.2.3-.1-.1-.1-.2-.1.1-.1-.1v.1h-.2V11l-.1.2h-.5l-.1-.1h0l.1.2-.2.3h-.1l-.1.1-.2-.2-.2.2.2-.2v.2h.1v.1H55l-.2.2h-.1v.1h.2l.1.1h0l.1.1.3.1-.2.2h-.3v.1l.1-.1.2.1.2-.1v-.3h-.2l-.1-.1v-.1h.3l.1.1.2.1H56l.1-.1h.1v.3h-.1l-.1.2h-.2l.1.1-.4.3-.1.1-.4.1h-.1l-.1.2h-.2l.1.1.1-.1v.1h-.2l-.1.2h-.2l-.2.1.4-.1.1-.1h.2l.2-.3h.3l.6-.2v.1l-.1.2-.2.1h-.2l-.1.1.2-.1h.1l.4-.3v.2h0l.1-.2.1-.3h.2l.3-.1.1-.3.1.1v.2l-.1.1-.1.4h-.3v.1h-.1v.3l.2-.4.1.1.1-.1.1-.3.2-.2V13l-.1.2.1.1-.1-.1.1-.3-.1-.2v-.1H57v-.1h.1l-.2-.1v-.2l.2.1h.3l.4.3-.1.1-.1-.1-.4.5-.1.2.2.4-.1.1.2-.1.1-.1h-.1v-.4l.4-.3.2.1v.1l-.4.2.1.2-.1.1h-.1l.2.3v.2l.2.2.2-.1.2-.2.1-.2.1-.1.2.2v.2l-.3.3-.3.2H58l-.2.2h-.1l-.1.1.1-.1.1.1.1-.1h.2v.3l.1.1v-.1l-.1-.2.4-.2v.2l.1-.1v.1l.1.1v-.8h.1l.1.1.2.5.1.1.1.1v.4l-.2-.1v-.2l-.1.1-.1-.1-.1.1v.1l.1-.1.1.1.3.2-.1.2.1-.1h.1v.3l-.2.1.2.2h.1l.1-.1v.1l-.1.3-.3.1-.1.1v1.1l.2-.1.3.1.1.1.4.3.1.2h-.5l-.1.2.1-.1h.2l.2.3.2.1-.2.1v.1H60v.1l.2-.1V19l.1.1v.3l.2.5-.1-.1-.1.2.1-.1h.2l.3.6-.1.1.1.1-.1.1-.1.1-.1.1-.1-.1-.3.1h.3l.2.2v.1l-.1.2-.2.3-.2.1v-.4H60l.5.6h.1l.5.6.2-.1.1-.1.2-.1h.5l.5-.1.1-.1.4-.1.2-.1.2-.1.2-.1.2-.1-.1-.1H64v-.1l.3-.1v0l.1-.1.1.1v.1l.1.1h-.1l.1.1.1-.1v.1l.1-.1-.1-.1h-.2v-.1h.4l.5.1v-.1l.1-.1v.1l-.1.1.1.5v.1h-.1l-.1-.1v.1h-.1l-.1-.2-.1-.1.1.1V22h-.4v-.1l-.1.1-.1-.1V22h.2l-.1.1-.4.1-.1.1-.2.1H64l.2-.1v-.1l.2.1h.1l.1.1.1.2.1-.3h.3l.7.1.3.2-.3.9-.3.5.3-.1.3-.5.5-.5.4-.6.1-.4.4-.5.1-.2.5-.4.5-.3h.1v.1h.1l.1.1.2.1.1.1-.2-.2.5-1,.2-.1.6-.3.5-.5.3-.1.4.2.3.2.6,1.4.2.3.2.1.1-.2.5-.3.2-.1h.5l.3-.1h.1v.1h.1l.4.1h.6l1.6.5.3.2.8.4,1.2.6.4.2.5.2,1.4.7.7.4H83l-.2.1h.3l.1-.1-.1-.2-.1.1v-.1l.1-.1.2.4v.2l.2.1h.4l.1.4-.1.1-.1.3.2.1-.1-.1.2-.3L84,24l-.2-.2-.2.1-.1-.1v-.1h.2v-.1h-.1l-.9-.1-.2.1-.1-.1.1-.1h.1l.3.1.9,1,.6.5.4.3h.3v.1l.5-.1.3.4.1.1-.1-.3h.2l.5.2.8.1.5-.3.1-.1h.1l.2.1h.6l.4-.4h.2v.3l.1.2v-.1h-.1l.1-.1.7.1h.6l.4-.1h.5v.1h-.1v.1l.4.6.1.2.1-.2.1-.2-.1-.2.2-.1.4.1H95v.1l-.1-.1.2.3-.2.2-.3.3v.5l.1.2v.1l-.3.1v.3l-.1.4.2.2.2.3.1.1.4.3.1.1.1.3-.3.3v.1l-.1.5-.2.1-.4.3-.1.2-.3.4-.2.1-.2.1-.1.1v.4l-.2.2v.6h-.1l-.2-.1h-.1l-.1.2-.1.3v.1h-.1l-.2.3-.2.1h-.3l-.5.1-.2.1h-.5l-.2.2-.1.1v.2h.5v.3h-.2l-.1.1-.1.2v.3l-.2.1-.2.4-.5.1v.1l-.2.1.1.3-.1.2v-.1l-.1.1-.5-.1-.5.2-.2.1H88l-.4-.2-.1-.1-.4.3h-.2l-.3-.1V37l-.1.2-.2.1-.1-.1V37h.4l-.2.3-.2.1H86l-.2-.2v-.3h-.1l-.1-.1-.1.2v.3l-.3.2-.1.2V38l-.4.5v-1l-.2.1-.3.2-.1.3v.1l-.1.2h-.2l-.3.4-.3.3-.1.2v.2l.2.4v.2l-.1.2-.1.1.1.3.1.2-.1.1-.1.1-.5.9v.6l-.2.2-.6.5-.1.3v-.1h-.1l-.1-.1h-.2l-.2.5L81,44l-.2.5v.3l-.2.2-.3.1-.1.1-.1.2.3.2v.1h-.5l-.1.1-.1.1-.5.6-.1.3v.3l.1.5v.2l.3.5v.8h.2l.2-.1H80v.1l.5.4.2.2-.1.4.1.2.3.2v.3h-.1v.3l-.2.3.1.4v.1l-.1.2-.1.2-.5.6L80,53v.1l-.2.1-.2.2-.1.2.1.2.1.1.3.2v.2l-.1.2-.3.3v.3l.1.3h.1l.5.5.1.3v.5l.4.4v.1l.2.2-.1.5v.2l.3.6v.6h.1l.2.3.1.5.1.3.1.5v.3l-.4.5v.2l.2.5v.3l-.1.5-.1.2-.2.1-.4.2v.2l-.2.1-.4.1-.1.1-.1.4-.2.2-.4.1-.1.1-.1.4v.1l-.3.3-.1.5-.3.2-.1.3-.1.2h-.2l-.5.1-.1.2-.1.1v.2l.1.1.1.1v.1l-.1.5.2.6v.2h0v.1l-.1.2.1.5.1.2-.1.3.3.5-.3.5v.2l.1.1.1.4v.2l.2.2.2.2.1.1v.4l-.1.1v.1l-.2.1-.1.1v.1l.3.3.1.4.2.2H79l.2.1.2.1V75l.1.5.1.1.2.2h.3l.3.4.3.1.3.1h.1v.1l.1.2.1.1V77l.1.2-.1.4-.1.3.1.1.2-.1.1.1v.1l-.3.3-.1.1v.3l-.3.5v.1l.2.3L81,80l.1.3-.2.1-.1.1v.1l.2.1-.2.4v.5l-.3.4-.1.5v.2l-.1.3-.4.5-.5.2-.1.4-.2.2H79l-.4.1h-.2l-.2-.2h-.3l-.3.3-.4.2h-.3l-.3-.2-.5-.1-.5.1h-.1l-.1.2-.3.2-.4.1-.5-.1-.2.4-.4-.1v.3h.1l-.2.1h-.2l-.3-.1-.2.1v.1l-.4-.2-.1-.2-.1-.2-.1-.1-.5-.2-.1-.1-.1-.3v-.1l-.1-.1h-.2v.1h-.2l-.2-.2-.3-.1-.3-.3-.3-.1-.2-.1-.4.1-.1-.1v-.1H69l-.2.1h-.1l-.2.2-.3-.2-.1.1-.1.1-.1.2-.5.1-.4.3-.5-.1-.1.1-.1.2h-.1l-.2-.1v-.2l-.2-.1h-.2l-.2.2-.6.1-.1.1h-.2l-.1.2v.4l-.1.2h-.1L64,85h-.4v.2l.3.4-.1.2h-.2v-.3h-.1l-.1.1-.1.3-.4.2-.2.3v.5h-.2l-.2.1v.4l-.5.5h-.4v.3l-.1.2-.1.2.1.3V89l-.2.2-.3.5h-.1l-.3-.2-.5.2h-.2l-.3.1-.2.2-.3.3-.4.1-.4.2v.1h-.2l-.2.2-.1.4h-.1l-.5.1-.1.3-.1.1-.3.2v.1l-.3.5-.3.1-.1.1-.2.1h-.1l-.1.4-.1.1-.1.5h-.4l-.2-.1-.2-.4-.5.2-.1-.1-.4-.1-.1.2-.4.2-.1.1V94l-.1.1-.1.2-.21.1-.2-.1-.1.1-.1.2-.1.2-.1.2-.1.1-.1-.1-.3.1-.2.1h-.3l-.2.2h-.2l-.4.3-.2-.1h-.1l-.3-.1-.5.2-.1.1h-.2l-.1-.1-.3.2-.1.3-.3.1-.2.2h-.1v-.1l-.2-.1h-.1l-.1.1-.2.2-.3-.1-.2.1H46l-.2.1-.1.2-.4.4-.2-.1H45l-.1.2v.2l-.1.1h-.1v.1l-.1.1h-.2l-.1.1.1.2h-.1l-.2-.1H44v.1l.2.1-.2.1h-.1v.3l-.2.1-.1.2.1.2v.1h-.1v-.1l-.1.1.1.2-.1.2.1.1-.1.1-.1-.1v.2l-.2.1.1.3-.1.2-.2.1v.2l-.1.1h-.1l.1.2.2.1v.1l-.3.1.3.2v.1l-.2.1h-.1v.3l-.1.1-.1.1.1.1v.1l2-4.1-.2.3.3.2v.1h-.2l-.2.2.2.3-.1.1v.3l-.2.4.1.2-.1.2-.1.2.1.3-.1.2H44l-.1.2-.1.1.1.2-.7.6v.5l-.2.2v.3l-.2.2v.4l-.2.1.1.2-.1.1h-.1l-.2.1.1.1-.2.1v.3l-.1.2-.1.1.1.4-.1.3.1.1-.2.3-.1.1.1.2-.1.1v.2l-.1.1-.4.3v.1l.4.2-.2.2-.3-.1v.1h-.1l-.1.2-.1.3.1.1-.1.1-.3.6h.1l-.2.1.1.2h-.2l-.2.1-.1.4-.2-.1-.3.3h-.1v.1l-.1.2-.2.1-.1.2.1.1.2.1v.1l-.1.1h-.1l-.1.1-.1.2-.1.1.1.1-.2.1v.5l-.2.2.1.2.1.3v.1l.2.2.1.3.3.2v.2l.1.2-.1.2.1.1.1.1v.3h.1v.2h0v.6l.1.1.1.3.1.1.2.2-.1.1H40l.1.3v.3h.1l-.1.3v.2l.1.2v.2H40v.1l.1.2v.1h.1v.2h.1l-.1.2.1.1.1-.1.1.1.2.1h.2l.1.1.2.2.1.2.3.4v.3h.1l-.1.1h.1v.1l.1.1-.1.1h.1l-.1.1.1.2-.2.1v.1l-.2.1-.1.3v.1l-.2.1.1.2-.2.2v.2l.1.2-.1.1.1.1.1.1.1.2v.1h-.1v.1l-.1.3.1.4-.2.3.2.1-.1.1.1.1v.1l.1.2-.1.1.1.2v.2l-.1.3-.2.1-.1.1v.1l-.1.4v.1l-.2.3v.1l.1.1v.5l.1.1.1.1.1.3-.1.2v.1l-.1.3v.2l-.2.2v.1l-.1.4v.2h-.1l.2.2-.2.5-.1.1-.1.3-.1.3-.2.1v.1l-.1.1-.1.3h-.3v.2l-.1.2.1.5-.4-.2-.3.1-.1.1-.2-.3-.1-.8-.1-.1h-.1l-.2.1-.6.5-.5-.1-.4.1-.3-.4-.1-.1-.1-.1-.2-.1-.4.1-.5.1h-.1l-.2-.1-.2.2-.3-.2-.3-.1-.2-.6-.5-.5h-.1l-.3-.1-.1-.3-.1-.1v-.5l-.3-.4.1-.2-.1-.4.2-.2-.2-.2v-.3l.1-.1v-.3l-.3-.1V127l.2-.1-.2-.2h-.1l.1-.3-.2-.2-.1-.2-.4.2h-.3l-.3-.1V126l.1-.3.1-.1-.1-.2-.3-.2h-.7v-.1l-.1-.1v-.2l-.1-.4.5-.4.1-.2v-.4l.2-.3v-.3l.2-.1.5-.4v-.1l-.3-.1V122l-.2-.3v-.1l.2-.2v-.2l-.2-.1-.3.1-.1-.2-.2-.1h-.2l-.2-.2-.1-.1v-.2l.1-.2.1-.1-.3-.1-.2-.2H29l-.3.1h-.4l-.2.1-.1.1v.1l-.3-.1V120l.1-.3-.2-.3-.1-.1-.1-.1-.2-.2-.2-.3v-.2h.7l-.3.1-.1-.2v-.2l.2-.1v-1.6l.1-.1.1-.1-.2-.3.1-.2.1-.2-.1-.2v-.1l-.2.1-.2-.1v-.1l.1-.3-.1-.2-.1-.1-.4-.1h0v-.1l-.1.1-.1.1h-.3l-.1-.2h.1l-.1-.2.1-.1-.1-.1h.1l-.1-.1h.2l.1-.1-.1-.2H26l-.5.2-.2-.1h-.2v.1h-.2l.1-.2-.2.1-.2-.1h-.2v.1l-.3-.2h.2l-.1-.1h.1v-.2l.2-.1V113h-.1v-.1l-.1.1-.2-.1.1-.1h.3v-.1l.1-.2h0v.1h.2v-.1l.1-.1v-.1l-.1-.2.1-.1H25l.2-.1v-.1l.2-.1v-.1l.2-.1-.1-.2h-.1l-.1-.1v-.1l-.1-.2.2-.1h.2l.1.1.1-.1.2-.2h.3l.1-.1-.1-.1v.1h.1l.1-.1-.1-.1.1-.1v-.3l.1-.1-.1-.3h-.2v-.2l-.1-.1-.1-.3h.3v-.3l.2-.2h.1l.1-.1-.1-.2-.1-.1.1-.1h-.2l.1-.1h-.1l-.2-.1.1-.1-.1-.1.1-.1v-.1h.1v-.1h.1l-.1-.1h.1V107l-.1-.1-.1.1v-.1h0v-.1l.1.1h.1v-.3l.1.1v-.1h.1v-.1l.1.1v-.1H27l-.1-.1H27v.1l.1.1.1-.1v-.1l.1-.1v-.1h.1l-.1-.1.1-.1-.1-.1.1-.1-.1-.1h.1l-.1-.2v-.2h.2v-.1l.1-.1.1.2.1-.1.3-.3-.1-.1.1-.2v-.2l-.1-.3.1.1.2-.1-.1-.2h.1v-.2l.3.1H29l.1.1.1-.2.1-.1.1-.2.3-.1.2-.1.2-.1.4-.2.4.2h.2l.2-.1h.3l.2-.1.2-.2.2-.2.2-.3-.1-.5.1-.3.2-.2.1-.1-.2-.2-.2-.1v-.2l.3-.7v-.2l.1-.2h.2l.1-.1v-.2l-.2-.2v-.7l-.1-.1v-.1l-.1-.2-.4-.3-.4-.2-.2-.1V97l-.2-.1-.1-.1h-.6v.7l-.2-.1h-.3l-.2.2h-.1l-.2-.1h0l-.1.2h-.3l-.2-.1-.1.1h-.1l-.1.1h-.1l-.1.1-.1-.1-.1.3h-.1V98l-.1.1-.1.1v.1l-.1-.1v.1h-.1l-.1-.1-.1.1-.3.1h-.1v.1h-.1l-.1-.2-.1.1-.1.1-.1-.1v-.1l-.2.1v.2h.1l-.1.2h-.1l-.1-.1h-.1v.2H26l-.1.2h-.1v.3l-.2.1.1.1-.3.1v.1l-.1-.1-.1.3h-.1v-.1h-.3v-.1h-.1v-.3l-.2-.1.1-.1-.2-.1v-.3l-.3-.3h-.4l.2-.1-.2-.2h.1v-.2l-.1.1-.1-.1.1-.3-.1.1-.1-.3h-.1l-.2.1v-.5H23v-.1l-.1-.1-.2-.2v-.2h-.1v-.2l-.2.1v-.1h-.1v-.1h-.2l-.1-.1-.1-.1V96h-.2v-.1l.2-.1h-.2l.1-.1-.1-.2-.1-.3.1-.1h-.2l-.1.1.1-.2v-.1h-.2v-.2l-.1.1-.2-.1-.1.1-.1-.1h-.1v-.2l.1-.1-.1-.1v-.1l.1.1h.1v-.2l-.5-.1v-.2l-.1-.1h.3l.1-.1-.1-.1-.2-.2-.2-.1-.1-.2h-.3v.1l.1.2h.2v.1l-.2.2-.2-.1-.1-.2v-.1l.1-.2v-.3l-.3-.2.1-.2-.1-.1h-.1l-.2-.1h-.2V92l.1-.1.1-.1v-.1l-.1-.1-.1-.1h-.4l-.1.2h-.1l-.1-.1v-.5l-.2-.2-.1-.5v-.2h-.4l-.3.1-.2.1-.4-.1.2-.4.2-.1.7-.3v-.1l.4-.2.1-.5-.1-.2-.2-.4-.5-.4-.1-.1h-.6l-.2.1-.3.5h.3l-.3-.6-.3-.3-.5-.3-.2-.2v-.6l.5-.3.1-.1H16l.3.1.2.1.2-.1.3-.4.1-.4.4-.5.2-.1.4-.4.1-.2v-.1l.1-.3.1-.2v-.4l.3-.5.1-.2-.1-.3-.2-.5v-.1h-.1v-.1l.2-.5.3-.5v-.8l.1-.1-.1-.3.3-.5.2-.3v-.8l.1-.1v-.2l.4-.5H20l.1-.2-.3-.7.1-.1.1-.4.1-.4.1-.5v-.1l.4-.7V73l-.1-.3-.2-.3-.2-.5-.2-.8-.1-.4.1-.4v-.4l-.1-.4-.2-.3.3-.8v-.9l-.1-.1-.1-.5-.4-.8-.2-.2-.2-.4.1-.3.2-.6V64l-.1-.4v-.5l-.2-.5-.8-.8h-.4l-.2.1-.5-.2-.6-.5-.3-.1-.7-.5H15l-.4.1h-.5l-.2-.2-.4-.5v1.4l-.1-.3-.1-.2-.6-.3h-.3l-.5-.1h-.2l-.5.5-.5.1-.4-.1-.9-.1-.2-.1-.3-.1-.2-.2h-.1l-.2-.1-.4-.2-.3-.2h-.4l-.5-.4-.2-.1-1.4.2-.3.2-.5-.1-.3.2-.3.4v.2l-.1.3v.3l-.2.5-.3.3-.1.1-.3-.1-.1-.2-.2-.1-.4-.1-.2.1-.1.1-.1.4-.1.1-.3-.1-.1.1Zm46.3-54.4h0l-.1-.3-.1.2-.1-.1.1.1.1-.1.1.2Zm3.3-1h0v-.3l.1-.1v.2l-.1.2h0l.3.5-.1.1v-.1l-.1-.4-.1-.1Zm-7.9-1.1-.1.2-.1.1v.3h.1l-.1-.3.2-.1v-.2Zm12,5.7h.2l.1.2-.2.1-.2-.1.1-.2Zm-14.4-5.8-.2.1-.1.2.1.2h.2v.2l.1.1.1-.1.1.2v.2l.1-.2-.2-.2-.1.1-.1-.1v-.2L41,6l-.2-.1.1-.1.2-.2Zm12.6,1.1h0l-.1-.2h-.2l-.1-.1v.1l.4.2-.5.1h-.1v0h.1l.3-.1h.2l-.2.1-.4.3v.1h-.3v.2l-.2.2h-.1v-.1l-.1.2h-.2l-.4-.3-.1-.5v0l.2-.2h-.2l-.1-.1.1-.2.2-.1.1.1.1.1.3.1v-.1l.1-.1.3.3v-.1l-.3-.2.1-.1v0h-.2l.1-.2-.2.1-.1-.1.2-.3.1-.1h.2l.1.1H53l.1.2v.1h.1l-.1-.2v-.2h.3l.3.1.4.2.1.3v.3l.1.1-.3.1-.2.2.1-.5-.2.2Zm3.6,6.1h0l.2-.2v.1l-.2.1Zm-13.7-6.7-.1.2h.1v-.2Zm.9-.4h0l.2-.2-.2.2.2-.1-.2.1Zm9.9,4h0v-.2l.1-.1.3-.2.1-.3v-.1l.3-.2h.2l-.2-.2v-.1l.3-.1.2.2V9l-.1.1h-.3l-.2.1H55v.1h.1l-.1.1v.1l-.1.2-.1.1-.4-.1.2.1v.1l-.2-.2Zm11,11.8v-.2h.1l.1-.1v.2l-.1-.1Zm-13.5-14h0l.3.1v.1h-.1Zm-6.4-.1h0l.2-.3-.2.1ZM57.07,13h0l.1.3Zm2.3,3.2.1-.3.1.2-.2.1Zm-3.8-4.9h0l.3-.2v.3Zm-9-3.6.1-.2h.1v.2Zm12.5,9.2.5-.3-.1.2-.3.1Zm-.1.5h0l.2-.2v-.1l.1.1h.1l-.1.1v.3h-.1l.1-.1Zm-8.2-9.7.2-.2.1-.4V7h.2v.2l-.2.1v.2l-.3.2.1.2Zm-9.4-3,.1-.2h.1l.1.1v.3l-.1.2-.2-.2Zm-.3-1h0l.2-.2.2.1v.1h-.1l.1.2-.2.2V4l-.1.1-.1-.1Zm16.2,9.8h0l.2.1-.2-.1Zm-.2.3h0l.2.2.2-.1.1-.2-.1.1-.2.1-.2-.1Zm-1.7-3.9v-.3l.1-.1.1-.2h.1l.2.2v.1l-.1.1-.4.2Zm-2.9-3.3-.1.3.1-.3Zm-.1.3-.3-.2H52l.4.2.1.5h.1l-.1-.1Zm5.2,6.9-.1-.3.1-.3h.2V13h.1l.1.1-.1.1.1.3-.1.2.1-.1-.1.2-.1.1-.2-.1ZM45,5.19h0l-.2-.1h-.1l-.3.1-.2.2h-.1l.3-.3.1-.2h.1l-.1-.1v-.2l.2-.1.2.1v.1l.2.1v.4H45v0Zm-1.8.3-.3.2-.2-.3h.1l-.1-.2V5h.1l-.1-.1.1-.2.1.3H43l.1.2L43,5l-.1-.1v-.2l.1-.2.2.4.1.1-.1.3v.2ZM55,9.29l.1-.2.3-.4v-.1l-.4.7-.3.1Zm-1.7-2.8.2-.1v-.1h-.1Z"/></g></g></svg>