<svg id="Potentiometer" viewBox="0 0 512 512" xmlns="http://www.w3.org/2000/svg"><path d="m321.055 393.517h32.6v94.683c0 8.996-7.304 16.3-16.3 16.3-8.996 0-16.3-7.304-16.3-16.3z" fill="#f1f2f2"/><path d="m239.7 393.517h32.6v94.683c0 8.996-7.304 16.3-16.3 16.3-8.996 0-16.3-7.304-16.3-16.3z" fill="#f1f2f2"/><path d="m158.345 393.517h32.6v94.683c0 8.996-7.304 16.3-16.3 16.3-8.996 0-16.3-7.304-16.3-16.3z" fill="#f1f2f2"/><path d="m132.844 222.85h246.311v174.953h-246.311z" fill="#414042"/><circle cx="256" cy="169.604" fill="#58595b" r="162.103"/><path d="m315.848 65.943h-119.696l-59.849 103.661 59.849 103.66h119.696l59.849-103.66z" fill="#939598"/><circle cx="256" cy="169.604" fill="#d1d3d4" r="70.728"/><g fill="#231f20"><path d="m337.355 512h-.001c-13.144 0-23.8-10.656-23.8-23.8v-97.897h47.601v97.897c0 13.144-10.656 23.8-23.8 23.8zm-.001-15c4.86 0 8.8-3.94 8.8-8.8v-82.896h-17.601v82.896c0 4.86 3.94 8.8 8.8 8.8z"/><path d="m256 512c-13.144 0-23.8-10.656-23.8-23.8v-97.897h47.6v97.897c0 13.144-10.656 23.8-23.8 23.8zm0-15c4.86 0 8.8-3.94 8.8-8.8v-82.896h-17.6v82.896c0 4.86 3.94 8.8 8.8 8.8z"/><path d="m174.646 512h-.001c-13.144 0-23.8-10.656-23.8-23.8v-97.897h47.601v97.897c0 13.144-10.656 23.8-23.8 23.8zm-.001-15c4.86 0 8.8-3.94 8.8-8.8v-82.896h-17.601v82.896c0 4.86 3.94 8.8 8.8 8.8z"/><path d="m140.332 275.851.013 114.452h231.311v-114.452h15v121.952c0 4.143-3.357 7.5-7.5 7.5h-246.311c-4.143 0-7.5-3.357-7.5-7.5v-121.952z"/><path d="m315.849 280.764h-119.697c-2.68 0-5.155-1.43-6.495-3.75l-59.848-103.66c-1.34-2.32-1.34-5.18 0-7.5l59.848-103.66c1.34-2.32 3.815-3.75 6.495-3.75h119.697c2.68 0 5.155 1.43 6.495 3.75l59.848 103.66c1.34 2.32 1.34 5.18 0 7.5l-59.848 103.66c-1.34 2.32-3.815 3.75-6.495 3.75zm-115.367-15h111.037l55.518-96.16-55.518-96.16h-111.037l-55.518 96.16z"/><path d="m248.5 98.897h15.001v141.442h-15.001z" transform="matrix(.697 -.717 .717 .697 -44.057 234.979)"/><path d="m255.995 0c-93.67 0-169.6 75.93-169.6 169.6s75.93 169.61 169.6 169.61 169.61-75.94 169.61-169.61-75.94-169.6-169.61-169.6zm1.01 324.22c-85.38 0-154.6-69.22-154.6-154.6s69.22-154.6 154.6-154.6 154.6 69.21 154.6 154.6-69.22 154.6-154.6 154.6z"/><path d="m256 91.41c-43.19 0-78.2 35.01-78.2 78.19s35.01 78.2 78.2 78.2 78.2-35.01 78.2-78.2-35.01-78.19-78.2-78.19zm0 141.37c-34.89 0-63.17-28.29-63.17-63.18s28.28-63.17 63.17-63.17 63.17 28.29 63.17 63.17-28.28 63.18-63.17 63.18z"/></g></svg>