<svg xmlns="http://www.w3.org/2000/svg" viewBox="0 0 55.92 40.09"><defs><style>.cls-1{fill:#cd352f;stroke:#fff;stroke-miterlimit:10;stroke-width:0.8px;fill-rule:evenodd;}</style></defs><g id="Camada_2" data-name="Camada 2"><g id="svg2"><path id="path90" class="cls-1" d="M1.16,36.43h0l.1-.2v-.1l.2-.1h.1v-.1h.1l.1-.1H2l.1-.1-.1-.2.2-.1-.1-.1.2-.1-.1-.1.1-.1h-.1l.1-.2h-.1v-.1h-.1l.1-.1v-.1l.1-.1v-.1l.1-.1V34l.1-.1v-.1h-.1l.1-.2-.1-.1.1-.1v-.2h.6v-.1l.1-.1-.1-.1.2-.2.3-.2.1-.1.1.1h.3l.2-.3.2.2.3-.2v-.1l.1-.1.4-.2h.1l.3-.2.3.2.2-.1.2-.2.2-.1.2-.2h.3l.1.1-.1.2h.1v.1h.1v.1l.3-.1h.1l.1-.1.1-.2.1-.1h.3v.1h.4l.6-.3.1.1-.1.1h.1v-.1l.3-.2h.2V31l.2-.1.2-.4h.21v-.2h-.21l.11-.1-.11-.1V30l.11-.2h.2l-.1-.1.29-.3h.3l.1-.1h-.1v-.1h.1l.21-.1.1-.1v-.2h.1l.1-.1v-.2l-.2-.2-.21-.2.11-.1-.11-.1h-.1l-.1-.1v-.2h-.9l-.1.1-.1-.2h-.3l-.1.1-.3-.2-.2.1v.1l-.1-.2h-.2l-.1-.1-.1.1-.1-.2-.2.1-.1-.1v.2l-.1-.1v.1l.1.2h0v-.3h-.1l.1-.2H8l-.2-.1h-.1v.1l-.2.1v.1l.1.1v.1h-.1l-.1-.1h-.2l-.2.1-.1.1h-.1l-.1.1-.2-.1-.1-.1h-.1l.1.1-.3.4h.1l-.1-.1h-.3l.1.1h-.1v-.1l.2-.2h-.2l-.2-.2-.2.1-.1-.2-.2.4H5l-.1-.2-.1-.1v.1l-.1.1-.2-.2-.1.1-.1-.1h-.1v-.4l.1-.3-.1-.1-.1.1-.1-.1-.3.1v-.2l.1-.1-.1-.2-.1-.1h-.1l-.1-.1h-.2v.5h-.1l-.1-.1.1-.2v-.1l-.1-.4-.2-.2-.2-.2h-.2l-.2-.1h0l.1-.2.1-.1h.1l.1-.1h.1l.2-.1h.2l.2-.2h.1l.3.2.2-.1.2.1h.2l.1.1v-.1l.2-.2v-.1l.3-.1v-.2l.1-.1.3-.1h.1l.1.1.2-.1.1.1.3-.1v.1h.2V24l.2-.1v-.1l.3-.1.4-.4.1.1v.1l.1-.2h.2l.1-.1.2.1h.4v.2h.2l.1-.1.2-.2.1.1h.4l.1.1.1-.1h.2l.1-.2v.1l.1-.1h.2l.1.1v-.1l.1.4.1-.1.1.1.1-.1.2-.1v-.1l.21-.1v.1h.1l.2-.1.1-.2h.3l.1-.1.1-.2.1.1.1-.1h.2v-.4l.1.1.2-.1V22l.2.1v.1l.1-.1H13v-.2h.1l.4-.1v-.1h.3l.2.2.1-.1h.1l.1-.1h.1v-.1l.3-.1h.1l.2-.1.5-.2.1-.1h.2v-.2l.1.1v-.1H16l.1-.1.2.1.2-.1.2-.1h.2l.4-.3h.2v.1l.1.1H16.16l.2.1v.1h.1l.1.1.2-.3h.3l.1-.1h.2l.1.2v.1l.1-.1v-.2h.2v-.1H18l.2.2.1-.1v.2h.1v-.2h.1l.1-.2h.1l.1-.1v.3l.2.1.1.1.1-.1.5-.1.1-.2h.1l.1.1v.1h.6l.4-.2.1-.1h.2l.4-.3.3-.2v-.1l.2-.1h.1l.1.1h.2l.1-.1.1.1.2.1.3-.1h.2l.1-.1.1.1.1-.1.11.1v.1l.1.1h.1l.1.1h.1l.1-.1v.1l.1.1.4-.3H25v.1l.2.1h.3v.4l-.3.2v.1l.1.3.1.2.2-.1v-.2l.3-.1h.4v.1l.4-.1.2-.3.1-.1-.1-.1v-.1l.2-.1.3-.1h.1l.4-.3H28l.2-.1.5-.2.4-.4v-.1l.5-.2.7-.2.4-.2.1-.1.5-.3.5-.2.1-.1.3-.1.4-.1.2-.1H33l.2-.1v-.2l.6-.3.9-.4.1-.1.9-.3.1-.2h.1l.3-.1h.3l.4-.1v-.1l.5-.2v.2l-.1-.1-.1.1-.1-.2h.1l-.1-.1-.2-.1h-.3l-.1.1h-.1l-.1-.1v-.2H36l-.1-.1.2-.2H36l-.1-.1.3-.4.1-.1.3-.2-.1-.1v.1l.3-.1v-.1l.1-.1v-.1l.1-.1h.2l.1-.3.2-.1.1-.1-.2-.3v-.1l-.3-.1.1-.2v-.2l.1-.1v-.3l.1-.1.1.1h.2l.1-.1.1-.1-.2-.1h-.1l.2-.1v-.1l.2-.1-.1-.2.1-.1-.1-.1.2-.1-.1-.1h-.1V10l.1-.2v-.4l.1-.1.1-.1.2-.1.1-.1.1-.1-.1-.1.1-.2-.1-.1v.1l-.1-.1v-.2l.1-.1-.2-.4h.1v-.1l.1-.1v-.1l.1-.1.1-.1.1-.2h.1v-.4h.4v-.1l.1-.1v-.2h.2v-.1l.3-.3v-.3l.1.1h.2v-.1l-.1-.1-.2-.2h-.2l-.1-.1H38.16L38,5v-.1l-.2-.1v-.1l.2-.2.2-.1.1.1h.1v-.1l.1-.1.2-.2.1.1h.3l.3-.1.1-.1h.2l.3.1.1-.1.3.1v-.2l.1-.1v.1l.1-.2-.1-.1.1-.1v-.2l.2-.1-.1-.1.1-.1.2-.1.1-.1.1-.1-.2-.2.2-.4-.1-.1h.4l.1-.1h.2l.1-.1-.1-.1.1-.1H42l.2-.1.1.2.2.1.1.1V2l.2.1.1-.1-.1.2H43l.1-.1h.4v.1h.2v.2l.1-.1.1.1v.2l-.1.3.1.2v.1l.2-.1.2.1h-.1l-.1.3v.1h.1l-.1.3L44,4h-.1l.1.3.2.1v.4h.1V5h-.1v.2l-.1.1.2.1-.1.1h-.1v.1l.1.2V6h-.1v.6H44v.2h.1v.1h.1l-.2.4v.1h.4v.1l-.2.1v.1h.2v-.1h.2l.1.1h.1v.1l.1-.1H45v.1l.2.1V8h.3l.3.2.3-.1.1.2.2.1v.1l.1.1.1-.2.1.2.3-.1.2.2v-.2h.1l.11.1h.3v.2l.2.1.2.1.1.1h.2l.2-.2h.1v-.3l.1.1.1-.1.1.1h.2v-.1l.1.1h.1l.4.1h.1l.1.1h.1V9l.1-.1.2.3h.2l.1.1v-.1h.2L51,9h.4v.1h.1v.1h.2l.1.1H52v0h.1v0l.1-.1-.1.1h.4l.2-.1.1-.1H53l.3-.1.1-.1.1.1h.1l.1.1h.1l.2.1.2.3.2-.1h.3l.1.3v.2l.1.1H55l.1-.1V10h.1v.1h.1v.1h.1v.2l-.1.4.1.3h-.1l-.2.5H55l-.2.1-.1.3-.3.4-.2.2-.1.1-.3.3-.1.4v.5l.3.5.1.2.2.1h.2l.1.1v0l-.2,1v.5l.3,1,.4,1.6.1.5v.4l-.2.4-.1.2-.2.1-.5.3-2-.2-.6.5-.4.3-.6.3-.5.2-.6.3-1.8.5-.7.2-.7.3-.5.3-.4.1-.3.2-.9.5-.6.5h-.4L43,25l-.1.1v.2H43l-.1.1.1.1-.3.2h-.1l-.4.2-.3.3-.2.2v.2l-.1.3h-.1l-.1.1h-.2v-.4L41,27l-.1.1-.1.2h-.1l-.1-.2-.2.1-.2.2-.1.2-.2.5-.1.2V29l.2.7.1.2h.3V30l.2.3.2.2H41l.1-.1-.1-.1h.2v-.1l.2.1.1-.1V30l.1.1V30l.1.1-.1.1.2.1-.1.1h-.1l-.1.2v-.1h-.1l.1.2-.1-.1-.1.1h-.1l-.1-.1-.2.1-.1.2v.3l-.2-.1v.1l-.4.1-.2.4V32l.1-.1L40,32v.1l-.1.1h-.1l-.1.1v-.1h-.1l-.2.2-.1.1-.1.3V33l.1.2h.1v.1l.1.1.1-.1.1-.1v.1l-.1.1h.2l-.1.1-.1-.1-.1.1h.1l-.1.1v.1h.1V34l-.1-.2-.3-.1.1-.1-.2-.1-.5-.2-2.8-.2-1-.1h-1.3l-.2.1L33,33h-1.6l-.5.1-.1.1v.2h-.2l-.3-.1-1.3.1-.8.1-.6.1-.5-.1h-.5l-.2.1h-.2l-.1.1-.1-.1h-.1l-.1.1v-.1h.1l-.2-.2-.4-.1h-.4l-.1-.1v-.1h-.3l.2-.1v-.2l.1.1h.1l-.1.1H25l.1-.1v-.2h-.2l-.1-.1h-.1l-.1.1-.1-.2.2-.1v-.1l-.2-.1.1-.1h.1l.1.1.1-.2.1-.2.2-.2-.1-.1v-.1l.2-.2.3-.2-.2-.1-.1-.1.2-.2v-.1l.1-.1.5-.3v-.3l-.1-.1v-.1l.1-.1-.1-.1.1-.1h-.2v-.1l-.1.1-.1-.1h-.1l-.3-.1-.1.1h-.3l.1.2-.1-.1-.1.1v.1l-.1.1-.1.1-.2-.1-.1-.1-.2.1v.1h-.2l-.5.1v.1l-.1.1h-.2l-.1.1h.2l.1.1-.2.1h0l-.3.2v.1l-.1.1h.1l-.2.3v.1l.1.1.1-.1v.1l.1.1.2.2.1.1.1.3.1-.1-.1-.3-.1-.1v-.1H23l-.1-.2L23,31l.1.1h.1V31l.2-.2.1-.1h.1l.2.2h.3l-.1-.1.1-.1h.1l.1-.1v.1l.1-.1h.1v.1l-.1.1-.2.2v.1l.1.2h.1l-.1.1-.1-.1-.1.2-.1-.2h-.2l-.1-.1-.2.1-.2.2.1.1.1-.1v.1l.1.1-.1-.1h-.1v.1l.1.1h.3l-.2.1.1.1h-.3l.1.1h.1l.2-.1.1.1-.2.2.1.1.2-.1h.2v.1h-.1l.1.1h.2v.2h-.2v0l.1.1-.1.2.1.1h-.2v.1l.1.1.1-.2h.1l.1.1-.2.1h.1v.1h-.1l-.3.2v.1l.1.1h-.6l-.3-.2h-.4l-.2.1v.1h-.1l-.1-.1-.1-.1-.2-.1v-.1h-.2l-.1-.1-.3-.1h-.3l-.2.1-.1-.1-.1.1.1.1-.1-.1-.1.1h.1v.1l.3-.1v.1l.1-.1-.1-.1h.5l.2.1h-.1v.1l-.1-.1-.1.1h.6v.1h.1l.1.1.2.1h-.8l-1.2.1-.3.1-.1.1v0h-.3l-.2.1-.1.1-.4.1-.2.1v.1h-.2v-.1l-.2-.1-.2-.1h-1l-1.5.1-1.1.2-1.3.2-.5.2h-.2l-.1-.1v-.2h-.1l.1-.1h.1l.1-.1v-.1h.1l.2-.2.3-.1.1.1.2.2h.2l.3.1h.2l.1-.1v-.3l-.2-.1-.2-.1-.1-.1.1.1.2.1.4.2.5.2h.5l1.2-.1.5-.2.7-.1h.1l.1.1.5.2v.2l.1-.2v-.1h-.1v.1l-.1-.1-.1-.1-.1-.1h-.1l-.1-.2-.3-.1-.1-.1h-.4l-.2-.2-.1-.1-.2.1v.1l-.1-.1h-.1l-.2-.3-.1.1v-.1l-.1-.2-.5-.3h0l-.1.1-.1-.1v-.1h-.1l-.2-.1h-.1l-.2.1v-.1l-.1-.1.1.2-.2.1h-.2l-.1-.1.2-.1.1-.1-.1-.1h-.3l-.2.1-.1.1-.1.1.2.1-.1.2v.1h-.1l-.2.2h-.1l-.1-.1.1-.1-.1-.1h-.1v0h.1v-.1l.2-.1.1.1v-.1h.1v-.1H14l.2.1h-.6l-.2.1h-.2l-.1.1H13l-.2.1-.1.1v.1h-.1l-.1.3-.2.1-.1-.1.2-.3-.1-.1.1-.1-.1-.1-.2.1-.2.1-.1.1v.1l.1.1-.1.3h-.2v.2l-.3.2-.4.2h-.1v.1l-.1-.1v.1h-.1l.1-.1h-.1l-.2.1h.1v.1l-.1.1-.1-.1v.1h-.2l.1-.2h-.1l-.5.2-.1.1-.1-.1v-.1l-.1.1v-.1h.1l.1-.3.2-.1v-.1h-.1l-.2-.2h-.1v-.1l-.1.2-.1-.1-.1.1-.1.1V34l-.1-.1-.1.1v.1h-.1l-.1-.1.1-.2-.1-.1v.1h-.2v0l-.1.1V34h-.1v.1L8,34l-.2.2V34h.4v-.2l.1-.1.1-.1h.3v-.2l.1.1.1-.1v-.1l.1-.2h.1V33l-.2.1-.1-.1-.2.1v0l-.1-.1h.1v-.1l.1-.1.1-.1h-.1v-.2l-.1.1-.1-.1h-.1l-.1.1-.1-.1h-.1l.1.1h-.1l.1.1H8l.1.2v-.1l.3.1-.2.1-.1.1H8v.1h-.1v.1l-.1-.1.1-.1-.2-.2-.2.1-.1-.2v.1h-.1v.2l-.1-.1v.1h0v.2l.1.1h-.1v.1l-.1.1h.2v.1h-.2l-.1.2.1.1h.2l-.2.1-.2-.2-.1.1v-.2h-.1v.1l-.1-.1h-.1l-.1.2-.2.2-.1-.1h-.3l-.3.2h-.1l-.2.1h-.1v.1l-.1.1-.2.1.1-.2v-.1h-.1l-.2.1v-.1h-.1l-.3.1v-.1h-.1l-.1.2-.1-.1v.1l-.1-.1-.2.2v.1h-.1v.1l-.1.1.1.1h-.1l-.1.1v.3l.2.1v0l-.1.1h-.1v.2h.1l-.1.2h-.1v.1l.1.1-.2.1v.1h.1l-.1.1H3v.2l.1.1.1.1-.1.1h.1l-.1.1h.3v-.1h.1l.1-.1h.1l-.1-.1h.1v-.1l.1.1v-.1h.1l.1-.3h.1v.2h.3v.1h.1l-.1.1v.2h-.2v.1h-.1v-.1l.1.1v-.1h.1v-.5h-.1v-.1l-.2.2v-.1l-.2-.1.1.2-.1.1.1-.1H4l-.2.2h-.1l-.1.1v-.1l-.1.1h.1l-.2.1h.2l.1-.1v.1h.1l.1-.2h.4l.3-.1-.2.2-.2.5v.2l.3.1-.1-.1v-.1h.1l.1-.1.2-.4.3-.2v-.1l.3-.1.3-.1h0v.1l-.1.1-.2.2v.1l-.1.2.1.1.3.1.1-.1v.1l.2-.1.3.2h0l.1.1h.1v.1l-.1.1-.1-.2H6l-.1.2-.1.1-.1-.1-.1.3v.1l-.3.4-.1.1h-.1l-.1.1v-.3h-.2v-.1h-.1l-.1.1v-.2l-.1-.1-.1.1-.1.1h-.2l.1.1-.2-.1-.1-.1v.2h-.1l-.2-.1-.3.1v.1h-.1v-.1l.1.1-.1-.1-.1-.1H3l-.2-.2-.3-.1h.1l-.1-.2v-.1l-.1-.2v-.1h-.2v-.1l-.3.1.1-.1-.1-.1v-.1l-.2-.1.1-.1-.3-.1h-.3v-.3h0l-.1-.1.1-.1Zm42.7-11h0l.2.1-.2-.1ZM4.06,36.93Zm1.4-2.6h.2v.1l-.2-.1.1.2-.1-.2.1.2h-.1v-.2Zm-.9.1h0v0Zm.6,1.9h0v.2l-.2.1-.1.1h-.2l.2-.1.3-.3Zm-.4-1.8h0l.1-.2H5l-.2.2ZM25,30.43v-.3h.1l-.1.1v.2Zm-21.2,5.4H4l-.2.2Zm8.5-2.1h0l.3-.2.1.2-.2.1v-.1Zm1.6,0h0l.1-.2.1-.1h.1v.1l-.1.1-.2.1Zm9.4-2h0v0Zm-13.6,4.7h0l-.1-.2-.2.1.1-.2-.1-.1h-.5l-.2.1.1.1-.3.3v.2h-.2l.1-.1h-.2v-.1l.1-.1.1-.2v-.1l-.1-.1-.2.2V36l-.2.1-.1-.1v-.1l.2-.1h.1l.1-.1h.1l.1-.1h.2l.1-.1-.1-.1.1-.1.1.1v-.2l.3-.2-.1.3h.1v.1h.1l.1-.2h.1l-.1-.1h.3V35h.1v-.2h-.1l.3-.1v-.1H10v.1h.3v.1h.2v.1h-.3V35h.1l.1-.1v.2h.5v.3h.2v-.1h.1v-.1l.3-.1.1.1-.1.1-.2.1.1.1-.1.2h.2l.2-.2v.1l.1.2h.3L12,36h-.2l-.1.1h-.2l.1-.1-.1-.1-.1-.1-.3.1-.2.2-.1-.1h-.1l-.1.2h.1v.1l-.2.1v-.1l-.1-.1-.3.1H10l-.3.1Z"/></g></g></svg>