<svg xmlns="http://www.w3.org/2000/svg" viewBox="0 0 112.51 93.45"><defs><style>.cls-1{fill:#59f;stroke:#fff;stroke-miterlimit:10;stroke-width:0.8px;fill-rule:evenodd;}</style></defs><g id="Camada_2" data-name="Camada 2"><g id="svg2"><path id="path66" class="cls-1" d="M6.53,40.67l.1-.5-.1-.5v-.2l.5-.7.6-.5.3-.1h.7l.5-.2.1-.1.4-.3.6-.5L11,36l.3-.4.5-.4.4-.5.6-.4.4-.2.2-.2.3-.2.3-.4v-.5l.1-.5.2-.1h.5l.2-.1.6-1.2.1-.3-.1-.4.3-.5.4-.5.2-.5.3-.1h.5l.4-.3.2-.1.9-.1H19l.1-.5.2-.3L19,27l.1-.4.2-.2.2-.1.6-.2.2-.2.3-.4.1-.2v-.4l-.1-.6.1-.3.2-.1.3-.2h1l.4-.5.2-.4.3-.4,1.1-.9.4-.2.2-.2.1-.2-.2-.2-.2-.3V20l.2-.3.4-.1.5-.1.5-.1.4-.1.1-.1v-.1l-.3-.6v-.3l.4-.5.4-.1.4.2h.8l.3.1.1.1.1.3.1.2.1.2h.2l.1-.2v-.3l.3-.7v-.2l-.5-.3-.4-.3-.5-.2-.1-.3.1-.2.5-.2.5-.1.5-.5.1-.1L30,15h.1l.1-.1-.1-.2.2-.1-.1-.2.1-.1.1-.2h.2l.2.1v.1l-.1.2v.1l.4.2h.1l.1-.1v-.3l.2-.2.3-.1.2-.4.1-.2h.2l.2.3h.3l.1-.2.4-.4.5-.3.1-.1v-.2l-.2-.3h-1.1v.9l.2-.2h.4l.1-.1.1-.4.1-.2h.3l.4.1h.2l.1-.2.3-.5.5-.5h.2l.2.1.2.3.2.2.1.1.1-.1.1-.1-.1-.4.1-.1.2-.1L37,11l.4.2.3.1.1-.2v-.2l-.1-.2-.6-.3-.1-.2.1-.1.1-.1.3-.1.5.4.1.1.2-.1.1-.3h.2l.3.1H39l.2-.1.1-.2v-.1l.4-.4V8.07l.1-.2h.6l.1-.1.1-.3.1-.5.3-.5h.1l.2.1.1.5.2.1h.2l.1-.1.2-.2h.3l.5.2L43,7v-.2l-.1-.4v-.2L43,6h.1l.1.1.2.5h.3l.1-.2.1-.3.3-.5v-.2l.1-.2h.1l.1.1.3.3L45,6h.1l.2-.1.1-.2.1-.1h.7l.2-.1v-.2l-.1-.1L46,5v-.2h.5l.1-.1.2-.2h.1l.3.2v.1l.3.4.1.1.2.1.2-.1v-.2l-.1-.3v.4H48l.2.1.2.2.2.3h.1l.3-.1v-.4l.1-.2.1-.1h.3l.2-.1.1-.2v-.4l.1-.3.2-.3v-.2l.1-.4.2-.2h.1l.1.1v.5l.2.1h1l.1-.2.2-.4.4-.1.2-.3v-.3l.1-.2.3-.1h.4v-.5l.1-.1h.2l.2.1.1.2h.2l.2-.3.1-.3.1-.1H55l.2.5.1.1h.1l.1.1h.2l.1-.1.4-.3.2.1.2.5h.2l.2-.1h.1l.1-.1.2-.1.1-.1h.3l.2.1v.1l.1.1v.5l.1.1h.1l.2-.5h.4l.4-.2h.3l.3.3.2.1h.3v-.2l-.2-.2v-.4h.4l.1.2.2.1.6-.2.1-.2.1-.3.2-.2H62l.1-.1.1.1.1.2.1.1H63v.1l.1.1h.1v.3l-.1.2-.3.5v.3H63l.2-.3.5-.3.2-.1H64l.5.3h.2l.1-.1.1-.5v-.1H65l.1-.1.1.1.2.4v.1h.1l.3-.1.5-.2v-.3l-2.7-.1V1l.3-.3h.5l.1.1-.1.2-.3.4v.3l.1.1h.1l.4-.3h.1l.1.2H65v.2l-.2.3h-.2v.3h.1l.1.1.2.1.1-.1v-.5l.1-.3h.1l.3.1v.4l.1.1h.1l.3-.1.2-.1v-.1l.4-.2h.1l.1.1v.5h.2l.2-.1h.4l.1.1h.3v.1h.1v.1l-.1.3v.1l.2.1v.1l.1-.1.2-.2.1-.1h.1l.1.2.1.3v.1l.1.1h.1l.2-.2v-.3l.1-.1h.2l.2.3.2.1h.1l.1-.1.3-.1.1-.1h.4l.2-.1.2.3.5.1h.3v-.6l.5-.3H73v.1l-.1.3v.3l.3.3.1.1.1.1h.1l.1-.1-.1-.4v-.1h.2v.1h.1l-.1.4.1.3.2-.1.2-.2h.1l.2.2.2.1.2.2H75V4l.1-.1-.1-.2-.1-.2v-.3h.6l.1-.1.3.2-.1.1-.3.1-.2.2v.1l.4.1h.1l.2.3h.1v.1h.1l.1-.1.1-.2.1-.3.2-.2.1-.1h.1l.1.1-.1.5h.2l.2-.1h.2l.1-.1.2.1v.5l.1.1h.2l.2-.1.3.1h.2l.3-.2h.1v.2l-.2.1.1.1v.1l.2.1.1.1.2-.1h.3l.2.1v.2h-2.2v.2l.2.1h.5l.3.3V6l-.4.3.1.1h.2l.2-.1.2-.1h.1l.1.1v.5l.2.3h.2V7l-.1-.3.1-.1v-.4h.5v.1l-.2.5.1.1.2-.1.2-.1.3.3h.2v-.2l-.2-.2v-.2h.2l.5-.1v.1l.2.1.2.2h.1l.1-.1.1-.3.1-.1h.2l.2.1v.1l-.1.2.1.2h.3l.1-.1v-.3h.3v.1h.1l-.2.5.1.1h.2l.2-.3h.3V7l-.1.4.1.2.1.1h.1l.1-.2v-.1h.1v-.1l.2.1.4-.1h.3l.1.2h.1v.4l.1.1.1.1H86v.1l.3.3v.3h.2l.1-.2.1-.1.1-.1.2-.1.2.1v.1l-.1.4.2.1.2.2.3-.2.2.1h.1v.3l.1.1-.1.1v.2l.3.1.2-.1.1.2v.2l.3.2.1.2.1.1.1-.1.1-.1.2.1h.3l.2.2.3.2h.3v.1l.1.3v.1h.1l.3-.1h.1l.2.1.1.1-.1.3.1.1h.3v.5l.2.2.3.2v.4l.1.1v.1h.2l.1-.3.1-.1.1.1.1.2.4.2h.2l.1.1-.1.2.2.2-.1.1.5.1.2.2v.4l-.1.2-.2.1-.1.1.3.1.1.1.1.2-.1.3.1.1h.2l.3-.3h.1l.2.3v.1l.4-.1v.1h.1l-.1.2.1.3-.1.2V17l.2.1.1-.2.1.1v.1l.1.1v.6h.1l.5.3h.3v.3l.2.1.1.1.2.3-.1.3.3.1.3.3-.1.2.1.2h.2l.2-.2h.1l.2.2.2.3.2.1.1.1h.2v-.3h.2l.3.1h.6l.2.2.1.1h.6l.1.2h.2l.1-.3.1-.1h.1l.1.1v.6l.1-.1h.1l-.1-.3h.1l.1-.1h.2l.2.1.1.1v.1h.1l.2.1.3-.1v-.1h-.1l-.1-.1.3-.2v.1l.2.4.1.1.1-.1.2-.2h.1l.1.1h.2l.2.3v.3l.1.1.3-.1-.1-.2-.2-.3h.1l.1-.2.2-.1v-.1l.1-.1v.1l.2.1v.1l-.1.1-.1.2v.1h.2l.2.2.2-.2.2.1h.5l.1-.1.1-.2.1-.1.2.1.2-.1v-.1l.1-.1h.1l.1.2h.2l.1.2.1.2.2-.1-.1-.1-.1-.1.1-.1h.1l.3.2h.1l.1-.1h.1l-.1-.2v-.1l.2.1.1-.1.2.1h0l-.3.1.2.1v.4h.4l-.1.1.1.1.2-.3.2.1-.1-.1v-.2h.1l.1.3h.1l.1.1.1.1.1-.1-.1-.1.1-.2h-.1l.2-.1V21h.1v.4l-.1.1.1.1.3-.1v.1h.1l-.1.1.2.2-.2.2-.1.2h.1l.2.1.1.3.1.1.1-.1v.5h.2l.1.2-.1.1-.1.1h-.1v-.1h-.3l-.4.1v-.2l-.2.2h-.1l-.1-.1v-.2l-.1.1h-2.9l-.1.2-.1.1-.1.1.1.1-.1.1h.1l-.2.1-.1.1H107v.1h.1v.2h.1l.1.1h-.2l-.1.1v.2h-.1v-.2h-.3V25l-.1.2.1.1-.2.1v-.1h-.1l.2-.3-.1-.1-.1.1h-.1l-.1-.1v-1.7l-.1.1h-.2l-.1.2v.2l.2.1h-.1v.1l-.1.1-.2-.1v0l-.1.1v.2l-.1.1h.1v.2h.1v.2l-.2-.1V25h.1l-.1.4.2-.1v.1h-.1v.1l-.1.1-.1.1.3-.1v.2l.1-.1h.1v.1h-.1v.1h0v.2l-.2.1.1.1-.2.1.1.1h.2v.2h-.1V27l.2.1.1.1.2.1-.2.1-.1-.1v.3l-.1-.1-.1.1v.2l-.2.2.3-.1h.1V28h-.1v.1h-.1v.1l-.1.1v.1l-.6.3h.3v-.5l.3-.1h.2l.1-.1h.1v.1h-.2l.1.1h-.2l.1.1v.1h-.2v.2h.1l-.1.1v.2h-.3l.1.2-.1.1v-.1h-.4l.1.1v.3h-.2v.1l-.1.1.1.1.1.1h-.2l-.1-.1-.1.1h-.2l-.1.1v-.2l-.2.2v-.1l-.1-.1h-.1v-.1l.2-.1v-.1h-.1l-.2.1v.3h.1v.2h0v.4l.1-.1-.1.1.1.1-.2.1.1-.2-.3.2v-.2h.1l.1-.2h-.3v-.1H103l.1-.1h-.2V30l-.2.2h.2l.1.1v.1l-.3.1h.1l-.1.1h.1l.1.1h-.1l-.3.2h.2V31h.1v.3l-.1.1h.1v.1l.1.1v.1h.1v-.5l.1-.1v.1h.1v.1l.2.1h-.1l.1.1h.2l.1.1v.1h.2l-.1.1h.3v.1l-.1.1h.2l.2.1-.4-.5h-.2l-.2-.2-.2-.2h-.1l-.1-.4h.4l.3-.1h.1v-.1h.3l.1-.1.4-.2.1.1.2-.1.2-.1.1-.2.1-.1h.2V30h.2l.1.1h.2l.2.1.3.1h.2l.1.2v.1h.1l.1.1h-.1v.1l.2.1-.1.1v.1h.3l.1.1v.1l.1-.1v.1h.3l.3.2h.1l.2-.1.1.1v.1l.1.1v0h.1l-.2.1v.1h.5l-.3.3v.2l-.3.3-.7.8-1.6,2.3-.2.3-.1.2-.2.2-.1.2-.4.7-.4.7-.4.6-.3.6-.2.3-.5,1.3-.4.8-.2.5-.2.5-.5,1.5-.2.5-.2.5v.2l-.2.3-.1.4-.4,1.1-.3.6-.4.6-.5.8-1,1.3-.5.6-1.2,1.7-1.5,2-.1.2-.8,1.3-.4.5-.5.5-.6.7-.5.5-.6.5-.3.2-1.2,1-1.1,1-.7.5-.2.3-.5.5-.4.5-1,.7-1,.8-.9.6-.8.5-1.3.7-1.3.6-1.3.7-.9.6-.5.5-.7.7-1.3,1.4-.1.3v.4l-.3-.4-.3.1-.5.4-.5.3-.5.6-.5.5-.6.9-.5.8-.4.9-.6,1.6-.1.5-.3,1.3-.3.9-.6,1.5-.1.8-.6,1.4-.4.6-.5.6-1,1.3-.8.7L64,89.37l-1.5,1.3-1.3,1-.4.3-1.4.9h-.1l-.2.1-.1-.1h-.3l-.1-.1v-.1l-.1-.3v-.2l-.1-.1-1.1-.1h-.1v-.1l.1-.1-.1-.1v-.1l-.1-.2.1-.1.1-.2-.2-.2.1-.2.1-.1v-.9l.2-1,.1-1.5-.3-1.4.1-1.4.9-1.4,1.3-.7.6.1.8-1-.8-.3.3-.3.1.2h-.1l.1.1h.1l-.2-.3,1.4-.6.4-.5-.1-.1.3-.3.8-.2.2-.5-1.4-1.2v.1l-.1-.1-.1-.1-.5-.1-.3-.2-.1-.4-.4.1-.1.2h-.1l-.1-.1.3.4-.3-.2-.2-.1-.2.1h-.1l-.2-.3h0l-.2.2-.3-.2-.1-.1v-.1h-.1l-.1.1-.2-.4-.2-.3v-.1l-.1-.2v-.3h-.6l-.2.1v-.1l-.1.1-.3-.2v-.1h-.2l-.1-.2-.3-.1v-.2l-.2-.1-.2-.2v-.1l-.5-.2.1-.1.1-.4-.1-.2v-.1l-.2-.1V73h.1l.1-.2-.2-.1v-.2l-.2-.1-.1-.2v-.3l-.2-.3-.1-.1v-.1h-.1l-.1-.1.1-.1-.2-.1v.1l-.1-.1.1-.3h-.3l.1-.1v-.1l-.2-.4.1-.1-.1-.1.2.1.1-.1-.3-.1v-.2H54v-.1l-.1.1-.1-.1-.2-.1-.1.1v-.1h-.2l-.2-.1h.5l-.1-.1-.1-.2h-.1l.1-.1-.1-.1h-.1v-.4l-.2-.1-.1.1-.3-.1-.1-.2-.2-.1V68l-.3-.1-.2-.1h-.2l-.2-.2v-.1h.1v-.1h.1v-.1h-.1l-.1-.1H51l-.1-.1h-.1V67h-.1l-.1-.1h-.2l-.1.1h-.1v.1l-.2.2-.1-.1-.2.3v-.1h-.2v-.1l-.1-.1h.1l-.1-.1-.5-.2v-.2l-.2-.2-4-3,.1-.2-.1-.1-.1-.1-.1-.2.2-.1v.4l-.1-.2-.1.1-.1-.3-.1-.1-.2-.1.1-.1-.4-.5-.1-.1-.1-.1h-.3v-.1h-.1v-.1l-.3-.1v-.2l-.1-.1h-1.2l-.2-.2h-.1l-.1-.1-.1.1h-.2l-.1-.2-.5-.1-.4.2-.2-.1-.1.1h-.3l-.1.1-.3-.4h.7l.1-.1-.3-.2-.2-.2h.1l-.1-.1h-.1v.1H39l-.3-.1-.1.1h0v-.2h.1l-.1-.1v-.1l-.3-.1v-.1l.1-.1v-.1l-.1-.1-.3-.1-.1-.1.1-.1-.1-.1-.2-.1.1-.1h-.1v-.1l-.1-.1v0l-.2-.1-.2.1-.1.1h.1v.2L37,59l-.1.1h-.1v.2h-.2l-.1-.1-.3-.1-.1-.1h-.2v-.1h-.2l-.3-.2v-.1h.1l.1-.1-.1-.1h-.2v-.1l-.7-.1h-.1v-.1h-.1v-.5l-.1-.1.1-.1-.2-.2h-.3v-.1l.2-.1-.1-.1-.2-.1v-.1h.1l-.1-.1v-.1l-.2-.1-.1.1h-.1v-.1h-.1l-.1-.1h-.1v-.2h.1v-.3l.1-.2h-.2l-.2-.3v.1l-.1-.1.1-.1v-.3h-.1l-.2-.1v.4h0l-.2.1h-.1v-.1l-.1-.1H32l-.2-.1.1-.2.1-.1v-.1l-.1-.1h-.1v-.2h-.2v-.1l-.3.1-.1-.1v-.3l-.2-.1-.1-.1v-.2l-.3-.1-.1.1v-.1l-.2-.1-.1-.2-.1-.1v-.2l-.1-.2h-.1v-.1h-.1l-.1.1-.2.1h.1v-.1h-.2l-.1.1h-.1l-.1.1L29,53l-.1-.1-.1.2.2.1h-.1v.2l.2.2-.1.2h-.1l-.1.2.1.1-.1.1v.1h-.4v-.1l-.1-.1-.1.2h-.1l-.1-.2h-.1l.1.1h-.1v.3l-.1.1.1.1h-.3v.1l-.1.2-.3-.1.1.2-.2.1h-.5v.1l-.2.3v.1l-.3-.1-.1.1-.2.4h-.2v.1h-.1l-.2-.2-.1.1H25l-.1.1-.1.1-.3-.1-.3-.1-.2.1v.1l-.3-.1v-.1l-.1-.4v-.6l.1-.3.1-.1-.1-.1v-.4h-.1l.2-.4-.1-.1v-.3L24,53v-.2l-.1-.1-.1-.1-.1-.3-.1-.1v-.1h.1l-.2-.1v-.3h-.2v-.1h-.2l-.2-.1v-.3l-.1-.1h-.1l-.2.2h-.1l-.1-.4h-.1L22,51h.6v.2l.1-.2h-.1l-.1-.1-.2-.1v-.2l.2-.1v-.1h-.2l-.2-.2L22,50l.1-.2-.2-.1-.1-.1.2-.2-.3-.1h-.4l-.1-.1-.1-.1v.1h.1v-.1L21,49h-.1l-.1.2h-.1V49l.1-.1-.1-.1-.1-.1-.1.1h.1v-.1l-.1-.2v-.2l-.1-.1v.1l-.2.1-.3-.1h-.1v-.1l-.2-.1V48l-.1-.1h-.1V48h-.3l-.1-.1h.1v-.1h-.2v-.2l-.1-.1v-.1h.1v-.2h-.2l-.1-.3-.1.1h-.2l-.2-.2.1-.1-.1-.1-.2-.4-.2.1-.1.2h-.1l-.1-.2-.1-.1h0l-.2-.1h-.4V46l-.1-.2.2-.1v-.3l-.1-.1-.1.2-.3-.3V45l-.3.1h-.1l-.2.1-.1-.1.2-.2-.1-.3-.2.1-.2-.2h.2v-.1l-.2-.2-.1-.2h-.3v-.1l.3-.1v-.1l-.1.1-.1-.1v-.1l-.2.1-.1-.1-.2.1-.2-.2v-.2h-.1l-.2-.1-.4-.1h-.3l-.1-.2.1-.3v-.1l-.3-.1-.1-.2h-.2l-.1-.1-.2-.1h-.5v-.1h-.2l-.3.4v-.1l-.1.1v-.1l-.1-.1L11,42l-.3.1h-.3l-.1-.2h.3l-.1.1v.2h-.2l-.2-.1h-.2V42H10v-.1h-.1l-.2.2-.1.2h.1l-.1.1h0l-.3-.1v.2h.2v.2l-.2.1h-.2l-.2.4-.2.2v.2h-.1v.2l.1.1h0V44l.1.2-.1.1-.1.1h0l-.3.2-.1.3L8,45h-.4l-.1-.1v-.1l-.1-.1-.1.1v.1l-.2.2H7l-.1-.2-.2-.3-.1-.1-.1.2-.5.2-.1-.2-.1.1-.3.2v.2h-.3V45l.1-.1-.2-.1h-.3l-.2-.1h-.4l-.1.3-.4-.1-.4-.1-.1-.2-.1-.1.1-.5-.1-.1-.6-.3-.3-.1-.2.1.2-.2h.6l.5-.2.9-.5.3-.3.2-.5.3-.3.3-.3.8-.5Z"/></g></g></svg>