<svg xmlns="http://www.w3.org/2000/svg" viewBox="0 0 97.8 81.42"><defs><style>.cls-1{fill:#75bc11;stroke:#fff;stroke-miterlimit:10;stroke-width:0.8px;fill-rule:evenodd;}</style></defs><g id="Camada_2" data-name="Camada 2"><g id="svg2"><path id="path44" class="cls-1" d="M.78,26.23l.4-.3v-.4l-.1-.1.1-.1.2.1H2l.3-.2.2-.2.1-.3.8-.5.2-.2.3.1L4,24l.4-.1.2-.3.5-.1v-.3l.1-.2.4-.3.4-.4.2-.4.5-.4v-.6l-.1-.3-.3-.2v.4l.1-.1.5.2H7l.2-.1.3.2.2-.2.1.1v.2h.4l.1-.1-.1-.3h.4l.3.3H9l.2-.1h.2l.5.2.2-.2h.1l.3-.2h.2l.3.1h.5l.2-.1v-.1h.6l.2.1h.3v.2l.2.1.1.1.3.2.1.3.1.2.3.1h.2l.3.3h.1l.1.1v.3h.1l.2-.1.1.5h.1l.1.1.1.3h.1l.2-.2.1-.1h.2l.1-.2h.1l.2.1h.1l.4-.7.2-.1.1-.7h.4l.1-.2.1-.1.3-.1.3-.1h.4l.2.1.5.4h.2l.1.1v.2l.1.1.3-.1.1-.2.2.2.2-.1.1.1v-.2l-.2-.5-.1-.2v-.1l.1-.5v-.9l.1-.1.4.2.3.2h.1l.1-.1v-.1h.4l.1-.2.6-.4.2-.2.5-.2h.1l.5.3v.5l.3.5-.1.4v.1l.3.1v.2l-.2.3v.2h.2l.3.1.2.2.4-.3h.2l.2-.1-.1-.2.1-.1h.5l.1-.1v-.1l.2-.2-.1-.3h.1l.1-.1.1-.1h.2l-.1-.2.2-.2v-.2l.2-.2h.3l.2-.2h0l.2-.1v-.1l.1-.3.1-.2.1-.1-.1-.2h0l-.1-.2v-.5l-.1-.1v-.2h0l.1-.1.2-.6v-.5l.2.1.1-.1.1-.2.3-.2.4-.3.4-.1h.4l.1.1.3.4h.1l.3-.1.4-.3v-.1h.2l.1.1.2.3.2-.1h.3l.4.1h.2l.1-.1.2-.1v-.2h.1l.2-.1.1-.1h.2l.5.1.4-.1H35l.2-.1.4-.1.4-.2.7-.3h.2v.3l-2.8.6v.1l.2.1h.2l.5-.1.5.1.7-.5h.4l.1-.1v-.2l-.1-.6v-.4l-.1-.3v-.1h0l.3-.3.1-.2-.2-.4v-.5l.2-.3L37,11l.2.1h.2l.3-.2h.1l.5.1-.1-.4.3-.4-.1-.1.1-.1.1-.2h0l.2-.1.1-.5.1-.1h.1l.1.1v.1l.2.2h.1l.3-.5v-.2h-.1l-.2-.2v-.3l-.3-.3-.1-.3v.1l.5-.4v-.2l-.2-.2-.4-.1v-.1l.5-.3v-.8l.2-.1.3.1.1-.1.2-.3.1-.2h.3l.3.1.3.1.5.4h.1l.1-.1.2-.3v-.2l.2-.3.4-.3-.4-.6v-.1l.3-.3.5-.3.3-.5.1-.1.1-.3-.1-.1V2l.3-.2.1-.3.2-.1.1-.2-.1-.2.1-.6,1.2.1h9l.2.2h.1l.1.1H55l.2.3.1.2h.4l.5.3.3.3.2.2.3.2v.1l.2.2-1.1.2.1.3.1.1-.1.2-.1.1v.2l.1.2.2.1.2.4-.1.1.1.1.5.3.1.2.1.1.1-.1.1.1h.1l.1.1h.1l.1.3-.1.2h.1V6l.1.2-.1.2h.2l.1.2.1.1v.1h.1l.3-.3.2-.1.1-.2h.1l.1-.1.2.2.1.2.2.1.4.1h.2l.2.1.2.1.1.1v.2l-.1.2-.1.4.1.4v.3l.1.2.1.1h.2l.1.2-.1.3.2.2-.1.2L61,10v.1l.1.1.6.5h.1l.1-.2-.3-.3V10l.1-.1.2-.1.1-.1.4.1.2.2h.6l.1.3.1.2v.2h-.3l-.1.1.3.2.2.3-.1.2.1.2.2.1.1.1-.1.2v.1l.4.9.4.1.4-.2h.6l.2.4.2.1.2.3v.3l.1.1.1-.1.5.2.2-.1h.3V14h.3l.3-.2v-.4l.1-.1-.1-.2.1-.2.2-.2v-.5l.1-.2h.1l.3.2H69l.2.1.2-.2V12l.2-.1v-.1l.1-.1-.1-.1.1-.2h.2l.2-.1.1.3.1.1.4-.1.3.1.1.1.2.1.1.1-.1.3.1.1.3.5H72l.1.1h.1l.4.2h.3v.2l.1.1.1.4.3.3.1.3.2.2-.3.4-.1.1-.4.7-.1.3v.3l-.2.2v.2h-.1l-.1.3v.6l.2.3.1.1.1.3.1.1v.3l-.1.5.1.2-.1.1-.1-.1-.3-.1h-.3l-.2.1-.1.2h-.5v.3l.1.1.2-.1v.1l-.1.3.1.2-.1.1-.1.2v.4l.2-.1v.1l.2.1h.3l.2.2.2.1-.2.1.2.3-.1.1v.2h-.1l-.3.3.1.1V23l.1.1.1.1.5.3-.4.1v.1l.3.3.2-.1v.2H73v.4h.1v.1h.1v.1l-.1.5.1.2h.1l.1-.1v.1h.1l-.1.1-.2.4H73l.1.3v.2l-.3.1-.1.2h-.2l-.1-.1-.4.2.1.1h.2l.4.2v.3l-.3.4.2.1.2.1v.1l-.1.2.2.1v.3l.1.3v.4l-.2.2V30l-.1.1.1.1v.1h-.1l-.1.2.1.1v.3l-.2.1v.1l-.2.5-.3.2v.1l-.1.1.1.3h-.1v.2l-.1.2v.2l-.1.5v.1H72v.1l.3.1V34l.1.1-.4.1v.6l.1.2.2.3.2.3-.2.1.1.2h.1l.1.2h.3l.1.3h.1v.4l.1.2h.1l.1.1.2.1-.1.1v.1h.2l-.1.5-.1.1.1.1-.2.4V39l.2.2v.2l-.2.2.1.3-.1.1.1.2-.2.3.1.1v.6h-.1l-.1.1v.3l.2.2h.1v.1l-.2.1v.1l.1.2v.2l.1.1-.1.3.1.2h-.2v-3.3l-.1-.1v-.1l-.1.1-.1.1.1.2-.1.2v.3l-.2.1v.6h-.1l.1.1v.2h.1v.2l-.1.3v.2l-.1.1v.3h-.3v.1l1.6.1h13.1v.3l.1.1h.1l-.1.4h.1l.1-.1.2.1.1.1-.1.3h.2v.1l.1.1v.1l.1.1h.3l.3.2.1-.1h-.1l.1-.3-.1-.1.2.1.3-.3h.1l.1-.1.1.1h.2v.4l.1.1h.5l.2.1.2.1h.1l.2.1.1-.2h.1l.3-.1.1.1.1.1.2-.1.2.1.1-.1.1.1h.2v-.1l.1-.1.1.1.1.4.4-.1.1-.1.1.2h.1l.1-.2v.1h.4v-.1l.2.1-.1.3-.1-.1.1.2h-.2v.1l.1.1v.1l.1.2h.2v.1h.1l-.1.1-.1.1H94v.5l.2.3V47l.1.2v.2l.2.2.3.1.1.3v.2l-.1.1h.1l-.1.1.1.3V49l-.1.2v.1l-.1.1h-.1l-.1.1-.1.1h-.3l-.2.5-.2.1-.1.1-.1.1-.1.1-.1-.1v.2l-.2.2-.2.3v.1l-.3.1v.1h-.1l-.1.1v-.1l-.1.1.1.1h-.1l.1.1h-.2l.1.1h-.2l-.1.1.1.1-.1.1.1.2-.1.1h.1l-.1.2.1.1H92v.6h-.1l.1.1v.3l-.1.1.2.1L92,54l.1.3v.2h.1v.2h-.1v.1h.1v.1l-.1.1h.2v.1h-.1l.1.1-.1.1.1.1h-.1l.1.2-.2.1.1-.1.1.1v.2h.1V56h.1v.1l.1.1v.2l.2.1.2.1.1-.1.1.1.1-.1.1.1.2-.1.2.3h.1l.1.1-.1.2.1.2v.2h-.1l.3.2-.1.1.1.1V58H94l.2.1v.1l-.1.2-.1.2h.2v.2l.1.1V59h.1v.1h.1l.3.2.1.3H95l.2.3v.8l-.1.1V61l.1.3v.1l.1.2v.2h.1l1.6,1.3-.3.1-.2.2v.1l-.2.2v.2h-.1l-.1.1v.2l-.2.2.1.5-.1.2-.1.1-.2.1-.2-.1-.1-.1-.2.1v-.1l-.1.1h-1.9v.1H93v.2l-.3.1-.3.4-.4.1-.1.1-.2.2-.1.1v.2l-.1.3h-.1l-.2.1-.2.2.1.2v.2l-.2.3v.4l-.2.5v.3l.2.5v.4l-.1.5.1.6-.1.3-.3.3-.2.5h-.2l-.1.2-.1-.1H90l-.1.1-.3-.1-.1.1v.1l-.1.1-.1.2-.1.1v.3h-.1v-2.5h-.2V71l-.1.2h-.1l-.2.3h-.2v.2l-.1.1.1.1v.2l.1.1-.1.2.2.1-.4.5H88v.3l-.2.3v.2h-.1v.4h-.1l-.1.3h-.2v.3l-.1.1V75l-.1.2h0l.1.2v.5h-.1V76H87v.3l.2.2-.2.1V77l-.1.2h-.2v.1h-.1l-.3.3v.1l-.4.1-.1-.1-.2.1-.1.1v-.1l-.3.1-.4.3v.3h-.2v.1h-.1l-.1.1-.3.2H84l-.1.1h.2l-.2-.1-.3.1v.1l-.1.1v.2l-.1-.1-.1.2h-.2v.1h0v.1l-.2.1V80l-.1.1.1.1h-.1l-.1.1h0l.1.1-.1.1h-.1v.1h-.1v.1l.1.1-.1.1-.4-.2-.2.1-.2-.1v-.3h-.1l-.2-.1-.3-.1L81,80l-.2-.1h-.2l-.5-.2-.1-.2-.4-.3-.1-.2-.1-.2.1-.2-.1-.1h-.1l-.3.2h-.1l-.1-.2h.1v.1l-.3.1-.1-.4h.1l.1.1v-.1l-.1-.1V78l.1-.1.1.1.1-.1-.4-.2-.2.1-.2-.1H78v.1l.3.1-.1.1-.2.1h-.1l-.1-.2h-.1l-.2-.1h-.1V78l-.1.2v.1l-.1.1-.3-.2-.2.2.1-.3h-.1l-.1.1.1.1-.1.1-.1-.1v-.1l-.2-.1h-.2V78l-.1.2.1.1v-.5l-.2-.2-.2.1-.1-.1-.1-.1-.1-.1v-.2h-.3l-.2.1-.1-.1V77l-.2-.1h-.1l.1.3-.2.1H74v.2h-.7l-.3.1.1.2h-.2l-.2.1-.5.2-.3-.2h-.3l-.2-.1-.2-.1v-.1l-.3-.1h.2l-.1-.1.1-.3L71,77l-.1.1v.1h-.2l-.2.2h-.1v-.2h-.1v.2h-.1l-.2-.1v.2h-.1l-.3-.1v-.1l-.2.1-.2-.2.1.1-.2.1-.3.2-.1-.1v.1h-.2l-.1-.1-.1.1.1.1-.1.1h-.1v-.3h-.1l-.1.2-.1.1-.3-.1-.1-.1v.2h-.1v-.1l-.2.1-.1.2v-.4H67l-.1.2-.2-.1v-.3l-.2-.2v-.6l-.2-.4v-.1l-.2.1H66l-.2-.1V76l-.2-.2-.1.1-.1-.1h-.2l.1-.2-.1-.1h-.1l.1-.2-.1-.1-.3-.1v.1h.1l-.1.1-.2-.3v-.4H65l-.1.1-.2-.3h-.2V74l-.2.1-.2-.1v-.1h0l-.1-.2-.2-.2v.3l.1-.2v-.3l-.1-.1-.1-.5.1-.2-.1-.1-.1-.1h-.1l-.1.2h-.1l-.1-.2-.1-.1-.1-.1v-.3h-.2v.4l-.1.2-.2-.1v-.4l-.2-.2h-.1l-.1.2-.1-.1h.1l-.1.4h-.2v.1l-.2-.1.1.2h-.1l-.2-.2-.1.1-.1-.2h-.1l-.1.2-.1-.2-.2.2v-.1h.1l-.1-.1-.1.1-.2-.1-.1.1-.2-.2-.1.1-.1-.1v-.3l-.2.3-.1-.2-.2-.2v-.3l-.1-.1h-.1l-.1.2-.1-.1.1-.2V71h0l-.1.2h-.1v-.3h-.1l-.1.1.1.2-.3.1-.3-.3-.2.1h-.2l-.2-.1-.7-.4v-.2l.2-.1-.1-.1-.2.1h-.1l-.1-.1.1-.2v-.1h-.3l.1-.3v-.1h-.1l-.2.1v.1l-.2.2h-.3v.2l-.1-.1-.1.1-.2-.1-.1.2v.2l-.2-.2V70h-.1l-.1.3-.3-.1-.2-.3-.2-.4v0l-.3-.1-.1.1-.1.1h-.1l-.1-.1.1-.2-.2-.2h-.1l-.2-.4-.2-.1v-.3l-.2-.1-.2-.2h-.2l-.1.1v.1l-.1.1v-.2h-.2l-.1.2h-.1l-.1-.1v-.1l-.4-.1-.1-.2.1-.3h-.2v-.3l-.2-.1-.2-.5-.1-.2h-.2l-.2-.1.1-.3.2-.1v-.1l-.1-.1h-.4v-.1l.1-.1v-.2h-.5v-.2l-.2.1V65H49v-.3h-.1l-.1.1.1.2-.2.1-.2-.2-.1-.1-.1.1.1.2v.1l-.1.1H48l-.1.1h-.3v.1h.1v.1l.1.1v.1h-.2l-.1-.1h-.6l-.5-.2-.3-.2-.3.1-.1-.1-.4-.3-.1-.4-.2-.1-.1.1-.1-.1-.1-.1H45l-.2-.2v-.3h.3l-.4-.3-.3-.5-.3-.1-.3-.1-.3-.1-.1-.2-.5-.2-.3.1-.2-.2-.6-.2h-.4l-.3-.2L41,62l-.2.2-.1.1-.1-.1-.2.3-.3-.1-.3-.2h-.2l-.1.1v.2l-.1.3v.3l-.1.1h-.2l-.3.2-.3.1-.1-.1-.4-.3h-.1v.1l-.1.1-.2-.2-.2.2h-.1l-.1-.3-.2-.1h-.1l-.1.1h-.2v-.2h-.1l-.1.1-.2.2h-.1v-.3l-.1-.1h-.2l-.1.4v.1h-.3l-.1-.1.1-.2v-.4h-.2l-.1.1H35l-.2-.1h-.1l-.2-.2-.3.4-.3.1-.1.2-.1.1-.1-.1-.1-.1.1-.3v-.2h.2l-.7.4-.2-.2-.1-.1-.4-.4-.2-.3h-.1l-.4-.2-.1-.3v-.1l.1-.2.1-.5V60l-.1-.5-.1-.1-.2.1-.4.2h-.1l-.2-.3-.1-.1H30l-.7-.3-.4-.1-.2-.2-.1-.5.1-.3.2-.3v-.1l-.2-.2-.1.1-.3.1.1.3v.3l-.1.3H28l-.1-.2.2-.5-.1-.1-.1-.1-.3-.2h-.2l-.1.2-.3.4h-.1l-.1-.2v-.2l.2-.3.2-.1.1-.2-.1-.2-.2-.4-.1-.1h-.3l-.5.3-.2-.2-.2-.3-.1-.1-.2.1-.1.3h-.2l-.2-.4h-.1l-.3.1h-.1v-.2l.1-.2-.1-.1-.1.1v-.1l.2-.3.2-.6-.1-.1-.2-.1H24l-.2-.3V54l.2-.5V53l-.3-.8V52l-.1-.2h-.2L23,52h-.7l-.1.1.2.2v.2h-.2l-.5-.3-.4-.3-.1-.1.1-.1.4-.4.2-.4v-.1l-.2-.4v-.1l.1-.2-.2-.2v-.2l.3-.3.1-.3-.1-.1.2.8h-.5l-.5-.2H21l-.1-.2-.2-1v-.5l-.2-.5.1-.2.5-.1.1-.1-.1-.2h-.5l-.1-.1-.2-.7v-.5l.1-.1.4-.1.1-.1-.1-.2h-.4l-.2-.5v-.2l.2-.2.3-.3.6-.2.1-.2-.1-.2-.2-.4-.1-.1.5-.4.3-.2V42l-.3-.3-.1-.3-.1-.3V41l.3.1-.2-.7-.5-.7-.3-.2h-.2l-.2-.1v-.3h.2l.1-.3-.1-.3.1-.4v-.3l-.1-.3-.1-.3-.3-.1h-.3l-.1-.1v-.1l-.1-.1-.1-.1.1-.1v-.2l.2-.1v-.2l-.1-.4-.2-.3.1-.4-.2-.2-.1-.2.1-.3h.3l.2-.2.2-.3v-.5l-.2-.4.2-.3.2-.1.3-.4.3-.3.2-.5.1-.1.1-.2.1-.2v1l-.2-.4v-.3l.1-.4-.1-.5-.2-.2-.1-.4-.1-.2.2-.6-.1-.4-.1-.2v-.5l.1-.4.5-.5.1-.4-.1-.2-.4-.3-.2-.5-.2-.4-.1-.4-.2-.2-.4-.4-.7-.3v.1l.1.1V24l-.1.2-.4.2h-.1l-.1-.1v.1l.1.2-.3.1v.8l-.2.1-.3-.2-.1.4h-.2l-.1.1V26l.1.3v.1h-.1l-.1-.1-.4.1v-.3h-.1l-.2.1-.1.1-.1-.1-.1-.4h-.1l-.1.2v-.1l-.1-.1.2-.2H16l-.2-.2-.3.3v.2l-.3-.1.2-.3-.2-.2v-.1h.4l.1-.1h-.1v-.2l-.2.1-.1.1h-.4l-.1.1v.2h-.1l-.2-.2-.2-.1.1-.2v-.2l-.2.1v.1l.1.3-.1.1-.1.2-.1.1-.1-.1v.1l-.1-.1-.1-.2.2-.1v-.1h-.1l-.1-.1h-.1v.2h-.2v.2l-.1.1v.1h-.5l.1-.2v-.1l.1-.1-.1-.1-.1-.1h.3l-.2.1v.1h-.2V25h-.1l-.1.1.1.1h-.1l-.1.1v-.1l-.1-.1-.2.1-.2.1-.1.4.2.1h-.1l-.2-.1v.2l-.1-.1h-.1v-.2l-.3.3h-.1l-.2-.4h-.5l-.2.1.1.1h-.1l-.1.2-.1-.1v-.3h.1v.1h-.2v-.1l-.1.1-.1-.1-.1.1-.1-.1-.3.1v.2h-.3v.1l.1.2-.1-.1-.1.1h.1l-.2.1h-.1l-.1-.1-.3-.2v.2l-.1-.1v.1l-.1.1h.1l-.2.1v-.2l-.1.1v.2h-.1l-.2-.1h-.1l-.1-.1-.1.1h-.4l-.1.1v.3l-.4.1-.3-.1v.1l-.1.1V27h-.1l-.1.1v.1h0l-.1-.1.1-.3-.2-.1-.1.1h-.2l.1.1h-.1l-.2-.1h-.3V27h-.1v-.1h-.2l-.1.1h-.1l-.3-.1v.2l-.2-.1h-.1l.1.1-.1.1-.1-.1-.1.1v.1l-.1-.1-.5-.1Z"/></g></g></svg>