<svg fill="none" height="128" viewBox="0 0 128 128" width="128" xmlns="http://www.w3.org/2000/svg"><path clip-rule="evenodd" d="m99 28v17.4926c0 2.4691-1.5126 4.6861-3.8117 5.5867-2.0392.7988-4.0969 1.5439-6.1883 2.196v56.7247c0 2.209-1.7909 4-4 4s-4-1.791-4-4v-54.6563c-11.5471 2.3862-23.4756 2.3152-35-.2131v54.8694c0 2.209-1.7909 4-4 4s-4-1.791-4-4v-57.0434c-1.7499-.5697-3.4751-1.2062-5.1883-1.8773-2.2991-.9006-3.8117-3.1176-3.8117-5.5867 0-5.8294 0-11.6656 0-17.4926 0-7.732 15.67-14 35-14s35 6.268 35 14zm-13.2224-2.4717c-1.152-.4608-2.429-.8913-3.8166-1.2822l-2.2751 8.0893c2.2872-.5287 4.3349-1.161 6.0917-1.8637 4.9361-1.9744 4.9361-2.969 0-4.9434zm-24.7302 8.4177c-.231-.6681-.3862-1.3734-.4549-2.106l-.65-6.9334c-.0482-.5138-.4795-.9066-.9956-.9066h-1.6768c-.3973 0-.7569.2352-.9161.5992l-3.7443 8.5582c2.6119.4038 5.4428.6785 8.4377.7886zm-16.3766-2.6016c-.8682-.2758-1.6857-.5676-2.4484-.8727-4.9361-1.9744-4.9361-2.969 0-4.9434 1.6756-.6702 3.6157-1.2764 5.7759-1.7897zm22.7888-9.2702c.2272.6622.38 1.3606.448 2.0857l.65 6.9334c.0482.5139.4795.9067.9956.9067h1.1591c.448 0 .8413-.298.9626-.7293l2.423-8.6148c-2.0935-.2817-4.3149-.4812-6.6383-.5817zm-3.4596 19.9258c10.8688 0 20.5804-1.9817 27-5.091v7.2149c-17.3925 6.6103-36.6075 6.6103-54 0v-7.2149c6.4196 3.1093 16.1312 5.091 27 5.091z" fill="#000" fill-rule="evenodd"/><path d="m64 41.9999c19.33 0 35-6.268 35-14v17.7738c0 3.6928-2.194 7.0326-5.5832 8.4989-18.7705 8.1211-40.0631 8.1211-58.8336 0-3.3892-1.4663-5.5832-4.8061-5.5832-8.4989v-17.7738c0 7.732 15.67 14 35 14z" fill="#ce3b3b"/></svg>