<svg xmlns="http://www.w3.org/2000/svg" viewBox="0 0 69.73 116.4"><defs><style>.cls-1{fill:#9cce59;stroke:#fff;stroke-miterlimit:10;stroke-width:0.8px;fill-rule:evenodd;}</style></defs><g id="Camada_2" data-name="Camada 2"><g id="svg2"><path id="path54" class="cls-1" d="M.53,87.31l.2-.4v-.4l.2-.4.1-.3v-.2l.1-.2.1-.1.2-.2.2-.1.1-.5.1-.4-.1-.3v-.2l-.1-.4.1-.3v-.2l.2-.1.1-.3.3-.2v.2l.1-.2v-.4l-.1-.2v-.4l-.1-.3.1-.2-.2-.5.2-.3.3-.3v-.2l-.1-.2-.4.2v-.5l.1-.2v-.1l.1-.1h.2v-.3l.3-.5-.1-.3h0l-.1-.2v-.3l-.3-.2v-.2l.3-.3.2-.3.1-.2h.3l.1-.1.1-.3.2-.3-.1-.3.1-.3h0l.3-.1H4l.1-.1-.1-.3.2-.9.4-.2.1-.2.3-.2.1-.1-.1-.3v-.1l.3-.6.1-.5.2-.5-.1-.6h-.4v-.1l.1-.5.2-.4.2-.2.1-.3.2-.2.4-.2.2-.2.1-.3v-.4l.2-.3v-.2L7,66v-.4l.3-.5.3-.3v-.2l.1-.1.1-.3.1-.3.1-.5.5-.6v-.2l.1-.1v-.3l.2-.3v-.4l.2-.1.1-.2.1-.2v-.3l.1-.2.2-.2-.1-.3-.2-.3v-.1h.1v.5l.2-.6.4-.4.1-.4v-.5l.1-.4v-.1l.2-.2.2-.2.3-.1.1-.5h.4l.4-.5.5-.4v-.3l.1-.1.4-.5.2-.4.1-.3V54l.1-.3.7-.6.1-.3.2-.4.2-.2.2-.3.2-.1.6-.5.5-.2h.4l.3-.1.1-.2.3-.4.4-.5.6-.9.2-.3.1-.4.2-.2.1-.3.5-.5.2-.3v-.2l.1-.8.1-.2.1-.3.4-.5H20l.4-.2.3-.2.2-.2.2-.5.1-.3.1-.7.3-.5.2-.4.1-.2.1-.3.1-.5-.1-.3.1-.2v-.3l.1-.1V40l.2-.1.1-.2V39l-.1-.5.2-.3v-.4l.1-.4-.1-.6v.5l.1-.1.1-.2v-.1l-.1-.2-.2-.1-.4-.1-.3-.2-.3-.4-.3-.2-.5-.4-.4-.2-.2-.2-.1-.2-.3-.6V34l-.3-.5v-.3l.1-.7.2-.1.2-.4.4-.5.5-.5.2-.2v-.1l.2-.3.3-.4.3-.4.1-.4.3-.5.1-.3-.1-.4-.1-.8v-1.5l-.2-.6-.1-.1v0l.1-.2.3-.3.1-.2h.1l.3-.1.5-.3.4-.4.5-.4.2-.2.2-.3h.6l.4-.2.2-.1.2-.1.5-.1h.9l.5-.2h.1l.2-.2.3-.5.7-.2.3-.2.1-.2.1-.2V20l-.2-.5v-.2l.1-.3.2-.2v-.3l.2-.3.1-.1.2-.4.6-.5.2-.1.3-.3.1-.2.2-.3.1-.1h.7l.3.1.4.3.2.1.1-.1.1-.4-.1-.3-.1-.1-.2-.1-.2-.1-.1-.2v-.1l.1-.1-.1-.2-.1-.5-.1-.3v-.6l.2-.2.2-.2.2-.1.4.1.5-.2.4-.3.2-.2.1-.3V12l-.3-.4-.4-.1-.1-.1v-.2l.1-.2.2-.3.2-.2.2-.1.5-.1.3-.2v-.4l-.2-.3v-.1l-.4-.4-.2-.3-.1-.1v-.1l-.1-.6v-.5l.1-.2.1-.2.2-.1.6.1.3-.1h.1l.1-.1.2-.1.2-.3.3-.5.1-.2v-.5l-.5-.4-.2-.1-.1-.1-.2-.2h-.3l-.5-.1-.2-.1-.2-.1-.1-.1-.3-.4-.1-.1v-.1l-.2-.3-.1-.2v-.3l-.2-.2-.1-.1-.1-.2-.2-.1h-.1l-.1.2-.3-.1-.3.1h-.1l-.1.1H32l-.1.1-.3.1h-.2l-.6-.1h-.7l-.4-.1-.2-.4h-.1l-.4-.1h-.5v1.6h-.2l-.2-.1-.1-.1v-.2l.2.1.1-.1.3.1.1-.1.1-.4.1-.1.2-.1.4.1.2.1.1.2.3.1.1-.1.3-.3.2-.5v-.3l.1-.3h0l.3-.4.3-.2.5.1.3-.2,1.4-.2.2.1.5.4h.4l.3.2.4.2.2.1h.1l.2.2.3.1.2.1.9.1.4.1.5-.1.5-.5H39l.5.1h.4l.6.3.1.2.1.3V3l.4.5.2.2h.5l.4-.1h.4l.7.5.3.1.6.5.5.2.2-.1H45l.8.8.2.5v.5l.1.4v.6l-.2.6-.1.3.2.4.2.2.4.8.1.5.1.1v.9l-.3.8.2.3.1.4v.4l-.1.4.1.4.2.8.2.5.2.3.1.3v.5l-.4.7v.1l-.1.5-.1.4-.1.4-.1.1.3.7-.1.2h-.1l-.4.5v.2l-.1.1v.8l-.2.3-.3.5.1.3-.1.1v.8l-.3.5-.2.5v.1h.1v.1l.2.5.1.3-.1.2-.3.5v.4l-.1.2-.1.3v.1l-.1.2-.4.4-.2.1-.4.5-.1.4-.3.4-.2.1-.2-.1-.3-.1h-.2l-.1.1-.5.3v.6l.2.2.5.3.3.3.3.6h.4l.3-.5.2-.1h.6l.1.1.5.4.2.4.1.2-.1.5-.4.2v.1l-.7.3-.2.1-.2.4.4.1.2-.1.3-.1h.4v.2l.1.5.2.2v.5l.1.1H46l.1-.2h.4l.1.1.1.1v.1l-.1.1-.1.1v.1h.2l.2.1H47l.1.1-.1.2.3.2V36l-.1.2v.1l.1.2.2.1.2-.2v-.1h-.2l-.1-.2V36h.3l.1.2.2.1.2.2.1.1-.1.1h-2.1l.1.1V37l.5.1v.2h-.1l-.1-.1v.1l.1.1-.1.1v.2h.1l.1.1.1-.1.2.1.1-.1v.2h.2V38l-.1.2.1-.1h.2l-.1.1.1.3.1.2-.1.1h.2l-.2.1V39h.2v.1l.1.1.1.1h.2v.1h.1v.1l.2-.1v.2h.1v.2l.2.2.1.1v.1H49v.5l.2-.1h.1l.1.3.1-.1-.1.3.1.1.1-.1v.2h-.1l.2.2-.2.1h.4l.3.3v.3l.2.1-.1.1.2.1v.1h.3v.1h.3v.1h.1l.1-.3.1.1v-2.3l.3-.1-.1-.1.2-.1v-.3h.1l.1-.2h.3v-.2h.1l.1.1h.1l.1-.2h.1V39l.2-.1V39l.1.1.1-.1.1-.1.1.2h.1V39h.1l.3-.1.1-.1.1.1h.1v-.1l.1.1v-.1l.1-.1.1-.1v.1h.1l.1-.3.1.1.1-.1h.2l.1-.1h.1l.1-.1.2.1h.3l.1-.2h.1l.2.1h.1l.2-.2h.3l.2.1v.1h.2l.1.1.2.1v.3l.2.1.4.2.4.3.1.2v.1l.1.1v.7l.2.2v.2l-.1.1h-.2l-.1.2v.2l-.3.7v.2l.2.1.2.2-.1.1-.2.2-.1.3.1.5-.2.3-.2.2-.2.2-.2.1h-.3l-.2.1h-.2l-.4-.2-.4.2-.2.1-.2.1-.3.1-.1.2-.1.1-.1.2-.1-.1h-1.2l-.3-.1v.2h-.1l.1.2-.2.1-.1-.1.1.3V46l-.1.2.1.1-.3.3-.1.1-.1-.2-.1.1v.1h-.2v.2l.1.2h-.1l.1.1-.1.1.1.1-.1.1.1.1h-.1v.1l-.1.1v.1l-.1.1-.1-.1V48h-.1l.1.1h-.1v.1l-.1-.1v.1h.1v.1l-.1-.1v.3h-.1l-.1-.1v.1h0v.1l.1-.1.1.1v.1h-.1l.1.1h-.1v.1h-.1V49l-.1.1.1.1-.1.1.2.1H52l-.1.1h.2l-.1.1.1.1.1.2-.1-.6H52l-.2.2v.3h-.3l.1.3.1.1v.2h.1v.1h.1l.1.3-.1.1v.3l-.1.1.1.1-.1.1h-.1v.1l.1.1-.1.1h-.3l-.2.2-.1.1L51,52h-.2l-.2.1.1.2v.1l.1.1h.1l.1.2-.2.1v.1l-.2.1v.1l-.2.1h-.1l-.1.1.1.2v.1l-.1.1v.1H50v-.4l-.1.2v.1h-.3l-.1.1.2.1.1-.1v.1h.1V54l-.2.1v.2h-.1l.1.1h-.2v.1l.3.2v-.1H50l.2.1.2-.1-.1.2h.2v-.1h.2l.2.1.5-.2h.3l.1.2-.1.1h-.2l.1.1h-.1l.1.1-.1.1.1.2h-.1l.1.2h.3l.1-.1.1-.1v.3h.1l.4.1.1.1.1.2-.1.3v.1l.2.1.2-.1v.1l.1.2-.1.2-.1.2.2.3-.1.1-.1.1v.1l-.2.1v.2l.1.2.3-.1h.1v.2l.2.3.2.2.1.1.1.1.2.3-.1.3v.1l.3.1v-.1l.1-.1.2-.1H55l.3-.1h.1l.2.2.3.1-.1.1-.1.2v.2l.1.1.2.2h.2l.2.1.1.2.3-.1.2.1v.2l-.2.2v.1l.2.3v.1l.3.1V62l-.5.4-.2.1v.3l-.2.3v.4l-.1.2-.5.4.1.4v.2l.1.1v.1h.7l.3.2.1.2-.1.1-.1.3v.1l.3.1h.3l.4-.2.1.2.2.2-.1.3h.1l.2.2-.2.1v.1l.3.1v.3l-.1.1v.3l.2.2-.2.2.1.4-.1.2.3.4v.5l.1.1.1.3.3.1h.1l.5.5.2.6.3.1.3.2.2-.2.2.1h.4l.5-.1.4-.1.2.1.1.1.1.1.3.4.4-.1.5.1.6-.5.2-.1h.1l.1.1.1.8.2.3.1-.1.3-.1.4.2.3-.1.6-.2.5.3.6.1.6-.4.2-.2.1-.3-.1-.3-.1-.2.2-.3.1.2h.3v.2l-.1.1.1.4v.8l-.1.1-.1.2-.2.5-.2.4-.2.1H68l-.2.1-.2.1h-.1v.2l-.1.2.2.3-.1.4h-.6l-.3.2-.2.2-.1.2-.5.4-.2.1-.1.3h-.2l-.2.1h-.3l-.1.1-.1.4-.4.1v.3l-.1.1-.2.1-.3-.1-.3.3H63l-.3.1-.1-.1-.3.1v.1l-.2.1-.2.1v.1l.1.1.2.3.1.1V79l-.1.4-.3.2-.5.4h.1l.3.1v.4l-.1.2-.2.1-.4.2-.1.1-.1.2-.8-2v.1l.2.4v.1l-.5.3-.2.3-.5.3-.1.1-.1.2-.3.2h-.1v.3l-.3.3-.3.7.2.7-.3.5-.2.3h-.2l-1.1.5-.4.1.1.2-.1.3h-.1v.2l.1.1v.2l.1.4.2.3.3.1h.1l.2.1v.5l.3.2v.6l.1.3.1.1.1.1.3.1.1.2h.5l.3.1.1.2.1.1h.1l.2-.1h.4l.2.1.5-.1.4.2.3.1H61l.2.1h.2l.2.2v.1l.1.2.2.1.2.1.1-.1.2-.1.1.2h.3L63,90l.1.1.3.1h.1l.1.1v.3l-.6.1-.9-.4-.3-.1-.2.1-.5-.2-.5-.3h-.3l-.2.1-.2-.1-.2.1v.2l.1.2.1.1.1.3v.2l-.2.1-.3.5-.5.2-.2.1.1.1.3-.1.2.2.2.1v.1l-.2.1v.1l.1.1-.1.2-.2.1V93l-.1.1-.2-.1-.1.1.1.2-.1.2.2.3.2-.1.1.1.2.2h.2l.4-.2.3.1.2.1.2.1.4-.1.2-.2h.3l.1.2v.2l-.3.3h-.3l-.5.2-.5.1h-.1l-.4.1-.1.2-.1.1-.2.1-.3.3v.2h-.1l-.2.1v.2l.2.2v.1l.1.1-.2.1.1.2v.1l.2.1.1.2-.1.2v.2l-.1.3V98l-.2.1.1.1v.2l-.1.1.3.1v.2l.1.1-.1.3-.2.1H59l.2.3-.1.1-.1.2.3.1h.1l.3.1h.1v.1l-.4.1v.2l-.1.1.1.1.1-.1.1.2.2.1h.1l.3.2.1.2-.1.1v.2l-.1.1v.1l.1.1.1-.1h.3l.2.2.1.2v.1l-.1.2v.5l.4.1.6-.3.3-.1.1.2-.1.2.1.2-.1.3h-.5l-.4.1-.3.1h-.1l-.1.1-.1.3-.1.1-.1.1.1.2-.2.5.2.1v.1h.2l.1.2-.2.2-.2.1-.2.3h.1v.1l.2.1.1.1v.4l-.2.1.1.2v.2l-.1.1v.4l.1.1.1.1.1.2-.2.2-.3.2.2.3-.1.2-.1.2v.2l-.1.5.3-.1.1-.2h.1l.6.1.3-.2h.2l.6-.3.2.1.2.1-.1.1-.4.2-.2-.1-.3.1v.1l-.1.1-.1.1h-.4l-.3.1v-1.9l-.5.2-.1-.1-.1.1-.3.1h-.4v.1l-.4.1-.2-.1.1-.2-.1-.1.1-.1V108l.1-.1v-.4l-.1-.1.1-.1h.1l.1-.1h-.1l.1-.2-.2-.1v-.1l-.1-.1-.2.1-.1-.1h-.1v-.3l-.1-.1-.2,1.5h-.1l-.1.1-.1.1v.4h-2.5l-1.6-.1-.9.5h-.1l.1.1-.2.1v.2h-.1l-.1.2v.1h-.1v.2l-.3.1v-.2l-.1.1v-.2h.1l-.1.2-.2.1-.2.2v.1l-.3.1-.1.2h-.1l-.2.2v.1h-.1v-.1h-.3v.3h-.2l-.2.1h0l-.1.1-.2.1-.1-.1v.1h-.2v.2l-.1.1v-.2l-.1-.1-.1.1v.1h-.1v-.1h-.2l-.2.2h.1v.2l-.2.1-.2-.1-.1.1-.2-.1.1-.1-.1-.1-.2.1-.2-.1-.1.1h-.2v.1l-.3.1.1.3-.1.1h0v.2H47l-.1.2h-.2l.1-.1h-.1v-.2h-.3l-.1.1-.2-.1h-.2l-.2-.2-.1-.1-.1.2h-.1l-.1.1v.2l-.3.1-.1.3h-.1l-.1-.1v-.2l-.3-.3.1-.1.3-.1-.1-.1-.2-.1-.2.1-.4-.1v-.2l.2-.4h0l-.2.1h-.1l-.2-.1h-.1l-.2.1-.3-.1-.1-.5.1-.4-.1-.1h-.3l-.4-.2-.1.1-.1-.1-.1.2-.1.1v.1h-.1l.1.1v.2h-.1v.1l-.1.1-.2.1.3.1-.1.2-.1.1h.1l-.1.1.1.1h-.1v.1l.2.1v.1l-.1.1.2.1v.1l.1.2-.2.2h-.1v.4l.1.2-.1.1.1.3v.2l.2.2h.2v.3l-.1.1h.1l-.1.2-.1.1-.1.2-.1.1-.1.2-.1.3-1.6-1.8v-.1l-.3-.2-.3.1-.3-.1-.1.1h-.2l-.1-.1v-.1l-.1.1h-.1v-.2l-.1-.1h-.1v0H38l-.1-.1-.1.3h-.2l-.1.1-.1-.1v-.1l-.1-.1-.1-.3H37l-.3.1-.1-.2-.1.1v-.1l.1-.1-.1-.1h-.3v-.5l-.1.1v-.1l-.2.1v-.1l-.1.1.1.4h-.1v.3h-.2l-.1.1-.1-.1-.1.1-.1-.1v.1l-.3.1-.1.1-.1-.1v.1l-.1-.1-.1.1v-.1l.2-.3v-.5h.4l-.1-.1v-.1l.1-.1.1-.1-.1-.2v-.4l.1-.1V111l.1-.1v-.1l-.1.1h-.1l-.2-.1-.1.1h-.1l-.1.1v.1l-.2.1-.1-.1-.1.1-.1-.1-.1.2h-.1v.1l-.1.1h-.2v.1h-.1l-.1.1v-.1h-.2v.3l-.3.1h.3v.1H33V112h-.4l.1.1-.1.1.1.1h-.1l-.1-.1h-.1l-.1.1h-.1v.1h-.1l-.1.2v-.1l-.1.1h-.2l-.2.1-.1-.1-.1.1v.2l-.1.1-.1-.2h0v-.3h.1l-.1-.1v-.1h.1l-.2-.1v-.1h-.1v-.5l-.1-.1.1-.1v-.3H31l-.1-.3v-.1l-.1-.1v.2h-.1l-.1-.1-.2-.1-.2.2v.4l-.1.2v.1l-.2.1-.2.1v.3l.1.1-.1.1v.3l-.1.3.1.1v.3l-.2.2h-.2l-.3-.3.1-.2.1-.3v-.1l-.1-.1-.1-.2h.1l.2-.2v-.5h.1l-.1-.1.1-.1-.2-.1V111l-.1-.1h.1v-.1h.1v-.2l.1-.1-.1-.3h-.2l.1-.1-.1-.2v-.1H29v-.3h.1l-.1-.1h-.2l-.1-.3v-.3h-.3v-.1l-.1-.1-.1.1-.1-.2h0v.2H28v-.1h-.2v.1l-.1-.1-.1.1-.1-.2h-.1v-.2l-.1-.2.1-.2-.1-.2h-.1l-.1-.2h0l-.1-.1-.3-.3v.1h-.1V107h-.1l-.1-.1h-.1v-.1l-.1-.1v-.1h-.1l-.1-.1v.1h-.1l-.1-.1.1-.2-.1-.1V106h-.2l-.1-.1-.1.1.1.1h-.1l-.1.1-1.2,2.1-.1-.2-.3-.2-.1-.2-.1-.1-.1-.1h-.1l-.2.1h0v-.1h-.4l-.1-.2h.1l-.1-.1.2-.2v-.2l.1-.1h-.3l-.2-.2h-.1l-.2-.6-.3.2-.1.3h-.1l-.2.2-.3.2-.1.1v.2l-.2.1-.1.1-.1-.1-.1.1-.1.1v.1l-.2.1v.3l-.1.2v.1H20l-.1.1-.2.4v.1h.1v.2h-.1l-.3.5-.3.4-.2.2-.3.5v.1l.2.1v.2l-.1.2-.1.2.2.3-.1.2.1.2-.1.2.1.3v.3l-.4.3-1.3-.7-1.9-1.1-4-2.4-.1-.1H11l-.3-.1h-.2l-.4-.3-.1.1-.2-.2-.2-.1-.3.1h-.1l-.1-.2h-.3l-.1-.2h-.4l-.1.1L8,108l-.4-.1-.1-.1-.2.1-.1-.1h-.1v.1l-.2-.1v-.5h-.1l-.1-.2v.1l-.2-.1v-.2h-.1v-.1l-.1.1v-.1h-.2v-.1H6l-.2-.1v.1l-.1-.1h-.1v-.1l-.1.1v-.2h-.1v-.1h-.1v-.2l-.1-.1.1-.2.1-.1-.1-.2.2-.2-.1-.1.1-.1h-.1l.2-.1v-.3l-.2-.1.1-.1v-.1l-.1-.2.1-.1v.1h.1l.1.1v-.2l.1.1h.1l-.1-.1.1-.2v-.1l.1-.2v-.1l.1-.2.1.1.1-.1h.8l.1-.3h.1v.1h.1l.3-.2v-.1h.2l-.1-.1-.1-.1v.1l-.1.1v-.2l-.2-.1-.1-.2.2-.2v-.5h.1l.1-.1v-.2l.1-.1.2-.1.1-.1v-.1h.2v-.1h.1v-.3l.2-.3-.4.2v.2l-.1.1H8l-.1-.1v-.1h-.1v.1l.2.1v.1h-.2l-.2.1h-.1l.2.1h-.3l-.1.2H7l-.1.3h-.4v.1l-.4.2-.1.1v.1l.1.1v.1l-.2-.1h-.1l.1.2-.1.1-.2-.1v.2h-.3l.1.1-.1.1v.3h-.2l-.1.2-.1.2H5l-.1.1-.2.1-.1.1.1.3-.1.1-.2-.1-.2.2h.1v-.1h.1v.1l-.1.1.1.1-.1.1.1.2-.1.1h-.4v.1l-.2.1v.1l.1.1.1.1-.1.1-.2.1v.2h.2l-.1.1v.2h-.1l-.1.2.1.4h-.1l-.1.1.1.1-.1.2-.2.3v-.2l-.1-.2-.2.1h-.5l-.5-.2v-.1l.3-.2v-.1h-.4l-.1.3h.4l-.1-.1v-.2l.2-.4h-.3l.1-.2v-.4l-.2-.2.1-.3h-.2l-.1-.4.1-.2v-.2l-.1-.1-.6.1v-.4l-.1-.2.1-.2.1-.1.3.1h.1v-.2l-.3-.2.1-.3.2-.2.1-.5.2-.3-.1-.4.2-.1.2.1v.1l.1-.4-.2-.1.1-.5L2,100l-.2-.3.1-.3-.1-.1v-.4l.2-.2v-.2l-.2-.3v-.4l-.1-.1-.4.1-.1-.3.1-.2v-.5l.1-.2v-.3l.1-.5v-.3l-.3-.3v-.1l.1-.3v-.1l-.1-.1.1-.2.4-.4v.3l-.2-.3.1-.2.3-.1v-.3l-.3-.3h-.3l-.1-.1v-.5l-.1-.2-.1-.2-.1-.5-.1-.2-.1-.2v-.1l.4-.4.1-.1.2-.1.1-.2.1-.1v-.4l-.1-.3.1-.2v-.4l-.1-.1h-.3l-.4-.1H.73l-.3-.5.1-.4-.1-.2v-.3Z"/></g></g></svg>