<svg id="Layer_1" viewBox="0 0 200 200" xmlns="http://www.w3.org/2000/svg" xmlns:xlink="http://www.w3.org/1999/xlink" data-name="Layer 1"><linearGradient id="linear-gradient" gradientTransform="matrix(4 0 0 -25 -583 2316)" gradientUnits="userSpaceOnUse" x1="164.747" x2="164.747" y1="87.412" y2="86.036"><stop offset=".14" stop-color="#6e6d70"/><stop offset=".17" stop-color="#aaa9ad"/></linearGradient><linearGradient id="linear-gradient-2" gradientTransform="matrix(4 0 0 -25 -571 2316)" x1="165.685" x2="165.685" xlink:href="#linear-gradient"/><linearGradient id="linear-gradient-3" gradientTransform="matrix(4 0 0 -25 -559 2316)" x1="166.622" x2="166.622" xlink:href="#linear-gradient"/><linearGradient id="linear-gradient-4" gradientTransform="matrix(4 0 0 -25 -547 2316)" x1="167.56" x2="167.56" xlink:href="#linear-gradient"/><g><path d="m6.38889 34.90158h187.22222v93.61111h-187.22222zm169.91505 80.9845c0-2.585 2.09555-4.68056 4.68056-4.68056s4.68056 2.09555 4.68056 4.68056-2.09555 4.68056-4.68056 4.68056-4.68056-2.09555-4.68056-4.68056m0-68.35788c0-2.585 2.09555-4.68056 4.68056-4.68056s4.68056 2.09555 4.68056 4.68056-2.09555 4.68056-4.68056 4.68056-4.68056-2.09555-4.68056-4.68056m-160.88049 68.35787c0-2.585 2.09556-4.68056 4.68056-4.68056s4.68056 2.09555 4.68056 4.68056-2.09556 4.68056-4.68056 4.68056-4.68056-2.09555-4.68056-4.68056m0-68.35788c0-2.585 2.09556-4.68056 4.68056-4.68056s4.68056 2.09555 4.68056 4.68056-2.09556 4.68056-4.68056 4.68056-4.68056-2.09555-4.68056-4.68056" fill="#0047ab" fill-rule="evenodd"/><path d="m193.61133 130.5127h-13.16602c-1.10449 0-2-.89551-2-2s.89551-2 2-2h11.16602v-89.61133h-183.22266v89.61133h158.04688c1.10449 0 2 .89551 2 2s-.89551 2-2 2h-160.04688c-1.10449 0-2-.89551-2-2v-93.61133c0-1.10449.89551-2 2-2h187.22266c1.10449 0 2 .89551 2 2v93.61133c0 1.10449-.89551 2-2 2zm-20.16602 0h-.00977c-1.10449 0-2-.89551-2-2s.89551-2 2-2 2.00488.89551 2.00488 2-.89062 2-1.99512 2zm7.53906-7.94629c-3.68359 0-6.68066-2.99707-6.68066-6.68066s2.99707-6.68066 6.68066-6.68066 6.68066 2.99707 6.68066 6.68066-2.99707 6.68066-6.68066 6.68066zm0-9.36133c-1.47803 0-2.68066 1.20215-2.68066 2.68066s1.20264 2.68066 2.68066 2.68066 2.68066-1.20215 2.68066-2.68066-1.20264-2.68066-2.68066-2.68066zm-160.88037 9.36133c-3.68359 0-6.68066-2.99707-6.68066-6.68066s2.99707-6.68066 6.68066-6.68066 6.68066 2.99707 6.68066 6.68066-2.99707 6.68066-6.68066 6.68066zm0-9.36133c-1.47803 0-2.68066 1.20215-2.68066 2.68066s1.20264 2.68066 2.68066 2.68066 2.68066-1.20215 2.68066-2.68066-1.20264-2.68066-2.68066-2.68066zm160.88037-58.99609c-3.68359 0-6.68066-2.99707-6.68066-6.68066s2.99707-6.68066 6.68066-6.68066 6.68066 2.99707 6.68066 6.68066-2.99707 6.68066-6.68066 6.68066zm0-9.36133c-1.47803 0-2.68066 1.20215-2.68066 2.68066s1.20264 2.68066 2.68066 2.68066 2.68066-1.20215 2.68066-2.68066-1.20264-2.68066-2.68066-2.68066zm-160.88037 9.36132c-3.68359 0-6.68066-2.99707-6.68066-6.68066s2.99707-6.68066 6.68066-6.68066 6.68066 2.99707 6.68066 6.68066-2.99707 6.68066-6.68066 6.68066zm0-9.36133c-1.47803 0-2.68066 1.20215-2.68066 2.68066s1.20264 2.68066 2.68066 2.68066 2.68066-1.20215 2.68066-2.68066-1.20264-2.68066-2.68066-2.68066z"/></g><g><circle cx="46.555" cy="81.707" fill="#aaa9ad" r="32.764"/><path d="m47.52637 116.45605h-.00977c-1.10449 0-2-.89551-2-2s.89551-2 2-2 2.00488.89551 2.00488 2-.89062 2-1.99512 2zm-6.97168-.5332c-.12109 0-.24365-.01074-.3667-.0332-16.45459-3.04688-28.39746-17.42188-28.39746-34.18262 0-18.39355 14.37061-33.6377 32.71582-34.70508.37012-.01465.72412.06055 1.03174.21875.29785-.17676.64551-.27734 1.0166-.27734 19.16895 0 34.76367 15.59473 34.76367 34.76367 0 16.02832-10.85303 29.90625-26.39258 33.74902-1.07275.2666-2.15625-.38867-2.42139-1.46094s.38916-2.15723 1.46143-2.42188c13.74951-3.40039 23.35254-15.68164 23.35254-29.86621 0-16.96289-13.80029-30.76367-30.76367-30.76367-.33008 0-.64111-.08008-.91553-.22168-.26562.15723-.57129.25488-.90039.27441-16.23291.94336-28.94824 14.43359-28.94824 30.71094 0 14.83203 10.56689 27.55371 25.12598 30.24902 1.08594.20117 1.80322 1.24512 1.60254 2.33105-.17871.96289-1.01904 1.63574-1.96436 1.63574z"/></g><g><circle cx="153.445" cy="81.707" fill="#aaa9ad" r="32.764"/><path d="m154.41797 116.45703h-.00977c-1.10449 0-2-.89551-2-2s.89551-2 2-2 2.00488.89551 2.00488 2-.89062 2-1.99512 2zm-6.97168-.53418c-.12109 0-.24365-.01074-.3667-.0332-16.45459-3.04688-28.39795-17.42285-28.39795-34.18262 0-18.39355 14.37012-33.6377 32.71533-34.70508.37256-.01465.72412.06055 1.03174.21875.29785-.17676.64551-.27734 1.0166-.27734 19.16895 0 34.76416 15.59473 34.76416 34.76367 0 16.02832-10.85303 29.90625-26.39258 33.74902-1.07373.2666-2.15674-.38867-2.42139-1.46094-.26514-1.07227.38916-2.15723 1.46143-2.42188 13.74951-3.40039 23.35254-15.68164 23.35254-29.86621 0-16.96289-13.80078-30.76367-30.76416-30.76367-.33008 0-.64111-.08008-.91553-.22168-.26562.15723-.57129.25488-.90039.27441-16.23242.94336-28.94775 14.43359-28.94775 30.71094 0 14.83203 10.56689 27.55371 25.12646 30.24902 1.08594.20117 1.80322 1.24512 1.60254 2.33105-.17871.96289-1.01904 1.63574-1.96436 1.63574z"/></g><g><circle cx="46.555" cy="81.707" fill="#1f1f1f" r="22.859"/><path d="m46.55469 106.56543c-8.62598 0-16.50977-4.37109-21.08936-11.69238-.58545-.93652-.30127-2.16992.63525-2.75586.93555-.58887 2.16992-.30176 2.75635.63477 3.84375 6.14453 10.45947 9.81348 17.69775 9.81348 11.50146 0 20.8584-9.35742 20.8584-20.8584s-9.35693-20.8584-20.8584-20.8584c-11.08496 0-20.23389 8.66113-20.82812 19.71875-.05957 1.10352-1.01465 1.9502-2.10449 1.88965-1.10303-.05957-1.94922-1.00098-1.88965-2.10449.7085-13.17969 11.61182-23.50391 24.82227-23.50391 13.70703 0 24.8584 11.15137 24.8584 24.8584s-11.15137 24.8584-24.8584 24.8584zm-22.14258-17.15723c-.8374 0-1.61768-.53027-1.89697-1.36816-.0415-.125-.07324-.26367-.08936-.39453-.13721-1.0957.64014-2.0957 1.73633-2.23242 1.02393-.12891 1.96045.54004 2.19336 1.51855.24609 1.00195-.31494 2.04102-1.31055 2.37305-.20947.06934-.42285.10352-.63281.10352z"/></g><g><circle cx="153.445" cy="81.707" fill="#1f1f1f" r="22.859"/><path d="m153.44531 106.56543c-8.62598 0-16.50977-4.37109-21.08936-11.69238-.58545-.93652-.30127-2.16992.63525-2.75586.93555-.58887 2.16992-.30176 2.75635.63477 3.84375 6.14453 10.45947 9.81348 17.69775 9.81348 11.50146 0 20.8584-9.35742 20.8584-20.8584s-9.35693-20.8584-20.8584-20.8584c-11.08496 0-20.23389 8.66113-20.82812 19.71875-.05908 1.10352-1.01123 1.9502-2.10449 1.88965-1.10303-.05957-1.94922-1.00098-1.88965-2.10449.7085-13.17969 11.61182-23.50391 24.82227-23.50391 13.70703 0 24.8584 11.15137 24.8584 24.8584s-11.15137 24.8584-24.8584 24.8584zm-22.14258-17.15723c-.8374 0-1.61768-.53027-1.89697-1.36816-.0415-.125-.07324-.26367-.08936-.39453-.13721-1.0957.64014-2.0957 1.73633-2.23242 1.02295-.12891 1.96045.54004 2.19336 1.51855.24609 1.00195-.31494 2.04102-1.31055 2.37305-.20947.06934-.42285.10352-.63281.10352z"/></g><g><circle cx="46.555" cy="81.707" fill="#aaa9ad" r="15.239"/><path d="m46.55469 98.94629c-9.50586 0-17.23926-7.7334-17.23926-17.23926 0-3.9082 1.27539-7.59277 3.68799-10.65723.68311-.86719 1.94189-1.01758 2.80859-.33398.86768.68359 1.01758 1.94043.33398 2.80859-1.85156 2.35156-2.83057 5.18164-2.83057 8.18262 0 7.2998 5.93896 13.23926 13.23926 13.23926 7.2998 0 13.23877-5.93945 13.23877-13.23926s-5.93896-13.23926-13.23877-13.23926c-1.10449 0-2-.89551-2-2s.89551-2 2-2c9.50537 0 17.23877 7.7334 17.23877 17.23926s-7.7334 17.23926-17.23877 17.23926zm-6.56543-28.99414c-.8374 0-1.61768-.53027-1.89697-1.36816-.32617-.97949.14697-2.0332 1.06641-2.45215.87842-.40723 1.94971-.12598 2.50391.70605.61279.91895.36426 2.16113-.55469 2.77344-.14795.09863-.31689.18066-.48584.2373-.20947.07031-.42285.10352-.63281.10352z"/></g><g><circle cx="153.445" cy="81.707" fill="#aaa9ad" r="15.239"/><path d="m153.44531 98.94629c-9.50537 0-17.23877-7.7334-17.23877-17.23926 0-3.9082 1.27539-7.59277 3.68799-10.65723.68359-.86719 1.94092-1.01758 2.80859-.33398s1.01758 1.94043.33398 2.80859c-1.85156 2.35156-2.83057 5.18164-2.83057 8.18262 0 7.2998 5.93896 13.23926 13.23877 13.23926 7.30029 0 13.23926-5.93945 13.23926-13.23926s-5.93896-13.23926-13.23926-13.23926c-1.10449 0-2-.89551-2-2s.89551-2 2-2c9.50586 0 17.23926 7.7334 17.23926 17.23926s-7.7334 17.23926-17.23926 17.23926zm-6.56543-28.99414c-.8374 0-1.61768-.53027-1.89697-1.36816-.32617-.97949.14697-2.0332 1.06641-2.45215.87988-.40723 1.94971-.12598 2.50391.70605.61279.91895.36426 2.16113-.55469 2.77344-.14795.09863-.31689.18066-.48584.2373-.20947.07031-.42285.10352-.63281.10352z"/></g><g><path d="m83.15 40.51824h32.76389c4.136 0 7.48889 3.35289 7.48889 7.48889s-3.35289 7.48889-7.48889 7.48889h-32.76389c-4.136 0-7.48889-3.35289-7.48889-7.48889s3.35289-7.48889 7.48889-7.48889" fill="#aaa9ad"/><path d="m115.91406 57.49609h-3.69971c-1.10449 0-2-.89551-2-2s.89551-2 2-2h3.69971c3.02637 0 5.48877-2.46289 5.48877-5.48926s-2.4624-5.48828-5.48877-5.48828h-32.76416c-3.02637 0-5.48877 2.46191-5.48877 5.48828s2.4624 5.48926 5.48877 5.48926h15.05469c1.10449 0 2 .89551 2 2s-.89551 2-2 2h-15.05469c-5.23193 0-9.48877-4.25684-9.48877-9.48926 0-5.23145 4.25684-9.48828 9.48877-9.48828h32.76416c5.23193 0 9.48877 4.25684 9.48877 9.48828 0 5.23242-4.25684 9.48926-9.48877 9.48926zm-10.69971 0h-.00977c-1.10449 0-2-.89551-2-2s.89551-2 2-2 2.00488.89551 2.00488 2-.89062 2-1.99512 2z"/></g><g><path d="m72.56 114.444h6.858v6.858h-6.858z" fill="#aaa9ad"/><path d="m79.41748 123.30176h-6.85742c-1.10449 0-2-.89551-2-2v-6.85742c0-1.10449.89551-2 2-2h6.85742c1.10449 0 2 .89551 2 2v6.85742c0 1.10449-.89551 2-2 2zm-4.85742-4h2.85742v-2.85742h-2.85742z"/></g><g><path d="m104.575 114.444h6.858v6.858h-6.858z" fill="#aaa9ad"/><path d="m111.43262 123.30176h-6.85742c-1.10449 0-2-.89551-2-2v-6.85742c0-1.10449.89551-2 2-2h6.85742c1.10449 0 2 .89551 2 2v6.85742c0 1.10449-.89551 2-2 2zm-4.85742-4h2.85742v-2.85742h-2.85742z"/></g><g><path d="m88.567 114.444h6.858v6.858h-6.858z" fill="#aaa9ad"/><path d="m95.4248 123.30176h-6.85742c-1.10449 0-2-.89551-2-2v-6.85742c0-1.10449.89551-2 2-2h6.85742c1.10449 0 2 .89551 2 2v6.85742c0 1.10449-.89551 2-2 2zm-4.85742-4h2.85742v-2.85742h-2.85742z"/></g><g><path d="m120.582 114.444h6.858v6.858h-6.858z" fill="#aaa9ad"/><path d="m127.43994 123.30176h-6.85742c-1.10449 0-2-.89551-2-2v-6.85742c0-1.10449.89551-2 2-2h6.85742c1.10449 0 2 .89551 2 2v6.85742c0 1.10449-.89551 2-2 2zm-4.85742-4h2.85742v-2.85742h-2.85742z"/></g><g><path d="m72.56 130.69h6.858v34.409h-6.858z" fill="url(#linear-gradient)"/><path d="m79.41748 167.09863h-6.85742c-1.10449 0-2-.89551-2-2v-11.87598c0-1.10449.89551-2 2-2s2 .89551 2 2v9.87598h2.85742v-30.40918h-2.85742v6.52344c0 1.10449-.89551 2-2 2s-2-.89551-2-2v-8.52344c0-1.10449.89551-2 2-2h6.85742c1.10449 0 2 .89551 2 2v34.40918c0 1.10449-.89551 2-2 2zm-6.85742-18.88086c-1.10449 0-2-.89062-2-1.99512v-.00977c0-1.10449.89551-2 2-2s2 .89551 2 2-.89551 2.00488-2 2.00488z"/></g><g><path d="m88.31 130.69h6.858v34.409h-6.858z" fill="url(#linear-gradient-2)"/><path d="m95.16797 167.09863h-6.85791c-1.10449 0-2-.89551-2-2v-11.875c0-1.10449.89551-2 2-2s2 .89551 2 2v9.875h2.85791v-30.40918h-2.85791v6.52441c0 1.10449-.89551 2-2 2s-2-.89551-2-2v-8.52441c0-1.10449.89551-2 2-2h6.85791c1.10449 0 2 .89551 2 2v34.40918c0 1.10449-.89551 2-2 2zm-6.85791-18.87988c-1.10449 0-2-.89062-2-1.99512v-.00977c0-1.10449.89551-2 2-2s2 .89551 2 2-.89551 2.00488-2 2.00488z"/></g><g><path d="m104.06 130.69h6.858v34.409h-6.858z" fill="url(#linear-gradient-3)"/><path d="m110.91797 167.09863h-6.85742c-1.10449 0-2-.89551-2-2v-11.87598c0-1.10449.89551-2 2-2s2 .89551 2 2v9.87598h2.85742v-30.40918h-2.85742v6.52344c0 1.10449-.89551 2-2 2s-2-.89551-2-2v-8.52344c0-1.10449.89551-2 2-2h6.85742c1.10449 0 2 .89551 2 2v34.40918c0 1.10449-.89551 2-2 2zm-6.85742-18.88086c-1.10449 0-2-.89062-2-1.99512v-.00977c0-1.10449.89551-2 2-2s2 .89551 2 2-.89551 2.00488-2 2.00488z"/></g><g><path d="m119.811 130.69h6.858v34.409h-6.858z" fill="url(#linear-gradient-4)"/><path d="m126.66846 167.09863h-6.85791c-1.10449 0-2-.89551-2-2v-11.875c0-1.10449.89551-2 2-2s2 .89551 2 2v9.875h2.85791v-30.40918h-2.85791v6.52441c0 1.10449-.89551 2-2 2s-2-.89551-2-2v-8.52441c0-1.10449.89551-2 2-2h6.85791c1.10449 0 2 .89551 2 2v34.40918c0 1.10449-.89551 2-2 2zm-6.85791-18.87988c-1.10449 0-2-.89062-2-1.99512v-.00977c0-1.10449.89551-2 2-2s2 .89551 2 2-.89551 2.00488-2 2.00488z"/></g></svg>