<?xml version="1.0" encoding="UTF-8" standalone="no"?>
<!-- Created with Inkscape (http://www.inkscape.org/) -->

<svg
   width="480"
   height="360"
   viewBox="0 0 48 36"
   version="1.1"
   id="svg26393"
   inkscape:version="1.1.1 (3bf5ae0d25, 2021-09-20)"
   sodipodi:docname="BG_16x12_xadrez.svg"
   xmlns:inkscape="http://www.inkscape.org/namespaces/inkscape"
   xmlns:sodipodi="http://sodipodi.sourceforge.net/DTD/sodipodi-0.dtd"
   xmlns="http://www.w3.org/2000/svg"
   xmlns:svg="http://www.w3.org/2000/svg">
  <sodipodi:namedview
     id="namedview26395"
     pagecolor="#ffffff"
     bordercolor="#666666"
     borderopacity="1.0"
     inkscape:pageshadow="2"
     inkscape:pageopacity="0.0"
     inkscape:pagecheckerboard="0"
     inkscape:document-units="px"
     showgrid="false"
     units="px"
     inkscape:snap-page="true"
     inkscape:lockguides="false"
     showguides="false"
     inkscape:zoom="1.3666667"
     inkscape:cx="235.9756"
     inkscape:cy="180"
     inkscape:window-width="1500"
     inkscape:window-height="930"
     inkscape:window-x="-6"
     inkscape:window-y="-6"
     inkscape:window-maximized="1"
     inkscape:current-layer="layer1" />
  <defs
     id="defs26390" />
  <g
     inkscape:label="Camada 1"
     inkscape:groupmode="layer"
     id="layer1">
    <rect
       style="opacity:0.2;fill:none;stroke:#519dd6;stroke-width:0.0529167;stroke-dasharray:0.0529167, 0.105833;stop-color:#000000"
       id="rect26476"
       width="127"
       height="95.25"
       x="0"
       y="0" />
    <path
       style="fill:none;stroke:#000000;stroke-width:0.1px;stroke-linecap:butt;stroke-linejoin:miter;stroke-opacity:1"
       d="M 0,0 V 36"
       id="path26868" />
    <path
       style="fill:none;stroke:#000000;stroke-width:0.1px;stroke-linecap:butt;stroke-linejoin:miter;stroke-opacity:1"
       d="M 48.05,0 V 36"
       id="path26950" />
    <path
       style="fill:none;stroke:#000000;stroke-width:0.1px;stroke-linecap:butt;stroke-linejoin:miter;stroke-opacity:1"
       d="M 3.003125,0 V 36"
       id="path26952" />
    <path
       style="fill:none;stroke:#000000;stroke-width:0.1px;stroke-linecap:butt;stroke-linejoin:miter;stroke-opacity:1"
       d="M 9.009375,0 V 36"
       id="path26954" />
    <path
       style="fill:none;stroke:#000000;stroke-width:0.1px;stroke-linecap:butt;stroke-linejoin:miter;stroke-opacity:1"
       d="M 12.0125,0 V 36"
       id="path26956" />
    <path
       style="fill:none;stroke:#000000;stroke-width:0.1px;stroke-linecap:butt;stroke-linejoin:miter;stroke-opacity:1"
       d="M 15.015625,0 V 36"
       id="path26958" />
    <path
       style="fill:none;stroke:#000000;stroke-width:0.1px;stroke-linecap:butt;stroke-linejoin:miter;stroke-opacity:1"
       d="M 18.01875,0 V 36"
       id="path26960" />
    <path
       style="fill:none;stroke:#000000;stroke-width:0.1px;stroke-linecap:butt;stroke-linejoin:miter;stroke-opacity:1"
       d="M 21.021875,0 V 36"
       id="path26962" />
    <path
       style="fill:none;stroke:#000000;stroke-width:0.1px;stroke-linecap:butt;stroke-linejoin:miter;stroke-opacity:1"
       d="M 24.025,0 V 36"
       id="path26964" />
    <path
       style="fill:none;stroke:#000000;stroke-width:0.1px;stroke-linecap:butt;stroke-linejoin:miter;stroke-opacity:1"
       d="M 27.028125,0 V 36"
       id="path26966" />
    <path
       style="fill:none;stroke:#000000;stroke-width:0.1px;stroke-linecap:butt;stroke-linejoin:miter;stroke-opacity:1"
       d="M 30.03125,0 V 36"
       id="path26968" />
    <path
       style="fill:none;stroke:#000000;stroke-width:0.1px;stroke-linecap:butt;stroke-linejoin:miter;stroke-opacity:1"
       d="M 33.034375,0 V 36"
       id="path26970" />
    <path
       style="fill:none;stroke:#000000;stroke-width:0.1px;stroke-linecap:butt;stroke-linejoin:miter;stroke-opacity:1"
       d="M 36.0375,0 V 36"
       id="path26972" />
    <path
       style="fill:none;stroke:#000000;stroke-width:0.1px;stroke-linecap:butt;stroke-linejoin:miter;stroke-opacity:1"
       d="M 39.040625,0 V 36"
       id="path26974" />
    <path
       style="fill:none;stroke:#000000;stroke-width:0.1px;stroke-linecap:butt;stroke-linejoin:miter;stroke-opacity:1"
       d="M 42.04375,0 V 36"
       id="path26976" />
    <path
       style="fill:none;stroke:#000000;stroke-width:0.1px;stroke-linecap:butt;stroke-linejoin:miter;stroke-opacity:1"
       d="M 45.046875,0 V 36"
       id="path26978" />
    <path
       style="fill:none;stroke:#000000;stroke-width:0.1px;stroke-linecap:butt;stroke-linejoin:miter;stroke-opacity:1"
       d="M 0,0 H 48.05"
       id="path27013" />
    <path
       style="fill:none;stroke:#000000;stroke-width:0.1px;stroke-linecap:butt;stroke-linejoin:miter;stroke-opacity:1"
       d="M 0,3.0041666 H 48.05"
       id="path27015" />
    <path
       style="fill:none;stroke:#000000;stroke-width:0.1px;stroke-linecap:butt;stroke-linejoin:miter;stroke-opacity:1"
       d="M 0,6.0083332 H 48.05"
       id="path27097" />
    <path
       style="fill:none;stroke:#000000;stroke-width:0.1px;stroke-linecap:butt;stroke-linejoin:miter;stroke-opacity:1"
       d="M 0,9.0125 H 48.05"
       id="path27099" />
    <path
       style="fill:none;stroke:#000000;stroke-width:0.1px;stroke-linecap:butt;stroke-linejoin:miter;stroke-opacity:1"
       d="M 0,12.016666 H 48.05"
       id="path27101" />
    <path
       style="fill:none;stroke:#000000;stroke-width:0.1px;stroke-linecap:butt;stroke-linejoin:miter;stroke-opacity:1"
       d="M 0,15.020833 H 48.05"
       id="path27103" />
    <path
       style="fill:none;stroke:#000000;stroke-width:0.1px;stroke-linecap:butt;stroke-linejoin:miter;stroke-opacity:1"
       d="M 0,18.025 H 48.05"
       id="path27105" />
    <path
       style="fill:none;stroke:#000000;stroke-width:0.1px;stroke-linecap:butt;stroke-linejoin:miter;stroke-opacity:1"
       d="M 0,21.029166 H 48.05"
       id="path27107" />
    <path
       style="fill:none;stroke:#000000;stroke-width:0.1px;stroke-linecap:butt;stroke-linejoin:miter;stroke-opacity:1"
       d="M 0,24.033332 H 48.05"
       id="path27109" />
    <path
       style="fill:none;stroke:#000000;stroke-width:0.1px;stroke-linecap:butt;stroke-linejoin:miter;stroke-opacity:1"
       d="M 0,27.0375 H 48.05"
       id="path27111" />
    <path
       style="fill:none;stroke:#000000;stroke-width:0.1px;stroke-linecap:butt;stroke-linejoin:miter;stroke-opacity:1"
       d="M 0,30.041665 H 48.05"
       id="path27113" />
    <path
       style="fill:none;stroke:#000000;stroke-width:0.1px;stroke-linecap:butt;stroke-linejoin:miter;stroke-opacity:1"
       d="M 0,36.05 H 48.05"
       id="path27115" />
    <path
       style="fill:none;stroke:#000000;stroke-width:0.1px;stroke-linecap:butt;stroke-linejoin:miter;stroke-opacity:1"
       d="M 6.00625,0 V 36"
       id="path31406" />
    <path
       style="fill:none;stroke:#000000;stroke-width:0.1px;stroke-linecap:butt;stroke-linejoin:miter;stroke-opacity:1"
       d="M 0,33.045831 H 48.05"
       id="path31408" />
    <path
       style="opacity:0.2;fill:#000000;stroke:#519dd6;stroke-width:0.146341;stroke-dasharray:0.146341, 0.292683;stop-color:#000000"
       d="M 1.0975609,15 V 0.7317073 H 15 28.902438 V 15 29.268292 H 15 1.0975609 Z"
       id="path31482"
       transform="scale(0.1)" />
    <path
       style="opacity:0.2;fill:#000000;stroke:#519dd6;stroke-width:0.146341;stroke-dasharray:0.146341, 0.292683;stop-color:#000000"
       d="M 61.097559,15 V 0.7317073 H 74.999998 88.902437 V 15 29.268292 H 74.999998 61.097559 Z"
       id="path31521"
       transform="scale(0.1)" />
    <path
       style="opacity:0.2;fill:#000000;stroke:#519dd6;stroke-width:0.146341;stroke-dasharray:0.146341, 0.292683;stop-color:#000000"
       d="M 121.09756,15 V 0.7317073 h 14.26829 14.26829 V 15 29.268292 h -14.26829 -14.26829 z"
       id="path31560"
       transform="scale(0.1)" />
    <path
       style="opacity:0.2;fill:#000000;stroke:#519dd6;stroke-width:0.146341;stroke-dasharray:0.146341, 0.292683;stop-color:#000000"
       d="M 181.09756,15 V 0.7317073 h 14.26829 14.26829 V 15 29.268292 h -14.26829 -14.26829 z"
       id="path31599"
       transform="scale(0.1)" />
    <path
       style="opacity:0.2;fill:#000000;stroke:#519dd6;stroke-width:0.146341;stroke-dasharray:0.146341, 0.292683;stop-color:#000000"
       d="M 241.09756,15 V 0.7317073 h 14.26829 14.26829 V 15 29.268292 h -14.26829 -14.26829 z"
       id="path31638"
       transform="scale(0.1)" />
    <path
       style="opacity:0.2;fill:#000000;stroke:#519dd6;stroke-width:0.146341;stroke-dasharray:0.146341, 0.292683;stop-color:#000000"
       d="M 301.09755,15 V 0.7317073 h 14.2683 14.26829 V 15 29.268292 h -14.26829 -14.2683 z"
       id="path31677"
       transform="scale(0.1)" />
    <path
       style="opacity:0.2;fill:#000000;stroke:#519dd6;stroke-width:0.146341;stroke-dasharray:0.146341, 0.292683;stop-color:#000000"
       d="M 361.09755,15 V 0.7317073 h 14.26829 14.2683 V 15 29.268292 h -14.2683 -14.26829 z"
       id="path31716"
       transform="scale(0.1)" />
    <path
       style="opacity:0.2;fill:#000000;stroke:#519dd6;stroke-width:0.146341;stroke-dasharray:0.146341, 0.292683;stop-color:#000000"
       d="M 421.09755,15 V 0.7317073 h 14.26829 14.2683 V 15 29.268292 h -14.2683 -14.26829 z"
       id="path31755"
       transform="scale(0.1)" />
    <path
       style="opacity:0.2;fill:#000000;stroke:#519dd6;stroke-width:0.146341;stroke-dasharray:0.146341, 0.292683;stop-color:#000000"
       d="M 31.09756,44.999999 V 30.731707 H 44.999999 58.902438 V 44.999999 59.268291 H 44.999999 31.09756 Z"
       id="path31794"
       transform="scale(0.1)" />
    <path
       style="opacity:0.2;fill:#000000;stroke:#519dd6;stroke-width:0.146341;stroke-dasharray:0.146341, 0.292683;stop-color:#000000"
       d="M 91.097559,44.999999 V 30.731707 H 105 118.90244 V 44.999999 59.268291 H 105 91.097559 Z"
       id="path31833"
       transform="scale(0.1)" />
    <path
       style="opacity:0.2;fill:#000000;stroke:#519dd6;stroke-width:0.146341;stroke-dasharray:0.146341, 0.292683;stop-color:#000000"
       d="M 151.09756,44.999999 V 30.731707 h 14.26829 14.26829 v 14.268292 14.268292 h -14.26829 -14.26829 z"
       id="path31872"
       transform="scale(0.1)" />
    <path
       style="opacity:0.2;fill:#000000;stroke:#519dd6;stroke-width:0.146341;stroke-dasharray:0.146341, 0.292683;stop-color:#000000"
       d="M 211.09756,44.999999 V 30.731707 h 14.26829 14.26829 v 14.268292 14.268292 h -14.26829 -14.26829 z"
       id="path31911"
       transform="scale(0.1)" />
    <path
       style="opacity:0.2;fill:#000000;stroke:#519dd6;stroke-width:0.146341;stroke-dasharray:0.146341, 0.292683;stop-color:#000000"
       d="M 271.09755,44.999999 V 30.731707 h 14.2683 14.26829 v 14.268292 14.268292 h -14.26829 -14.2683 z"
       id="path31950"
       transform="scale(0.1)" />
    <path
       style="opacity:0.2;fill:#000000;stroke:#519dd6;stroke-width:0.146341;stroke-dasharray:0.146341, 0.292683;stop-color:#000000"
       d="M 331.09755,44.999999 V 30.731707 h 14.2683 14.26829 v 14.268292 14.268292 h -14.26829 -14.2683 z"
       id="path31989"
       transform="scale(0.1)" />
    <path
       style="opacity:0.2;fill:#000000;stroke:#519dd6;stroke-width:0.146341;stroke-dasharray:0.146341, 0.292683;stop-color:#000000"
       d="M 391.09755,44.999999 V 30.731707 h 14.26829 14.2683 v 14.268292 14.268292 h -14.2683 -14.26829 z"
       id="path32028"
       transform="scale(0.1)" />
    <path
       style="opacity:0.2;fill:#000000;stroke:#519dd6;stroke-width:0.146341;stroke-dasharray:0.146341, 0.292683;stop-color:#000000"
       d="M 451.09755,44.999999 V 30.731707 h 14.26829 14.26829 v 14.268292 14.268292 h -14.26829 -14.26829 z"
       id="path32067"
       transform="scale(0.1)" />
    <path
       style="opacity:0.2;fill:#000000;stroke:#519dd6;stroke-width:0.146341;stroke-dasharray:0.146341, 0.292683;stop-color:#000000"
       d="M 451.09755,105 V 90.731705 h 14.26829 14.26829 V 105 119.26829 h -14.26829 -14.26829 z"
       id="path32106"
       transform="scale(0.1)" />
    <path
       style="opacity:0.2;fill:#000000;stroke:#519dd6;stroke-width:0.146341;stroke-dasharray:0.146341, 0.292683;stop-color:#000000"
       d="m 451.09755,165 v -14.2683 h 14.26829 14.26829 V 165 179.26829 h -14.26829 -14.26829 z"
       id="path32145"
       transform="scale(0.1)" />
    <path
       style="opacity:0.2;fill:#000000;stroke:#519dd6;stroke-width:0.146341;stroke-dasharray:0.146341, 0.292683;stop-color:#000000"
       d="m 451.09755,225.36585 v -13.90244 h 14.26829 14.26829 v 13.90244 13.90244 h -14.26829 -14.26829 z"
       id="path32184"
       transform="scale(0.1)" />
    <path
       style="opacity:0.2;fill:#000000;stroke:#519dd6;stroke-width:0.146341;stroke-dasharray:0.146341, 0.292683;stop-color:#000000"
       d="m 451.09755,285.36585 v -13.90244 h 14.26829 14.26829 v 13.90244 13.90244 h -14.26829 -14.26829 z"
       id="path32223"
       transform="scale(0.1)" />
    <path
       style="opacity:0.2;fill:#000000;stroke:#519dd6;stroke-width:0.146341;stroke-dasharray:0.146341, 0.292683;stop-color:#000000"
       d="m 451.09755,345.7317 v -14.26829 h 14.26829 14.26829 v 14.26829 14.26829 h -14.26829 -14.26829 z"
       id="path32262"
       transform="scale(0.1)" />
    <path
       style="opacity:0.2;fill:#000000;stroke:#519dd6;stroke-width:0.146341;stroke-dasharray:0.146341, 0.292683;stop-color:#000000"
       d="M 421.09755,74.999998 V 60.731706 h 14.26829 14.2683 v 14.268292 14.268293 h -14.2683 -14.26829 z"
       id="path32301"
       transform="scale(0.1)" />
    <path
       style="opacity:0.2;fill:#000000;stroke:#519dd6;stroke-width:0.146341;stroke-dasharray:0.146341, 0.292683;stop-color:#000000"
       d="m 421.09755,135 v -14.2683 h 14.26829 14.2683 V 135 149.26829 h -14.2683 -14.26829 z"
       id="path32340"
       transform="scale(0.1)" />
    <path
       style="opacity:0.2;fill:#000000;stroke:#519dd6;stroke-width:0.146341;stroke-dasharray:0.146341, 0.292683;stop-color:#000000"
       d="m 421.09755,195.36585 v -13.90244 h 14.26829 14.2683 v 13.90244 13.90244 h -14.2683 -14.26829 z"
       id="path32379"
       transform="scale(0.1)" />
    <path
       style="opacity:0.2;fill:#000000;stroke:#519dd6;stroke-width:0.146341;stroke-dasharray:0.146341, 0.292683;stop-color:#000000"
       d="m 421.09755,255.36585 v -13.90244 h 14.26829 14.2683 v 13.90244 13.90244 h -14.2683 -14.26829 z"
       id="path32418"
       transform="scale(0.1)" />
    <path
       style="opacity:0.2;fill:#000000;stroke:#519dd6;stroke-width:0.146341;stroke-dasharray:0.146341, 0.292683;stop-color:#000000"
       d="m 421.09755,315.36585 v -13.90244 h 14.26829 14.2683 v 13.90244 13.90243 h -14.2683 -14.26829 z"
       id="path32457"
       transform="scale(0.1)" />
    <path
       style="opacity:0.2;fill:#000000;stroke:#519dd6;stroke-width:0.146341;stroke-dasharray:0.146341, 0.292683;stop-color:#000000"
       d="m 391.09755,345.7317 v -14.26829 h 14.26829 14.2683 v 14.26829 14.26829 h -14.2683 -14.26829 z"
       id="path32496"
       transform="scale(0.1)" />
    <path
       style="opacity:0.2;fill:#000000;stroke:#519dd6;stroke-width:0.146341;stroke-dasharray:0.146341, 0.292683;stop-color:#000000"
       d="m 331.09755,345.7317 v -14.26829 h 14.2683 14.26829 v 14.26829 14.26829 h -14.26829 -14.2683 z"
       id="path32535"
       transform="scale(0.1)" />
    <path
       style="opacity:0.2;fill:#000000;stroke:#519dd6;stroke-width:0.146341;stroke-dasharray:0.146341, 0.292683;stop-color:#000000"
       d="m 271.09755,345.7317 v -14.26829 h 14.2683 14.26829 v 14.26829 14.26829 h -14.26829 -14.2683 z"
       id="path32574"
       transform="scale(0.1)" />
    <path
       style="opacity:0.2;fill:#000000;stroke:#519dd6;stroke-width:0.146341;stroke-dasharray:0.146341, 0.292683;stop-color:#000000"
       d="m 211.09756,345.7317 v -14.26829 h 14.26829 14.26829 v 14.26829 14.26829 h -14.26829 -14.26829 z"
       id="path32613"
       transform="scale(0.1)" />
    <path
       style="opacity:0.2;fill:#000000;stroke:#519dd6;stroke-width:0.146341;stroke-dasharray:0.146341, 0.292683;stop-color:#000000"
       d="m 151.09756,345.7317 v -14.26829 h 14.26829 14.26829 v 14.26829 14.26829 h -14.26829 -14.26829 z"
       id="path32652"
       transform="scale(0.1)" />
    <path
       style="opacity:0.2;fill:#000000;stroke:#519dd6;stroke-width:0.146341;stroke-dasharray:0.146341, 0.292683;stop-color:#000000"
       d="M 91.097559,345.7317 V 331.46341 H 105 118.90244 v 14.26829 14.26829 H 105 91.097559 Z"
       id="path32691"
       transform="scale(0.1)" />
    <path
       style="opacity:0.2;fill:#000000;stroke:#519dd6;stroke-width:0.146341;stroke-dasharray:0.146341, 0.292683;stop-color:#000000"
       d="m 31.09756,345.7317 v -14.26829 h 13.902439 13.902439 v 14.26829 14.26829 H 44.999999 31.09756 Z"
       id="path32730"
       transform="scale(0.1)" />
    <path
       style="opacity:0.2;fill:#000000;stroke:#519dd6;stroke-width:0.146341;stroke-dasharray:0.146341, 0.292683;stop-color:#000000"
       d="M 1.0975609,315.36585 V 301.46341 H 15 28.902438 v 13.90244 13.90243 H 15 1.0975609 Z"
       id="path32769"
       transform="scale(0.1)" />
    <path
       style="opacity:0.2;fill:#000000;stroke:#519dd6;stroke-width:0.146341;stroke-dasharray:0.146341, 0.292683;stop-color:#000000"
       d="M 1.0975609,255.36585 V 241.46341 H 15 28.902438 v 13.90244 13.90244 H 15 1.0975609 Z"
       id="path32808"
       transform="scale(0.1)" />
    <path
       style="opacity:0.2;fill:#000000;stroke:#519dd6;stroke-width:0.146341;stroke-dasharray:0.146341, 0.292683;stop-color:#000000"
       d="M 1.0975609,195.36585 V 181.46341 H 15 28.902438 v 13.90244 13.90244 H 15 1.0975609 Z"
       id="path32847"
       transform="scale(0.1)" />
    <path
       style="opacity:0.2;fill:#000000;stroke:#519dd6;stroke-width:0.146341;stroke-dasharray:0.146341, 0.292683;stop-color:#000000"
       d="M 1.0975609,135 V 120.7317 H 15 28.902438 V 135 149.26829 H 15 1.0975609 Z"
       id="path32886"
       transform="scale(0.1)" />
    <path
       style="opacity:0.2;fill:#000000;stroke:#519dd6;stroke-width:0.146341;stroke-dasharray:0.146341, 0.292683;stop-color:#000000"
       d="M 1.0975609,74.999998 V 60.731706 H 15 28.902438 V 74.999998 89.268291 H 15 1.0975609 Z"
       id="path32925"
       transform="scale(0.1)" />
    <path
       style="opacity:0.2;fill:#000000;stroke:#519dd6;stroke-width:0.146341;stroke-dasharray:0.146341, 0.292683;stop-color:#000000"
       d="M 61.097559,74.999998 V 60.731706 H 74.999998 88.902437 V 74.999998 89.268291 H 74.999998 61.097559 Z"
       id="path32964"
       transform="scale(0.1)" />
    <path
       style="opacity:0.2;fill:#000000;stroke:#519dd6;stroke-width:0.146341;stroke-dasharray:0.146341, 0.292683;stop-color:#000000"
       d="m 61.097559,195.36585 v -13.90244 h 13.902439 13.902439 v 13.90244 13.90244 H 74.999998 61.097559 Z"
       id="path33003"
       transform="scale(0.1)" />
    <path
       style="opacity:0.2;fill:#000000;stroke:#519dd6;stroke-width:0.146341;stroke-dasharray:0.146341, 0.292683;stop-color:#000000"
       d="M 61.097559,135 V 120.7317 H 74.999998 88.902437 V 135 149.26829 H 74.999998 61.097559 Z"
       id="path33042"
       transform="scale(0.1)" />
    <path
       style="opacity:0.2;fill:#000000;stroke:#519dd6;stroke-width:0.146341;stroke-dasharray:0.146341, 0.292683;stop-color:#000000"
       d="m 61.097559,255.36585 v -13.90244 h 13.902439 13.902439 v 13.90244 13.90244 H 74.999998 61.097559 Z"
       id="path33044"
       transform="scale(0.1)" />
    <path
       style="opacity:0.2;fill:#000000;stroke:#519dd6;stroke-width:0.146341;stroke-dasharray:0.146341, 0.292683;stop-color:#000000"
       d="m 31.09756,225.36585 v -13.90244 h 13.902439 13.902439 v 13.90244 13.90244 H 44.999999 31.09756 Z"
       id="path33083"
       transform="scale(0.1)" />
    <path
       style="opacity:0.2;fill:#000000;stroke:#519dd6;stroke-width:0.146341;stroke-dasharray:0.146341, 0.292683;stop-color:#000000"
       d="M 31.09756,105 V 90.731705 H 44.999999 58.902438 V 105 119.26829 H 44.999999 31.09756 Z"
       id="path33122"
       transform="scale(0.1)" />
    <path
       style="opacity:0.2;fill:#000000;stroke:#519dd6;stroke-width:0.146341;stroke-dasharray:0.146341, 0.292683;stop-color:#000000"
       d="M 31.09756,165 V 150.7317 H 44.999999 58.902438 V 165 179.26829 H 44.999999 31.09756 Z"
       id="path33161"
       transform="scale(0.1)" />
    <path
       style="opacity:0.2;fill:#000000;stroke:#519dd6;stroke-width:0.146341;stroke-dasharray:0.146341, 0.292683;stop-color:#000000"
       d="m 61.097559,315.36585 v -13.90244 h 13.902439 13.902439 v 13.90244 13.90243 H 74.999998 61.097559 Z"
       id="path33163"
       transform="scale(0.1)" />
    <path
       style="opacity:0.2;fill:#000000;stroke:#519dd6;stroke-width:0.146341;stroke-dasharray:0.146341, 0.292683;stop-color:#000000"
       d="m 31.09756,285.36585 v -13.90244 h 13.902439 13.902439 v 13.90244 13.90244 H 44.999999 31.09756 Z"
       id="path33202"
       transform="scale(0.1)" />
    <path
       style="opacity:0.2;fill:#000000;stroke:#519dd6;stroke-width:0.146341;stroke-dasharray:0.146341, 0.292683;stop-color:#000000"
       d="M 121.09756,74.999998 V 60.731706 h 14.26829 14.26829 v 14.268292 14.268293 h -14.26829 -14.26829 z"
       id="path33241"
       transform="scale(0.1)" />
    <path
       style="opacity:0.2;fill:#000000;stroke:#519dd6;stroke-width:0.146341;stroke-dasharray:0.146341, 0.292683;stop-color:#000000"
       d="M 91.097559,105 V 90.731705 H 105 118.90244 V 105 119.26829 H 105 91.097559 Z"
       id="path33280"
       transform="scale(0.1)" />
    <path
       style="opacity:0.2;fill:#000000;stroke:#519dd6;stroke-width:0.146341;stroke-dasharray:0.146341, 0.292683;stop-color:#000000"
       d="M 91.097559,225.36585 V 211.46341 H 105 118.90244 v 13.90244 13.90244 H 105 91.097559 Z"
       id="path33319"
       transform="scale(0.1)" />
    <path
       style="opacity:0.2;fill:#000000;stroke:#519dd6;stroke-width:0.146341;stroke-dasharray:0.146341, 0.292683;stop-color:#000000"
       d="M 91.097559,285.36585 V 271.46341 H 105 118.90244 v 13.90244 13.90244 H 105 91.097559 Z"
       id="path33358"
       transform="scale(0.1)" />
    <path
       style="opacity:0.2;fill:#000000;stroke:#519dd6;stroke-width:0.146341;stroke-dasharray:0.146341, 0.292683;stop-color:#000000"
       d="M 91.097559,165 V 150.7317 H 105 118.90244 V 165 179.26829 H 105 91.097559 Z"
       id="path33397"
       transform="scale(0.1)" />
    <path
       style="opacity:0.2;fill:#000000;stroke:#519dd6;stroke-width:0.146341;stroke-dasharray:0.146341, 0.292683;stop-color:#000000"
       d="m 121.09756,195.36585 v -13.90244 h 14.26829 14.26829 v 13.90244 13.90244 h -14.26829 -14.26829 z"
       id="path33399"
       transform="scale(0.1)" />
    <path
       style="opacity:0.2;fill:#000000;stroke:#519dd6;stroke-width:0.146341;stroke-dasharray:0.146341, 0.292683;stop-color:#000000"
       d="m 121.09756,255.36585 v -13.90244 h 14.26829 14.26829 v 13.90244 13.90244 h -14.26829 -14.26829 z"
       id="path33481"
       transform="scale(0.1)" />
    <path
       style="opacity:0.2;fill:#000000;stroke:#519dd6;stroke-width:0.146341;stroke-dasharray:0.146341, 0.292683;stop-color:#000000"
       d="m 121.09756,315.36585 v -13.90244 h 14.26829 14.26829 v 13.90244 13.90243 h -14.26829 -14.26829 z"
       id="path33520"
       transform="scale(0.1)" />
    <path
       style="opacity:0.2;fill:#000000;stroke:#519dd6;stroke-width:0.146341;stroke-dasharray:0.146341, 0.292683;stop-color:#000000"
       d="m 151.09756,285.36585 v -13.90244 h 14.26829 14.26829 v 13.90244 13.90244 h -14.26829 -14.26829 z"
       id="path33559"
       transform="scale(0.1)" />
    <path
       style="opacity:0.2;fill:#000000;stroke:#519dd6;stroke-width:0.146341;stroke-dasharray:0.146341, 0.292683;stop-color:#000000"
       d="m 181.09756,315.36585 v -13.90244 h 14.26829 14.26829 v 13.90244 13.90243 h -14.26829 -14.26829 z"
       id="path33598"
       transform="scale(0.1)" />
    <path
       style="opacity:0.2;fill:#000000;stroke:#519dd6;stroke-width:0.146341;stroke-dasharray:0.146341, 0.292683;stop-color:#000000"
       d="m 181.09756,255.36585 v -13.90244 h 14.26829 14.26829 v 13.90244 13.90244 h -14.26829 -14.26829 z"
       id="path33637"
       transform="scale(0.1)" />
    <path
       style="opacity:0.2;fill:#000000;stroke:#519dd6;stroke-width:0.146341;stroke-dasharray:0.146341, 0.292683;stop-color:#000000"
       d="m 181.09756,195.36585 v -13.90244 h 14.26829 14.26829 v 13.90244 13.90244 h -14.26829 -14.26829 z"
       id="path33676"
       transform="scale(0.1)" />
    <path
       style="opacity:0.2;fill:#000000;stroke:#519dd6;stroke-width:0.146341;stroke-dasharray:0.146341, 0.292683;stop-color:#000000"
       d="m 121.09756,135 v -14.2683 h 14.26829 14.26829 V 135 149.26829 h -14.26829 -14.26829 z"
       id="path33715"
       transform="scale(0.1)" />
    <path
       style="opacity:0.2;fill:#000000;stroke:#519dd6;stroke-width:0.146341;stroke-dasharray:0.146341, 0.292683;stop-color:#000000"
       d="m 151.09756,165 v -14.2683 h 14.26829 14.26829 V 165 179.26829 h -14.26829 -14.26829 z"
       id="path33754"
       transform="scale(0.1)" />
    <path
       style="opacity:0.2;fill:#000000;stroke:#519dd6;stroke-width:0.146341;stroke-dasharray:0.146341, 0.292683;stop-color:#000000"
       d="m 151.09756,225.36585 v -13.90244 h 14.26829 14.26829 v 13.90244 13.90244 h -14.26829 -14.26829 z"
       id="path33832"
       transform="scale(0.1)" />
    <path
       style="opacity:0.2;fill:#000000;stroke:#519dd6;stroke-width:0.146341;stroke-dasharray:0.146341, 0.292683;stop-color:#000000"
       d="M 151.09756,105 V 90.731705 h 14.26829 14.26829 V 105 119.26829 h -14.26829 -14.26829 z"
       id="path33871"
       transform="scale(0.1)" />
    <path
       style="opacity:0.2;fill:#000000;stroke:#519dd6;stroke-width:0.146341;stroke-dasharray:0.146341, 0.292683;stop-color:#000000"
       d="M 181.09756,74.999998 V 60.731706 h 14.26829 14.26829 v 14.268292 14.268293 h -14.26829 -14.26829 z"
       id="path33910"
       transform="scale(0.1)" />
    <path
       style="opacity:0.2;fill:#000000;stroke:#519dd6;stroke-width:0.146341;stroke-dasharray:0.146341, 0.292683;stop-color:#000000"
       d="M 241.09756,74.999998 V 60.731706 h 14.26829 14.26829 v 14.268292 14.268293 h -14.26829 -14.26829 z"
       id="path33949"
       transform="scale(0.1)" />
    <path
       style="opacity:0.2;fill:#000000;stroke:#519dd6;stroke-width:0.146341;stroke-dasharray:0.146341, 0.292683;stop-color:#000000"
       d="M 301.09755,74.999998 V 60.731706 h 14.2683 14.26829 v 14.268292 14.268293 h -14.26829 -14.2683 z"
       id="path33988"
       transform="scale(0.1)" />
    <path
       style="opacity:0.2;fill:#000000;stroke:#519dd6;stroke-width:0.146341;stroke-dasharray:0.146341, 0.292683;stop-color:#000000"
       d="M 361.09755,74.999998 V 60.731706 h 14.26829 14.2683 v 14.268292 14.268293 h -14.2683 -14.26829 z"
       id="path34027"
       transform="scale(0.1)" />
    <path
       style="opacity:0.2;fill:#000000;stroke:#519dd6;stroke-width:0.146341;stroke-dasharray:0.146341, 0.292683;stop-color:#000000"
       d="M 391.09755,105 V 90.731705 h 14.26829 14.2683 V 105 119.26829 h -14.2683 -14.26829 z"
       id="path34066"
       transform="scale(0.1)" />
    <path
       style="opacity:0.2;fill:#000000;stroke:#519dd6;stroke-width:0.146341;stroke-dasharray:0.146341, 0.292683;stop-color:#000000"
       d="m 391.09755,165 v -14.2683 h 14.26829 14.2683 V 165 179.26829 h -14.2683 -14.26829 z"
       id="path34105"
       transform="scale(0.1)" />
    <path
       style="opacity:0.2;fill:#000000;stroke:#519dd6;stroke-width:0.146341;stroke-dasharray:0.146341, 0.292683;stop-color:#000000"
       d="m 391.09755,225.36585 v -13.90244 h 14.26829 14.2683 v 13.90244 13.90244 h -14.2683 -14.26829 z"
       id="path34144"
       transform="scale(0.1)" />
    <path
       style="opacity:0.2;fill:#000000;stroke:#519dd6;stroke-width:0.146341;stroke-dasharray:0.146341, 0.292683;stop-color:#000000"
       d="m 391.09755,285.36585 v -13.90244 h 14.26829 14.2683 v 13.90244 13.90244 h -14.2683 -14.26829 z"
       id="path34183"
       transform="scale(0.1)" />
    <path
       style="opacity:0.2;fill:#000000;stroke:#519dd6;stroke-width:0.146341;stroke-dasharray:0.146341, 0.292683;stop-color:#000000"
       d="m 361.09755,255.36585 v -13.90244 h 14.26829 14.2683 v 13.90244 13.90244 h -14.2683 -14.26829 z"
       id="path34222"
       transform="scale(0.1)" />
    <path
       style="opacity:0.2;fill:#000000;stroke:#519dd6;stroke-width:0.146341;stroke-dasharray:0.146341, 0.292683;stop-color:#000000"
       d="m 361.09755,315.36585 v -13.90244 h 14.26829 14.2683 v 13.90244 13.90243 h -14.2683 -14.26829 z"
       id="path34261"
       transform="scale(0.1)" />
    <path
       style="opacity:0.2;fill:#000000;stroke:#519dd6;stroke-width:0.146341;stroke-dasharray:0.146341, 0.292683;stop-color:#000000"
       d="m 331.09755,285.36585 v -13.90244 h 14.2683 14.26829 v 13.90244 13.90244 h -14.26829 -14.2683 z"
       id="path34300"
       transform="scale(0.1)" />
    <path
       style="opacity:0.2;fill:#000000;stroke:#519dd6;stroke-width:0.146341;stroke-dasharray:0.146341, 0.292683;stop-color:#000000"
       d="m 301.09755,315.36585 v -13.90244 h 14.2683 14.26829 v 13.90244 13.90243 h -14.26829 -14.2683 z"
       id="path34339"
       transform="scale(0.1)" />
    <path
       style="opacity:0.2;fill:#000000;stroke:#519dd6;stroke-width:0.146341;stroke-dasharray:0.146341, 0.292683;stop-color:#000000"
       d="m 271.09755,285.36585 v -13.90244 h 14.2683 14.26829 v 13.90244 13.90244 h -14.26829 -14.2683 z"
       id="path34378"
       transform="scale(0.1)" />
    <path
       style="opacity:0.2;fill:#000000;stroke:#519dd6;stroke-width:0.146341;stroke-dasharray:0.146341, 0.292683;stop-color:#000000"
       d="m 241.09756,315.36585 v -13.90244 h 14.26829 14.26829 v 13.90244 13.90243 h -14.26829 -14.26829 z"
       id="path34417"
       transform="scale(0.1)" />
    <path
       style="opacity:0.2;fill:#000000;stroke:#519dd6;stroke-width:0.146341;stroke-dasharray:0.146341, 0.292683;stop-color:#000000"
       d="m 211.09756,285.36585 v -13.90244 h 14.26829 14.26829 v 13.90244 13.90244 h -14.26829 -14.26829 z"
       id="path34456"
       transform="scale(0.1)" />
    <path
       style="opacity:0.2;fill:#000000;stroke:#519dd6;stroke-width:0.146341;stroke-dasharray:0.146341, 0.292683;stop-color:#000000"
       d="m 241.09756,255.36585 v -13.90244 h 14.26829 14.26829 v 13.90244 13.90244 h -14.26829 -14.26829 z"
       id="path34495"
       transform="scale(0.1)" />
    <path
       style="opacity:0.2;fill:#000000;stroke:#519dd6;stroke-width:0.146341;stroke-dasharray:0.146341, 0.292683;stop-color:#000000"
       d="m 301.09755,255.36585 v -13.90244 h 14.2683 14.26829 v 13.90244 13.90244 h -14.26829 -14.2683 z"
       id="path34534"
       transform="scale(0.1)" />
    <path
       style="opacity:0.2;fill:#000000;stroke:#519dd6;stroke-width:0.146341;stroke-dasharray:0.146341, 0.292683;stop-color:#000000"
       d="m 331.09755,225.36585 v -13.90244 h 14.2683 14.26829 v 13.90244 13.90244 h -14.26829 -14.2683 z"
       id="path34573"
       transform="scale(0.1)" />
    <path
       style="opacity:0.2;fill:#000000;stroke:#519dd6;stroke-width:0.146341;stroke-dasharray:0.146341, 0.292683;stop-color:#000000"
       d="m 271.09755,225.36585 v -13.90244 h 14.2683 14.26829 v 13.90244 13.90244 h -14.26829 -14.2683 z"
       id="path34612"
       transform="scale(0.1)" />
    <path
       style="opacity:0.2;fill:#000000;stroke:#519dd6;stroke-width:0.146341;stroke-dasharray:0.146341, 0.292683;stop-color:#000000"
       d="m 211.09756,225.36585 v -13.90244 h 14.26829 14.26829 v 13.90244 13.90244 h -14.26829 -14.26829 z"
       id="path34651"
       transform="scale(0.1)" />
    <path
       style="opacity:0.2;fill:#000000;stroke:#519dd6;stroke-width:0.146341;stroke-dasharray:0.146341, 0.292683;stop-color:#000000"
       d="m 241.09756,195.36585 v -13.90244 h 14.26829 14.26829 v 13.90244 13.90244 h -14.26829 -14.26829 z"
       id="path34690"
       transform="scale(0.1)" />
    <path
       style="opacity:0.2;fill:#000000;stroke:#519dd6;stroke-width:0.146341;stroke-dasharray:0.146341, 0.292683;stop-color:#000000"
       d="m 211.09756,165 v -14.2683 h 14.26829 14.26829 V 165 179.26829 h -14.26829 -14.26829 z"
       id="path34729"
       transform="scale(0.1)" />
    <path
       style="opacity:0.2;fill:#000000;stroke:#519dd6;stroke-width:0.146341;stroke-dasharray:0.146341, 0.292683;stop-color:#000000"
       d="m 241.09756,135 v -14.2683 h 14.26829 14.26829 V 135 149.26829 h -14.26829 -14.26829 z"
       id="path34768"
       transform="scale(0.1)" />
    <path
       style="opacity:0.2;fill:#000000;stroke:#519dd6;stroke-width:0.146341;stroke-dasharray:0.146341, 0.292683;stop-color:#000000"
       d="M 211.09756,105 V 90.731705 h 14.26829 14.26829 V 105 119.26829 h -14.26829 -14.26829 z"
       id="path34807"
       transform="scale(0.1)" />
    <path
       style="opacity:0.2;fill:#000000;stroke:#519dd6;stroke-width:0.146341;stroke-dasharray:0.146341, 0.292683;stop-color:#000000"
       d="M 271.09755,105 V 90.731705 h 14.2683 14.26829 V 105 119.26829 h -14.26829 -14.2683 z"
       id="path34846"
       transform="scale(0.1)" />
    <path
       style="opacity:0.2;fill:#000000;stroke:#519dd6;stroke-width:0.146341;stroke-dasharray:0.146341, 0.292683;stop-color:#000000"
       d="M 331.09755,105 V 90.731705 h 14.2683 14.26829 V 105 119.26829 h -14.26829 -14.2683 z"
       id="path34885"
       transform="scale(0.1)" />
    <path
       style="opacity:0.2;fill:#000000;stroke:#519dd6;stroke-width:0.146341;stroke-dasharray:0.146341, 0.292683;stop-color:#000000"
       d="m 361.09755,135 v -14.2683 h 14.26829 14.2683 V 135 149.26829 h -14.2683 -14.26829 z"
       id="path34924"
       transform="scale(0.1)" />
    <path
       style="opacity:0.2;fill:#000000;stroke:#519dd6;stroke-width:0.146341;stroke-dasharray:0.146341, 0.292683;stop-color:#000000"
       d="m 331.09755,165 v -14.2683 h 14.2683 14.26829 V 165 179.26829 h -14.26829 -14.2683 z"
       id="path34963"
       transform="scale(0.1)" />
    <path
       style="opacity:0.2;fill:#000000;stroke:#519dd6;stroke-width:0.146341;stroke-dasharray:0.146341, 0.292683;stop-color:#000000"
       d="m 361.09755,195.36585 v -13.90244 h 14.26829 14.2683 v 13.90244 13.90244 h -14.2683 -14.26829 z"
       id="path35002"
       transform="scale(0.1)" />
    <path
       style="opacity:0.2;fill:#000000;stroke:#519dd6;stroke-width:0.146341;stroke-dasharray:0.146341, 0.292683;stop-color:#000000"
       d="m 301.09755,195.36585 v -13.90244 h 14.2683 14.26829 v 13.90244 13.90244 h -14.26829 -14.2683 z"
       id="path35041"
       transform="scale(0.1)" />
    <path
       style="opacity:0.2;fill:#000000;stroke:#519dd6;stroke-width:0.146341;stroke-dasharray:0.146341, 0.292683;stop-color:#000000"
       d="m 271.09755,165 v -14.2683 h 14.2683 14.26829 V 165 179.26829 h -14.26829 -14.2683 z"
       id="path35080"
       transform="scale(0.1)" />
    <path
       style="opacity:0.2;fill:#000000;stroke:#519dd6;stroke-width:0.146341;stroke-dasharray:0.146341, 0.292683;stop-color:#000000"
       d="m 301.09755,135 v -14.2683 h 14.2683 14.26829 V 135 149.26829 h -14.26829 -14.2683 z"
       id="path35119"
       transform="scale(0.1)" />
    <path
       style="opacity:0.2;fill:#000000;stroke:#519dd6;stroke-width:0.146341;stroke-dasharray:0.146341, 0.292683;stop-color:#000000"
       d="m 181.09756,135 v -14.2683 h 14.26829 14.26829 V 135 149.26829 h -14.26829 -14.26829 z"
       id="path35355"
       transform="scale(0.1)" />
  </g>
</svg>
