<svg xmlns="http://www.w3.org/2000/svg" viewBox="0 0 100.98 58.7"><defs><style>.cls-1{fill:#b8da6b;stroke:#fff;stroke-miterlimit:10;stroke-width:0.8px;fill-rule:evenodd;}</style></defs><g id="Camada_2" data-name="Camada 2"><g id="svg2"><path id="path46" class="cls-1" d="M3.29,1.62l.8.5,5.6,2.5,6.2,2.8,2.4,1.2.5.2,6.3,1.3.2.1,2,.6.3.1h.3l5.6,1.4.8.2,3.6.8,4.1,1,4.9,1,1.5.4,1.3.3,1,.6,2.2,1.2,5,2.7,2.7,1.6,1.6.8,3.5,1.8,2.6,1.3L71,27.63l.5.19.4.2,1.5.61,5.8,2.6,3.3,1.5,8.2,3.6,2.2.9.4.3.5.1.5.3,3.5,1.5,2.5,1.1-.1.1v.2h-.7l.1.2h-.1v.1h.1v.1h-.1l-.1.2-.1-.1-.1-.1v0l-.2.1.1.1-.1.2-.1-.1v.2h-.3l-.3.1-.1.1H98V42l-.1.1h-.1l-.1.1h-.1v.1h-.1v.2l-.1-.1-.2.1v.1l-.2.1v.2h-.2l-.1.2h-.2v.3l-.2.1v-.1h-.4l.1.2v.1l-.1-.1-.1.2v.1l-.1-.1-.1.1v.2h-.2v0l-.1.1.1.1v.1l-.2-.1-.1.1v.1H95l-.1.1-.1.4-.1.1v-.2l-.1.2h-.1V45l-.1.1h0l-.2.2v.1l-.1.1h.2l-.1.1-.1.1v-.1l-.1.1v.2l-.1.1v.1l-.1-.1v.1h-.1l-.1.1-.1-.1v.1h-.1l-.1.1h.1l-.4.2-.1.1h-.1V45.52h-.2l-.2.1h-.2l-.1.1v.2l.1.1h-.1l-.1.1h-.1l-.2.1-.1.1h-.2l-.2-.19h-.3l-.1-.11h-.2l-.1.11-.3.1-.1-.1-.2-.11-.1.11-.1-.11v.11l-.2-.11-.1.11-.1.1.2.2-.1.2.1.19v.11h-.1l-.1.1-.2-.1h-.2v.2l-.2-.2-.2.1-.2-.1-.1-.11h-.1l-.2.31.1.19v.4h-.2l-.1.1V48l-.1.11-.4.1-.1.1-.2.1-.2-.1-.2.1v.2h-.4l-.2.1-.3.1-.1.1-.3.5-.1.3-.3.3-.1.2-.3.3-.3-.2-.4,1.5-.1-.1-.1.1-.1-.1v.1h-.1v-.1l-.1.1v-.1l-.1-.2h1.4l-.1-.1h-.2v-.1H84v-.1l-.1.1v-.2h-.2V51l-.1.1V51l-.1-.1-.2-.1-.1.1-.1-.1H83l-.1-.1h-.4v-.31h-.2l-.1.2-.1-.1-.1.1h-.2v0l-.2-.1-.3.2-.2-.1-.2-.1v.1l-.1-.1v.1l-.1-.1-.1.1h-.1v.2h-.3l-.2.1v.2l-.1-.1-.1.2-.1.1-.1.1h-.1l-.1.2v.3h.1l.1.1-.1.1v.1l-.1.1.1.1-.1.1-.2.11-.1.19-.2.11V53l-.2.1-.2.3h-.1l-.1.3h.2l-.1.3h-.1l.1.1-.1.3-.2.1-.1.2V55l-.1.2-.2.1-.1.1-.2.1-.1.2h-.5l-.1.1-.1.2-.1.1-.2-.2h-.1l-.5.2-.1.2.1.1-.1.1-.1.1v.1l-.1-.1-.1-.1h.2l-.2-.2-.2.2-.5.1-.3.2V57l-.2.2-.3.2v.1l-.9.2-1.5.4.1-.3-.2-.2.1-.2-.2-.1H71l-.1-.1-.1-.1V57l-.1-.1.1-.2-.1-.1.1-.2h.1v-.2L71,56h-.1l-.1.1-.1-.1h.1v-.1l-.2.1-.1-.1v-.1l-.1.1v0l-.2-.1.1-.1h-.1v.1H70l.1.1h-.2l-.1.1-.1-.1.1-.1h-.1l-.1.1-.1-.1h0l-.2.1v.2h.2l-.1-.1h-.1l-.1.1h.1v-.61l.1.2h-.1l-.1-.1v-.1h-.1l-.2.2-.2-.1-.2-.2-.2.1v-.1h-.1l.1-.2H68l-.2.1h-.1l.1.2h-.2v-.1l-.1.1-.1-.1h.1l.1-.1v-.1h-.2v-.1h-.1l-.1-.1-.1.1L67,55l-.2.1-.1-.3-.1.2-.1-.1-.2.1-.2-.1-.1.2-.1-.2h-.2v-.1l-.1.1h-.1l.1-.1h-.1v-.1l-.2.1-.2-.1-.1-.1h-.2l-.2.1-.1-.1-.2-.2-.1.2-.2-.1h.1l-.3.1-.1.1h.1l-.1.1-.1-.2h-.1v.1l-.1-.1-.1.1-.3-.1v-.1l-.1.2h-.1v-.1l-.1.1h-.1l.1-.2h-.2v.1l-.2-.1-.1.2v-.1h-.1l-.1-.2-.1.1.1.1h-.1l-.1-.2-.1.1-.1-.2h-.1l-.1.2h-.3v.2l-.1-.1v.1h.5l-.1-.1-.1.1v.1l-.1-.1H61v-.2l-.1.1-.2-.1h-.2v.2h-.2v-.1l-.5-.1v.2l-.2-.1h-.1v.2l-.1-.1-.2.1-.4-.1-.1.2-.1-.1-.2.1-.1.1-.1-.1-.2.2-.1-.2-.2.2-.1-.1.1-.1h-.1l-.1-.2-.1-.2h.1v.1l-.1-.1v-.1l-.2.1-.1-.1H57v-.1h-.2v.1h-.3l-.2-.1-.1.1-.1-.1-.1.1-.1-.1-.3-.1-.2.1-.1.1-.1-.1h-.4v.2h-.2l-.1.2-.1-.1-.1.2-.1-.1-.1.2v-.1l-.1.1-.1.1h-.2v.1l-.1-.1v.1h-.2l.1.1-.1-.1-.1.1h.2v.1h-.3v-.1l-.1.1v-.1l-.1.2h-.1l.1-.1-.2.1v.1h-.1v.1h-.1l-.1.2h0l-.1.1-.2.1v.1l-.1-.1v.1H52l-.1-.1v.1h-.2v.1l-.1.1-.2-.1h-.3l-.1-.1-.3.1h-.1l-.1.2-.1-.1h.1l-.1.1-.3.1-.2-.1-.2.1-.1-.1-.1-.1-.3.1-.1-.1v-.1H49l-.2-.1-.1.1v-.1l-.2-.1-.1.1-.1-.1h-.1l.1-.1-.2-.4-.3-.2-.1-.3-.2-.1h-.1l-.1-.2h-.2v-.1l-.2-.1-1.2.8-.1-3.9v-8.9l.1-1.6v-2l.1-.3H46l.1.1.1-.3.3.1.3.1.2-.1.1-.2V38h.1v-.2l.1-.1-.1-.1.1-.1h-.1L47,37h-.1v-.2h-.2l-.2-.2.1-.1-.2-.1-.2-.5.1-.1.1-.2h-.1l.1-.1v-.2l-.2-.1v-.1l.2-.1-.1.3h.2v.2l.2.2h.1l.1-.1-.1-.2h-.2v-.1l.1-.1-.1-.2h.1l.1.1h.3V35H47v-.3l.2.1v-.2h.1l.2-.1.1.2v-.1l-.2-.3-.1-.2.1-.1.1.1h0l-.1-.3h.2l.1-.3-.1.1-.1-.1-.2.1v.1h-.1v-.1l-.2.1v-.1l-.1-.1-.1.2h-.1v-.1h-.2v.1l-.2.1h-.1l-.1.2h-.2v.3l-.1-.1-.1.1-.1.1v.3l-.2-.1.1.1h0v.1l-.1.1h0V35l-.1-.1-.1.2h-.1v.1l-.1-.1-.2.2h-.1l-.1.1-.1.1h.1v.11l-.1.1-.2-.2-.1.1-.1.1h.1l-.1.1v.1l-.1-.1.1.1H44l.1.1v.2h-.2v.1l-.3.1v.1h.1l-.1.1-.1.1-.1.1h-.2l-.1.1-.1-.1v.1l-.1-.1V37l-.2.1V37l-.3.2-.2.2v.1h-.1l-.1.4h-.1l-.1.2h-.1l-.1.2h-.1v0l-.1.2-.1-.1v.1l-.1.1-.2.5-.1-.1v.5h-.4l-.2-.1-.1.1H40l-.1.1h-.2l-.2.2-.3.2-.5.2-.3.2-.1.1-.1.1-.1.4-.1.1-.1.2-.2.2v.3h-.3l-.3-.1H37v.2h-.2l-.5.2h-.1l-.3-.3-.2.1v.2h-.1l-.1-.1-.2.3h-11v-.2l.3-.1.1-.2v-.4l-.2-.1-.1-.1.1-.2.2-.1.1-.3.2-.1-.1-.1-.2-.2v-.4l-.1-.1v-.1l.3-.3.2-.1-.4-.2-.4-.2h-.2l-.2-.1-.1-.1-.1.1-.2-.2h-.2v-.1l.1-.3v-.2l.1-.3v-.3l.1-.2-.2-.3.1-.4h-.2l-.3-.2.1-.8-.2-.1-.3.1-.2-.1-.2.1h-.1l-.2-.2v-.1h.6v-.3h-.1l-.1-.1h-.1l-.1-.1-.1.1h-.1l-.1-.1h-.1l-.2-.2-.1.1H21v0h-.1l-.1.1-.3-.1v.1l-.1-.1h.1l-.4.1H20l-.1-.1h0v-.1h-.1v0l-.1-.11h-.2v-.09l-.1.1v-.1h-.1l-.1-.1v.1l-.2-.1h-.2l-.1-.11-.1.11V34h-.1v-.1l-.1.1-.1-.1-.1.1H18l-.1-.1v-.1l-.2.1v-.1h-.1l-.1.1v-.1h-.1v0l-.2-.1-.1-.1.4-.1v-.1h-6.3l.2-.2.1-.4v-.1l.2-.1.3-.1.1-.2.2-.1.1-.3.4-.1v-.1l-.1-.2-.1-.1.3-.1.3-.5.3-.2.1.2h-.1l.3-.2v-.1l.2-.1.1-.1.1-.1v-.1l-.3-.1-.1-.1.3-.2.4-.2.2-.2.2-.5v-.4l.1-.2-.1-.2v-.4l-.1-.2v-.1l.1-.1L15,27l-.5.5-.3-.8-.3-.1h-.2v-.4l-.1.3-.1.1-.2-.2-.1-.4v-.2l-.1-.1v-.2h-.2l-.2-.3v-.4l-.2-.3-.1-.5-.1-.3-.2-.1-.2-.3h-.2l-.3-.1-.2.1H11l-.1-.1h-.1l-.1-.2h-.1l-.2-.2v-.3h.1l-.1.1v-.2l-.1-.1-.2.1L10,22l.1-.1.1-.4-.2-.7-.2-.5h-.3l-.1-.1h-.2l-.3-.1-.1.1v-.1l-.2.1-.2-.3-.1-.4-.1-.2h-.4l-.2-.2-.4-.1h-.1v-.2h-.2l-.2-.1-.3-.4.1-.5-.2-.2.1-.4-.2-.3-.1-.1v-.1l-.2-.1-.1-.3-.2-.1.1-.3v-.2l-.1-.4.1-.3-.1-.4-.2-.2-.2-.3L5,14l.1-.3v-.3l-.3-.3-.3.1h-.2l-.1-.5-.2-.2h-.3l-.1.1h-.1l-.1-.1-.1-.1v-.3l-.1-.2-.3-.3.1-.1h.2l-.2-.4.1-.2h.1l.2.3h1.1l.2-.3.1-.2v-.3l.1-.5-.1-.3-.2-.1-.5-.3L4,9.12l-.6-.2H3l-.1-.1-.2-.3-.1-.3h-.3L2,7.92l-.1-.4-.3-.1-.3-.3-.5-.5H.59l-.1-.5h.3l.3-.1.3-.5v-.2l.2-.2-.2-.2v-.5l-.2-.2-.3-.6v-.2l.1-.1.1.1.1.2.1-.1h.2l.3.3.5.1.1-.2.1-.3.4-.2h.2l.3.1.4-.2h.1v.3H4l.5-.3.3-.4v-.1l-.2-.4v-.5l-.2-.2-.3-.2L4,1.22l-.1-.5-.2-.2-.1-.2-.2-.2V0Z"/></g></g></svg>