<svg xmlns="http://www.w3.org/2000/svg" viewBox="0 0 46.36 27.49"><defs><style>.cls-1{fill:#ffa600;stroke:#fff;stroke-miterlimit:10;stroke-width:0.8px;fill-rule:evenodd;}</style></defs><g id="Camada_2" data-name="Camada 2"><g id="svg2"><path id="path76" class="cls-1" d="M1.46,8.47,2,8l.3-.1.4-.4v-.3l.2-.4.3-.3.3-.3.1-.1H4l.2-.1h.3l.1-.2h.5l.2-.1.1-.3.2-.2v-.1l.1-.1.1-.1.1-.2.4-.4.1-.2.2-.1.1.1.1-.3v-.1l.2-.1.2-.2.1-.2.1-.1.1-.5-.1-.1.2-.2v-.2L7.46,2l.3-.2h.1l.3-.3h.2l.1-.1.2.2v.2l.1.1h.1V2l.1.1.1.2.2.2v.1l.1.2.2.1v.3l-.1.1-.1.1v.1l.2-.1v.2l.4-.2v.1l-.1.1.1.1.2.1h.4l.1-.1-.1-.1.1-.2.2-.2.2-.1.3.1.3-.3.2.1H12l.2.1h.3v.4l-.1.1.4.4h.5l.3.2.2.2.9.4.1.2H15v.2l.2.2.3.4.2.2.1.1.2.2v.2l.1.2h.1v.5l.3-.3.2-.1.5.4-.2.2v.3l.1.1.3-.2.2-.1.2-.3h.1l.4.2.1.1.3.4-.1.3.1.2v-.2l.1.2h.4l.3.5.4.2.3.3h.1l.1-.1h.1v-.1l-.1-.1v-.2l.3-.2v-.1l-.1-.1.2-.4.2-.2h.1l.3-.1h-.1l.1-.1h.3l.1.1.1.2h.5l.5-.3.8.1.2.1.3.4.2.1v-.1l.1.1h.1v.1l.1.1.1-.1v.1l.1-.1v.1H25v.2l.2-.1h.1l.2-.1h.1v-.2h-.1V8l.9-.3.1-.1.1-.1v-.1l.1-.2h.1l.1.1.1-.1.1-.1h.1V7l.2-.1v-.1h.2V7l.1.1.1-.2.1.1h.2l.2-.1.2.1.1-.1.1-.1-.1-.1h0l.2.1h.1l.1-.1.1-.2.1-.1.1-.1v.1l.1-.1.1.1v-.1h.1l.2-.1.1.1H30v.1h.1v-.1l.1.1.3-.1v-.1l-.2-.1v-.2l-.1-.1H30v-.2l-.1-.1v-.2h.5l.2-.2v-.2h.1l.1-.1.1-.3h.2l.1-.1h.6v-.1l.2-.1.2-.2v-.1l.1-.1-.1-.2-.2-.1-.1-.2.1-.2.5-.2.3-.4.5-.1.4.1.2-.2h.4v-.1l.2-.1.1-.1h.3l.1-.2v-.1h.2l.1-.1.1.1.4-.1.2.2h.3l.1-.2.2.1.2-.2h.1l.1.2v.1l-.1.2.1.1-.1.1H37l.1.1.2.1.2.1.2-.1h.2l.1-.1.2.1.1-.2h.3l.2-.2h.3l.1-.1.2-.2h.3l.1-.2.1-.1h.2l.1-.2h.2l.1-.1.1-.1v.2l.2-.2H41v.1l.1-.1v.1l.1.1v-.1h.2V1h.3l-.1.2h.1v.1l.1.1h.3v.3h.4l.1.2.6.2.7.2h.3l.4.2.2-.1.2.1h.7l.3.2V3l-.2.2-.1.3-.1.3-.1.1-.3.3-.2.3-.1.1-.1.3v.2l-.1.1h.1l-.1.1-.2.2v.2l-.2.2V6l-.2.1v.3l-.1.1h-.1v.4l-.1.2-.2.1-.1.1v.1l-.1.2-.2.1v.1l-.1.3-.3.3-.2.1-.2.3-.2.1-.1.1h.1l-.3.1-.1.1v.1l-.3.1-.1.1-.3.3L41,10l-2.7-.3-.2.4h-.2v.2h-.1l-.3.3-.1.2-.4.3v.3h-.2l-.2.2v.1l-.2.1-.2.2h.1l-.2.3-.2.2-.1.2-.2.3v.5h-.2l-.2.3-.1-.1h.1v-.1h-.1l-.4.1-.4.5h0l-.3.3-.1.2.1-.1-.5.6-.3.5L33,16l-.2.5-.5.5-.3.5-.2.3-.4.5-.4.6-.2.2v.2l-.2.2-.2-.1-.2.2-.4.5-.1.2-.2.2v.1l-.2-.1-.2.1-.2.2-.2.4-.4.2-.4.5-.5.4-.3.4-.1.2v.5l.1.1v.1l-.1.1h-.1l-.4.5-.5,1.2-.1.1.4-.8-.1-.1-.1-.2-.3-.5-.1-.3h-.1l-.3-.2-.1-.1-.3.2v.1h-.1l-.3.1h-.1v-.1h-.1l-.1.1-.3-.2.1-.4-.1-.4v-.5l-.1-.2-.2-.3-.1-.2-.3-.2v-.1l-.1-.1L23,21h-.2l-.2.2h-.3l-.1.1h-.3l-.2-.1h-.1l-.2-.2-.2-.1h-.1l.1-.1v-.1l-.3-.1h-.1l-.5-.1-.1-.1-.3-.2-.1-.1v-.3l-.1-.2h-.2l-.2-.2v.3l-.1-.2-.2-.3-.2-.2-.1-.3h0v-.1l-.1-.1v-.7l-.1-.2v-.1l-.4-.2h-.2l-.3.2h-.3l-.4-.4-.7-.6-.3-.2-.6-.1h-.6l-.1-.1V16l-.1-.2-.2-.3-.3-.3-.2-.1-.3-.1-.4-.3-.1-.1-.1-.1h-.2l-.3-.1-.4-.2-.1-.1-.5-.1-1.1-.2H10l-.2-.1-1-.6V13l-.1-.2-.1-.2-.2-.1-.4-.2-.5-.1h-.1l-.4.2h-.1l-.1-.3-.2-.2-.1-.2h-.3v-.2h-.1l-.5-.5-.1-.1h-.1l-.3.1-.5-.2-.5-.1-.2-.2.1-.3-.2-.2-.2-.2h.5l-.2-.2h-.1l-.1-.1v-.1h-.1l-.4-.1h-.1l-.1.1-.3-.1-.2.1-.3-.3h-.3L1.76,9v-.2l.1-.1v-.2l-.1-.1-.1-.3Z"/></g></g></svg>