<?xml version="1.0" encoding="UTF-8" standalone="no"?>
<!-- Created with Inkscape (http://www.inkscape.org/) -->

<svg
   width="480"
   height="360"
   viewBox="0 0 127 95.250002"
   version="1.1"
   id="svg5"
   inkscape:version="1.1.2 (b8e25be833, 2022-02-05)"
   sodipodi:docname="arduino_icon.svg"
   xmlns:inkscape="http://www.inkscape.org/namespaces/inkscape"
   xmlns:sodipodi="http://sodipodi.sourceforge.net/DTD/sodipodi-0.dtd"
   xmlns="http://www.w3.org/2000/svg"
   xmlns:svg="http://www.w3.org/2000/svg">
  <sodipodi:namedview
     id="namedview7"
     pagecolor="#ffffff"
     bordercolor="#666666"
     borderopacity="1.0"
     inkscape:pageshadow="2"
     inkscape:pageopacity="0.0"
     inkscape:pagecheckerboard="0"
     inkscape:document-units="px"
     showgrid="false"
     inkscape:zoom="0.74029882"
     inkscape:cx="370.79621"
     inkscape:cy="345.8063"
     inkscape:window-width="1920"
     inkscape:window-height="1017"
     inkscape:window-x="-8"
     inkscape:window-y="-8"
     inkscape:window-maximized="1"
     inkscape:current-layer="layer1"
     units="px"
     width="480px" />
  <defs
     id="defs2" />
  <g
     inkscape:label="Camada 1"
     inkscape:groupmode="layer"
     id="layer1">
    <path
       style="fill:#112847;stroke:none;stroke-width:0.567515"
       d="m 22.502478,18.889646 c -8.46487,0.02681 -8.46487,15.860547 0,15.890442 -2.29288,4.764244 -2.49645,16.887498 0,21.565548 -2.54524,0 -6.75147,-0.78317 -8.8342,0.98861 -2.42338,2.06176 -2.39409,12.47912 0,14.55958 2.00324,1.74061 6.35713,0.90972 8.8342,0.90972 -1.09882,2.59303 -2.82234,11.01151 0.1803,12.84349 3.64037,2.22122 13.63766,0.20913 17.98009,0.20913 h 48.806263 14.187899 c 1.62593,0 4.46067,0.51747 5.82157,-0.58315 2.44315,-1.97663 0.98861,-10.69936 0.98861,-13.60448 0,-2.13495 -0.39882,-4.77168 0.34185,-6.81018 0.84162,-2.31714 3.04079,-3.71724 3.50101,-6.24264 0.94324,-5.17862 0.12937,-11.19598 0.12937,-16.457977 0,-9.273508 3.63493,-26.393537 -5.67511,-31.898187 -5.23935,-3.0978265 -16.198569,-1.0176385 -22.133079,-1.0176385 -14.97958,0 -29.91714,-0.107917 -44.833713,0.544948 -5.45981,0.2392945 -12.33856,-1.384155 -17.582,-0.197736 -4.12223,0.9325785 -3.04179,6.5403865 -1.71353,9.3005205 m 1.70254,53.9139 c 2.27793,0 5.89409,0.66627 7.76481,-0.90972 2.41916,-2.0385 2.20125,-12.03297 0,-14.16685 -1.95947,-1.90002 -5.27346,-1.38134 -7.76481,-1.38134 2.38169,-5.62068 2.07556,-15.870535 0,-21.565548 3.10929,0 8.52452,1.040027 11.26629,-0.583155 2.95331,-1.748728 2.95331,-12.975203 0,-14.723864 -2.7417,-1.623316 -8.157,-0.583155 -11.26629,-0.583155 0.59053,-1.389652 0.8376,-4.059967 2.04453,-5.006019 3.01786,-2.365465 12.3706,-0.668952 16.116,-0.668952 h 48.238733 c 5.73134,0 17.790449,-2.435243 19.682559,5.107635 1.0726,4.276739 0.18031,9.785411 0.18031,14.187897 0,7.663128 1.67814,17.544721 -0.18031,24.970631 -0.65689,2.6242 -3.28136,4.06459 -3.70813,6.81018 -0.59187,3.80861 2.11457,15.23269 -1.39951,17.5771 -3.7592,2.50898 -14.072669,0.58316 -18.547479,0.58316 H 44.635088 c -4.83221,0 -13.06737,1.59697 -17.50893,-0.34252 -2.49235,-1.08849 -2.16941,-6.8947 -2.92161,-9.30555 m 9.08026,-50.508807 0.56774,8.512725 h -13.62036 l 0.56774,-8.512725 h 12.48535 m 28.505163,4.961377 c -3.15373,1.47317 -2.65147,9.892792 0.47189,11.154351 2.39214,0.965893 5.93853,0.34252 8.47928,0.34252 h 19.29553 c 2.65825,0 7.17053,0.851876 9.51837,-0.583155 2.815969,-1.721716 2.970329,-10.019679 -0.50004,-11.088328 -7.67392,-2.363253 -19.13714,-0.245997 -27.17885,-0.245997 -2.91075,0 -7.39924,-0.833711 -10.08584,0.420944 m 36.19155,7.523975 h -34.61844 l 1.31552,-4.197711 7.76474,-0.34252 h 17.02545 l 7.19721,0.34252 1.31552,4.197711 m -34.61844,32.34835 c 2.86993,2.19454 4.82504,5.42428 8.51273,6.44581 16.10272,4.46181 16.27921,-25.26181 0,-20.75114 -3.71893,1.03057 -5.61666,4.1457 -8.51273,6.36008 -5.03839,-9.70558 -19.846383,-7.87649 -19.846383,3.97262 0,11.8713 14.809133,13.6817 19.846383,3.97263 M 53.148618,56.563816 c 8.490073,-1.11061 10.071693,12.35652 1.13508,13.21912 -8.25922,0.79798 -9.31413,-12.14934 -1.13508,-13.21912 m 19.863073,0.0536 c 8.20513,-1.8427 10.61423,11.27085 2.27002,13.03982 -8.15633,1.72976 -10.88094,-11.10629 -2.27002,-13.03982 m -0.56774,2.56856 c -1.9352,3.89662 -1.97549,4.16333 0,7.94526 7.15974,-0.22924 7.13253,-7.71253 0,-7.94526 m -42.563623,9.6478 -13.05289,0.56774 -0.56774,-9.08019 c 2.75926,0 11.16166,-1.39723 13.00872,0.8876 1.32141,1.63498 0.32308,5.60419 0.61197,7.62512 m 20.78392,-6.79711 c -2.81349,2.30239 4.36267,3.6712 6.010723,2.24394 2.80351,-2.42901 -4.400473,-3.56173 -6.010723,-2.24394 z"
       id="path908" />
    <path
       style="fill:#112847;stroke:#519dd6;stroke-width:5.10541;stroke-dashoffset:6.35769;fill-opacity:1"
       d="m 351.88493,312.61644 c -6.68649,-0.67385 -64.43344,-1.11365 -128.32656,-0.97732 -94.46795,0.20156 -116.85108,-0.0886 -119.81892,-1.55322 -4.724884,-2.33173 -7.468909,-8.28592 -9.137154,-19.82648 -2.134964,-14.76922 -3.002719,-13.61238 10.702194,-14.26761 13.36715,-0.6391 16.46489,-2.22374 19.81417,-10.13592 4.39777,-10.38908 3.46864,-35.35231 -1.68687,-45.32197 -2.74883,-5.31565 -9.31787,-7.78199 -20.72716,-7.78199 -5.224462,0 -9.499024,-0.26622 -9.499024,-0.59159 0,-0.32537 1.029806,-4.73237 2.288459,-9.79334 3.142739,-12.63676 3.124449,-46.05334 -0.03225,-58.9277 -1.240914,-5.06097 -2.256207,-9.65312 -2.256207,-10.20478 0,-0.55167 7.142382,-0.76519 15.871962,-0.4745 21.14914,0.70426 25.49635,-0.71851 30.05544,-9.83669 2.98814,-5.97629 3.37701,-8.46505 3.37701,-21.61289 0,-13.169072 -0.38404,-15.617898 -3.37701,-21.533287 -4.66442,-9.218867 -9.10893,-10.660873 -30.13561,-9.777385 l -15.95214,0.67027 0.909477,-4.266484 c 3.057403,-14.342712 7.975383,-17.577647 26.266983,-17.277819 6.31502,0.103514 70.44453,0.400181 142.51002,0.659261 l 131.02817,0.471054 7.12291,3.080952 c 8.19992,3.546805 13.16479,8.799852 15.09615,15.972365 1.15837,4.301835 3.05301,88.233953 2.78062,123.180473 -0.13763,17.65742 -2.02351,25.03855 -9.0789,35.53396 -3.39902,5.05628 -6.60009,11.4904 -7.11351,14.29804 -0.51341,2.80763 -0.37826,12.95544 0.30034,22.55069 1.43935,20.35218 0.68104,33.8659 -2.21459,39.46544 -1.28463,2.48419 -4.1464,4.82055 -7.5945,6.20021 -6.90501,2.76283 -25.21161,3.68688 -41.1735,2.07826 z m -53.73202,-35.76726 c 3.80012,-1.89368 8.50955,-5.54109 10.46543,-8.10536 17.15415,-22.49027 9.51642,-61.91465 -13.46409,-69.49891 -6.77763,-2.23682 -23.06853,-1.17046 -29.44571,1.92744 -2.82043,1.3701 -9.794,6.7292 -15.49684,11.90909 l -10.36878,9.41801 -2.01178,-3.18526 c -13.23796,-20.95969 -43.47165,-26.24655 -61.14278,-10.69179 -8.77492,7.72399 -12.43623,16.74376 -12.42148,30.60074 0.01,9.1812 0.60927,12.15844 3.73442,18.54601 6.90439,14.11207 19.14173,20.66085 36.48239,19.52343 12.05832,-0.79092 21.34004,-5.27013 29.03465,-14.01168 3.06587,-3.483 5.5743,-6.95137 5.5743,-7.70748 0,-0.7561 3.79914,2.24301 8.44254,6.6647 4.64339,4.42169 10.47265,9.46118 12.95389,11.19887 10.73719,7.51957 26.54712,8.95188 37.66384,3.41219 z m 78.38266,-132.50722 c 2.04396,-1.51267 4.52299,-4.39585 5.50895,-6.40707 2.72766,-5.56401 3.52505,-17.5357 1.62096,-24.33643 -3.91579,-13.985813 -13.79703,-16.452003 -59.47207,-14.843217 -17.45917,0.614954 -43.90119,1.170377 -58.76005,1.234275 -30.09688,0.129422 -33.11673,0.815022 -37.61536,8.539882 -6.39267,10.97721 -1.37929,34.31802 8.02406,37.35763 2.56713,0.82983 29.78792,1.32274 70.57804,1.27803 64.61448,-0.0708 66.49907,-0.14671 70.11547,-2.8231 z"
       id="path1055"
       transform="scale(0.26458334)" />
  </g>
</svg>
