<svg xmlns="http://www.w3.org/2000/svg" viewBox="0 0 126.67 138.39"><defs><style>.cls-1{fill:#ff6d00;stroke:#fff;stroke-miterlimit:10;stroke-width:0.8px;fill-rule:evenodd;}</style></defs><g id="Camada_2" data-name="Camada 2"><g id="svg2"><path id="path68" class="cls-1" d="M.7,39.1h0l-.1-.3H.7l.1-.3-.1-.2.4-.1,1.1-.5h.2l.2-.3.3-.5L3,36l.3-.7.3-.3v-.3h.1l.3-.2.1-.2.1-.1.5-.3.2-.3.5-.3v-.1l-.2-.4V33l.1-.3.1-.2.1-.1.4-.2.2-.1.1-.2v-.4l-.3-.1H5.8l.5-.4.3-.2.1-.4v-.1l-.1-.1-.2-.3-.1-.1V30l.2-.1.2-.1v-.1l.3-.1.1.1.3-.1h.3l.3-.3.3.1.2-.1.1-.1V29l.4-.1.1-.4.1-.1h.3l.2-.1h.2L10,28l.2-.1.5-.4.1-.2.2-.2.3-.2h.6l.1-.4-.2-.3.1-.2v-.2H12l.2-.1.2-.1h.5l.2-.1.2-.4.2-.5.1-.2.1-.1V24l-.1-.4.1-.1v-.2h-.3l-.1-.2h.6l.2-.1.3-.3h.2l.5-.3h.1l.2.2.2.3v.9l.2.3.4.3.1.1V25l.1.1.3.2.1.1.2.1.2.4.4.3.1.2-.1.5.1.3.4.3v.2l-.1.1-.4.4-.2.3.1.2V29l-.1.2.1.3.1.6v.1l.1.1.1.1h.1l.2.1h.2l.1.2.1.1v.1l.2.8.5.4.5.1.3.1v.1l.2.5.1.1h.4l.1.1v.1h.1l.7.1h.6l.1.1.3-.1h.2l.1.1.2.1.1.1.2.1.2.3h.3l.3.1h.1v.1l.5.5.3-.3h.1l.1-.1h.2l.3-.3h.1l.1.2.4-.3.1-.1.1-.1v-.3l.3-.5h.4v-.3l.1-.1.3-.1.1-.1.2-.1.4.1.3-.1v-.1l.1-.3-.2-.5h.1v-.1l.1-.1L29,31h.3l.2-.1.1-.1.2-.4.2-.1h.4l.4.3h.3l.3-.1.2-.2.1-.2.1-.1h.1l.4.1.3-.1.1-.1.5-.6.1-.1h.2l.2.1.1.1.1.1.3.5.3.2.3.1h.1l.3-.2h.1l.3.2.2.1.2.1h.2l.2-.1h.1l.1-.2.2-.4.1-.1h.3l.1-.1.1-.2.3-.9.1-.1.2-.2v-.1l-.1-.5.1-.4.1-.2h.2l.2.1.4.2h.7v-.1l.1-.5.2-.2.1-.3.1-.1.2-.2.3-.2.2-.2v-.9l.5-.5.3-.4.1-.6v-.3l-.1-.2.2-.3.1-.1h.9V22l.1-.3.3-.2.1-.4-.1-.2-.2-.1-.3-.3.2-.4V20H39.6v-.3h.2v-.2l.3-.1.1-.2V19l.2-.2v-.1l-.2-.2-.2-.1-.2-.2h-.3l-.1-.2h-.6l-.1-.1-.2-.1-.2-.5v-.5l-.4-.6-.3-.1.1-.2v-.1h.1l-.2-.1v-.4l-.1-.4v-.2L38,14l.3-.2.2-.4.2-.2.3-.1.8-.3.3-.2.5-.5.2-.1.3-.4.3-.3h.1l.3-.1h.1l.2-.2.4-.4.2-.1.3-.1.2.1h.1l.2.1.4.5.1.2.3.5.3.3H45l.2.3.2.1h.1l.1.4h.2l.1-.2h.4l.2-.1h.3l.1.2.1.1.3-.2.2-.5h.2l.2.2v-.2H48l.1-.1.1.1h.1v.1h.1l.2.1v.1H49v.3l.5-.1h.1l.3-.1.2.1.2.2V13l.1.1-.1.3v.2l.1.4.1.2v.1l.3.2h.3l.2.1.3.4h.2l.2-.2h.1l.1.2v.3l.2.3v.3h.2l.5-.1.1-.1v-.3l.2-.1.2-.2.2-.2v-.4l.1.1.3.1v.1h.2l.3-.1h.2l.2-.1.1.1.3-.4.1-.2.1-.1.3.1.3-.1.4.1.4-.1.1-.2-.1-.2.1-.1.2-.1.3.1.1-.1.2-.1.1-.1V13l.1-.1.3-.2.4-.2.1-.1h.1V12l.5-.3.1-.2h.1l.3-.1h.3l.1-.1.3-.2L61,11h.1l.2.1h.2l.2-.1h.8l.3-.1.5-.3h.4l.2-.1.4.2.4-.3.2.3h.3l.2.2h.1l.1-.1.1-.2.3-.1.2-.2h.1l.2.1h.2l.2-.8.3-.3V9l.3-.3h.1l.2-.2.4-.3V7.5l.1-.4V7h.6l.1-.2V6.6l.5-.1h.1V6.3h.2l.1-.2h.5l.1.2.3-.1V5.8l.2-.1.1-.4h.1l.1-.2V4.9l.1-.1V4.7h.1l.1-.3h.2l.2-.2.4-.5.1.1.2-.5.2-.4.1-.3.2-.2V2.3h.3l.4.3h.3l.3.2h.1l.2-.1.2-.2h.3V2.4l.1-.1h.1l.3.1.1-.1.1.1.1-.1.1.1.1-.1.1.1.6-.1-.1.2v.1l-.1.1v.1l.1.2.1.1v.1l.1.1.1.2h.3v.1l.1-.1h.6l.1.4-.1.4.2.1.3-.2h.1l.2-.1.3.1v.2h.2l.4-.1v.2l.2.2h.1v.4l.2.2v.2l.3.1V6h.2v.5l.1.2.1.2.1.2v.2l.1.1v.3l.1.1-.1.2.2.1.1.2h.2v.1l.2-.1.2.1h.1v.2h.1l.2.1.3.2h.4l.1.2.2.1-.1.2v.3l-.1.2V10l-.2.3.1.2v.2h.1v.2l-.1.1-.3.1v.2l-.2.1-.3-.1v.1h-.1l-.1.1.3.4-.1.1.1.2-.2.2.1.2v.3h-.1l-.2.1v.3l-.1.2-.1.2.4-.2h.4l.1.1.5.3.4.1.4.1.5-.2H85l.1-.1.2-.2h.1l.1-.4.1-.1.3-.1h.2l.3.1.1.1.2-.3.3-.5.2-.2h.2l.3.3.3.1h.1l.4-.4v-.4l.2-.5.2-.2.2-1,.1-.3-.1-.4.1-.5.2-.5.3-.3.1-.1h.3l.1.1h.1l.3.3.3.2.1.2h.5l.5-.3.2-.2.2-.2h1l.2-.1.3-.1.5-.6.1-.1.1-.3.2-.1.3-.5L95,5.9l-.3-.5V5l.1-.1.3-.1.7-.2.2.1h.2l.5-.4.6.1h.2l.1-.1.1-.1.1-.1-.1-.3V3.5L97.6,3l-.2-.4.1-.3h.6l.3-.1h.3l.5-.2V1.9l.1-.1.1-.1.4-.1.1-.1.5-.2.3-.2V.9l.1-.1h.4l.1-.3h.1l.4-.1h.2l.1.1.1.1.2.2h.8l.1.1.1.2v.2l.1.3.2.1.1.1.1.2-.1.1v.6l.1.2.1.1.1.1h.1V3l.3.1.3-.1.1-.1.1-.1.2.2v.1l.4.1.5.1.4.1.4.1h.1l.2.2.4.2.2.4.2.1.1.1h.2l.3-.1.5-.1.2-.1h.2l.6.1h.1l.1.1.4.3.4.4.3.1.2.2.1.3.1.5v.3l.1.2.2.4.4.2.2-.1h.1l.2-.4V6l.1-.2.5-.7.3-.1.5.1.4.3.2.2-.1.4-.1.2-.4.3-.1.1v.1l-.1.1v.1l.1.2.2.3.3.3.4.3.2.1.2.1.3.1.3-.3.4-.4h.1l.2-.1h.3v.2l.3.3.1.3v.1l-.1.1-.3.2-.1.2.1.2h.2l-.3.3.1.4.1.1.1.1.2.3.2.5-.1.2.5,1,.2.5.4.4.1.3.1.1v.2l-.1.1v.2l.1.1h.3l.3.3.2-.1.3.1.1-.1h.1l.4.1h.1v.1l.1.1h.1l.2.2h.3l.2.2.2.2-.1.3-.1.2v.1l-.1.1-.1.1.1.1V16l-.1.1v.1l-.1-.1-.1.1v.4l.1.2.2.1.1.1.1.1.2.1.1.1-.1.1h-.2l-.2.2-.1.2-.2.1v1l.2.4h.1v.1l.3.3.3.1h.1l.1.1-.1.2-.1.2.1.1v.1l-.2.2V21l-.2.3v.1l.2.1.3.5.1.1h.1l.2-.1h.2v.2h.3l.3.1.1-.1.6.4.1.2v.6l.4.7.3.4v.2l-.1.5v.1l.2.1.4,1.7v.1l.1.1-.4.2H125l-.1.1-.3.2h-.1l-.1.1V28h-.2v.1l-.1.1v.1h.1l-.3.1.1.2-.1.1.5.8.1.3V30l-.1.2v.1l-.1.1v.1h-.2v.1l.1.1v.1l.1.1V31l.2,1.6-1.6.6-.5.2-.4.2h-.4v-.5l-.2-.2h-.1l-.1-.2h-.1l-.3.1-.1-.1-.1-.1-.2.2-.2-.1-.1.2h-.2l-.2-.1h-5.9l-.1-.2-.3.1h-.1l-.1.2v.6l-.1.3-.1.2h-.1l-.1.1.1.2-.1.2h.1l.1.3-.1.1-.1.2v.2l.2.3v.3l.2.1v.1l.1-.1h.1v.2l.3.1v.1l-.1.2.1.1.1.2.4.2.1.2.1.1h.1v-.2l.2.1.1.1v.1l.1.2h-.1v.1l.1.1h.1V38h.1v.1h.1v.2l-.1.3H115v.1l.1.2.2.1h.1v.1l-.1.2.1.1-.1.1.2.1.2.2.2.1.1-.1.3.3.1-.1.2.1h.2l-.1.1v.3l-.1.1h-.1l.1.2h-.1v.1h.1V41l-.1.1.1.1-.1.1v.1l-.2.1v.2l.2.3h-.1v.1l.2.1h-.2v.1l.1.1.1-.1v.1l.1.3.1.1v.1l-.1.1v.1h.2v.2l.1-.1h.1v.1h-.3l.1.1.1.1v.1h.1v-.2h.1v-.1h.2l.1.1h.1v.3l.1.1.1-.1v.1l.1-.2h.1l.2.1h-.4l.2.1v.1l.3-.1V44h-.2v.2l.1.1h.1l.1.2h.1l.2.1h.1l.1.1-.1.1V45l.2.1.1-.1.1.1h.2l.1.1.1-.1.2.2h.3v.2h.2l.2-.1h.1l-.1.3h.2l.2.1v-.2l.2-.2-.1-.2h.2V42l.1.1.1-.1h.1l.1.2.1.1h.2l.2-.1h.2l-.1.2.1.1h.1l-.1-.1h.2l.1.1h.6v-.2l.2-.2h.7l.2-.1.4-.3.3-.3.3-.3h.1l.1-.2h.2l.1.1-.1.2-.5.5-.4.5-1,2.1-.4.6-.6,1.6-.7,1.6-.1.5-.4.5-.3.5-.2.3-.1.3-.1.2-.8,1.4-.3.4-.7,1-.5.8-.1.1v.1l-.1.2h-.1l-.3.5-.4.5-.2.3-.2.4-.2.4-.3.5-.2.1-.7-.1-.2.2v.4h-.2l-.1.2-.2.1-.2.3-.5.5-.6.9-.3.2-.3.4-.3.3-.2.3-.2.3h-.2l-.3.3-.3.5-.4.4h-.5l-.2.1-.5.3-.4.4-.3.1h-.2l-.2-.1v.1l-.5-.1-.6-.1.3-.6.1-.3-.1-.2-.7.2.2.4-.2.3v.1h.3l-.2.3-.1.1-.2.3-.1.1h-.1l-.4.3h-.2l-.2.2-.1.2-.1.1H106l-.1.1-.2.3V65l-.3.1-.2.1h.1l-.2.1-.2.1-.4.2-.2.1-.1.2-.3.1-.3.2v.1h.2l-.2.1-.2.3-.2.6v.1l-.1.7.1.4.2.3.1.1.4-.3.1.1.1.2-.1.1h.1v.4l.1.1.1.2-.1.1.1.1-.2.3-.2-.1v.2h.2l-.1.1v.1l-.3.2v.2l-.1.5v.2l.1.1h.2v.2l.2.1-.1.1v.3h.2l.1-.1v.4l-.1.2-.3.3v-.1l-.1-.2h-.2l-.2.2h-.3l.1.1v.2l-.1.1-.3.3-.1.4v.5l.2.5.2.3.3.5v.1l.2.1.1.3V77l-.2.8V78l-.1.5-.1.3V79l-.3.8-.1.5-.1.3V80l.1.3v-.1l.1.1v.4l-.1.1v.1l-.2.4v.4l-.2.7-.1.7-.2.4V84l-.1.4-.1.2-.2.9V87l.2.4.2.1h.1l.1-.2v.2h-.1v.3l-.1.1h.1v-.1h.1v1l.1.5.1.3v.2l.2.5V94l.1.5-.1.1.1.1.2,1.2.3,1V97l.1.1.1.7v.9l.1.9.2.7h.1l.2.6v.1l.1.1.4.7.1.1v.1l-.1.1v.1l.2.1v.1l-.1.1-.1.2-.3.5-.4,1.3-.3.6-.2.5-.1.1v.6l.1.3-.1.1-.1.3-.1.1-.1.3-.2.1-.3.4v.1h-.1l-.1.4v.1l.2-.3-.2.5.1.4.1.1h.1v.1l-.1.2v.4l-.2.1-.2.2-.3.5v.3l-.1.1v.1l.1-.1v.3l-.1.1v.2l-.3.5v.4l-.1.5v.5l-.1.3.1.1-.2.2v.7h-.1l-.1.1-.1.2v.2l-.1.1h-.1v.1l-.1.5.1.9.2.3.2.2-.2.1-.4.5v.5l-.3.5v.5l.1.1-.1.1-.1.2v.4l-.1.2-.2.1-.1.2-.1.4v1.2l-.1.5.1.7v.3l.1.6.2.6v.9l.1.6-.1.1v.2l.1.5.6.9h.1l-.1.1-.6.5.1.3-.3.2-.1.2-.7.7-.1.2v.2l.1.1-.1.1-.7.4H98l-.1-.1-.2.1-.2.2h-.1l-.3.1-.3-.7-.4.4-.3.4-.4.6-.4.7-.1-.1h-.3v-.1h-.1l.1.2.2-.1-.1.1.1.2.1-.1-.5.6-.6,1.2v.2l-.3.5v.1l-.1.4.1.1-.2.4v-.3l-.1-.1-.2-.1-3-1.9-.1-.1-.4-.3-1.6-1L86,131.5v-.4l-.2-.1-.3-.2-.1-.1v-.1l.7-.4.5-.6v-.1l-.1-.2-.2-.1-.1.1.1-.2-.1-.2-.2-.2.1-.2-.1-.2.1-.2-.2-.3h-.3l-.1-.2-.3.1-.1-.1-.1-.3h-.1l-.1-.1v-.3l-.1-.1-.2-.1-.1-.1.1-.2-.2-.1-.1-.2-.1-.1v.2l-.1.3-.1-.2-.2-.3h-.1l-.2.2-.1-.2-.2-.1v-.3h.1l-.1-.2.1-.1h-.3l-.2.2-.3-.2-.2-.5-.1-.1-.1-.1.1-.2v-.3h-.2v-.2h-.1l-.2-.3v-.2l-.5-.1-.2-.2-.2-.1-.3.1-.1-.1-.3-.2.4-.2v.4l-.1-.1.2-.2-.2-.1v-.2h.2v-.2h.1l.2-.3.4-.1-.3-.2v-.2l-.1-.1v-.2h.1l.1-.1-.1-.3.2-.2v-.2l-.3-.1-.1-.5.2-.3.1-.5v-.1h-.2v0l.3-.5v-.2l.1-.4h.1l.3-.3.2-.5.2-.4v-.3l.2-.1h.3v.1l.1.1h.3l.2.1h.1l.1-.1h.1l.3-.1.1-.1.3.2v.1h.1l.2.2.1-.1h.1l.2-.2.1.2h.2l.1-.2V116l.1-.1v.1h.2v-.1l.1-.1-.1-.1v-.2l-.1-.1v-.2l-.2-.1-.2.1-.1-.1h-.4l-.2-.1-.2-.1.2-.1.2-.5.2-.1V114l.1-.2-.1-.1-.1-.1v-.2l.2-.4.1-.5.1-.2v-.1l.2-.4h.2l.1-.1.1.1v.2l.1-.1h.1l.3.2h.2V112l.1.1.3.1h.2v-.4h-.1v-.3h-.1l-.1-.1h.1v-.2h.1l.1-.1.3-.3.2-.4h.1l.1-.2.1-.3.1-.2.1.2-.1.2h.1l.1.2.2-.1.1-.2h.2l.1-.3v-.1l.1-.2.2-.5.1-.1.1-.1v-.1l.2-.1v-.2l.1-.1h.1v.1h.1l.1.1h.1l.1-.4.2-.1.1-.1h.3l-.1-.3-.1-.1-.1-.2.3-.4v.2l.2-.1v-.1l.2-.1.1-.4-.1-.2h-.1l-.1-.2h.1l.1.1H91l.3-.2v-.2l-.1-.1v-.2H91v-.2l-.1-.2-.2-.1v-.2l-.3-.3h-.2v-.1l.2-.3h0l-.1-.1h-.5v.2h-.5v.1h-.1V104h-.1l-.1-.2h-.1v.1h-.1v-.1h-.1l.1-.1h0l-.1-.1h.1l-.1-.1h-.2v-.1h.1l-.1-.1v-.1l-.1-.1-.1.1v-.1h.1v0l.1-.3h-.1l-.1.2h-.1l-.1-.1.1-.2v-.1l-.2.1v.1h-.2l-.1-.1-.2.1h-.1v-.2l-.1.1h-.2v.1H87v-.1l-.1.1-.1-.1.2-.1v-.4h-.1l-.3-.2-.1.1V102h-.1v-.2h-.1v-.1h-.1v-.2h-.1v-.1l-.1-.2h-.1l-.2.1h.1l-.1.1-.1-.1-.2.1h-.5l-.1.1-.1-.1h-.1l-.1-.1-.2.1-.1.1-.1-.1h-.2l-.1-.1v.1l-.2-.2v.1l-.1-.1-.1-.4-.3-.3H83l-.1-.1-.2.3-.1.1-.1-.1-.1-.1-.2.1-.1.2v.2h-.3l-.2.1h.2l-.1-.2.1-.2-.4-.1v-.1l-.2-.1.1-.1v-.1l-.1-.1h-.1l-.2-.3h-.1l-.1.2h-.1l-.2-.4-.3-.1v-.1l-.2-.3h-.1v-.1h-.1l-.2.1h-.2l-.1.2.1.2h-.1l-.1.1-.3.1-.2-.1-.1-.2.1-.2-.1-.2-.4-.2v-.1h-.2v.4h-.1l-.1.2-.1-.1-.1.1-.4.1h-.3l-.1-.5h-.1l-.2-.2V99l-.1.1-.1.1v.3h-.1l-.3.3h-.4l-.3.2-.3-.1-.3.3-.4.1H74l-.1.3-.1.1-.2-.1-.2-.1-.3-.1H73l-.3-.2h-.3l-.2.1-.3.1-.2-.2h-.1l-.2.1H71l-.1-1.5-.3-1.9v-.1l-.4-.3-1-1-1.3-1.2-3.3-3h-.1l-.1.1-.4.1-.2.1h-.2l-.1.3-.2.1-.1.1H63l-.1.1h-.2v.2l-.3.1-.4-.2h-.2l-.1-.1-.5.1-.5.2-.2.1h-.2v-.3h-.1l-.1-.3-.2-.2-.2-.1-.1-.1-.1-.1v-.2h-.2l-.1-.2h-.1v.2l-.2.1-.1-.1-.2.1-.2-.1-.3.2-.2.2-.2-.2-.1.1-.1-.2-.4-.1-.1-.1-.1-.2h-.1l-.3.3-.2-.3-.1-.1-.3.1-.3-.2-.4-.1.1-.4v-.2h-.5l-.3-.4-.3-.2h-.3v-.2l-.3-.1h-.1l-.2-.3-.1-.1-.1-.1-.2-.1-.2.2-.1.2-.2-.2-.3-.2h0l-.1-.2v.1l-.2-.2-.1.1-.1-.1-.2-.1.1-.1h-.1V88h-.1l-.2.1V88l-.2-.1-.2-.2-.1-.2-.5-.1-.2-.2-.4-.3-.1-.1v-.1h-.2l-.1-.2-.2-.1v-.1H49l1.8.7-.1.1h-.1l-.1-.1-.1-.1V87h-.1l-.1-.3v.1l-.1-.1H50v-.1l-.1-.3-.1-.1h-.2l-.3-.2-.1.1-.3-.1-.1.1-.3-.2v-.1h-.1l-.2.1h-.1l-.1-.2-.1.2h-.1l-.1.1-.1-.2-.2-.1-.1-.1v.1h-.1l-.2-.2h-.3l-.4-.2v.1l-.2-.1H46l-.1.1h-.4l-.6.1v.1l-.1.1h-.2l-.1-.1-.2.1h-.1l-.1.1-.2.2h-.3l-.4.2-.3.2-.1-.1-.1.1h-.1l-.1.1v.1h-.2l-.1.1.1.2.5.1h-.2l-.1.1.2.2v.1h-.3l-.1.1h-.2v.2l-.1-.1-.1.2h-.1l-.1-.2v-.2h.1l-.1-.1-.5-.3-.1-.2h-.2l-.2.1h.1l-.2-.1-.5-.1-.1-.1-.1-.1h-.1v-.1h-.2l-.1.1h-.2v-.1l.1-.1v-.1l-.1-.1-.1-.1h-.6l-.1-.1h-.3l-.5-.2h-.2l-.1-.1h-.1v-.2h-.1v.1l-.1-.1.1-.1h-.1l.1-.1h.1l-.2-.1.2-.1v-.2h-.1v-.3l-.1.1v-.2l.1-.3V84l.1-.5.4-.8.1-.1.1-.3.2-.6.2-.2v-.1l.3-.4-.1-.1h-.2l-.1-.2-.1.1v-.1H38l.1-.1H38l-.2-.1-.1.2v-.1l-.1.1-.1-.1h.1v-.1l-.2.1-.1-.1v.1l-.1-.1H37v-.1l-.1-.1h-.1v.1l-.1-.1v.1l-.1-.1h-.1v.1l-.1-.1-.1.1-.1-.2h-.1v0H36l-.1-.2h-.1l-.1.1V80l-.2-.1h-.3V80H35l-.1.2-.1-.1v.1l-.1-.1h-.1V80l-.1.1h-.2v-.2h-.1V80h-.1v-.1L34,80h-.1l-.1-.1V80h-.1l-.1.3-.2.1-.1-.1h.1v-.2L33,80v.2h-.1l-.2-.2h-.3v-.1h.4v-.2l-.1-.1v.2h-.3V80l-.1-.1-.1.1h.1v.1l-.1-.2h-.5l-.1.1-.3-.2-.3.1V80h-.2l.1.1h-.1l-.1.1h-.1l-.1.1-.1-.1v.1l-.1.1v-.1h-.2l-.1.1-.3.1-.2.2-.2.1-.1.1-.1-.1v.1H29l-.1.1-.1.1h-.1l-.1-.1h.2v-.1l-.1.1h-.4v.2l-.2-.1v.1H28v.1h-.2v0l-.1.1-.2.2h-.2l-.1.1h-.1L27,82l-.1-.1-.1.1h.1l-.1.1-.1-.1h.1l-.1.2.1.1-.1.1-.1-.1v.2l-.2-.2v.1h-.1v.2h-.1v.2H26v-.1l-.1.2-.1-.1V83l-.2.1h-.1v.1l-.1.1-.1-.1v.1H25l-.1.1h-.1v.1h-.3l.1.1-.1.1-.3-.1v.1l.2.1-.1.1h-.1l.1.1-.1.1h.1l.1.1h-.3l-.1.1v.3l-.1-.1v.2H24l.1-.1v.2h-.3l-.2.3v0h-.2l-.1.1h-.2v.1H23v.1l-.3.1h-.1v.1h-.1l-.1.1-.1-.1-.2.2.1.1H22v.2l-.2-.1v.1l-.5.2v.2l-.1.1V86l-.1.1-.2.4-.2.3-.1.1h-.1l-.8-.1-.2-.1.1-.1-.2.1v.1h.3v.1l-.3-.1-.1.2-.2.1v.2l-.2.2-.1-.1-.1.1-.1.2-.1-.1-.1.2-.2.1V88l.1.1H18v.1h-.1l-.1-.1.1.2-.1.2-.1-.1-.1.2h-.3v.2h-.1l-.1-.1v.1l-.1.1v.2h-.1l-.3.3-.3.2h-.1v-.1h-.1l-.1.2-.2.1h.1l-.1.1V90h-.1v-.1h-.1l-.3.2-.2-.2-.2.1h-.1l-.2-.2h-.2l-.1.1h-.2V90l-.3.3v.1l-.1-.1v.2h-.1v.1h-.1l-.1.3-.1.1-.2.1V91l-.1-.1-.1.3v-.1h-.1l-.1.2.1.1-.1.2-.2.3V92h-.2v.1H12v.1l-.1-.1v.2h-.1v.1h-.1v0l-.1.1h-.5l-.2-.1-.2.1-.2-.1-.1.1h-.1v.1h-.1v.2h-.1l-.1.1H9.8V93H9.7l-.1.1L9,92.7l-.5.1-.2.2v.3H8.1l.1.1-.1.3h.3v.2l-.1.1v.2l-.1.1-.1.1-.1.1.1.1-.4.1-.1-.2v-.1l-.1.1-.1-.2V94l-.3-.2v-.2h.3l.1-.1h.2v-.1h.2l.2-.1v-.1l.1-.1v-.2l-.1-.1v-.1l.1-.2.2-.1v-.2l.2-.1v-.2l.1-.1.5-.5v-.6l.1-.1v-.7L9,89.8l-.1-.2H8.7l.1-.4-.3-.3H8.3v-.1l.1-.3-.2-.3H8.1v-.1l.2-.1.2-.1v-.1l.1-.1.1-.1V86.5h.1v-.4H8.7l-.2-.2-.1-.1.1-.1v-.2h.2v0h.1l.2-.1v-.2l-.1-.1.2-.2V85l-.3-.3.2-.1.1-.3L9,84.2H9v-.1L8.9,84H9l-.1-.2.2.1.1-.1-.1-.1-.2-.2-.1-.1.1-.1H8.8l.1-.1V83l-.2-.2-.1-.1.1-.2.1-.1v-.2l-.1-.1V82H8.6v-.1l.1-.1.2.3.3.1.1-.1h.1l.2-.2h.2l.1-.1v-.3l.1-.1.1-.1v-.1l.1-.2-.1-.1H9.8l-.2-.1-.1-.2-.1-.1L9.3,80l-.2-.1H8.8l.1-.2-.1-.1H8.6l-.1.1H8.4V80l-.1-.2H8.1l-.3-.2.2-.4L7.8,79l-.2.1-.2.1H7.3V79H7l.1-.3L7,78.5l-.2-.1-.3.1L6,78.4l-.2-.1v-.4H5.6l-.3-.2H5l-.2-.1.2-.2.1.1h.1l.2-.3L5.3,77H5.1l.3-.2.2-.4.1-.1-.2-.2.1-.3.2.2-.2-.1-.5-.3.1-.3V75l.4-.6v-.2L5.4,74H5.1v-.1l.1-.2-.3-.2.1-.1.6-.2.1-.1-.2-.4-.3.1L5,72.7v-.1l.4-.3h.1v-.1l-.1-.1L5.2,72l-.1-.1.1-.1.2-.4.2-.2h.1l.1-.2.4-.2.4-.4-.1-.1L6.2,70l-.4.1L5.7,70l-.1.1L5.5,70l-.1-.2.1-.2-.1-.2.2-.2.1-.2v-.2h.1v-.1l.3-.1V69l-.2-.3-.1-.2-.2.1v-.2l.3-.2L6,68l.3-.1.3-.1.3-.1.3-.1.1-.1.2-.1.2-.4.2-.1.5-.3.1-.4v-.1L8.4,66l-.2-.1-.5.2-.2.1H7.3l-.1.1-.5.4-.5.1L6,66.7l-.3.3-.4.2H5.1L5,66.9v-.2H4.8l-.3-.2.2-.3v-.4H4.3V66l.1-.1.1-.3v-.2l.2-.1V65H4.6l-.1-.1.2-.1-.1-.2.2-.1v-.3l-.1-.1H4.6l-.1-.2-.1-.2.3-.3.1-.2.1-.2.1-.1V63l.1-.1v-.2l.3-.1.1-.1h.2l.2.1H6l.1-.1h.1l.1-.1.3-.1.1-.1h.2l.2-.2.2-.1.2-.4v-.2l-.2-.1-.2-.1-.6.3H6.3l-.3.2-.6-.1H5.3l-.1.2-.3.1.1-.5v-.2l.1-.2.1-.2L5,60.4l.3-.2.2-.2-.1-.2-.1-.1-.1-.1v-.4l.1-.1v-.2l-.1-.2.2-.1v-.4l-.1-.1L5.1,58v-.1H4.8l.2-.3.2-.1.2-.2-.1-.2H5.1V57l-.2-.1.2-.5L5,56.2l.1-.1.1-.1.1-.3.1-.1h.1l.3-.1.4-.1h.5l.1-.3-.1-.2.1-.2-.1-.2-.3.1-.6.3-.4-.1v-.5l.1-.2V54l-.1-.2-.2-.2H4.9l-.1.1-.1-.1v-.1l.1-.1v-.2l.1-.1-.1-.2-.3-.2H4.4l-.2-.1-.1-.2-.1.1-.1-.1.1-.1v-.2l.4-.1v-.1H4.3L4,51.8H3.9l-.3-.1.1-.2.1-.1-.2-.3H3.5l.2-.1.1-.3-.1-.1v-.2l-.3-.1.1-.1V50l-.1-.1.2-.1v-.1l.1-.3v-.2l.1-.2-.1-.2-.2-.1v-.1l-.1-.2.2-.1-.1-.1v-.1l-.2-.2v-.2l.2-.1h.1v-.2l.3-.3.2-.1.1-.1.1-.2.4-.1h.2l.5-.1.5-.2h.3l.3-.3v-.2l-.1-.2H6.1l-.2.2-.4.1-.2-.1-.2-.1-.3-.1-.4.2H4.2L4,45.6l-.1-.1-.2.1-.2-.3.1-.2-.1-.2.1-.1.2.1.1-.1v-.2l.2-.1.1-.2-.1-.1v-.1l.2-.1v-.1l-.2-.1-.2-.2-.3.1-.1-.1.2-.1.5-.2.3-.5.2-.1v-.2l-.1-.3-.1-.1-.1-.2v-.2l.2-.1.2.1.2-.1h.3l.5.3.5.2.2-.1.3.1.3-.1.6-.1v-.3l-.1-.1H7.5l-.3-.1-.1-.1-.2.1H6.6l-.1-.2-.2.1-.1.1L6,41.3l-.2-.1v1.7l-.2-.2H5.4l-.2-.1H5.1l-.3-.1-.4-.2-.5.1-.2-.1H3.3l-.2.1H3l-.1-.1-.1-.2V42H2.3l-.1-.2-.3-.1-.1-.1-.1-.1-.1-.3v-.6l-.3-.2v-.5l-.2-.1H1l-.3-.1-.2-.3L.4,39v.1Z"/></g></g></svg>