<?xml version="1.0" encoding="UTF-8" standalone="no"?>
<svg
   height="512"
   viewBox="0 0 48 48"
   width="512"
   version="1.1"
   id="svg884"
   sodipodi:docname="paint-bucket (1).svg"
   inkscape:version="1.2.2 (732a01da63, 2022-12-09)"
   xmlns:inkscape="http://www.inkscape.org/namespaces/inkscape"
   xmlns:sodipodi="http://sodipodi.sourceforge.net/DTD/sodipodi-0.dtd"
   xmlns="http://www.w3.org/2000/svg"
   xmlns:svg="http://www.w3.org/2000/svg">
  <defs
     id="defs888" />
  <sodipodi:namedview
     id="namedview886"
     pagecolor="#2dffff"
     bordercolor="#000000"
     borderopacity="0.25"
     inkscape:showpageshadow="2"
     inkscape:pageopacity="0"
     inkscape:pagecheckerboard="0"
     inkscape:deskcolor="#d1d1d1"
     showgrid="false"
     inkscape:zoom="0.65186406"
     inkscape:cx="454.0824"
     inkscape:cy="339.79477"
     inkscape:window-width="1500"
     inkscape:window-height="930"
     inkscape:window-x="-6"
     inkscape:window-y="-6"
     inkscape:window-maximized="1"
     inkscape:current-layer="svg884" />
  <g
     id="_05-paint_bucket"
     data-name="05-paint bucket">
    <path
       d="m 18.729,47.991 c -3.57,0 -10.336,-6.647 -11.2,-7.515 -1,-1 -9.715,-9.874 -6.99,-12.6 L 18.01,10.4 19.424,11.814 2,29.241 c -0.162,0.895 1.965,4.844 6.94,9.821 4.975,4.977 8.937,7.1 9.821,6.939 l 14.700027,-14.708027 1.414,1.414 L 20.123,47.466 c -0.373011,0.358758 -0.877,0.548567 -1.394,0.525 z"
       id="path859"
       sodipodi:nodetypes="ccccccsccccc" />
    <path
       d="m33.761 30h2.828v2h-2.828z"
       transform="matrix(.707 -.707 .707 .707 -11.618 33.952)"
       id="path861" />
    <path
       d="m31.49 22.667c-.926-1.037-1.933-2.1-2.995-3.163a47.351 47.351 0 0 0 -8.443-7.065c.151.268.355.6.629 1l-1.655 1.124c-1.088-1.6-1.964-3.213-1.017-4.161.789-.785 3.375-.836 11.9 7.688 1.089 1.089 2.122 2.18 3.073 3.243z"
       id="path863" />
    <path
       d="m19.77 15.6q-.409-.546-.743-1.037l1.653-1.126c.207.3.438.626.691.966z"
       id="path865" />
    <path
       d="m34.949 29.891c-2.1-1.078-5.645-3.986-9.25-7.59q-.815-.816-1.57-1.613l1.451-1.376c.491.519 1 1.044 1.533 1.575 3.415 3.414 6.849 6.25 8.748 7.224z"
       id="path867" />
    <path
       d="m23 28a3 3 0 1 1 3-3 3 3 0 0 1 -3 3zm0-4a1 1 0 1 0 1 1 1 1 0 0 0 -1-1z"
       id="path869" />
    <path
       d="m8 17h2v4h-2z"
       id="path871" />
    <path
       d="m8 13h2v2.001h-2z"
       id="path873" />
    <path
       d="m24 23h-2v-16c0-2.757-2.691-5-6-5s-6 2.243-6 5v4h-2v-4c0-3.86 3.589-7 8-7s8 3.14 8 7z"
       id="path875" />
    <path
       d="m38 35h-2v-4a1 1 0 0 0 -1-1v-2a3 3 0 0 1 3 3z"
       id="path877" />
    <path
       d="m36 37h2v2h-2z"
       id="path879" />
    <path
       d="m40 48a4 4 0 0 1 -4-4v-3h2v3a2 2 0 0 0 4 0v-9a1 1 0 0 1 2 0v3a1 1 0 0 0 2 0v-2a13.015 13.015 0 0 0 -13-13h-6v-2h6a15.017 15.017 0 0 1 15 15v2a3 3 0 0 1 -4 2.829v3.171a4 4 0 0 1 -4 4z"
       id="path881" />
  </g>
  <path
     style="fill:#ffffff;stroke-width:0.767031;paint-order:stroke fill markers"
     d="m 215.58068,133.05742 c -3.91611,2.51112 1.54934,6.48129 2.62961,9.21958 2.48224,3.71137 5.0204,7.38515 7.58598,11.03933 -4.75617,3.3641 -9.65611,7.63918 -14.44175,10.39687 -6.62351,-7.4254 -11.45867,-16.31512 -16.91253,-24.46652 -4.06591,-1.22467 -6.35666,5.18085 -9.57339,7.10108 -52.58182,52.87878 -105.812871,105.12037 -157.818099,158.56767 -2.859561,3.72874 -9.071892,7.29815 -6.635789,12.80323 6.732391,18.91804 18.786423,35.41216 30.720455,51.36301 22.885341,29.23371 49.163563,55.76463 77.267633,79.97907 19.24021,15.67202 39.04035,31.55082 62.11604,41.19947 3.66959,1.13071 8.58699,4.13231 11.33617,-0.23821 54.38549,-53.08578 107.94968,-107.01495 161.25968,-161.17953 3.00823,-3.32928 6.54527,-6.27457 9.13059,-9.94031 -0.20498,-3.833 -5.67589,-4.44763 -8.05606,-6.91035 -37.56565,-24.42304 -69.67407,-55.98969 -101.12863,-87.65783 -1.43687,-1.72814 -4.81594,-3.60429 -1.56141,-5.3526 3.62073,-3.6356 7.41126,-7.10957 11.15491,-10.59461 6.16,5.57579 11.41642,12.51727 18.14058,17.24022 9.6091,-0.53939 19.56624,0.49147 28.95311,-1.04832 1.41327,-4.25388 -5.07183,-6.56246 -7.05982,-9.84138 -17.47266,-17.2905 -34.50867,-35.19033 -53.66666,-50.64058 -3.30762,-2.34823 -4.5877,2.46006 -4.08983,4.96323 -0.61651,22.39583 -0.26087,44.80505 -0.35954,67.2066 1.73213,3.52608 6.88415,3.6025 9.4905,6.61715 13.8538,10.26186 15.17182,32.48152 3.17299,44.67356 -5.90142,6.44748 -14.64733,9.88884 -23.36747,8.81279 -14.43038,0.52431 -27.34002,-12.26726 -28.70674,-26.38109 -1.79031,-13.62552 7.129,-27.33676 19.9518,-31.93216 2.61313,-3.62964 0.4476,-9.00625 1.15979,-13.31518 0.0178,-25.82338 0.0343,-51.64676 0.0507,-77.47014 -2.73511,-4.33374 -8.39685,-6.27265 -12.33154,-9.60716 -2.747,-1.41084 -5.22006,-4.44658 -8.41125,-4.60689 z"
     id="path1007"
     transform="scale(0.09375)" />
</svg>
