<svg height="512" viewBox="0 0 48 48" width="512" xmlns="http://www.w3.org/2000/svg"><g id="_05-paint_bucket" data-name="05-paint bucket"><path d="m23 7v6.25c-2.22-1.7-3.85-2.57-4.28-2.14l-9.72 9.709v-13.819a5.558 5.558 0 0 1 2.05-4.24 7.576 7.576 0 0 1 4.95-1.76c3.871 0 7 2.69 7 6z" fill="#fcfcfc"/><circle cx="23.001" cy="24.999" fill="#0091ff" r="2"/><path d="m23 23a2 2 0 1 0 2 2 2.006 2.006 0 0 0 -2-2zm12.2 6.01a1.986 1.986 0 0 1 1.34.72l-.37.27-16.749 16.758c-1.16 1.16-6.17-1.969-11.19-6.989s-8.149-10.03-6.989-11.19l7.758-7.76 9.72-9.709c-.34.33.11 1.39 1.13 2.89a42.289 42.289 0 0 0 3.15 3.969c1.01 1.15 2.16 2.37 3.41 3.62l.5.5a44.709 44.709 0 0 0 8.339 6.82z" fill="#e4e4e4"/><path d="m43 38v6a3 3 0 0 1 -6 0v-13a2.011 2.011 0 0 0 -1.8-1.99l.05-.1a44.709 44.709 0 0 1 -8.339-6.82l.089-.09h6a14 14 0 0 1 14 14v2a2.006 2.006 0 0 1 -2 2 2.015 2.015 0 0 1 -2-2z" fill="#0091ff"/><path d="m29.2 18.8a68.851 68.851 0 0 0 -6.2-5.55c-2.22-1.7-3.85-2.57-4.28-2.14-.34.33.11 1.39 1.13 2.89a42.289 42.289 0 0 0 3.15 3.969c1.01 1.15 2.16 2.37 3.41 3.62l.5.5.09-.089h5.24c-.92-1.031-1.94-2.111-3.04-3.2z" fill="#9c9c9c"/><path d="m23 17.969c1.01 1.15 2.16 2.37 3.41 3.62l.5.5.09-.089h3.374c-.384-.4-.768-.8-1.174-1.2a68.851 68.851 0 0 0 -6.2-5.55 11.671 11.671 0 0 0 -3.768-2.228c.174.3.379.626.618.978a42.289 42.289 0 0 0 3.15 3.969z" fill="#595959"/><path d="m16 0a8.576 8.576 0 0 0 -5.6 2 6.523 6.523 0 0 0 -2.4 5v14.821l1-1 1-1v-12.821a4.555 4.555 0 0 1 1.7-3.481 6.582 6.582 0 0 1 4.3-1.519c3.309 0 6 2.243 6 5v16.279a1.929 1.929 0 0 1 2 0v-16.279c0-3.86-3.589-7-8-7z" fill="#595959"/><path d="m23 22a3 3 0 1 0 3 3 3 3 0 0 0 -3-3zm0 5a2 2 0 1 1 2-2 2 2 0 0 1 -2 2z" fill="#9c9c9c"/><path d="m35.2 29.009.05-.1a16.729 16.729 0 0 1 -1.75-1.123c-5.309 6.164-18.353 13.144-32.061.6l-.193.193c-1.16 1.16 1.969 6.17 6.989 11.19s10.03 8.149 11.19 6.989l16.745-16.758.37-.27a1.986 1.986 0 0 0 -1.34-.721z" fill="#cfcfcf"/><path d="m41.59 37.624a1.524 1.524 0 0 1 -.59-1.184v5.04a2.788 2.788 0 0 1 -3 2.52 3.47 3.47 0 0 1 -1-.155v.155a3 3 0 0 0 6 0v-5.88a2.153 2.153 0 0 1 -1.41-.496z" fill="#00a6ff"/><path d="m33 22h-6l-.09.09c.317.313.631.612.944.911h3.146c7.73 0 14 5.267 14 11.76v1.68a1.864 1.864 0 0 1 -1.988 1.679 2 2 0 0 0 1.988 1.88 2.006 2.006 0 0 0 2-2v-2a14 14 0 0 0 -14-14z" fill="#31c4ff"/><g fill="#f6fafd"><ellipse cx="6.582" cy="28.695" rx="1.642" ry="2.286" transform="matrix(.707 -.707 .707 .707 -18.368 13.067)"/><ellipse cx="44.58" cy="34.708" rx=".825" ry="1.148" transform="matrix(.707 -.707 .707 .707 -11.483 41.708)"/><ellipse cx="8.58" cy="25.708" rx=".825" ry="1.148" transform="matrix(.707 -.707 .707 .707 -15.669 13.605)"/><ellipse cx="44.326" cy="32.208" rx=".413" ry=".574" transform="matrix(.707 -.707 .707 .707 -9.789 40.795)"/><ellipse cx="23.326" cy="24.208" rx=".413" ry=".574" transform="matrix(.707 -.707 .707 .707 -10.286 23.596)"/></g></g></svg>