<?xml version="1.0" encoding="UTF-8" standalone="no"?>
<svg
   version="1.1"
   width="512.00038"
   height="509.14563"
   viewBox="0,0,512.00038,509.14563"
   id="svg34"
   sodipodi:docname="pencil (1) (1).svg"
   inkscape:version="1.2.2 (732a01da63, 2022-12-09)"
   xmlns:inkscape="http://www.inkscape.org/namespaces/inkscape"
   xmlns:sodipodi="http://sodipodi.sourceforge.net/DTD/sodipodi-0.dtd"
   xmlns="http://www.w3.org/2000/svg"
   xmlns:svg="http://www.w3.org/2000/svg">
  <defs
     id="defs38" />
  <sodipodi:namedview
     id="namedview36"
     pagecolor="#00ffff"
     bordercolor="#000000"
     borderopacity="0.25"
     inkscape:showpageshadow="2"
     inkscape:pageopacity="0"
     inkscape:pagecheckerboard="0"
     inkscape:deskcolor="#d1d1d1"
     showgrid="false"
     inkscape:zoom="0.46352161"
     inkscape:cx="138.07339"
     inkscape:cy="708.70483"
     inkscape:window-width="1500"
     inkscape:window-height="930"
     inkscape:window-x="-6"
     inkscape:window-y="-6"
     inkscape:window-maximized="1"
     inkscape:current-layer="svg34" />
  <path
     d="m 483.4887,166.14363 c -3.983,3.983 -300.551,300.554 -303.113,303.116 -1.616,1.614 -3.932,2.463 -6.368,2.113 l -37.828,10.341 c -3.991,1.088 -8.124,-1.261 -9.216,-5.259 -1.094,-3.997 1.261,-8.124 5.259,-9.216 l 27.892,-7.626 c -4.903,-4.903 -102.696,-102.699 -107.809,-107.812 l -23.195,76.733 52.531,52.532 50.581,-13.827 c 3.993,-1.089 -6.351,5.218 -5.259,9.216 1.094,3.997 13.214,4.167 9.216,5.259 -72.53,19.828 -98.225,27.432 -108.027,27.432 -21.153,0 -34.218,-14.403 -25.322,-45.428 0.108,-0.521 37.7,-124.825 37.854,-125.334 -0.466,-2.371 0.218,-4.924 2.055,-6.762 8.872,-8.873 254.01,-254.01 262.921,-262.92 6.45,-6.452 37.067,-37.068 40.192,-40.193 46.044,-46.043 124.243,-34.981 155.001,23.553 1.929,3.668 4.96663,22.496753 1.29963,24.424753 -3.666,1.926 -12.65363,-13.774753 -14.58163,-17.442753 -25.794,-49.081 -91.876,-59.157 -131.108,-19.923 l -24.983,24.983 116.411,116.411 24.985,-24.985 c 19.369,-19.367 27.819,-47.006 22.604,-73.934 -0.788,-4.068 -4.81142,-28.862635 -0.74342,-29.649635 4.071,-0.787 14.68942,22.728635 15.47642,26.796635 6.163,31.829 -3.828,64.501 -26.725,87.401 z m -459.304,278.686 c -8.838,29.236 -6.096,20.146 -6.786,22.526 -10.944,37.313 14.199,27.389 47.576,18.263 z m 66.031,-76.343 193.716,-193.714 -31.56,-31.56 -193.716,193.715 z m 42.171,42.172 193.716,-193.717 -31.559,-31.559 -193.715,193.717 c 19.667,19.668 12.422,12.423 31.558,31.559 z m 235.887,-151.544 -31.56,-31.56 -193.716,193.716 31.56,31.56 z m 69.007,-67.989 -116.41,-116.413 -23.64,23.64 29.678,29.678 c 2.93,2.93 2.93,7.68 0,10.611 -2.93,2.929 -7.68,2.929 -10.611,0 l -29.677,-29.678 c -11.974,11.972 -7.296,7.295 -23.636,23.634 72.487,72.487 44.281,44.282 116.412,116.413 l 23.636,-23.636 -68.397,-68.396 c -2.93,-2.93 -2.93,-7.68 0,-10.611 2.93,-2.929 7.68,-2.929 10.611,0 l 68.396,68.396 z"
     fill="#000000"
     stroke-width="1"
     id="path2"
     style="mix-blend-mode:normal;fill-rule:nonzero;stroke:none;stroke-linecap:butt;stroke-linejoin:miter;stroke-miterlimit:10;stroke-dasharray:none;stroke-dashoffset:0"
     sodipodi:nodetypes="cccccccccccccsccccccccccccccccccccccccccccccccccccccsccccccccccc" />
  <path
     d="m 65.01672,485.64573 c -33.377,9.126 -58.6118,19.01829 -47.6678,-18.29471 0.69,-2.38 -2.02911,6.67246 6.80889,-22.56354 z"
     data-paper-data="{&quot;noHover&quot;:false,&quot;origItem&quot;:[&quot;Path&quot;,{&quot;applyMatrix&quot;:true,&quot;segments&quot;:[[[16.37,740.514],[0,0],[-17.676,58.472]],[[2.798,785.566],[1.38,-4.76],[-21.888,74.626]],[[97.95,822.092],[-66.754,18.252],[0,0]]],&quot;closed&quot;:true,&quot;fillColor&quot;:[0,0,0,1]}]}"
     fill="#ffffff"
     stroke-width="0.5"
     id="path4"
     style="mix-blend-mode:normal;fill-rule:nonzero;stroke:none;stroke-linecap:butt;stroke-linejoin:miter;stroke-miterlimit:10;stroke-dasharray:none;stroke-dashoffset:0" />
  <path
     d="m 413.68112,214.79563 -68.41938,-68.38032 c -2.931,-2.929 -7.66068,-2.94134 -10.59068,-0.0123 -2.93,2.931 -2.91767,7.66067 0.0123,10.59068 l 68.38131,68.41939 -23.65208,23.64498 c -72.131,-72.131 -43.98831,-43.98932 -116.47531,-116.47631 16.34,-16.339 11.67098,-11.67808 23.64498,-23.65008 l 29.75664,29.73829 c 2.931,2.929 7.60442,2.86536 10.53442,-0.0636 2.93,-2.931 2.99366,-7.60443 0.0637,-10.53443 l -29.7383,-29.75764 c 8.513,-8.513 4.83908,-4.83198 23.65608,-23.64898 l 116.47332,116.47632 z"
     data-paper-data="{&quot;noHover&quot;:false,&quot;origItem&quot;:[&quot;Path&quot;,{&quot;applyMatrix&quot;:true,&quot;segments&quot;:[[842.562,233.106],[[609.742,0.28],[0,0],[-37.634,37.634]],[[562.462,47.56],[17.026,-17.026],[0,0]],[[621.818,106.916],[0,0],[5.86,5.86]],[[621.818,128.138],[5.86,-5.862],[-5.86,5.858]],[[600.596,128.138],[5.862,5.858],[0,0]],[[541.242,68.782],[0,0],[-23.948,23.944]],[[493.97,116.05],[32.68,-32.678],[144.974,144.974]],[[726.794,348.876],[-144.262,-144.262],[0,0]],[774.066,301.604],[[637.272,164.812],[0,0],[-5.86,-5.86]],[[637.272,143.59],[-5.86,5.862],[5.86,-5.858]],[[658.494,143.59],[-5.862,-5.858],[0,0]],[795.286,280.382]],&quot;closed&quot;:true,&quot;fillColor&quot;:[0,0,0,1]}]}"
     fill="#ffffff"
     stroke-width="0.5"
     id="path6"
     style="mix-blend-mode:normal;fill-rule:nonzero;stroke:none;stroke-linecap:butt;stroke-linejoin:miter;stroke-miterlimit:10;stroke-dasharray:none;stroke-dashoffset:0" />
  <path
     d="m 174.52849,452.87121 -31.57137,-31.57137 193.78579,-193.78579 31.57137,31.57137 z"
     data-paper-data="{&quot;noHover&quot;:false,&quot;origItem&quot;:[&quot;Path&quot;,{&quot;applyMatrix&quot;:true,&quot;segments&quot;:[[704.548,369.084],[641.428,305.964],[253.996,693.396],[317.116,756.516]],&quot;closed&quot;:true,&quot;fillColor&quot;:[0,0,0,1]}]}"
     fill="#ffffff"
     stroke-width="0.5"
     id="path8"
     style="mix-blend-mode:normal;fill-rule:nonzero;stroke:none;stroke-linecap:butt;stroke-linejoin:miter;stroke-miterlimit:10;stroke-dasharray:none;stroke-dashoffset:0" />
  <path
     d="m 100.78812,379.12884 193.78479,-193.78679 31.57037,31.57037 -193.78579,193.78679 c -19.136,-19.136 -11.90237,-11.90237 -31.56937,-31.57037 z"
     data-paper-data="{&quot;noHover&quot;:false,&quot;origItem&quot;:[&quot;Path&quot;,{&quot;applyMatrix&quot;:true,&quot;segments&quot;:[[[232.774,672.172],[-38.272,-38.272],[0,0]],[620.206,284.738],[557.088,221.62],[[169.658,609.054],[0,0],[39.334,39.336]]],&quot;closed&quot;:true,&quot;fillColor&quot;:[0,0,0,1]}]}"
     fill="#ffffff"
     stroke-width="0.5"
     id="path10"
     style="mix-blend-mode:normal;fill-rule:nonzero;stroke:none;stroke-linecap:butt;stroke-linejoin:miter;stroke-miterlimit:10;stroke-dasharray:none;stroke-dashoffset:0" />
  <path
     d="M 58.61512,336.95684 252.40091,143.17205 283.97228,174.74342 90.18649,368.52721 Z"
     data-paper-data="{&quot;noHover&quot;:false,&quot;origItem&quot;:[&quot;Path&quot;,{&quot;applyMatrix&quot;:true,&quot;segments&quot;:[[148.432,587.828],[535.864,200.4],[472.744,137.28],[85.312,524.71]],&quot;closed&quot;:true,&quot;fillColor&quot;:[0,0,0,1]}]}"
     fill="#ffffff"
     stroke-width="0.5"
     id="path12"
     style="mix-blend-mode:normal;fill-rule:nonzero;stroke:none;stroke-linecap:butt;stroke-linejoin:miter;stroke-miterlimit:10;stroke-dasharray:none;stroke-dashoffset:0" />
  <g
     fill="none"
     stroke-width="1"
     font-family="sans-serif"
     font-weight="normal"
     font-size="12px"
     text-anchor="start"
     id="g14"
     transform="translate(15.9997,74.57263)"
     style="mix-blend-mode:normal;fill-rule:nonzero;stroke:none;stroke-linecap:butt;stroke-linejoin:miter;stroke-miterlimit:10;stroke-dasharray:none;stroke-dashoffset:0" />
  <g
     fill="none"
     stroke-width="1"
     font-family="sans-serif"
     font-weight="normal"
     font-size="12px"
     text-anchor="start"
     id="g16"
     transform="translate(15.9997,74.57263)"
     style="mix-blend-mode:normal;fill-rule:nonzero;stroke:none;stroke-linecap:butt;stroke-linejoin:miter;stroke-miterlimit:10;stroke-dasharray:none;stroke-dashoffset:0" />
  <g
     fill="none"
     stroke-width="1"
     font-family="sans-serif"
     font-weight="normal"
     font-size="12px"
     text-anchor="start"
     id="g18"
     transform="translate(15.9997,74.57263)"
     style="mix-blend-mode:normal;fill-rule:nonzero;stroke:none;stroke-linecap:butt;stroke-linejoin:miter;stroke-miterlimit:10;stroke-dasharray:none;stroke-dashoffset:0" />
  <g
     fill="none"
     stroke-width="1"
     font-family="sans-serif"
     font-weight="normal"
     font-size="12px"
     text-anchor="start"
     id="g20"
     transform="translate(15.9997,74.57263)"
     style="mix-blend-mode:normal;fill-rule:nonzero;stroke:none;stroke-linecap:butt;stroke-linejoin:miter;stroke-miterlimit:10;stroke-dasharray:none;stroke-dashoffset:0" />
  <g
     fill="none"
     stroke-width="1"
     font-family="sans-serif"
     font-weight="normal"
     font-size="12px"
     text-anchor="start"
     id="g22"
     transform="translate(15.9997,74.57263)"
     style="mix-blend-mode:normal;fill-rule:nonzero;stroke:none;stroke-linecap:butt;stroke-linejoin:miter;stroke-miterlimit:10;stroke-dasharray:none;stroke-dashoffset:0" />
  <g
     fill="none"
     stroke-width="1"
     font-family="sans-serif"
     font-weight="normal"
     font-size="12px"
     text-anchor="start"
     id="g24"
     transform="translate(15.9997,74.57263)"
     style="mix-blend-mode:normal;fill-rule:nonzero;stroke:none;stroke-linecap:butt;stroke-linejoin:miter;stroke-miterlimit:10;stroke-dasharray:none;stroke-dashoffset:0" />
  <g
     fill="none"
     stroke-width="1"
     font-family="sans-serif"
     font-weight="normal"
     font-size="12px"
     text-anchor="start"
     id="g26"
     transform="translate(15.9997,74.57263)"
     style="mix-blend-mode:normal;fill-rule:nonzero;stroke:none;stroke-linecap:butt;stroke-linejoin:miter;stroke-miterlimit:10;stroke-dasharray:none;stroke-dashoffset:0" />
  <path
     style="fill:#ffffff;stroke-width:0.381377;paint-order:stroke fill markers"
     d="m 413.43924,13.269254 c -21.97881,0.197159 -43.79928,9.452845 -58.88246,25.504772 -8.17566,8.066335 -16.441,16.125001 -24.33661,24.420636 -1.31523,2.642763 2.39014,4.134063 3.67168,5.989247 37.47618,37.476661 74.95236,74.953321 112.42854,112.429981 2.74478,1.78976 4.4396,-2.12903 6.33704,-3.50056 9.59681,-9.87233 19.89418,-19.1175 28.71989,-29.70908 12.42799,-15.99431 18.63602,-36.59125 17.10537,-56.790976 -0.51455,-7.516366 -1.98732,-14.91584 -3.12252,-22.326969 -2.01826,-4.711961 -5.24613,-8.814724 -7.53546,-13.405712 -12.05626,-21.66639 -34.23813,-37.247546 -58.68084,-41.339282 -5.18047,-0.90926 -10.44538,-1.334702 -15.70463,-1.272057 z"
     id="path671" />
  <path
     style="fill:#ffffff;stroke-width:0.539349;paint-order:stroke fill markers"
     d="m 51.106495,351.62407 c -3.546284,8.87276 -5.823299,18.31319 -8.815492,27.42023 -4.856462,16.3855 -10.18768,32.72956 -14.689104,49.15717 1.128993,3.4319 5.084586,5.45072 7.314206,8.32458 15.177066,15.20088 30.354131,30.40174 45.531197,45.60261 3.302057,1.3521 6.838888,-1.39467 10.231977,-1.75934 23.075021,-6.31058 46.143511,-12.61255 69.220901,-18.91396 3.67133,-2.30388 -1.32238,-5.24231 -2.92563,-7.15743 -34.3808,-34.2803 -68.538155,-68.7896 -103.148133,-102.83714 -1.031213,-0.5363 -1.749498,-0.47225 -2.719922,0.16328 z"
     id="path673" />
</svg>
