<svg xmlns="http://www.w3.org/2000/svg" viewBox="0 0 60.57 75.14"><defs><style>.cls-1{fill:#ff6e00;stroke:#fff;stroke-miterlimit:10;stroke-width:0.8px;fill-rule:evenodd;}</style></defs><g id="Camada_2" data-name="Camada 2"><g id="svg2"><path id="path72" class="cls-1" d="M.7,10.11v-.2l.2-.2v-.1l.2-.5.8-1.5v-.3l.1-.2.3-.3.2-.2v-.2h.2v-.1l.2-.1v-.3H2.8l.1-.2v-.1l.1-.2-.1-.1H3l-.1-.2v-.2l-.2-.3v-.2H2.3L2,4.21v-.1H1.9v-.4l.6-.4.1-.1.2-.1.4.1h.5l.2-.1.7.1.3.1.1-.1.1.1h.4l.7-.1.2-.1L6.8,3l.2-.1h.5l.1-.2.1.1H8v-.1l.1.1.1-.1.1.1h.1l.1.3L8.7,3h.2l.3-.1.3-.3h1.2l.2-.1.4.1.7-.1.3-.1.1-.1.5-.2.2-.2v-.2l.3-.1.5.3.3.1h.9l.6-.1.5.1h.4v-.1l.5.1.5.1L17.5,2l.5.3.1.1.3-.1v-.1h.5l.3.1v.1h.5l.3.1.1-.1h-.2l.1-.1.5.3h.2l-.2-.1h0l.5.2-.2-.1.4.1.1.2.3.1h.1l.1.1H22l.4.3.4.3.2.1.4.3.3.1.4.4h.1l.3.2h.4l.2.1.2.2.1.1h.1l.2-.1.2.1.2.3.2.3.1.1h.2l.3.2.5.3.5.2.3.4.4.1.3.1.3.3.2.1.3-.1.3.1.3.3.1.1h.1l.2.1.2.1h.4l.2.2.2.2.5.6.3.5h.1v.1l.3.2h.4l.1.3.3.4.3.2v-.1l.2.2h.2l.2-.1h.1l.1-.1H35l.5.3.2.4.2.1v.2H36l.1.4.2.2h.3l.3.3.2.2.3.1h.3l.1.1.5.5.1.2.3.29h.2l.4.2.5.5.1.11.3.1h.4l.2.1H41l.2.1.2.1.1.1h.1l.2.1h.3l.1.1.2-.1h.2v-.41l-.1-.1.2.2.5.8v.1l.5.6.5.7.3.4.4.3.2.2.1.1-.2-.1.1.1h.1v-.1h.3l.1.1.2.3.4.5.1.1.3.4.1.1.2.3.4.5.1.1.4.6.4.2.6.7.1.1.4.4.3.2.1.1.4.4.5.5.4.3.5.4h.2l.4.3h.3l.2.1.1-.1.1.4h-.1l.2.3.2.4.2.4.3.3.2.1.1.1.3.4.2.2.2.2.6.5.4.2.4.1.2-.1.4-.2.1.1.2.2v.1h.2l.7.4.5.1.2.1.1.1v0h.2l.2.11.4.3.2.3.1.2.2.6.2.5-.1.1-1.3.3-1.3.3-.3.1-2.3.5-.2.5-.1.5-.3.7-.5.2-.1.1-.1.1-.1.4-.5.5-.1.7-.2.3v.2l.1.1v.2l-.1.3v.2l.1.2v.1h-.1l-.1.1-.2.2-.4.3-.2.1-.1.3V39l-.1.1.1.3-.1.2-.3.4v.2l-.1.5-.1.1-.1.2-.2.1h-.2l-.2.4-.2.1-.5.3V42l-.1.1v.2l-.2.2L49,43l-.3.1-.3.3-.1.1v.4l-.1.3v.2l.2-.1h.2v.1h.2l-.2.4-.2.4-.5.5v.1l-.2.2.1.2-.2.5-.2.2-.1.2-.2.2v.3l-3-1.51h0l-.1.1-.2.1-.5.5-.1.2v.5l-.1.1H43l-.2.2v.1h-.2l-.2.2-.2-.1h-.3l-.1-.2V48l-.3.2-.1-.1-.1-.2v-.1h-.1v-.2l-.1.1-.1-.1-.1.1h-.1l-.3.3-.2.1.1.2-.2.2h-.1l-.1.3-.1.2v.1l-.4.4v.2l-.4.1v.3l.1.1v.1l-.1.11-.1.19.1-.5-.1.3-.1.1-.2.1v.1h.1V51l-.2.2v.2l.1.3.2.1-.1.11h-.1v.19h-.2v.11l-.1.1h-.1l.1.1h.2v.1h.6l.2-.1.2.2h-.1L39,53v.2l-.2.1v.3l-.4.4-.2.2-.1.2.1.1-.2.3v.1l-.1.1v.1l-.2.1.2.2v.2l-.2.2-.1.1-.1.1v.2l.2.1v.2l-.1.1-.2.1h0l-.1.3v.1l.1.3.1.1v.2l.1.1V58h.2l.1.2.2.1v.2l-.2-.1h-.2l.1.1v.1l-.2.1-.1.1-.1.1-.2.2.1.1v.1l-.1.1v.1l-.1.1-.2.1h-.2v.2h-.3V60l-.4.1-.1.1.1.1v.2l.1.2-.2.1.1.2h.2v.1l.1.1h-.1l-.1.2H36l-.1.1.1.1h.1l.3.2.2.1h.1l.3.1v.2l.3.1v.1l-.1.2.1.1.1.1.1.1V63l-.1.3-.1.2-.1.1V64l-.1.1.1.1-.1.1v.2l.3-.1h.3l.1.1H38l.1.1-.1.2.1.1v.2l.2.1.1.1.2.1.4-.2.1.1-.1.1.1.2h.1v.2l.1.3-.1.2-.1.1v.4l-.2.2-.2.3-.1.3-.1.1-.1.2h.2v.3h-.2v.1l-.1.1v.1l-.5.1v.1l.1.1.1.2-.2.2-.1.2.1.1h-.2l.1.1v.2l-.1.1.1.1-.1.1v.1l-.3.1-.1.1h-.3l-.1.1v.3l-.1.1v.2h-.1l-.2.1.1.1-.1.1-.1.2h-.2l-.2.1-.1-.1v.1l-.1.1h-.4v-.1h-.1l-.1.2.2.1v.2l-.1.3H35l-.2-.1-.2.2v.3l-.2.1-.1-.1h-.2v.2h0L34,73l-.1.1h-.1v.2l-.1.2.1.2-.1.2-.1.2-.1.1v.2h-.2l-.1.1-.3-.1v-.1l-.1-.3h-.1l-.1.1-.4-.1-.2.3-.4.3-.1-.1.2-.2-.1-.2v-.2l-.1-.4-.1-.2V71.11l-.3-.2-.1-.3-.2-.1h-.4l-.2-.3-.3-.1-.2.1h-.2l-.1.1h-.2l.1-.1v-.3l-.3-.1v-.1l-.1-.1-.1.1h-.4v-.2l.1-.1v-.3l.1-.1.2-.2h.1l-.1-.1h-.1l-.1-.1-.2-.3-.1-.4v.2l-.2-.1-.4-.4-.2-.2-.4-.3H27l-.2-.1-.4-.2h-.1l-.4-.1-.2-.2-.1-.2-.2-.2h.7l-.4-.3-.3-.2-.2-.2-.2-.3h-.1l-.1-.1h-.3l-.3-.2-.2-.2h.1l-.3.1h-.3l-.6.1-.5.1h-.5l-.3-.1-.1.1-.5.2-.2-.1h-.1l-.6.7-.3.1-.4-.1-.2.2h-.7l-1,.2-1.3.3-.4-.5-.1-.1h-.2l-.4-.2-.7.2H12.7l-.6.1.2-.7-.1-.2.4-.2.1-.2-.1-.4.1-.7.1-.5.1-.1v-.2l.2-.5L13,62l.3-.4v-.1l.2-.1.2-.4v-.1l.2-.2v-.1h-.1v-.2l.1.1v-.1l.3-.1v-.1l-.3-.1v-.6l.1-.2-.2-.5.1-.2v-.4l.2-.1h.1l.1-.2.2-.2.1-.1.2-.2v-.1l-.3-.1-.2.1-.2.8h-.2l-.1-.1-.1-.3-.1-.1-.1-.3v-.1l-.2-.2-.1-.1-.2-.1h-.4l-.6-.1-.5-.1-.1-.1-.3-.2-.3-.3h-.7l-.3-.3-.1-.1.2-.4v-.1l-.2-.2v.2l-.2-.5-.4-.5v-.4l-.1-.4v-.7l-.1-.5h0l.2-.1.1-.5v-.4L9.1,51l-.2-.1-.1-.1-.2-.5-.4-.5v-.7h0v-.2l.1-.3-.2-.4-.2-.6-.2-.2-.3.1V47l.2-.2v-.1l.1-.1.1-.3v-.7l-.3-.3.1-.3-.2-.5-.1-.3.1-.5-.1-.4-.1-.4.1-.2-.2-.3L7,42l-.1-.2.1-.1.3-.1.1-.2.1-.4-.1-.2-.1-.2v-.4L7,40v-.2l-.1-.2.1-.1V39l.2-.2v-.1l-.1-.2v.6L7,39l-.1-.2v-.1l.1-.1h.3l.1-.1-.1-.2-.2-.2L7,38l.1-.3.2-.1.1-.3v-.2L7.2,37v-.4l.2-.1-.1-.2H7.2l-.3-.2.3-.2-.1-.4.1-.3L7.1,35H6.9l-.2-.3H6.6l-.1.1-.1-.3-.4-.2V34l-.2.1-.1-.3H5.6l-.2.2-.4-.2v-.2l-.1-.1v-.1H4.8v-.2H4.3l.1-.4v-.3l-.2-.1v-.2H4.1l-.1.1-.5-.6-.2-.1-.1.2-.1-.1v.4H2.9v-.2l-.2-.3.1-.2L2.5,31l.2-.2-.1-.5.2-.1v-.1l.1-.3.2-.1v-.1l-.4-.1-.2-.1v-.1l.2-.1v-.1l.1-.2.4-.4.4-.5-.1-.1-.3-.4-.4-.2v-.2l.1-.3v.3H2.7L2.6,27h.3l.1-.3h.1l.1-.3.2-.2v-.4l.2-.3V25l.2-.4v-.5l.2-.2.2-.4.2-.1v-.3L4.2,22l.5-.7.2-.2L4.5,21l-.2-.1v.2l-.2-.3.1-.1.2-.5L4.3,20l.2-.2v-.1l-.1-.1H4.1l-.3-.1H3.7l-.2-.1v-.1l-.1.1-.1-.1-.2.1H2.9l-.2.1-.2.1H2.4v-.1l.3-.2-.1-.2-.1-.2.1-.1v-.1h.1v-.1h.1l.2-.5-.2-.4-.2-.2-.1-.2-.1-.2V17l-.1-.1-.1-.1v-.1l-.1-.3H2v-.1l-.2.2v-.1l.5-.5.2-.3-.2-.2.1-.5.1-.1h.2v-.1l-.3-.2H2.1l-.2-.2H1.8l-.2-.1-.1-.1.1-.1.1-.6-.2-.5-.2-.1-.2-.1v.4l.1-.1v-.1h.4l.2-.3v-.5l.1-.1.3-.1H2l-.2.1v.1l-.1-.4-.2-.2V11H.9l-.1-.2H.7v-.5l-.3.1v-.1Z"/></g></g></svg>