<svg xmlns="http://www.w3.org/2000/svg" viewBox="0 0 14.87 9.17"><defs><style>.cls-1{fill:#f8c300;stroke:#fff;stroke-miterlimit:10;stroke-width:0.8px;fill-rule:evenodd;}</style></defs><g id="Camada_2" data-name="Camada 2"><g id="svg2"><path id="path80" class="cls-1" d="M.4,5.3h0l.2-.4L1,4.8l.1-.2.3-.4h.1L1.6,4l-.1-.4-.1-.2-.2.1L1,3.4V3.1l.1-.4.1-.3.2-.3h.2V.4H12.3V1h.2l.2.3h.1v.1l.1.1h.4l.3.1h.1l.1.1-.1.1-.2.5.1.2v.4l-.1.1.1.1h.1l.1.1v.2l-.1.2v.2l.1.1V4h-.1v.2l-.1.1v.2h-.1l-.1.3-.1.1V5h-.1v.2h-.1l-.1.1v.4l-.1.1H13v.1l-.1.2h0v.2l.1.1-.1.1h.2l-.1.1v.1h.1v.2h-.2L13,7v.2h-.1v.6H13v.1h.1V8h.2v.1h.1v.1l.1-.1.1.2h.1v.1h.2l-.1.1h.1v.1h-5l-1.8.1H.5V8.6l.1-.3V8l.1-.2.1-.3L.7,7.4l.2-.2V6.9L.7,6.8l-.1.1L.5,6.8V6.6H.6V6.4H.5V6.1L.6,6,.5,5.9.4,5.4Z"/></g></g></svg>