<svg xmlns="http://www.w3.org/2000/svg" viewBox="0 0 33.26 48.5"><defs><style>.cls-1{fill:#ff002f;stroke:#fff;stroke-miterlimit:10;stroke-width:0.8px;fill-rule:evenodd;}</style></defs><g id="Camada_2" data-name="Camada 2"><g id="svg2"><path id="path92" class="cls-1" d="M1.86,40.3h0v-.4h.2V40h.1l-.1-.3L2,39.6h.1l.1-.1-.1-.1.1-.1.1-.1h0l.1-.1.1-.2.2-.1-.1-.1h.1l.1-.1.1-.1-.1-.1v.1l-.1-.1.1-.2h-.6l-.1-.1V38l.1-.1.1-.1v-.2l.2-.3v-.1l.1-.1h.2v0l-.1-.3.1-.1v-.3l.1-.2v-.9l-.5-.1-.2-.5v-.1H2l.1-.3v-.1l.2-.1-.1-.2h.2l.1-.1.1-.1.2-.1.1-.1v-.1h.3l.1-.1-.1-.1.1-.3.1-.1v-.5l.1-.1v-.1h4.6V32l.1-.1.1.1.3-.2.1-.3v-.1l.1-.1.1-.2L9,31h-.1l.2-.2L9,30.7l.1-.2v-.2l.1-.1.1-.3v-.1l.1-.1.1-.1v-.3l.2-.2-.1-.2v-.1l-.1-.2.1-.1.1-.4.1-.1h.4l.2-.1.1.1h.1l.2-.3v-.2l.3-.1.1.1.2-.2.1-.1v-.5h.1v-.1l-.1-.2h.1l.1-.3.1-.2-.2-.1v-.1h.1l-.1-.2-.2-.1v.8l.2-.1-.1-.1.1-.2v-.3l.1-.1-.1-.1.1-.3.1-.1H12l.2-.1.1-.2h.2l.1-.1.1-.5h.1l.1-.1h.2v-.2h.3v-.1l.3-.1v-.1l-.1-.2-.1-.2.1-.3-.1-.2v-.2l.3.1.3.1h.5v-.1l.3-.4v-.1l.1-.1-.2-.1v-.2l-.1-.1v-.1l.1-.1v-.3l.4-.3v-.1l.1-.1-.2-.1v-.2l.1-.3h.1l.1-.1h.1l.1-.2-.1-.1h-1v-.1l.1-.1h-.1l-.1-.1.2-.1h.2v-.3l-.3.5h0l.1-.1-.1-.1v-.2h.1l.1-.1v-.2l-.1-.1.1-.1h-.2v-.1h0l-.1-.1-.1-.1.1-.2h-.2v-.2l-.1-.1H14v-.1l-.1-.1-.1-.1h-.3V17l-.1.1v-.2h-.1l-.1.1-.1-.2h-.3v-.2h-.1l-.1-.1.1-.2-.2-.2.1-.1v-.2h.2l.4-.3h.1v-.2l-.1.1h-.3l-.1-.1v-.1h-.1l-.1-.2v-.1h-.1v-.1l-.3-.1-.1-.1H12v-.2l-.1-.1-.1-.2-.2-.1h-.1v-.1l-.1-.2-.1-.1-.3.1h-.1l-.2-.2v.3l-.1.1-.2-.3h-.1l-.1-.1.1-.1h-.1l.1-.2-.1-.2.2-.3h1.1l.2-.1.1.2.1.1V13l.2.3h2l.2-.1.1-.1.1.1.1-.1.1-.1.1-.1v-.2l-.2-.1.1-.1-.2-.2v-.6l-.1-.5-.1-.1-.5-.1-.1-.1h-.2l-.2-.2h-.2l.1-.1h-.1v-.1l-.2.1.1-.1-.2-.1v-.1h.1l.1-.1.1-.1V10L13,9.9l.1-.7h.1V8.9l.1-.8V7.9h-.1l-.5-.1h-.4l-1.2-.1L11,7.6l.2-.3.2-.1.2-.1h-.3v.1h.2V6.6l-.1-.1V6.2l.1-.1.3-.3.5-.4-.1-.1V5.2h.1V5.1l-.1-.1V4.9l.1-.1V4.6l.4-.2h.2V4.2l.3-.1-.1.2h.1l.1-.3h.2v.2h.3l.1-.3.1-.1.2.1.1.1h.1V3.6h.1l.1.1h.1l.2-.2.1-.1h.1V3.3l.1.1.1-.1v.2h.2l.2.1v.2h.1l.1.1h.4l.3.1.1.1.4-.1L17,3.4l-1.7-1.6.1-.1h.1l.1-.2.1.2h.1l.1.1.1-.1.3-.4h.1l.1.1.1-.1.1-.1.1.1h.1l.1.2-.1.2.2-.1h.1v.1h.1l-.1.3h.2l.2.1.1-.1h.4v.2l.1.1.3-.2.1.1.1-.1.2.1.1-.1.1-.2.3-.1V1.6l.2-.1-.1-.1.1-.2h0V1.1H20V.8h.3l.3-.2.3-.2H21l.2.3h.3l.3.3.1-.2.4.1h.6V1h.2l.1-.1.2.1.1-.1h.2l.2.2H24l.1.2.2-.1v.1l.3.2h.1l.2.1.4.2,2.2,1.4,1.6,1,.4.3.1.1,3,1.9.2.1.1.1V7l-.5.9V8l-.2.6-.2.5v1.2l.1.2-.2.5-.1.9-.1,1.1v.7l.2,1.5.3,2,.1,1,.2,1,.1.9-.1.8L32,22.3l-.5,1.3-.5,1v.3l-.2.1h-.3l-.5.2-.5.3-.3.2-.6.5-.5.5-.4.4-.1.2v.2l-.1.3-.2.3-.1.2-.1.1v.1l-.1.1v.2l-.3.2-.2.1-.1.2v.1l.1.1-.1.1-.1.2v.1l-.1.2v.1l-.1.4-.4.1-.1.2.3.3v.5l-.2.6v.3l-1.2-.4v.3l-.1.2-.2.4-.3.3-.1.3v.1l-.2.1v-.2l-.1-.2h-.2l-.2.1-.1.2.1.1L23,34h.2v.1h0v.1h-.1v.2l.2-.1h0v.1h0v.1h-.1l-.1.3-.1.1-.3.5-.1.4v.1l-.4.7-.2.5v.1h-.1l-.1.3-.4.5v.3l-.3.4-.1.2h0l-.1.1v-.1h-.2l.1-.1h-.1l-.2-.1v.1l-.1.1.1.1h-.1v.2l.1-.1-.1.2h-.1v-.1l-.1-.1-.1.1-.1.1h-.1v.1l.2-.1-.1.1h0v.1h-.1l-.1.3-.2.4.1.1h-.1v.1h-.1v.1h-.3l-.3.4-.1.2v.1l-.1.2h.1l-.1.1-.1-.1-.2.1-.2.4h-.1V42H18v-.2l.1-.1-.1-.1-.3-.2.1-.2.1-.1-.1.1h-.1v.1l-.1.1.1.1-.2.1h-.1v.1h-.1v.1h-.1l-.1.1H17l-.2.1h-.1v-.8h-.1v0l.1.1v.1h-.1l.1-.1h-.1l-.2.1-.1.1-.2.2V42l-.2.1v.2l-.3.3-.1.2v.1l-.1.3v.4l.1.2h-.1v.1l-.1.4-.2.1-.4,1.2-.4.2-.1.2-.3.2-.2.3-.4.6-.1.3v.7h-.1V48H13v-.1h-.1v-.1l-.1.1h-.1l-.1-.1v-.6l-.1-.3h.8l-.2.1-.2-.3-.2-.1h-.1l-.1-.1h-.1l-.1-.1-.1.1-.3.1h-.2l-.1.1-.2.1H11l.1-.1-.1.1v0h-.1v0h-.2l-.1-.1h-.2v-.1h.1v-.1h-.4l-.1.2h-.2v.1l-.1-.1h-.2l-.2-.3-.1.1v-.1h-.1L9,46.3h-.1l-.4-.1h0v.1h-.2l-.1-.1-.1.1L8,46.2v.1h-.1l-.2.2h-.2l-.1-.1-.2-.1L7,46.2V46h-.3l-.1-.1h-.1v.2l-.2-.2L6,46l-.1-.2-.1.2-.1-.1v-.1l-.2-.1-.1-.2-.3.1-.3-.2h-.3v-.1l-.2-.1h-.1l-.1.1v-.1H4l-.1-.1h-.2v.1h-.2v-.1l.2-.1v-.1h-.4v-.1l.2-.4h-.1v-.1h-.1v-.1h.1v.1h.1v-.2l-.1-.2v-.1h.1l.1-.1-.2-.1.1-.1v-.2h.1v-.1h-.1v-.4l-.2-.1-.1-.3h.1l.1-.1.1-.3h-.1v-.1l.1-.3h.1l-.2-.1-.2.1v-.1l-.1-.2.1-.3v-.2l-.1-.1-.1.1v-.2h-.2v-.1h-.4l-.1.1h-.2l.1-.2-.1.1-.2-.1v-.1l-.1-.1-.2-.1-.1-.2.4.4Zm18.4-1.5H20v-.1l-.1.3h-.1l-.1-.1V39h.2l-.1.1.2.1.1-.1h-.2l.1-.2.1-.1Z"/></g></g></svg>