<?xml version="1.0" encoding="UTF-8" standalone="no"?>
<!-- Created with Inkscape (http://www.inkscape.org/) -->

<svg
   width="50"
   height="50"
   viewBox="0 0 13.229166 13.229167"
   version="1.1"
   id="svg915"
   inkscape:version="1.1.2 (b8e25be833, 2022-02-05)"
   sodipodi:docname="led.svg"
   xmlns:inkscape="http://www.inkscape.org/namespaces/inkscape"
   xmlns:sodipodi="http://sodipodi.sourceforge.net/DTD/sodipodi-0.dtd"
   xmlns="http://www.w3.org/2000/svg"
   xmlns:svg="http://www.w3.org/2000/svg">
  <sodipodi:namedview
     id="namedview917"
     pagecolor="#ffffff"
     bordercolor="#666666"
     borderopacity="1.0"
     inkscape:pageshadow="2"
     inkscape:pageopacity="0.0"
     inkscape:pagecheckerboard="0"
     inkscape:document-units="px"
     showgrid="false"
     units="px"
     inkscape:zoom="16.16"
     inkscape:cx="24.969059"
     inkscape:cy="25"
     inkscape:window-width="1920"
     inkscape:window-height="1017"
     inkscape:window-x="-8"
     inkscape:window-y="-8"
     inkscape:window-maximized="1"
     inkscape:current-layer="layer1" />
  <defs
     id="defs912" />
  <g
     inkscape:label="Camada 1"
     inkscape:groupmode="layer"
     id="layer1">
    <path
       style="fill:#000000;fill-opacity:1;stroke-width:0.0331987"
       d="m 7.4191234,11.393014 c 0,-1.7263374 0,-1.7263374 -0.7967705,-1.7263374 -0.7967705,0 -0.7967705,0 -0.7967705,1.1951564 0,1.195156 0,1.195156 -0.2655906,1.195156 -0.2655906,0 -0.2655906,0 -0.2655906,-1.193204 0,-1.1932052 0,-1.1932052 -0.9046661,-1.2034567 C 3.5366671,9.6507172 3.4774949,9.6459865 3.3522743,9.5784215 3.1784314,9.4846193 3.0565522,9.3528897 2.9731738,9.1686957 2.9168051,9.0441753 2.9054839,8.9502073 2.9051469,8.6043165 2.9047824,8.2364972 2.9136347,8.1704661 2.9832218,8.0233381 3.0263845,7.9320411 3.1046716,7.8171416 3.1571908,7.7680048 3.2678436,7.6644817 3.5184159,7.5437433 3.6247937,7.542685 3.6981129,7.5419573 3.6981129,7.5419573 3.7087351,5.0437489 3.7190951,2.5932207 3.7207178,2.5407763 3.7915781,2.2958481 4.1550674,1.0391675 5.1738588,0.20155666 6.4424636,0.11639353 7.8212932,0.02383082 9.0541158,0.91627891 9.4531501,2.2958481 c 0.070848,0.2449282 0.072421,0.2973726 0.082843,2.7479008 0.01061,2.4982072 0.01061,2.4982072 0.083941,2.4989361 0.1068584,0.00107 0.3574805,0.1221276 0.4664449,0.2253198 0.205713,0.1948154 0.237651,0.3072061 0.237651,0.8363117 0,0.5294633 -0.03273,0.6443975 -0.237651,0.8344789 -0.2223021,0.2062063 -0.2453963,0.2103603 -1.231395,0.2215329 -0.9046661,0.010235 -0.9046661,0.010235 -0.9046661,1.7346367 0,1.724385 0,1.724385 -0.2655906,1.724385 -0.2655894,0 -0.2655894,0 -0.2655894,-1.726336 z M 9.7279462,9.0540088 c 0.076727,-0.076722 0.081482,-0.1030239 0.081482,-0.4496923 0,-0.5945815 0.3804078,-0.5311802 -3.1870807,-0.5311802 -3.5674895,0 -3.187082,-0.063401 -3.187082,0.5311802 0,0.5945816 -0.3804075,0.5311803 3.187082,0.5311803 3.0241059,0 3.0241059,0 3.1055933,-0.081489 z M 5.2944012,6.4282884 c 0,-1.1136678 0,-1.1136678 0.081495,-1.1951555 0.076277,-0.076279 0.1040125,-0.081489 0.4337667,-0.081489 0.193753,0 0.3811264,0.015439 0.4163843,0.034309 0.035262,0.01887 0.094988,0.094834 0.1327248,0.1688118 C 6.427386,5.4892675 6.427386,5.4892675 6.6058842,5.3204557 6.784378,5.151644 6.784378,5.151644 7.2858557,5.151644 c 0.7252587,0 0.6644539,-0.1168289 0.6644539,1.2766436 0,1.1136677 0,1.1136677 0.5323807,1.1136677 0.5323807,0 0.5323807,0 0.5226722,-2.4816079 C 8.9956265,2.57874 8.9956265,2.57874 8.9178886,2.3463485 8.7740611,1.9165488 8.6222963,1.6716831 8.2999439,1.3493317 7.9701559,1.0195424 7.7181232,0.86578626 7.2863274,0.73095877 6.9288607,0.61933981 6.3158451,0.61933981 5.958377,0.73095877 5.5265812,0.86578626 5.2745498,1.0195424 4.9447606,1.3493317 4.6224094,1.6716831 4.4706446,1.9165488 4.3268221,2.346349 c -0.077763,0.2323915 -0.077763,0.2323915 -0.087474,2.7139992 -0.00974,2.4816079 -0.00974,2.4816079 0.522671,2.4816079 0.5323806,0 0.5323806,0 0.5323821,-1.1136677 z M 4.5114033,2.8028321 C 4.5596088,2.3319696 4.775918,1.888299 5.1298224,1.5343943 5.483728,1.1804894 5.927398,0.96418056 6.3982612,0.9159751 6.6223529,0.8930332 6.6223529,0.8930332 6.6223529,1.1558605 c 0,0.2628267 0,0.2628267 -0.2297361,0.2990012 -0.6859079,0.1080041 -1.2339423,0.6540057 -1.341396,1.3364199 -0.037109,0.2356423 -0.037109,0.2356423 -0.2999311,0.2356423 -0.262827,0 -0.262827,0 -0.2398864,-0.2240918 z m 2.9077201,3.8095584 c 0,-0.9295654 0,-0.9295654 -0.2052265,-0.9295654 -0.2052251,0 -0.2052251,0 -0.4773251,0.2655901 C 6.3515286,6.3242461 6.2429702,6.31426 6.0252618,5.8829821 5.969692,5.7728959 5.9020271,5.6828245 5.8749025,5.6828245 c -0.042451,0 -0.049316,0.1294207 -0.049316,0.9295654 0,0.9295656 0,0.9295656 0.7967705,0.9295656 0.7967705,0 0.7967705,0 0.7967705,-0.9295656 z"
       id="path2555"
       sodipodi:nodetypes="sssssssscsssssssccssssssssssssssssssssssccssssssssssssssssssssssss" />
  </g>
</svg>
