<?xml version="1.0" encoding="UTF-8" standalone="no"?>
<svg
   id="svg5"
   width="900"
   height="900"
   version="1.1"
   viewBox="0 0 245.99 245.99"
   sodipodi:docname="LINO_Bot_2i.svg"
   inkscape:version="1.3 (0e150ed6c4, 2023-07-21)"
   inkscape:export-filename="..\..\..\..\Users\Administrador\Downloads\LINO_Bot_2i.png"
   inkscape:export-xdpi="96"
   inkscape:export-ydpi="96"
   xmlns:inkscape="http://www.inkscape.org/namespaces/inkscape"
   xmlns:sodipodi="http://sodipodi.sourceforge.net/DTD/sodipodi-0.dtd"
   xmlns="http://www.w3.org/2000/svg"
   xmlns:svg="http://www.w3.org/2000/svg">
  <defs
     id="defs34" />
  <sodipodi:namedview
     id="namedview32"
     pagecolor="#ffffff"
     bordercolor="#000000"
     borderopacity="0.25"
     inkscape:showpageshadow="2"
     inkscape:pageopacity="0.0"
     inkscape:pagecheckerboard="0"
     inkscape:deskcolor="#d1d1d1"
     showgrid="false"
     inkscape:zoom="0.46394062"
     inkscape:cx="-537.78434"
     inkscape:cy="606.75869"
     inkscape:window-width="3440"
     inkscape:window-height="1377"
     inkscape:window-x="-8"
     inkscape:window-y="-8"
     inkscape:window-maximized="1"
     inkscape:current-layer="g2257"
     showguides="true" />
  <g
     id="g2257"
     transform="matrix(-1,0,0,1,245.21696,0)">
    <path
       id="rect1225"
       d="M 193.002,122.99899 98.347,28.343985 3.691998,122.99899"
       style="fill:#ffffff;stroke:#000000;stroke-width:5.2917;stroke-linecap:round;stroke-miterlimit:2;paint-order:fill markers stroke"
       sodipodi:nodetypes="ccc" />
    <path
       id="path1234"
       d="m 3.691998,122.99899 94.655002,94.655 94.655,-94.655"
       style="fill:#ffffff;stroke:#000000;stroke-width:5.2917;stroke-linecap:round;stroke-miterlimit:2;paint-order:fill markers stroke"
       sodipodi:nodetypes="ccc" />
    <path
       id="path1231"
       d="m 240.329,170.327 -47.327,47.327 -94.655,-1e-5 47.327,-47.327 z"
       style="fill:#ffffff;stroke:#000000;stroke-width:5.2917;stroke-linecap:round;stroke-miterlimit:2;paint-order:fill markers stroke" />
    <path
       id="path1254"
       d="M 193.109,28.885 H 98.454 l 47.327,47.327 0.0388,-0.35709 z"
       style="fill:#ffffff;stroke:#000000;stroke-width:5.2917;stroke-linecap:round;stroke-miterlimit:2;paint-order:fill markers stroke" />
    <path
       id="path1244"
       d="m 240.429,76.212 -47.327,-47.327 -47.289,46.97 -0.0388,0.35709 47.327,47.327 z"
       style="fill:#ffffff;stroke:#000000;stroke-width:5.2917;stroke-linecap:round;stroke-miterlimit:2;paint-order:fill markers stroke" />
    <path
       id="path1239"
       d="M 240.329,170.327 V 75.672 l -94.655,94.655 z"
       style="fill:#ffffff;stroke:#000000;stroke-width:5.2917;stroke-linecap:round;stroke-miterlimit:2;paint-order:fill markers stroke" />
    <path
       id="rect1317"
       d="m 220.414,122.736 -13.639,-13.639 h -27.277 v 27.277 h 27.277 z"
       stroke="#000000"
       style="stroke-width:1.3999;stroke-linecap:round;stroke-miterlimit:2;paint-order:fill markers stroke" />
    <circle
       id="circle2165"
       cx="-123.127"
       cy="101.511"
       r="11.436"
       fill="#4ebe45"
       stroke="#ffffff"
       style="fill:#ffd600;stroke-width:2.73322222;stroke-linecap:round;stroke-miterlimit:2;paint-order:markers fill stroke;stroke-dasharray:none"
       transform="rotate(-90)" />
    <g
       id="g2179"
       transform="rotate(180,189.3745,108.6935)"
       fill="#4ebe45"
       stroke-width="7.9375"
       style="paint-order:stroke markers fill">
      <circle
         id="circle2177"
         cx="233.88"
         cy="46.821999"
         r="11.436"
         fill="#519dd6"
         stroke="#ffffff"
         stroke-linecap="round"
         stroke-miterlimit="2"
         stroke-width="7.9375"
         style="paint-order:stroke markers fill" />
    </g>
    <g
       id="g2173"
       transform="translate(-88.632,28.659)"
       stroke-width="7.9375"
       style="paint-order:stroke markers fill">
      <circle
         id="circle2171"
         cx="233.88"
         cy="46.821999"
         r="11.436"
         fill="#d62408"
         stroke="#ffffff"
         stroke-linecap="round"
         stroke-miterlimit="2"
         stroke-width="7.9375"
         style="paint-order:stroke markers fill" />
    </g>
    <path
       id="path3889"
       d="m 137.05603,152.60705 a 19.428,19.428 0 0 1 25.57465,10.0415 19.428,19.428 0 0 1 1.3997,4.9407 l -3.48918,1.52178 a 15.774,15.774 0 0 0 -1.25992,-5.00167 15.774,15.774 0 0 0 -20.76463,-8.15286 15.774,15.774 0 0 0 -8.15286,20.76463 15.774,15.774 0 0 0 9.81919,8.75677 l 0.045,0.10306 0.99633,-2.52793 2.57881,5.93286 -5.9325,2.57866 1.0453,-2.65259 A 19.428,19.428 0 0 1 127.01479,178.18195 19.428,19.428 0 0 1 137.0563,152.6073 Z"
       stroke="#000000"
       style="stroke-width:1.3999;stroke-linecap:round;stroke-miterlimit:2;paint-order:stroke markers fill" />
    <g
       id="g4142"
       transform="rotate(90,148.891,136.698)"
       stroke="#000000"
       style="stroke-width:1.3999;stroke-linecap:round;stroke-miterlimit:2">
      <ellipse
         id="path2233"
         cx="182.25"
         cy="85.582001"
         rx="11.964"
         ry="12.374"
         fill="#ffffff"
         style="paint-order:markers fill stroke" />
      <ellipse
         id="ellipse3942"
         cx="182.25"
         cy="85.582001"
         rx="13.188"
         ry="13.64"
         fill="none"
         style="paint-order:markers fill stroke" />
    </g>
    <g
       id="g4146"
       transform="rotate(90,144.602,132.967)"
       style="stroke-width:4.09983333;stroke-linecap:round;stroke-miterlimit:2;stroke-dasharray:none">
      <ellipse
         id="ellipse3891"
         cx="134.49001"
         cy="130.24001"
         rx="11.964"
         ry="12.374"
         stroke="#ffffff"
         style="paint-order:markers fill stroke;stroke-width:4.09983333;stroke-dasharray:none" />
      <ellipse
         id="ellipse3967"
         cx="134.63"
         cy="130.03"
         rx="13.188"
         ry="13.64"
         fill="none"
         stroke="#000000"
         style="paint-order:markers fill stroke;stroke-width:4.09983333;stroke-dasharray:none" />
    </g>
    <path
       id="path1249"
       d="m 137.84893,93.551586 a 19.428,19.428 0 0 0 25.3503,-10.595123 19.428,19.428 0 0 0 1.29192,-4.969995 l -3.52146,-1.445516 a 15.774,15.774 0 0 1 -1.15085,5.0279 15.774,15.774 0 0 1 -20.58246,8.602373 15.774,15.774 0 0 1 -8.60236,-20.582449 15.774,15.774 0 0 1 9.62639,-8.968248 l 0.0428,-0.103963 1.05075,2.505806 2.44917,-5.987548 -5.98718,-2.449023 1.10268,2.62926 a 19.428,19.428 0 0 0 -11.66493,10.986299 19.428,19.428 0 0 0 10.59511,25.35031 z"
       stroke="#000000"
       stroke-linecap="round"
       stroke-miterlimit="2"
       stroke-width="1.3999"
       style="paint-order:fill markers stroke" />
    <path
       style="fill:#000000;stroke:#000000;stroke-width:5.46644;stroke-dasharray:none;stroke-opacity:1"
       d="m 40.459747,114.53617 c 1.746919,-4.43425 4.824313,-8.98227 9.11465,-13.47031 0.583748,-0.61067 0.769161,-0.88049 0.945495,-1.375982 0.200947,-0.56497 0.203468,-0.65023 0.02915,-1.02275 -0.104646,-0.22353 -0.362126,-0.55157 -0.572229,-0.72899 -0.405401,-0.3423 -0.502158,-0.680585 -0.246497,-0.861688 0.477581,-0.338252 2.62667,0.216266 3.447656,0.889658 0.650714,0.53368 1.193112,1.61516 1.059728,2.112982 -0.01395,0.052 -0.166706,0.0566 -0.3394,0.0103 -0.391946,-0.105052 -1.525399,-0.118652 -1.959665,-0.0238 -0.661579,0.14482 -1.911143,0.96728 -2.560037,1.68507 -2.389592,2.64336 -4.691359,6.32681 -6.353193,10.16681 -0.874402,2.02047 -2.167699,6.73095 -2.403157,8.75312 -0.323151,2.77461 -0.244201,5.31473 0.234428,7.54132 0.730313,3.39745 1.848268,5.94787 3.760778,8.57958 1.869903,2.57308 5.147209,5.53446 7.934958,7.17003 0.382738,0.22455 0.764305,0.47242 0.847924,0.55084 0.08365,0.0784 0.500011,0.23577 0.925307,0.34972 1.116538,0.29918 2.879173,0.12019 4.39958,-0.44689 0.18618,-0.0694 0.433817,-0.10074 0.550383,-0.0694 0.424014,0.11365 0.464273,0.0756 -3.310837,3.12344 -1.678779,1.35535 -2.074671,1.61197 -2.366317,1.53382 -0.168825,-0.0453 -0.161679,-0.14069 0.0743,-0.99375 0.223636,-0.80801 0.242684,-1.00485 0.133369,-1.36881 -0.138673,-0.46176 -0.530231,-1.08186 -0.718712,-1.13826 -0.06489,-0.0193 -0.276231,-0.17203 -0.46992,-0.33903 -0.19369,-0.16703 -0.386878,-0.31474 -0.429287,-0.32812 -0.185438,-0.0584 -1.834108,-1.32653 -2.761652,-2.12398 -3.687009,-3.16986 -6.285479,-6.36557 -8.100281,-9.96205 -0.750319,-1.48695 -1.132609,-2.48076 -1.644919,-4.27614 -1.278942,-4.48212 -1.003511,-9.41371 0.77845,-13.93683 z m 24.297836,-2.9197 c 0.367169,-0.40099 0.738442,-0.59745 1.576258,-0.83409 2.885896,-0.81514 7.301053,0.0815 7.85201,1.59456 0.426986,1.17257 -1.76191,2.17672 -4.502678,2.0656 -2.433532,-0.0987 -4.472259,-0.81597 -5.021111,-1.7666 -0.273245,-0.47329 -0.254899,-0.67676 0.09552,-1.05947 z m 4.614113,16.23981 c 0.377629,-0.0632 1.724901,0.59165 2.364956,1.1494 0.56185,0.48962 1.092724,1.35764 1.303156,2.13077 0.367724,1.35103 0.20739,3.4577 -0.330608,4.34365 l -0.254675,0.41953 0.09097,-0.68017 c 0.160508,-1.19918 0.167619,-1.74018 0.03277,-2.48143 -0.242802,-1.33455 -1.142534,-2.97852 -1.836487,-3.35556 -0.252112,-0.1369 -0.262114,-0.13121 -0.203696,0.11882 0.03382,0.14465 0.209167,0.58304 0.389698,0.97434 0.370564,0.80318 0.634291,2.08066 0.60771,2.94372 -0.03511,1.13953 -0.69359,2.4315 -1.673163,3.28235 -0.1473,0.12795 -0.280287,0.21086 -0.295614,0.18429 -0.01533,-0.0267 0.123502,-0.34579 0.308468,-0.70943 1.14106,-2.24328 1.007679,-4.5132 -0.4202,-7.15073 -0.435746,-0.80488 -0.457233,-1.107 -0.08321,-1.16955 z"
       id="path1-4" />
    <ellipse
       id="ellipse922"
       cx="122.995"
       cy="-101.43413"
       rx="13.188"
       ry="13.64"
       fill="none"
       stroke="#000000"
       style="stroke-width:4.09983333;stroke-linecap:round;stroke-miterlimit:2;paint-order:markers fill stroke;stroke-dasharray:none"
       transform="rotate(90)" />
    <path
       style="fill:#000000;stroke-width:2.73322;stroke-dasharray:none"
       d="M 198.47026,103.54937 181.00005,93.656463"
       id="path1" />
    <path
       style="fill:#000000;stroke:#000000;stroke-width:4.09983333;stroke-dasharray:none;stroke-opacity:1"
       d="m 193.002,122.99899 -31.823,-0.004"
       id="path2"
       sodipodi:nodetypes="cc" />
    <path
       style="fill:#000000;stroke:#000000;stroke-width:4.09983;stroke-dasharray:none;stroke-opacity:1"
       d="m 133.899,122.995 -18.82487,0"
       id="path3"
       sodipodi:nodetypes="cc" />
    <circle
       id="path1378"
       cx="122.73601"
       cy="-193.136"
       r="11.436"
       fill="#ffd600"
       stroke="#ffffff"
       style="fill:#4ebe45;stroke-width:1.3999;stroke-linecap:round;stroke-miterlimit:2;paint-order:markers fill stroke"
       transform="rotate(90)" />
  </g>
</svg>
