<?xml version="1.0" encoding="UTF-8" standalone="no"?>
<svg
   id="svg5"
   width="900"
   height="900"
   version="1.1"
   viewBox="0 0 245.99344 245.9875"
   sodipodi:docname="LINO_Bot2.svg"
   inkscape:version="1.3 (0e150ed6c4, 2023-07-21)"
   xmlns:inkscape="http://www.inkscape.org/namespaces/inkscape"
   xmlns:sodipodi="http://sodipodi.sourceforge.net/DTD/sodipodi-0.dtd"
   xmlns="http://www.w3.org/2000/svg"
   xmlns:svg="http://www.w3.org/2000/svg">
  <defs
     id="defs1" />
  <sodipodi:namedview
     id="namedview1"
     pagecolor="#ffffff"
     bordercolor="#000000"
     borderopacity="0.25"
     inkscape:showpageshadow="2"
     inkscape:pageopacity="0.0"
     inkscape:pagecheckerboard="0"
     inkscape:deskcolor="#d1d1d1"
     inkscape:zoom="0.82013889"
     inkscape:cx="334.69941"
     inkscape:cy="450.53345"
     inkscape:window-width="3440"
     inkscape:window-height="1377"
     inkscape:window-x="-8"
     inkscape:window-y="-8"
     inkscape:window-maximized="1"
     inkscape:current-layer="svg5" />
  <g
     id="layer1"
     transform="translate(-20.811236,-19.97325)">
    <g
       id="g2162">
      <g
         id="g975"
         style="stroke-width:5.2917;paint-order:fill markers stroke">
        <path
           id="rect1225"
           d="m 119.16,48.314 -94.655,94.655 h 189.31 z"
           style="fill:#ffffff;stroke:#000000;stroke-width:5.2917;stroke-linecap:round;stroke-miterlimit:2;paint-order:fill markers stroke" />
        <path
           id="path1234"
           d="m 119.16,237.62 94.655,-94.655 H 24.505 Z"
           style="fill:#ffffff;stroke:#000000;stroke-width:5.2917;stroke-linecap:round;stroke-miterlimit:2;paint-order:fill markers stroke" />
        <path
           id="path1231"
           d="m 261.14,190.3 -47.327,47.327 -94.655,-1e-5 47.327,-47.327 z"
           style="fill:#ffffff;stroke:#000000;stroke-width:5.2917;stroke-linecap:round;stroke-miterlimit:2;paint-order:fill markers stroke" />
        <path
           id="path1254"
           d="m 213.92,48.858 h -94.655 l 47.327,47.327 0.0388,-0.35709 z"
           style="fill:#ffffff;stroke:#000000;stroke-width:5.2917;stroke-linecap:round;stroke-miterlimit:2;paint-order:fill markers stroke" />
        <path
           id="path1244"
           d="m 261.24,96.185 -47.327,-47.327 -47.289,46.97 -0.0388,0.35709 47.327,47.327 z"
           style="fill:#ffffff;stroke:#000000;stroke-width:5.2917;stroke-linecap:round;stroke-miterlimit:2;paint-order:fill markers stroke" />
        <path
           id="path1239"
           d="M 261.14,190.3 V 95.645 L 166.485,190.3 Z"
           style="fill:#ffffff;stroke:#000000;stroke-width:5.2917;stroke-linecap:round;stroke-miterlimit:2;paint-order:fill markers stroke" />
      </g>
      <g
         id="g2161"
         transform="rotate(90,175.97,84.799)"
         style="stroke-width:1.3999">
        <path
           id="rect1317"
           d="M 233.88,19.544 220.241,33.183 V 60.46 h 27.277 V 33.183 Z"
           style="stroke:#000000;stroke-width:1.3999;stroke-linecap:round;stroke-miterlimit:2;paint-order:fill markers stroke" />
        <circle
           id="path1378"
           cx="233.88"
           cy="46.821999"
           r="11.436"
           style="fill:#ffd600;stroke:#ffffff;stroke-width:1.3999;stroke-linecap:round;stroke-miterlimit:2;paint-order:markers fill stroke" />
      </g>
      <g
         id="g2167"
         transform="rotate(-90,226.24,150.74)"
         style="stroke-width:1.3999">
        <path
           id="path2163"
           d="M 233.88,19.544 220.241,33.183 V 60.46 h 27.277 V 33.183 Z"
           style="stroke:#000000;stroke-width:1.3999;stroke-linecap:round;stroke-miterlimit:2;paint-order:fill markers stroke" />
        <circle
           id="circle2165"
           cx="233.88"
           cy="46.821999"
           r="11.436"
           style="fill:#4ebe45;stroke:#ffffff;stroke-width:1.3999;stroke-linecap:round;stroke-miterlimit:2;paint-order:markers fill stroke" />
      </g>
      <g
         id="g2179"
         transform="rotate(180,199.78,118.68)"
         style="fill:#4ebe45;stroke-width:7.9375;paint-order:stroke markers fill">
        <circle
           id="circle2177"
           cx="233.88"
           cy="46.821999"
           r="11.436"
           style="fill:#519dd6;stroke:#ffffff;stroke-width:7.9375;stroke-linecap:round;stroke-miterlimit:2;paint-order:stroke markers fill" />
      </g>
      <path
         id="path1249"
         d="m 184.32,190.56 a 19.428,19.428 0 0 0 -19.428,-19.428 19.428,19.428 0 0 0 -5.0883,0.69216 v 3.8066 a 15.774,15.774 0 0 1 5.0883,-0.84465 15.774,15.774 0 0 1 15.774,15.774 15.774,15.774 0 0 1 -15.774,15.774 15.774,15.774 0 0 1 -11.952,-5.4997 h -0.11245 l 1.9191,-1.9236 -6.4691,0.008 0.008,6.4687 2.0136,-2.0185 a 19.428,19.428 0 0 0 14.593,6.6192 19.428,19.428 0 0 0 19.428,-19.428 z"
         style="stroke:#000000;stroke-width:1.3999;stroke-linecap:round;stroke-miterlimit:2;paint-order:fill markers stroke" />
      <g
         id="g2173"
         transform="translate(-67.821,48.632)"
         style="stroke-width:7.9375;paint-order:stroke markers fill">
        <circle
           id="circle2171"
           cx="233.88"
           cy="46.821999"
           r="11.436"
           style="fill:#d62408;stroke:#ffffff;stroke-width:7.9375;stroke-linecap:round;stroke-miterlimit:2;paint-order:stroke markers fill" />
      </g>
      <path
         id="path3889"
         d="m 184.32,95.454 a 19.428,19.428 0 0 1 -19.428,19.428 19.428,19.428 0 0 1 -5.0883,-0.69216 v -3.8066 a 15.774,15.774 0 0 0 5.0883,0.84465 15.774,15.774 0 0 0 15.774,-15.774 15.774,15.774 0 0 0 -15.774,-15.774 15.774,15.774 0 0 0 -11.952,5.4997 h -0.11245 l 1.9191,1.9236 -6.4691,-0.008 0.008,-6.4687 2.0136,2.0185 a 19.428,19.428 0 0 1 14.593,-6.6192 19.428,19.428 0 0 1 19.428,19.428 z"
         style="stroke:#000000;stroke-width:1.3999;stroke-linecap:round;stroke-miterlimit:2;paint-order:stroke markers fill" />
      <g
         id="g4142"
         transform="rotate(90,149.31,157.09)"
         style="stroke-width:1.3999">
        <ellipse
           id="path2233"
           cx="182.25"
           cy="85.582001"
           rx="11.964"
           ry="12.374"
           style="fill:#ffffff;stroke:#000000;stroke-width:1.3999;stroke-linecap:round;stroke-miterlimit:2;paint-order:markers fill stroke" />
        <ellipse
           id="ellipse3942"
           cx="182.25"
           cy="85.582001"
           rx="13.188"
           ry="13.64"
           style="fill:none;stroke:#000000;stroke-width:1.3999;stroke-linecap:round;stroke-miterlimit:2;paint-order:markers fill stroke" />
      </g>
      <g
         id="g4146"
         transform="rotate(90,145.02,153.36)"
         style="stroke-width:1.3999">
        <ellipse
           id="ellipse3891"
           cx="134.49001"
           cy="130.24001"
           rx="11.964"
           ry="12.374"
           style="stroke:#ffffff;stroke-width:1.3999;stroke-linecap:round;stroke-miterlimit:2;paint-order:markers fill stroke" />
        <ellipse
           id="ellipse3967"
           cx="134.63"
           cy="130.03"
           rx="13.188"
           ry="13.64"
           style="fill:none;stroke:#000000;stroke-width:1.3999;stroke-linecap:round;stroke-miterlimit:2;paint-order:markers fill stroke" />
      </g>
    </g>
  </g>
</svg>
