<?xml version="1.0" encoding="UTF-8"?>
<svg id="svg5" width="900" height="900" version="1.1" viewBox="0 0 245.99 245.99" xmlns="http://www.w3.org/2000/svg"><g id="g2257" transform="matrix(-1 0 0 1 245.22 0)"><g fill="#fff" stroke="#000" stroke-linecap="round" stroke-miterlimit="2" stroke-width="5.2917"><path id="rect1225" d="m193 123-94.655-94.655-94.655 94.655" style="paint-order:fill markers stroke"/><path id="path1234" d="m3.692 123 94.655 94.655 94.655-94.655" style="paint-order:fill markers stroke"/><path id="path1231" d="m240.33 170.33-47.327 47.327-94.655-1e-5 47.327-47.327z" style="paint-order:fill markers stroke"/><path id="path1254" d="m193.11 28.885h-94.655l47.327 47.327 0.0388-0.35709z" style="paint-order:fill markers stroke"/><path id="path1244" d="m240.43 76.212-47.327-47.327-47.289 46.97-0.0388 0.35709 47.327 47.327z" style="paint-order:fill markers stroke"/><path id="path1239" d="m240.33 170.33v-94.655l-94.655 94.655z" style="paint-order:fill markers stroke"/></g><path id="rect1317" d="m220.41 122.74-13.639-13.639h-27.277v27.277h27.277z" stroke="#000" stroke-linecap="round" stroke-miterlimit="2" stroke-width="1.3999" style="paint-order:fill markers stroke"/><circle id="circle2165" transform="rotate(-90)" cx="-123.13" cy="101.51" r="11.436" fill="#ffd600" stroke="#fff" stroke-linecap="round" stroke-miterlimit="2" stroke-width="2.7332" style="paint-order:markers fill stroke"/><g id="g2179" transform="rotate(180 189.37 108.69)" fill="#4ebe45" stroke-width="7.9375" style="paint-order:stroke markers fill"><circle id="circle2177" cx="233.88" cy="46.822" r="11.436" fill="#519dd6" stroke="#fff" stroke-linecap="round" stroke-miterlimit="2" stroke-width="7.9375" style="paint-order:stroke markers fill"/></g><g id="g2173" transform="translate(-88.632,28.659)" stroke-width="7.9375" style="paint-order:stroke markers fill"><circle id="circle2171" cx="233.88" cy="46.822" r="11.436" fill="#d62408" stroke="#fff" stroke-linecap="round" stroke-miterlimit="2" stroke-width="7.9375" style="paint-order:stroke markers fill"/></g><g stroke-linecap="round" stroke-miterlimit="2"><path id="path3889" d="m137.06 152.61a19.428 19.428 0 0 1 25.575 10.042 19.428 19.428 0 0 1 1.3997 4.9407l-3.4892 1.5218a15.774 15.774 0 0 0-1.2599-5.0017 15.774 15.774 0 0 0-20.765-8.1529 15.774 15.774 0 0 0-8.1529 20.765 15.774 15.774 0 0 0 9.8192 8.7568l0.045 0.10306 0.99633-2.5279 2.5788 5.9329-5.9325 2.5787 1.0453-2.6526a19.428 19.428 0 0 1-11.901-10.73 19.428 19.428 0 0 1 10.042-25.575z" stroke="#000" stroke-width="1.3999" style="paint-order:stroke markers fill"/><g id="g4142" transform="rotate(90 148.89 136.7)" stroke="#000" stroke-width="1.3999"><ellipse id="path2233" cx="182.25" cy="85.582" rx="11.964" ry="12.374" fill="#fff" style="paint-order:markers fill stroke"/><ellipse id="ellipse3942" cx="182.25" cy="85.582" rx="13.188" ry="13.64" fill="none" style="paint-order:markers fill stroke"/></g><g id="g4146" transform="rotate(90 144.6 132.97)" stroke-width="4.0998"><ellipse id="ellipse3891" cx="134.49" cy="130.24" rx="11.964" ry="12.374" stroke="#fff" style="paint-order:markers fill stroke"/><ellipse id="ellipse3967" cx="134.63" cy="130.03" rx="13.188" ry="13.64" fill="none" stroke="#000" style="paint-order:markers fill stroke"/></g></g><g stroke="#000"><path id="path1249" d="m137.85 93.552a19.428 19.428 0 0 0 25.35-10.595 19.428 19.428 0 0 0 1.2919-4.97l-3.5215-1.4455a15.774 15.774 0 0 1-1.1508 5.0279 15.774 15.774 0 0 1-20.582 8.6024 15.774 15.774 0 0 1-8.6024-20.582 15.774 15.774 0 0 1 9.6264-8.9682l0.0428-0.10396 1.0508 2.5058 2.4492-5.9875-5.9872-2.449 1.1027 2.6293a19.428 19.428 0 0 0-11.665 10.986 19.428 19.428 0 0 0 10.595 25.35z" stroke-linecap="round" stroke-miterlimit="2" stroke-width="1.3999" style="paint-order:fill markers stroke"/><path id="path1-4" d="m40.46 114.54c1.7469-4.4342 4.8243-8.9823 9.1146-13.47 0.58375-0.61067 0.76916-0.88049 0.9455-1.376 0.20095-0.56497 0.20347-0.65023 0.02915-1.0228-0.10465-0.22353-0.36213-0.55157-0.57223-0.72899-0.4054-0.3423-0.50216-0.68058-0.2465-0.86169 0.47758-0.33825 2.6267 0.21627 3.4477 0.88966 0.65071 0.53368 1.1931 1.6152 1.0597 2.113-0.01395 0.052-0.16671 0.0566-0.3394 0.0103-0.39195-0.10505-1.5254-0.11865-1.9597-0.0238-0.66158 0.14482-1.9111 0.96728-2.56 1.6851-2.3896 2.6434-4.6914 6.3268-6.3532 10.167-0.8744 2.0205-2.1677 6.731-2.4032 8.7531-0.32315 2.7746-0.2442 5.3147 0.23443 7.5413 0.73031 3.3974 1.8483 5.9479 3.7608 8.5796 1.8699 2.5731 5.1472 5.5345 7.935 7.17 0.38274 0.22455 0.7643 0.47242 0.84792 0.55084 0.08365 0.0784 0.50001 0.23577 0.92531 0.34972 1.1165 0.29918 2.8792 0.12019 4.3996-0.44689 0.18618-0.0694 0.43382-0.10074 0.55038-0.0694 0.42401 0.11365 0.46427 0.0756-3.3108 3.1234-1.6788 1.3554-2.0747 1.612-2.3663 1.5338-0.16882-0.0453-0.16168-0.14069 0.0743-0.99375 0.22364-0.80801 0.24268-1.0048 0.13337-1.3688-0.13867-0.46176-0.53023-1.0819-0.71871-1.1383-0.06489-0.0193-0.27623-0.17203-0.46992-0.33903-0.19369-0.16703-0.38688-0.31474-0.42929-0.32812-0.18544-0.0584-1.8341-1.3265-2.7617-2.124-3.687-3.1699-6.2855-6.3656-8.1003-9.962-0.75032-1.487-1.1326-2.4808-1.6449-4.2761-1.2789-4.4821-1.0035-9.4137 0.77845-13.937zm24.298-2.9197c0.36717-0.40099 0.73844-0.59745 1.5763-0.83409 2.8859-0.81514 7.3011 0.0815 7.852 1.5946 0.42699 1.1726-1.7619 2.1767-4.5027 2.0656-2.4335-0.0987-4.4723-0.81597-5.0211-1.7666-0.27324-0.47329-0.2549-0.67676 0.09552-1.0595zm4.6141 16.24c0.37763-0.0632 1.7249 0.59165 2.365 1.1494 0.56185 0.48962 1.0927 1.3576 1.3032 2.1308 0.36772 1.351 0.20739 3.4577-0.33061 4.3436l-0.25468 0.41953 0.09097-0.68017c0.16051-1.1992 0.16762-1.7402 0.03277-2.4814-0.2428-1.3346-1.1425-2.9785-1.8365-3.3556-0.25211-0.1369-0.26211-0.13121-0.2037 0.11882 0.03382 0.14465 0.20917 0.58304 0.3897 0.97434 0.37056 0.80318 0.63429 2.0807 0.60771 2.9437-0.03511 1.1395-0.69359 2.4315-1.6732 3.2824-0.1473 0.12795-0.28029 0.21086-0.29561 0.18429-0.01533-0.0267 0.1235-0.34579 0.30847-0.70943 1.1411-2.2433 1.0077-4.5132-0.4202-7.1507-0.43575-0.80488-0.45723-1.107-0.08321-1.1696z" stroke-width="5.4664"/><ellipse id="ellipse922" transform="rotate(90)" cx="123" cy="-101.43" rx="13.188" ry="13.64" fill="none" stroke-linecap="round" stroke-miterlimit="2" stroke-width="4.0998" style="paint-order:markers fill stroke"/></g><g><path id="path1" d="m198.47 103.55-17.47-9.8929" stroke-width="2.7332"/><path id="path2" d="m193 123-31.823-4e-3" stroke="#000" stroke-width="4.0998"/><path id="path3" d="m133.9 123h-18.825" stroke="#000" stroke-width="4.0998"/></g><circle id="path1378" transform="rotate(90)" cx="122.74" cy="-193.14" r="11.436" fill="#4ebe45" stroke="#fff" stroke-linecap="round" stroke-miterlimit="2" stroke-width="1.3999" style="paint-order:markers fill stroke"/><circle id="path4" transform="scale(-1,1)" cx="-195.65" cy="73.801" r="12.293" stroke="#fff" stroke-linejoin="bevel" stroke-width="13.666"/></g></svg>
