<?xml version="1.0" encoding="UTF-8"?>
<svg id="svg5" width="900" height="900" version="1.1" viewBox="0 0 245.99 245.99" xmlns="http://www.w3.org/2000/svg"><g id="layer1" transform="translate(-20.811 -19.973)"><g id="g2162"><g id="g975" fill="#fff" stroke="#000" stroke-linecap="round" stroke-miterlimit="2" stroke-width="5.2917" style="paint-order:fill markers stroke"><path id="rect1225" d="m119.16 48.314-94.655 94.655h189.31z" style="paint-order:fill markers stroke"/><path id="path1234" d="m119.16 237.62 94.655-94.655h-189.31z" style="paint-order:fill markers stroke"/><path id="path1231" d="m261.14 190.3-47.327 47.327-94.655-1e-5 47.327-47.327z" style="paint-order:fill markers stroke"/><path id="path1254" d="m213.92 48.858h-94.655l47.327 47.327 0.0388-0.35709z" style="paint-order:fill markers stroke"/><path id="path1244" d="m261.24 96.185-47.327-47.327-47.289 46.97-0.0388 0.35709 47.327 47.327z" style="paint-order:fill markers stroke"/><path id="path1239" d="m261.14 190.3v-94.655l-94.655 94.655z" style="paint-order:fill markers stroke"/></g><g id="g2161" transform="rotate(90,175.97,84.799)" stroke-linecap="round" stroke-miterlimit="2" stroke-width="1.3999"><path id="rect1317" d="m233.88 19.544-13.639 13.639v27.277h27.277v-27.277z" stroke="#000" style="paint-order:fill markers stroke"/><circle id="path1378" cx="233.88" cy="46.822" r="11.436" fill="#ffd600" stroke="#fff" style="paint-order:markers fill stroke"/></g><g id="g2167" transform="rotate(-90,226.24,150.74)" stroke-linecap="round" stroke-miterlimit="2" stroke-width="1.3999"><path id="path2163" d="m233.88 19.544-13.639 13.639v27.277h27.277v-27.277z" stroke="#000" style="paint-order:fill markers stroke"/><circle id="circle2165" cx="233.88" cy="46.822" r="11.436" fill="#4ebe45" stroke="#fff" style="paint-order:markers fill stroke"/></g><g id="g2179" transform="rotate(180,199.78,118.68)" fill="#4ebe45" stroke-width="7.9375" style="paint-order:stroke markers fill"><circle id="circle2177" cx="233.88" cy="46.822" r="11.436" fill="#519dd6" stroke="#fff" stroke-linecap="round" stroke-miterlimit="2" stroke-width="7.9375" style="paint-order:stroke markers fill"/></g><path id="path1249" d="m184.32 190.56a19.428 19.428 0 0 0-19.428-19.428 19.428 19.428 0 0 0-5.0883 0.69216v3.8066a15.774 15.774 0 0 1 5.0883-0.84465 15.774 15.774 0 0 1 15.774 15.774 15.774 15.774 0 0 1-15.774 15.774 15.774 15.774 0 0 1-11.952-5.4997h-0.11245l1.9191-1.9236-6.4691 8e-3 8e-3 6.4687 2.0136-2.0185a19.428 19.428 0 0 0 14.593 6.6192 19.428 19.428 0 0 0 19.428-19.428z" stroke="#000" stroke-linecap="round" stroke-miterlimit="2" stroke-width="1.3999" style="paint-order:fill markers stroke"/><g id="g2173" transform="translate(-67.821,48.632)" stroke-width="7.9375" style="paint-order:stroke markers fill"><circle id="circle2171" cx="233.88" cy="46.822" r="11.436" fill="#d62408" stroke="#fff" stroke-linecap="round" stroke-miterlimit="2" stroke-width="7.9375" style="paint-order:stroke markers fill"/></g><g stroke-linecap="round" stroke-miterlimit="2" stroke-width="1.3999"><path id="path3889" d="m184.32 95.454a19.428 19.428 0 0 1-19.428 19.428 19.428 19.428 0 0 1-5.0883-0.69216v-3.8066a15.774 15.774 0 0 0 5.0883 0.84465 15.774 15.774 0 0 0 15.774-15.774 15.774 15.774 0 0 0-15.774-15.774 15.774 15.774 0 0 0-11.952 5.4997h-0.11245l1.9191 1.9236-6.4691-8e-3 8e-3 -6.4687 2.0136 2.0185a19.428 19.428 0 0 1 14.593-6.6192 19.428 19.428 0 0 1 19.428 19.428z" stroke="#000" style="paint-order:stroke markers fill"/><g id="g4142" transform="rotate(90,149.31,157.09)" stroke="#000"><ellipse id="path2233" cx="182.25" cy="85.582" rx="11.964" ry="12.374" fill="#fff" style="paint-order:markers fill stroke"/><ellipse id="ellipse3942" cx="182.25" cy="85.582" rx="13.188" ry="13.64" fill="none" style="paint-order:markers fill stroke"/></g><g id="g4146" transform="rotate(90,145.02,153.36)"><ellipse id="ellipse3891" cx="134.49" cy="130.24" rx="11.964" ry="12.374" stroke="#fff" style="paint-order:markers fill stroke"/><ellipse id="ellipse3967" cx="134.63" cy="130.03" rx="13.188" ry="13.64" fill="none" stroke="#000" style="paint-order:markers fill stroke"/></g></g></g></g></svg>
