<svg xmlns="http://www.w3.org/2000/svg" viewBox="0 0 99.74 97.79"><defs><style>.cls-1{fill:#f8d400;stroke:#fff;stroke-miterlimit:10;stroke-width:0.8px;fill-rule:evenodd;}</style></defs><g id="Camada_2" data-name="Camada 2"><g id="svg2"><path id="path60" class="cls-1" d="M2.44,33.67l2-4.2,1.4-3h1l.2-.3h-.1L7,26l-.2-.2-.1-.1h-.1v-1.1h-.7l2.8-9.1,1.4-.1v-.1l-.2-.1-.1-.1v-.2l-.1-.1-.1.1-.2-.1v.1l-1-.9-.1-.4-.2-.8-1.6-3.1H7v-.3l-.5-.5.2-.5-.2-.2h-.1l-.2-.4h-.1l-.2-.5-.2-.1L5.64,7l.1-.2v-.3l-.1.1v-.1l.1-.2h-.1l.1-.2-.2.1v.3l.1-.1v-.1l-.2-.1v-.1h.1l.5.1.2-.4.2-.1.2.2v.4l.2.1v.4l.1.4H7v.2h.1v.3l.1.1v.1h.1l-.1.1-.1.1v.3l-.1.1.2.1v.1h.1v.1l.3-.1v-.1h.1l.2.2L8,9l.1.1h-.2l.1.2.2.1-.1.1H8l.1.3v.1l.4-.1.1.3h.2l.1.1.3.2-.1.2.4.2.5-.1V11l.2.3.2.1.1-.2-.1-.3h.2l.2-.3.2.1v-.1l.1-.1v-.1l.2.1.2-.3h.1l.1.1.1.1.1-.1.1.1v-.1h.2v-.1l.2-.1.1-.1.1.1.1-.1h.1l-.1.1.1.1V10l.3.1.2-.1h.3v-.1h-.7l-.1-.2.1.1.2-.2.1.1v-.1h.4l.3-.1h.3l.2-.2.4.2v-.1h.3v-.3l.2-.1.1-.2h.2l.1-.1.1.1h.1l.1-.5h.2v-.1l.1-.2h.2l.2-.2.1-.3.3-.4V7l-.2.1-.1-.1v-.1l.1-.1-.1-.2h.1l.1-.2h.2l.2-.3.3-.1.2-.1.2.1.2-.1.1-.3h.1l.1-.2-.1-.1.1-.2.1.1.1-.1-.1-.2.1-.1H19l.1-.1v-.1l-.2-.1.1-.1h.1l.1-.1-.1-.1H19l-.2-.1L19,4v-.3l.4-.1.2.1h.1l-.1-.2.1-.1.3-.2v-.1l-.1-.1.2-.1v-.2h.3v-.2h.2l.1.1h.4l-.1.1.2-.1.1.1v.1l.2.1.1-.1-.1-.1h.1l.1.2.1-.1-.1-.1v-.1l.1.1.2.1v-.1h.2v.1h.6l-.1-.2h.1l.3.1.3-.2.1.1.1-.1h.1v-.1h.1l-.1-.2.1.1.1-.2v.2H24l.3.2v-.1h.1v.2l.2-.1v.2l.1.1.2-.2.2-.1.1.1.1-.2h.2l.1-.2v-.1l.3-.1v-.1H26v-.1l.2.1V2l-.1-.1V2l.2.2v-.1h.2V2l.1-.1h.1l.1.1.1-.1H27l.1-.2-.1-.1v-.1h.2l.1-.1.2.1-.1-.2v-.1l.1.1v.2h.2l.1.1H28v-.1l.2.1-.1-.2h.1l.1-.1.2.1V1l.1.1.1-.1.1.1L29,1h.1l.1.1V.87h.1l.1-.1h.1l.1-.1.1.1.3.1.2-.1h.2l.1.2h.1l-.1-.2h.1l.2.2.2.1.2.2H31v.2l.1-.1v.4l.1-.1v.2l.1-.1h.1v.3l.1-.2.1.1H32l-.1.1.2.3.2-.1v-.2l.2.1h.4l-.1.1h-.1v.1l.2-.1-.1.1.1.1.2-.1-.1-.1.1-.1.2.3.1-.1.1.2.1.1.1-.1h.1l-.1.1.1.1.1-.1h.3l-.1.2.3.3v-.1l.1-.1.1.2.1-.1h.1l.1.1H35l.1.1h.1l.1.2.2-.2.1.2.2-.2.1.2.1-.2.1.2.2-.2v.2l.2.1v-.3l.1.2.2.2.1.1v-.2l.2.2.1.1.2-.1-.1.1h.1l-.1.2.1.1h-.1l.1.1h-.1v.2l.1.1v-.1h.1v.3h.1l.1.1v-.4l.2.2h-.1l.2.1v.1l.1.1h.2v.2h.2v.1l.1-.1v.1l.1-.1h.1l.1-.1.1.1.2.2v.1h.1v.1h.4l.1.1.2-.1.2.1v.1h.1l.1-.1.1.1.2.1h.1v.3H41v0l.2.1v-.1h-.1l.1-.1.1.1.3-.1h.1l-.1.1.2.1-.1.1.1-.1v.1H42v-.1l.1.1-.1.1.1.1h.1v.1h.1v.2l.1-.1-.1.1.1.1v-.1l.1.1v-.1h.1V7l.2.1v.1l-.1-.1v.1H43v.1h.1v.1l.2-.1.1.1v.1h.1l-.1.1h.1v-.1l.1.1h.3v.1l.2.1.2-.2.1-.2.1.1v-.1l.1.1.1-.1.1.1v-.1l.1.1.1.1h.3v0h.2l.1-.1v0h.1v-.1l.1.1v-.1l.2.1.1.1v-.1l.1-.2.1.1.1-.2.1.1v-.1h.2l.1-.1h.6l.1.2.2-.1.3.1.2-.1h.1l.3-.1v-.2h.1l.2-.2H49l.2-.2h.3v-.1l.1-.1h-.1l.1-.2V6l.1-.2.3-.1h.2l.2-.1v-.2l.1.1.2.1v-.1h.1l.2-.1.1-.1.2.1.3-.1.4-.2.1-.1.2.1v.1l.1-.1.1.2.3-.2h.1l.1.1h.3l.2.1h.1v.1h.1l-.1.2h.1v.1l.1.2.5.1.1.1.1-.1.1.1v.1l.1.1.1.1.3.1v.2l-.1-.1v.2l.1.1L55,7h.1v.1h.1l-.1.3-.1.1.2.1.3.2v0h.1l.2.1h.5l.1-.1h.3l.1-.1.2-.1.1-.2h.2l.1-.1h.2l.1-.1h.1l.1-.1.2-.1.1.1h.2l.1.1.1-.1.1.2.2-.1.1.1v0l.1-.1h.2l.2.1.1-.1-.1-.1.1-.2v-.1l.3-.3v-.3L60,6v-.1h-.1v-.4l.1.1v-.1h.1l.1-.2.1-.2.4-.1h.1l.1.1L61,5h.1v-.1l.3-.1.1-.1.2-.2.1-.1.1-.1.1-.1.4-.4.1-.2.1-.1.5-.2L63,3l.1-.3.1-.1.1-.3.2-.1h.3l.2-.3.1-.1v-.2h.2l.2-.2.4-.1.2.1v.2l.2.1L65,7.27h-.1l-.2.1-.2-.1-.2.2h-.8l-.1.1-.5.2-.2.1v.3l-.1.1-.2.1v.1l-.1.1-.2.4v.1l-.1.2-.1.2-.4.5v.2l-.1.1-.1.2v.2l.1.2-.1.1h.1l-.1.2.1.1v-.1h.1l.1-.1.1.1H62v-.1h.3l.1.2h.1l-.1-.1h.1v.2l.2-.1.1.1v.1l.1-.1v.1H63v.1h.1l.1.1v.2l.1-.1h.1V12h.1v.1h.2l-.1.1h.1v.1l.1.1.1.1.5-.1h.1l.1.1.1-.1h.1v.1H65l.1.2.1-.2.1-.1.1-.1.2-.1v-.1H66l.1.1v-.1h.2v.1l.1.2.3.1v.1h.2l.1-.1h.1v.2h.2l.2.1h.2l.1.1h.1l.1.1.2.1.1-.1h.1l.1-.2.1-.1v-.3h.1v-.1l.1.1v-.1l.11-.1v.1l.1-.1v.1h.1v-.1l.1.2.1-.1v.1h.1l.3.2.3-.1.29.1h.11l.1-.1.4-.1.5.1.29.1h.1l.21.1.2.1h.1l.1.2.3.1h1.4l-.1.1-.1.1h-.5l-.11.1-.2.1-.1.2.1.3.1.5v.3l.3.8V16l.1.4v.5l.5.5h.4l.2.1h.1l.11-.4.5-.3.5-.1h.39l.61.2h.7l.3.1.2.1.3.2v.1l.1.1-.1.3-.3.3-.2.4-.5.1h-.4l-.1.1v.1l-.11.4-.29.2-.1.2-.11.3L76,20l-.3.4v.1l.1.2v.2l.2.2.1.2-.1.2h.3l.1.1v.3l.5.1.4.2v.1h.1l.2.1.2-.1.4.2h.3l.2.1H79l.2.1.5-.2h.1l.5.1.1.1.2-.1H81l.1-.1.3-.2.2-.1v-.1h.3l.2.1v.1l.3.1.4.2h.4l.3.5v.1l.2.1v.2l.2.1v.1l.3.3v.1h.2l-.1.1h.3v.2h.1v.1h.1v.1l.2.1.2.1h.2v-.2h.3l.2.1v-.1l.2.2h.4l.2.1V25l.1-.1V25l.2-.1h.1V25h.1v.1l.1.1v.2h.1l.1.1.1.1h.1l.1.1h.1l.2.1v-.1l.1.1V26l.1.1H81.94l.2.2h0v.1h.1l.1.1h.2l.1-.1.1.1h.1l.1.1v-1.1l.2.1h.1l.1.1-.1.1v.1l.1-.1.1-.1.1-.1v.1h.2l.1.1H84l-.1-.2.1.1.1.1h.2v-.1l.1.1h.2v.1h.1l.1.2H85l.1.2v.1h.1l.1.2h.1v.1l.2.2h.1v-.1h.2l-.1.1V27h.3l.4.2h-.1l.2.1h-.1l.2.1.1-.1.2.2h.2v.1h.1v.1l.1-.1.1.2h.1l.1-.1.1.1h-.1l.2.2.1-.1.5.3.2-.1h.1l.2.1h.2v.1l.2-.1.1-.1h.2v.1H90l.1.1h.3l.3.1h.1v.1l.1.1h.2l.1-.1.2.2.1-.1h.1l.1.1H92l.1.1h.1l-.1.1h.1V29h.1l.1.1h.3v.2l.1.1v.1l.3-.1.2.1h.4v.3h.1l.1.1.1.1.1-.1v.2l.3.1.1.1.1-.1h.2v-.1H95l.1.1.1-.1v.1h.2l.1.2.2.1h.4l.2.2h.2l.1.1h.3v.1l.3.2v.1l.1-.1.1.1.2.2v.2h.1l.1.3.1.1v.1l-.2.1.3.1.1-.1.1.1-.1.1h.3v.3h.3l.2.2.1.1.1.1v.1l-.2.1-.2.2v.2l.5.6.1.2V35H99l-.3-.1h-.1l-.2.1-1.5-.5-.3.7-.1.1-.2.4-.1.5-.1.1v.1l.3.3-.2.3.1.2v.1l.2.2v.9l.1.2.2.3v.3l-.3.6.2.5v.4l-.1.3-.1.1.2.3.1.2v.2l-.4.7-.3.6-.2.5-.1.2-.5.4-.2.1-.2.2-.2.1h-.1l-.3.1-.4.1h-.5l-.8.2-.3.2-.3.2h-.1l-.1.1-.1.4-.2.1-.5.8v.1l-.2.1-.4.3-.2.2-.5.7-.1.3-.3.3-.6.4-.1.1-.1.1v.1l-.1.1-.1.1-.5,1-.1.5.2.3v.2l-.1.5v.5l.1.3.2.2-.1.6-.1.2-.5.4h-.6l-.2.1-.4.5-.1.3-.2.3v.3l-.2.5-.3.1.5-1h-.1l-.3.1h-.4l-.1.1-.1.2.1.5-.1.1.1.1.2.3.1.5.1.1-.1.5-.1.4v.3l-.1.1-.5.5-.1.4-.1.3-.1.3-.3.3-.2.3-.1.1-.4.2H83l-.5-.1h-.1l-.2.1-.2.4-.1-.1.1.2.5.4v.3l.2.4v.4l-.4.6-.2.2-.1.2-.5.2-.3.2-.3.6v.2l-.1.3-.6.5-.2.3-.2.1v.1h-.2l-.5.5-.1.3-.4,1.2-.5.6-.2.2-.1.1-.1.3-.6.5-.1.1h-.1l-.1.2h-.1l-.1.1-.3.1-.4.2-.5.1-.3.3-.3.2-.2.1-.3.2-.5.2-.4.3-.3.1-.7.5-.1.2-.5.4-.2.4h-.1l-.4.2-.7.2-.1.1h-.1l-.5.3-.2.3-.1.1-.5.2-.1.1-.3.3-.3.4-.1.2v.2l.1.1-.3.5h-.1l-.6.8-.2.2-.1.1h-.6v.1h-.1l-.8.3-.3.1-.2.1-.2.1-.1.1-.2.3-.4.1h-.1v.1l-.3.3-.3.1-.5.3-.5.2-.2.1-.2.1-.2.3v.1l-.2.2-.2.1-.3.2-.1.4-.3.4v1.7l-.4.4v.2l-.4.5-.2.6-.2.5v.1l-.2.4-.5.6-.1.1-.6.2-.8.5-.7.4-.4-.1-.1.1-.2.1v.1l-.4.6V90l-.2.5-.1.5-.1.4-.1.2-.1.3-.1.5v.1l-.3.5-.1.5-.1.3.1.1-.1.2.1.3v.4l-.3.8-.1.2-.3.3-.5.3-1,.7-.4.1h-.1l-.1.1-.4-.3v-.2l-.1-.2v-.2l-.3-.1-.2.1-.2-.2-.2-.1-.3-.3-.2-.1-.2-.5V95l-.1-.1-.2-.1-.5-.1-.3-.3v.1h-.2l-.2-.1h-.1l-.2-.1-.3.1v-.9l.1-.2-.3-.1V93l-.2.1-.1.1h-.1l-.1-.2h-.1l-.1-.1h-.2l-.1-.2h-.2l-.1-.1-.2.3-.2.2v.2l-.1.1-.5.1v-.2h-.2l-.1.1h-.1l-.1.1h-.2v.1l-.2.1-.1.1-.3-.1-.2.2v.2l-.1-.1-.3.1-.1-.2h-.1l-.1.2h-.2v.2h-.2v.2l-.1.1.1.3h1.7V95l-.1-.1h-.3l-.2-.1-.1.1-.2-.1-.1.1-.2.1-.2.1-.2.1h-.1l-.1.2-.2-.1v-.1l-.1.1-.2-.1-.1-.2-.1-.1-.2.2h-.1v.1l-.2.1h-.1l-.1-.1-.1.1-.3.1v-.1h-.2l-.1.1v.1h-.5l-.3-.1v-.1h-.1v-.1H39l-.1-.1-.3-.2h-.2l-.3.5H38l-.2-.1-.1-.1h-.2V95h.4l-.1.1h-.1l-.1-.1h-.1l-.1-.1v-.4h-.2l.1-.2-.3-.2.1-.2.1-.4-.1-.2v-.6l-.1-.1.2-.4v-.3l-.2-.2h.1l-.1-.2.1-.3.1-.1-.1-.1H37l-.1.1-.1-.1-.1-.1.1-.3-.1-.1h-.1l-.1-.2-.1.1-.1-.1-.2-.1v-.1l-.3.1-.1-.1v-.5l.1-.2v-.1l.1-.1-.2-.2v-.2l-.1-.2v-.1l-.1-.3-.1-.2h-.1v-.2h.2l.1-.3-.1-.1.5-.5.1-.5-.1-.2h-.1V86l-.2-.3-.3-.2.1-.2-.1-.3v-.1l.3-.1.2-.2-.1-.1h.1l-.1-.1.1-.1-.2-.3h.2l.1-.2.1-.1-.3-.3v-.3l-.2-.1-.2-.1h-.1L35,83v-.5l-.1-.2-.2-.4h.1v-.3l-.1-.1.1-.1-.1-.1-.1-.1-.2-.1.1-.4-.1-.1.2-.1-.2-.4v-.2h-.2l.1-.1-.1-.1.1-.2-.1-.3V79l-.2-.1.1-.2-.1-.3.1-.1v-.5l.1-.1v-.2l.2-.1v-.2l.1-.1.2.1v-.1l-.1-.1v-.1l.1-.1v-.1l.1-.3-.1-.3.1-.1-.1-.2v-.3l-.1-.1v-.3l-.3-.3-.3-.2-.1-.1h0l-.1-.2-.1-.2-.4-.2-.3-.7V73l-.1-.2.1-.2h.1v-.1l.1-.3-.1-.4-.1-.1.1-.1-.1-.1-.3-.1-.1.1-.1-.1-.1.1-.1-.1-.2-.1.1-.2V71l-.4-.2-.1-.3-.1-.4-.2-.2h-.5l-.3-.1-.1.1-.1-.1-.2.1-.1.1h-.3l.1,1.5-.3.1v.2h-.1l-.1-.1-.4-.1-.1-.1h-.1l-.1.1h-.2l-.1.1.1-.1h-.2l-.3-.2h-.1v.1l-.1.1h-.4l-.1.1-.1-.1v-.1H27v.1l-.1-.2-.1.1h0v-.1l-.3-.2V71l-.1-.1h-.3l-.1-.1-.1.1-.2-.2-.2-.1-.1-.1-.1.1-.2-.2v-.1H25l-.1-.2V70h-.1v-.1l-.1.1-.1-.1-.1-.3v-.4l-.2-.1h.1l-.1-.1v-.1l-.2-.1.1-.1v-.3l-.1.1h-.3v.1l-.1-.1-.1.1-.1-.1-.1.1-.1-.1v.1h-.1v-.1h-.1v.1l-.1-.1-.1.2h-.3l-.1.1v.1h-.2v.2l-.1.1v.1l.1.1h-.1v.2l-.2-.1v.2h.1l-.3.2v.2l-.1.1.1.1h-.1l-.1.2-.1-.1h.4v.1h-.1l-.1.1-.1-.1v.1l-.1.1v.1l-.3.2H21l.1.3H21l-.1-.1-.2-.1-.2-.1-.1-.2v-.2l-.1.1v-.1h-.2v.1l.1.1v.1h-.1V71l-.1.1-.2.2-.2-.1.1-.1-.1-.1-.1-.1-.1.1h-.2v.1l-.2.1h-.1v-.1h-.1l.1-.1h-.1l-.2.1v.5l-.2.1-.1.1-.2.1H18l-.1-.2h-.1l-.2-.1.3-.1.1-.2-.1-.2h-.1l-.2.1v.1l-.1.1-.1-.1-.1-.1h0l-.1-.1-.1.1h-.2l-.1-.1-.1-.2-.2.1h-.2l-.1-.1.1-.1-.1-.1-.2.2-.1-.1-.1.1h-.2l-.1.1-.1-.1v-.1h-.2l.1.2H15l-.1.1-.1-.1-.1.1h.2l-.1-.1.1-.3-.2.1-.3-.1-.2.1-.1-.1-.1.1h-.1l-.1.1v-.1l-.1-.1v-.1l-.1-.1-.1.1h-.1v.1l.1.1h-.2v.1l-.3.2-.2-.2h-.3v-.1l-.1.1v-.1l-.1-.1h-.1v-.1l-.2.1v.1l-.2.1.1.1h0l-.2-.1v-.1l-.1.1v-.1h-.1l-.1-.1-.1.1h-.2v-.1H11l.1-.2h-.2l-.1.1v-.1l-.3-.1-.2.1.1-.1h-.2l-.2-.2-.1.1v-.1l-.1.1-.1-.1-.2.1h-.1v-.1h-.2L9,70h-.1l-.1.1-.2.1-.4-.1h-.1l-.1-.2v-.4l-.1.1v-.1h-.2v-.1h-.1l.1-.1-.1-.2v-.2l-.4.2h-.4l-.1-.1-.2-.2-.1.1h-.2V69l-.1.1v.1l-.2-.2-.1.1h-.1v.2h.1v.2l-.2.1h-.2l-.3-.2-.1.1-.1.3h-.1l-.1-.2h-.1l-.1-.2-.1-.1-.5.2.1.1-.2-.1h-.2l-.1-.1h-.6l.1-.2-.1-.1-.1-.3h-.2l-.1-.1-.1.2h-.2l-.1-.1-.1.1.1-.5-.1-.1h-.2v-.2l.1-.2.5-.3v-.4l.2-.2.2-.6v-.2h-.1l-.1-.1.3-.2h.2l.1-.1-.1-.1-.7-.4v.2l.3-.1.3-.1.3-.5v-.3h-.2l-.2-.2-.1-.1v-.1l.1-.2.5-.4.2-.2v-.1l-.5-.3-.1-.2-.2-.4L3,62l.3-.1v-.1l-.2-.2-.5-.2-.1-.3v-.3l.1-.3.2-.1.2-.3.1-.2v-.2l.2-.5.1-.3.5-.6.1-.2.1-.3-.1-.1-.5-.1-.2-.2-.2-.2.1-.1.8-.5.1-.2v-.5l-.2-.7v-.1l.3-.5-.3-.5-.1-.4.3-.2.3-.5.2-.2-.1-.2v-.5h-.2l-.2.2h-.2l-.1-.1-.2-.4-.1-.1-.2-.1.6.9-.2-.1.1-.2.3-.2.5-.4.1-.3-.1-.2-.5-.4h-.2l-.3.2h-.2l-.2-.1v-.1l.2-.5.2-.1.2-.1.5.1h.2V50l-.1-.2-.1-.2-.4-.5-.1-.2-.1-.1h-.2l-.3.5h-.5v.1l.1-.3.1-.3v-.1h0l-.3-.4V48l.2-.3-.3-.8.1-.4.3-.5v-.2l-.4-.5-.5-.1-.4-.3-.2-.6.1-.3.1-.5v-.2l-.1-.1-.1-.1h-.3l-.1.1-.2.2v.1l-.3-.2-.1-.4.1-.1.1-.2.4-.1.1-.2-.1-.1-.1-.1H.54L.44,42v-.1l.1-.1.1-.2h.3l.3-.1.1-.3.3-.2.5-.1v-.1l.2-.5.2-.1H3l.2-.1.2-.4.2-.1h.1l.2.1.3.3.2-.4.4-.5.1-.2L1.24,36Z"/></g></g></svg>