<svg xmlns="http://www.w3.org/2000/svg" viewBox="0 0 155.4 151.24"><defs><style>.cls-1{fill:#f8c300;stroke:#fff;stroke-miterlimit:10;stroke-width:0.8px;fill-rule:evenodd;}</style></defs><g id="Camada_2" data-name="Camada 2"><g id="svg2"><path id="path56" class="cls-1" d="M.4,28.85v-.3H.9l.1-.2.2-.1h.3l.3.1.1.1.1-.1-.1-.2.1-.5v-.3l-.1-.1L1.8,27l-.1-.1-.2-.3V26l.1-.3h.1v.1l.2-.2v-.3L2,25l.4-.7.1-.1.3-.4-.2-.2-.1-.3L2.2,23l-.1-.4-.1-.1v-.2H1.7l-.4-.2H1.2L1.1,22H16.7l7.6.1H42.5l.8-.1.2-.1h.3l.2-.2.5-.5.3-.2.1-.1v-.1l-.4-.2-.4.1H44l-.4.2-.3-.1-.1-.1.4-.8.1-.2.1-.3.1-.1v-.2l-.1-.2-.2-.2.1-.4v-.2l-.1-.2-.1-.3.2-.4.1-.1.2-.3.1-.2.4-.5v-.2l.1-.2-.1-.2.1-.2.4-.2.1-.1-.1-.3-.1-.1v-.2l.1-.2-.1-.5.2-.3-.2-.5.1-.3.4-.2.1-.2-.1-.3.1-.3-.1-.2-.4-.6-.1-.3v-.2l-.1-.4-.3-.4L44.2,9v-.6l-.2-.2V8h.1l.1-.2.5-.3.5-.5.2-.3v-.6l.1-.1.4-.4.2-.4.5-.5v-.3l-.1-.2-.1-.5-.1-.4.1-.5.1-.5.5-.9.5-.5.1-.1V.65l.2.1.7.5.1.2.4.7.5.5.4.6.4.9v.1l.1.6.1.1h.2l.2.1.1.2.2,1.2.1.5.5.8.1.3.1,1v.3l.4.4.4.7.6.5.1.7.1.2.1.1.4.1.2.1.3.5V13l-.2.5-.1.5-.2.3v.3l.2.4v.2l-.3.5v.1l.1.3.4.5v.2l-.1.2v.1l.3.2.1.1-.1.3-.2.2.1.3v.1l.2.1.2.1-.1.6.1.1.2.3.2.5-.1.5.1.3h.4l.5-.2.6.4.3.2h.5l.2.2v.4l-.1.4.1.1.2.1.3.3h.5l.5.1.1.3.1.1h.2l.5-.1.1-.1.2.1.3.1.2.1.1.1.7.9.5.3.1.3.2.3.2.1v.3l.2.1.1.2v.2l-.3.4.1.3-.1.2v.1l.1.1.2.2.1.2.2.1.2.1.2.1.5-.1.2.1.8.1h.1l.2-.1.2.1.4.1.2.3.3.7h.1v.7l.1.2v.2l.1.2h.1l.3-.1.3-.2V30h.3l.4-.1,5.3.5,1.6.1,4.9.5,10.7.8,3.6.4,1.6.1,6.7.5,7,.5,6.1.5,6.1.5h.7l4.9.4,10.7.7,2.1.2,3.3.2,2.9.2,8.3.5v.2l-.3.3-.3.5v.4l-.2.3v.2l-.2.3v.4l-.1.3-.2.2-.4.2-.2.2-.1.3-.2.2-.2.4-.1.5v.1h.1l.1.6-.2.5-.1.5-.3.6v.1l.1.3-.1.1-.3.2-.1.2-.4.2-.2.9.1.3-.1.1H151l-.3.1v.3l-.1.3.1.3-.2.3-.1.3-.1.1H150l-.1.2-.2.3-.3.3v.2l.3.2v.3l.1.2v.2l.1.3-.3.5v.3h-.2l-.1.1V51l-.1.2v.5l.2.1.1.2v.2l-.3.3-.2.3.2.5-.1.2.1.3v.4l.1.2v.4l-1.1-1v.1l-.3.2-.1.3-.2.1v.2l-.1.3.1.4v.2l.1.3-.1.4-.1.5-.2.1-.2.2-.1.1-.1.2v.2l-.1.3-.2.4v.4l-.2.4V60l.1.2-.1.4.3.5h.1l.4.1h.3l.1.1v.4l-.1.2.1.3v.4l-.1.1-.1.2-.2.1-.1.1-.4.4v.1l.1.2.1.2.1.5.1.2.1.2v.5l.1.1h.3l.3.3v.3l-.3.1-.1.2.2.3V67l-.4.4-.1.2.1.1v.1l-.1.3v.1l.3.3v.3l-.1.5v.3l-.1.2v.5l-.1.2.1.3.4-.1.1.1v.4l.2.3v.2l-.2.2v.4l.1.1-.1.3.2.3.1.3-.1.5.2.1-.1.4v.1l-.2-.1-.2.1.1.4-.2.3-.1.5-.2.2-.1.3.3.2v.2h-.1l-.3-.1-.1.1-.1.2.1.2v.4l.6-.1.1.1v.2l-.1.2.1.4h.2l-.1.3.2.2V79l-.1.2h.3l-.2.4v.2l.1.1h.1l.1-.3h.4v.1l-.3.2V80l.5.2h.5l.2-.1.1.2v.2l.1.2v.2l-.1.2-.1.3-.1.3v.5l-.3.1-.2.3h-.1l-.2-.1-.2.1.1.3.2.1v.1l-.1.2-.4.1-.1.1.2.4.1.1v.2l-.1.5.1.4-.1.2-.1.2h.1l.2.2v.6l-.2.3-.1.1v.5l-.1.1-.2.3-.2.2-.1.2-.3.2v.4l.1.4-.1.2-.2.1-.2.4-.3.3-.4.2-.3.4-.1.9-.2.3-.1.5-.2.5-.3.4-.2-.1-.2.1h-.1l-.1.1-.1.2.3.4-.1.5.1.2-.1.3.2.4v1.3l-.3.3v.3l.2.3v.4l.3.6-.1.3-.1.2-.4.3h-.3l-.2-.2h.3v.2l.1.4v.3l-.2.2-.2.4-.3.5-.2.5-.1.2.1.5-.1.3-.2.1.1.4v.1l-.1.2-.1.2.2.3v.2l.2.2.1.2-.1.3.1.4-.5.7.1.5-.4.7h-.1l-.1.2.1.3v.1l-.1.2-.1.1-.1.2-.1.1v.3l.2.3-.1.2-.3.2-.3.5v.5l-.1.3.2.2v.1h-.1l-.5.4h-.1l-.2.3v.3l-.6.4-.6.4-.4.1-.3-.1-.1-.2-.1-.5-.3-.2h-.2l-.1.2-.2.2-.3.2-.3-.2-.4.1-.2.4h-.2l-.1.2-.2.2-.1-4.3-.1.1-.2.2-.2.5-.4.1-.3.6-.1.1h-.4l-.3.2v.4l-.2.3v.3l.1.2.2.1v.1l-.3.2-.2.1-.1.3v.5l.2.2v.2l-.4.5v.1l.1.2v.1l-.2.3.1.3v.2l-.1.1-.3.1-.1.2v.1l.1.3v.2H133l-.1-.3h-.2v.1h-.1l.1.3.3.7v.2l-.1.3-.1.1-.5.8v.2l-.4.2-.3.5-.1.2-.3.3-.1.3-.1.1-.3-.3h-.5l-.1.2v.3l-.2-.1-.2.1-.2.5-.2.1-.6.1-.3-.1h-.2l-.1.1-.1-.1-.3.2-.9-.2-.2.1h-.4l.1.3-.1.4h-.1v.2l-.4.3v.3l-.1.1-.2.2-.1.3-.1.2v-.5l-.3.2-.1-.1-.1.1-.1.1-.1.1-.3-.1-.5.3-.3.2h-.2l-.2.1-.1.1h-.1l-.2-.1-.2.1v.3l-.3.1.1.2-.1.2v.5H122v.1l.3.4v.1h-.2l-.2-.2h-.1l-.1.2v.1h-.3l-.2.2h-.4V126h-.1l-.3.2v.2h-.1l-.1.2.1.1v.3l-.1.1v.3l.2.2-.2.1v.1l.2.2h.5v.3l.1.1.3.2-.1.1v.1l.1-.1.2.1-.2.1.1.1v.2l-.1.2H121v.2h.1v.3l-.1.1v.2l-.2-.1v.2l-.2-.2h-.1v.2l.1.1h-.2l.1.2-.1.1h-.2v-.9h-.1l.1.4-.3-.2h-.2l.1.2-.1.1v.1h.2l.1.4-.1.1-.1-.2-.1-.1-.1.1-.1.1.2.3-.1-.1-.2.1-.2.1v.1h.2l-.1.1v.4h-.1l-.1.2v.3H119l-.1.1-.1-.1-.3.3h-.1v.2h-.1v-.1h-.1l-.1.1-.1-.1-.1.2h-.2l-.2.1h.1l-.1.1-.2.1v.2h-.1l-.1.1h.1v-.2h-.1v.1H117l.2.2-.1.2h.1v.1h-.3l.1.2h-.1V134h-.1v.2l-.1-.1v.1l-.1.1-.1-.1h-.3v-.4l-.1.1v-.1l-.1.1v.2l.1.1H116v.2l-.1.1h-.1v.1h-.1v.5l-.1.1v.1l-.1.2v-.1h-.1v.4l.1.1-.1.1v.2h-.1l.1.1h-.1v.1h-.1l.1.2h-.1v.1h.1v.1l.1.1v.1l-.1.1h-.1V137l-.1-.1H115l.1.1h-.2l.1.1h-.1v.1h-.2l.1.1h-.2l-.1.1v.2l-.1.3h-.1v.1l-.1.1-.1.2-.1-.1-.1.1v.2l-.1.3v.2h-.1v.3l-.1.1-.1.2h-.2l.1.3-.2.1v.1l-.2.1v.2l.1-.1v.1h.1l-.1.1v.1H113l.2.1.1.1-.1.1h.1v.1h-.1v.2h.2l-.1.1h0v.2l-.1.1v0l-.1.1h.1v.1h-.1v.1H113v.1l-.1.1-.1.1.1.1-.1.1h.1v.3l-.1.2v.1l-.1.2v-.3l-.1.2v.1h0v.2l.1.1-.1.1.1.1v.5l-.1.1v.1l-.1.1h.1l-.1.1v.2l.1.2v.2h.1l-.1.1.1.1v.1l-.1.1h.1v.1l.1.1-.1.1.3.2V146l.1.1.2.1v.1l.1.1.1.1h.1l.1.2h.1l-.1.1.2.2-.1.1.1.2.2.2v.1l.1.2-.1.5.1.1.1.1v.1l.1.1-.1.3.5.3.2.4.1.1.1.2v.8h-1.4l-.3-.1-.1-.2h-.1l-.2-.1-.2-.1h-.1l-.3-.1-.5-.1-.4.1-.1.1h-.1l-.3-.1-.3.1-.3-.2h-.1V150l-.1.1-.1-.2v.1h-.1v-.1l-.1.1v-.1l-.1.1v.1l-.1-.1v.1h-.1v.3l-.1.1-.1.2h-.1l-.1.1-.2-.1-.1-.1h-.1l-.1-.1h-.2l-.2-.1h-.2v-.2h-.1l-.1.1h-.2v-.1l-.3-.1-.1-.2v-.1h-.2v.1l-.1-.1h-.4v.1l-.2.1-.1.1-.1.1-.1.2-.1-.2h-.2v-.1h-.1l-.1.1-.1-.1h-.1l-.5.1-.1-.1-.1-.1v-.1h-.1l.1-.1h-.2v-.1h-.1v-.2h-.1l-.1.1v-.2l-.1-.1h-.1v-.1H104v-.1l-.1.1v-.1l-.1-.1-.2.1v-.2h-.1l.1.1h-.1l-.1-.2h.7v.1h-.3l-.1-.1-.1.1h-.1v.1l-.1-.1.1-.2h-.1l.1-.1-.1-.2v-.6l.1-.2.1-.1v-.2l.4-.5.1-.2.1-.2v-.1l.2-.4.1-.1v-.1l.2-.1.1-.1v-.3l.2-.1.5-.2.1-.1h.8l.2-.2.2.1.2-.1h.1l.3-5.6-.2-.1v-.2l-.2-.1-.4.1-.2.2h-.2v.2l-.1.1-.2.3h-.3l-.2.1-.1.3-.1.1-.1.3.1.3-.5.2-.1.1-.1.2-.4.4-.1.1-.1.1-.1.1-.2.2-.1.1-.3.1v.1h-.1l-.1.1-.1-.1h-.1l-.4.1-.1.2-.1.2h0v.1l-.1-.1v.4h.1v.1l-.1.2v.3l-.3.3v.1l-.1.2.1.1-.1.1-.2-.1h-.2l-.1.1v0l-.1-.1-.2.1-.1-.2-.1.1-.1-.1h-.2l-.1-.1-.2.1-.1.1h-.1l-.1.1h-.2l-.1.1h-.2l-.1.2-.2.1.2-.2h-.3l-.1.1h-.5l-.1-.1h-.1v0l-.3-.2-.2-.1.1-.1.1-.3h-.1V144h-.1l.1-.1-.1-.1v-.2l.1.1v-.2l-.3-.1-.1-.1-.1-.1v-.1l-.1-.1-.1.1-.1-.1-.5-.1-.1-.2v.1h-.1l.1-.2h-.1v-.1h0l-.2-.1h-.3l-.1-.1h-.1l-.3.2-.1-.2-.1.1v-.1l-.2-.1-.1.1-.4.2-.3.1-.2-.1-.1.1-.2.1h-.1v.1l-.2-.1-.1-.1v.2l-.2.1h-.2l-.3.1-.1.2v.1l-.1.2h.1l-.1.1v.1h-.3l-.2.2h-.1l-.2.2h-.1v.2l-.3.1h-.1l-.2.1-.3-.1-.2.1-.1-.2h-.6l-.1.1h-.2v.1l-.1-.1-.1.2-.1-.1-.1.2v.1l-.1-.1-.2-.1v.1l-.1-.1v.1h-.1v0l-.1.1H88v0h-.3l-.1-.1-.1-.1v.1l-.1-.1-.1.1-.1-.1v.1l-.1-.1-.1.2-.2.2-.2-.1v-.1h.6l-.1-.1v.1H87l.1-.1H87v-.1l-.1-.1-.2.1v-.1h-.1v-.1h-.3v-.1l.1.1v-.1l-.2-.1v-.1h0v.1l-.1-.1v.1l-.1-.1.1-.1-.1.1v-.3h-.1v-.1h-.1l-.1-.1.1-.1-.1-.1v.1h-.2v-.1l-.1.1.1-.1-.2-.1.1-.1h-.1l-.3.1-.1-.1-.1.1h.1v.1l-.2-.1v0h-.2V143h-.1l-.2-.1-.1-.1-.1.1h-.1v-.1l-.2-.1-.2.1-.1-.1H83v-.1h.2v-.1l-.2-.2-.1-.1-.1.1h-.1l-.1.1v-.1l-.1.1v-.1h-.2v-.2h-.1l-.1-.1v-.1l-.2-.1H82l-.2-.2v.1l-.1-.1h-.1v-.3h-.1v.1l-.1-.1v-.2h.1l-.1-.1h.1l-.1-.1.1-.2h-.1l.1-.1-.2.1-.1-.1-.2-.2v.2l-.1-.1-.2-.2-.1-.2v.3l-.2-.1v-.2l-.2.2-.1-.2-.1.2-.1-.2-.2.2-.1-.2-.2.2-.1-.2h-.1l-.1-.1H79l-.1-.1h-.1l-.1.1-.1-.2-.1.1v.1l-.3-.3.1-.2H78l-.1.1-.1-.1.1-.1h.3l-.1.1-.1-.1-.1-.2-.1.1-.2-.3-.1.1.1.1-.2.1-.1-.1.1-.1-.2.1v-.1h.1l.1-.1H77l-.2-.1v.2l-.2.1-.2-.3.1-.1h-.4l-.1-.1-.1.2v-.3h-.1l-.1.1v-.2l-.1.1v.1l-.1.1v-.2h.2l-.2-.2-.2-.1-.2-.2H75l.1.2H75l-.1-.2h-.2l-.2.1-.3-.1-.1-.1-.1.1h-.1l-.1.1h-.1v.2l-.1-.1h-.1l-.2.1-.1-.1-.1.1-.1-.1v.4l-.2-.1-.1.1h-.1l.1.2-.2-.1v.1h-.2l-.1-.1H72v.2l-.1-.1v.1l.1.2-.2-.1-.1.1h.4v.1l.1.1-.1.2H72l-.1.1-.1-.1h-.1l-.1.1v.1h-.2v.1l-.2-.2v-.1l.1.1v-.1l-.2-.1v.1H71v.1l-.3.1v.1l-.1.2h-.2l-.1.2-.1-.1-.2.1-.2.2-.1-.1v-.2l-.2.1v-.2h-.1v.1l-.3-.2H69v-.2l-.1.2-.1-.1.1.2h-.1v.1h-.1l-.1.1-.1-.1-.3.2-.3-.1h.3l.1.2h-.6v-.1h-.2v.1l-.2-.1-.1-.1v.1l.1.1-.1.1-.1-.2H67l.1.1-.1.1-.2-.1v-.1l-.1-.1-.2.1.1-.1h-.4l-.1-.1h-.2v.2h-.3v.2l-.2.1.1.1v.1l-.3.2-.1.1.1.2h-.1l-.2-.1-.4.1v.3l-.2.1.2.1h.1l.1.1-.1.1h-.1l-.1.1.2.1v.1l-.1.1h-.2l-.1.1.1.2-.1.1-.1-.1-.1.2.1.1-.1.2h-.1l-.1.3-.2.1-.2-.1-.2.1-.3.1-.2.3h-.2l-.1.2h-.1l.1.2-.1.1v.1l.1.1.2-.1v.1l-.3.4-.1.3-.2.2h-.2l-.1.2v.1h-.2l-.1.5h-.1l-.1-.1-.1.1h-.2l-.1.2-.2.1v.3h-.3v.1l-.4-.2-.2.2h.5l-.3.1h-.4v.1l-.1-.1-.2-.5-.1-.1.1.2h.2v.1h-.3l-.2.1-.3-.1v.2l-.1-.1.1-.1h-.1l-.1.1-.1-.1-.1.1-.2.1v.1h-.2v.1l-.1-.1-.1.1-.1-.1-.1-.1h-.1l-.2.3-.2-.1v.1l-.1.1v.1l-.2-.1-.2.3h-.2l.1.3-.1.2-.2-.1-.2-.3v-.3l-.5.1-.4-.2.1-.2-.3-.2-.1-.1h-.2l-.1-.3-.4.1v-.1l-.1-.3h.1l.1-.1-.2-.1-.1-.2h.1l-.1-.1-.1-.2-.2-.2h-.1v.1l-.3.1h-.1v-.1l-.2-.1.1-.1v-.3l.1-.1.1-.1h-.1v-.1l-.1-.1h0v-.2h-.1v-.2h.5l-.1-.4v-.4l-.2-.1v-.4l-.2-.2-.2.1-.2.4-1.7-1.6-1.3.8-.3.1v-.2l-.1.1-.1-.1h-.1l-.1-.1h-.1l-.2-.1v-.4l-.2-.2h-.2l-.2.2-.5-.2v-.5l-.1-.1-.2.1-.1-.1-.1-.1.1-.3-.5.1-.3-.1.1-.2-.1-.2h-.4v-.1h-.2v.1l-.2-.1v-.1h-.1v-.2l-.2-.1v-.4l-.2.1-.1-.1v.4l.1-.1-.2-.1v-.1l-.2-.1-.1-.1.1-.1L44,139v-.1h-.1l-.2-.3h.5v-.2h-.1l-.3-.2-.1-.7.2-.3-.1-.1h-.1l-.3.1h-.1v-.4h-.1v-.2l.2-.2h-.2v-.2h.2v-.1h-.2v-.3l.1-.1.1-.2h-.2l-.2-.2v-.1h-.2V135l.1-.2-.1-.1-.1.1-.1-.1.1-.2-.1-.1.1-.1.1-.2h-.1l.1-.4h-.1l.1-.1-.1-.1.1-.1h-.1l.1-.1-.2-.3v-.5h.2v.2l-.1-.3-.1-.2.1-.4v-.2l.1-.5v-.2l.4-.8.1-.1.1-.2.4-.2.1-.3.4-.2.2-.2.2-.4v-.2l-.2-.3-.2-.4.2-.5V127l.1-.1.1.1.1-.1.3-.2-.1-.1.1-.5v-.3l-.2-.3v-.4l-.3.1h-.4l-.3-.2-.1.5-.2.2-.4.2-4.7-.3-9.2-.4-9.4-.2-.5-5.3-.5-5.7-4.4-5.1.8-.1h3.5l-.4-6.7-.3.1-.4-.2-.1-.5-.1-.2h.1l-.1-.2v-.2l-.1-.1h.1l-.1-.1v-.2l-.1-.1v-.2l-.3-.1V100l.1.1v.7l-.3-.2.1-.1h-.1v-.2l-.1-.1h-.2l.1-.1V100h-.1v-.1h-.1l.1-.1h0v-.3l.1.1v-.4l-.1.1v-.1l-.1.1v-.2l-.1.1V99l-.1.1-.1-.1.1-.1-.2-.1-.1-.2-.1-.1v-.1l-.1-.1v-.2l-.1-.1.1-.1-.1-.2v.1l.2-.1v-.1l-.2-.1v-.2l-.1-.1v-.4h-.3v-.2l.1-.1.1-.1v-.1l-.1-.2.2-.1-.2-.2.2-.1-.1-.1v-.1l.1-.1h.1l.2-.1.3-.3v-.1l.1-.2.2-.2v-.1l.1-.2V94l.1-.1v0h.2v-.1l-.1-.1h-.4l-.2-.3.1.1.1-.2h.1l-.1-.1v-.1h-.2l-.2-.1h.3l.1.1h-.1v-.5l-.1-.2.1-.1v-.1H16l-.1.1v.1l-.1-.1.1-.1.1-.1v-.2l.1-.1h-.5l.3-.3v.3l-.2.1-.1-.1v-.1h.3l.1-.1-.2-.1v-.1H16l-.1-.1h-.3l-.1-.1-.1.1-.1-.1H15l.2-.2-.1-.1h-.3v.2h-.1l-.1-.2h-.2l.1-.2h-.2l.1-.1h-.2l-.1-.1-.1.1h-.1v-.2l-.1.1v-.2l-.2-.2-.1.2h-.1l-.1.1h-.1v0l-.2-.1-.2-.2-.1-.3-.1.1v.2l-.2-.2v-.2l-.1-.1v-.1h.1v-.1h.1l.1-.1-.1-.1h0l.1-.1h.1l-.1-.1.1-.1v-.2l.2-.1v.2H13v-.1h.2l.1-.2.1.1v-.2l.1-.1v-.1l.3-.1.2.1h.1l.1-.1h.1l.3-.2.1-.1H15v-.3l.4-.3.3-.1v.1l.1-.1L16,87l.1.1.4-.1v-.1l.3-.3h.1v-.1h.2l.1-.2v-.4l.2-.1-.2-.2v-.3h.1v-.1h.1v-.5l-.2.1h.1l.1-.2v-.1l.1-.1v-.3h.2l.1-.3h.1v-.4H18v-.2l.2-.3v-.1h.2l.4-.5-.2-.1.1-.2-.1-.1v-.1h0l-.1-.1.1-.1v-.2h.2l.2-.3h.1l.1-.2v-.1h.2l.1-.1h.1v-.3l.1-.1.1-.2.1-.1v-.1l.1-.1.3.1.1-.1h.2l.1.1.1-.2H21l.2-.5.3-.3.1-.3-.1-.6.1-.5v-.4l-.2-.5v-.3l.2-.5v-.4l.2-.3v-.2l-.1-.2.2-.2.2-.1h.1l.1-.3v-.2l.1-.1.2-.2.1-.1.4-.1.3-.4.3-.1v-.2h.1v-.1h.3l.1-.1v.1l.2-.1.1.1.2.1.2-.1.1-.1.1-.2-.1-.5.2-.2v-.2l.1-.1h.1v.5l.2-.2v-.1l.2-.2.3-.1-1.6-1.3h-.1v-.1h0l-.1-.2v-.1l-.1-.3V69l.1-.1v-.8l-.2-.3H24l-.1-.3-.3-.2h-.1v-.1h-.1v-.1l-.1-.1v-.2h-.2l.1-.2.1-.2v-.1l-.2-.1h.2v-.1l-.1-.1.1-.1-.3-.2h.1v.1l-.1-.2.1-.2-.1-.1h-.1l-.2-.3-.2.1-.1-.1-.1.1-.1-.1-.1.1-.2-.1-.2-.1v-.1h0l-.1-.1v-.1h-.1v-.1h-.1v-.2l-.1-.1-.1.1.2-.1-.1-.2h.1l-.1-.1.1-.1-.1-.1h.1v-.1h-.2l.1-.1v-.1h-.1v-.1h.1v-.2h-.1v-.2l-.1-.3.1-.1-.2-.1.1-.1V62l-.1-.1h.1v-.3h.1l-.1-.1.1-.2h-.1l.1-.1-.1-.2.1-.1-.1-.1.1-.1h.2l-.1-.1h.2l-.1-.1h.1l-.1-.1.1-.1v.1l.1-.1h.1v-.1l.3-.1V60l.2-.3.2-.2v-.2l.1.1.1-.1.1-.1.1-.1L23,59l.2-.5h.3l.1-.1.1-.1h.1l.1-.1v-.1l.1-.2v-.3l-.1-.3.1-.1h-.8l.1-.1v-.2l-.1-.3-.3-.1-.2-.2v-.2l-.1-.2v-.2l-.2-.3v-.5h.1l.1-.1.1-.1h-.1v-.1h-.2l-.1-.2v-.1l-.1-.1v-.1h.2l-.1-.2.1.1.1-.3-.2-.1v.1H22v-.1l-.1.2h-.1l-.1-.2-.1.1-.4.1-.1-.4-.1-.1-.1.1v.1h-.2l-.1-.1-.1.1-.2-.1-.2.1-.1-.1-.1-.1-.3.1h-.1l-.1.2-.2-.1h-.1l-.2-.1-.2-.1h-.5l-.1-.1v.3h-.2l-.1-.1-.1.1h-.1l-.3.3-.2-.1.1.1-.1.3h.1l-.1.1-.3-.2H17l-.1-.1v-.1l-.1-.1v-.1h-.2l.1-.3-.1-.1-.2-.1-.1.1h-.1l.1-.4h-.1v-.3H3.1l-1.6-.1v-.1h.3V52l.1-.1v-.1l.1-.3v-.2H1.9v-.2L1.8,51h.1v-.6l.2-.1V50l.1-.2-.1-.2.1-.1.1-.1v.1l.1.1v.1h.2l-.1-.2.1-.3-.1-.1v-.2l-.1-.2v-.1l.2-.1v-.1H2.5l-.2-.2v-.3l.1-.1h.1v-.6l-.1-.1.2-.3-.1-.2.1-.1-.1-.3.2-.2v-.2l-.2-.2v-.5l.2-.4-.1-.1.1-.1.1-.5H2.6v-.1l.1-.1-.2-.1-.1-.1H2.2l-.1-.2V43H2l-.1-.3H1.6l-.1-.2H1.4l-.1-.2.2-.1-.2-.3-.2-.3-.1-.2v-.6l.4-.1-.1-.1v-.3l-.3-.1v-.1H.7V40l.1-.5v-.2l.1-.2v-.2H1l-.1-.3.1-.1v-.1l.3-.2.2-.5v1.1l.2-.1v-.3l-.1-.1.1-.2h.1V38l-.1-.1.1-.1v-.4l.2-.2v-.4l-.1-.3v-.3l-.2-.1.1-.2v-.1l-.2-.1-.2-.1.3-.4v-.3l-.4-.2H1.2l-.1-.1.4-.2.1.1h.2l.1-.2.3-.1V34l-.1-.3h.2l.2-.4.1-.1H2.5v-.1l-.1.1H2.2L2.1,33l.1-.5v-.1H2.1v-.1H2v-.4H1.9v-.2l-.2.1-.3-.3v-.1l.4-.1L1.3,31l-.1-.1-.1-.1v-.1l-.1-.1.3-.3h.1v-.2l.1-.1-.2-.3.2-.1-.2-.1-.2-.2H.8l-.2-.1v-.1l-.2.1v.5l.1-.2.1-.1-.1-.2.1-.3v-.1H.4Z"/></g></g></svg>