<svg xmlns="http://www.w3.org/2000/svg" viewBox="0 0 154.4 125.77"><defs><style>.cls-1{fill:#ca0000;stroke:#fff;stroke-miterlimit:10;stroke-width:0.8px;fill-rule:evenodd;}</style></defs><g id="Camada_2" data-name="Camada 2"><g id="svg2"><path id="path62" class="cls-1" d="M.6,77.87l-.1-.2.2-.3-.3-.3V77l.1-.1.1-.5L.8,76l.1-.1.3-.7.1-.2.2-.1h.1l.3.1h.3v-.5l-.1-.2-.5-.6v-.2l.2-.2.2-.1.5.2.8.3h.1l.2-.2v-.1l-.2-.3-.5-.4-.1-.1.1-.2v-.1l.2-.2.1-.4.2-.3v-.3l.1-.2v-.1l.2-.3.4-.4h.3l.3-.4.1-.2v-.3l.1-.2.7-.2.1-.2-.1-.3.1-.1H6.9l.2-.2.4-.2v.6h.1l.2-.4.4-.5v-.4L8.1,67l.1-.3-.2-.5V66l.2-.1.4-.2h.1l.3-.4.3-.7v-.1l.1-.1.3-.1h.2l.1-.1.3-.7.5-.6.2-.2.2-.1.1-.1.2-.1.3-.1.5.1h.3l.5-.3,1.1.2.3-.3.2-.2.2-.5.1-.1h.7l.1.2.5.1h.4l.3-.2h.1l.1.1.1.1h.2l.2.2H18l.3.1h.2l.1-.2.1-.2.2-.1.2.1h.1l.2-.1.3-.2.2-.1h.3l.3.2h.1l.1-.2-.3-.3.1-.1v-.1l.3-.1.7-.1.2.1.1-.1h.1v-.1l.1-.1-.1-.4.1-.1h.1l.2-.1.3.1h.1l.1.1v.6l.1.3.6.6.2.5h.1l.2.1.3-.1.1-.1.1-.3.3-.3.2-.5h.1l.3.1.1-.1.1-.3.1-.1.1-.1h.1l.3-.1.1-.3.2-.4.2-.2.2-.1.1-.1v-.2l-.3-.2v-.1l.1-.1.3.1.4-.1.1-.1.4-.3h.3v.1l-.1.1v.1h.2l.1.1h.2v.1l.4-.2.1-.2v.5l.3-.2.3.1h.1l.1-.2h.1v-.3h.1l.1-.1.2-.1.3-.3h.3l.1.2h.4l.1.2.5.1.1.1.1.5h.2l.2-.3L33,58l.2.1.3-.2.3.1.3-.1.2.1.2-.1h.6v-.2l.1-.1.5.1h.1l.1-.1h.3l.1.1v.2l.1.1h.3l.2.2.3-.2h.1l.1.1-.1.2.1.1.5-.3.2.1.2-.1h.2v.2h.6l.2-.1.1.1h.2l.1.2H40v-.1l-.2-.1v-.1l.4-.3.2-.2h.2l.1.2h.4v.2l.1.1h.4l.3.1h.2v.2l.2.2v.2l.3.1.2.1.3.1h.3l.1-.1.1-.2h.1l.1.1.1.2.2.1.2.1v.1l.1.1h.1l.3-.2v.5H45v.3l.1.1.1-.1.2-.1h.1l.1-.3.1-.1.4.2.1-.1.1.1h.1l.1-.1v-.1l-.1-.1.1-.1v-.1l.1-.1.1.1.2.1H47v-.1l-.1-.1.1-.2v-.2l.2-.1.1-.1.1.1h.1l-.1.1.1.1h.1l.1.1.2-.1.1-.1h.2v-.1l-.1-.1.1-.2.1-.1h.1l-.1-.2h.4v.2h.2l.2-.2v-.1h.2l.2-.5h.1l.1.1v.1l.2-.1H50v-.1l.2-.2-.2-.1-.1-.2-.1-.1.1-.1.2-.1-.1-.2.2-.1v.1l.1.1v-.3l.2-.2h.2l-.2-.1h.2l.1-.1.1-.2H51l.2-.2h.1v.5l.1.1V56l.2-.1v-.2l.2-.1.1.1.1-.1h.1l-.1-.1.1-.1v-.1l.2.1v-.1h.1l.2-.2h.1l.1.1h.1v.2l-.1-.1.1-.2h.2v.1l.1-.1h.2V55h-.2l.2-.1v-.2l.1.1.1-.1h.2v-.1l.2-.1v-.1h-.1v-.2l.2.1.1-.1.3-.2h.1l.2.1-.1-.2h.2l.1-.1v-.2l-.1-.2h0l-.1-.1.1-.1-.1-.1-.2-.1v-.1h-.1v-.3h.1v-.2l-.3-.2V52H50.2v-.1l-.1-.1h.1l-.1-.1.1-.1h-.1l.1-.1-.1-.1H50l-.1-.1H50l-.1-.1L50,51l-.1-.1v-.2l-.1-.2-.1-.1.1-.1.1-.1.1-.1h.1l-.2-.1H50l.1-.1-.1-.1v-.1l.2-.1v-.1l.1-.1v-.1l-.1-.1v-.1l.1-.1.2-.2.1-.2v-.2l.1-.1h.1v-.1H51l.2-.2v-.2h-.1v.4h.2v-.5l-.1-.2-.2-.3-.3-.3-.1-.2-.1-.2-.2-.1-.3.1-.3-.1-.2-.1h-.2l-.2.1-.5.1-.1.1h-.2l-.1-.4-.2.3-.1-.1h-.1v-.6l-.1-.1-.1-.2-.3-.1h-.1l.1-.2h.2v-.3h-.1v-.1l-.1-.1h.2v-.1h-.1v-.1l-.1-.1h.1v-.2l.1.1.1-.1v-.3l-.1-.1.3-.2h-.1v-.1l.2.1v.1H48v.1l.3-.1.1.2.1-.1-.1-.1h.2v.1l.1-.1-.2-.2h.1v-.1h.1l.1-.1.2.1v-.1l-.1-.2L49,43v.4l-.1-.1h-.1v-.1l.3-.1V43l-.1-.1h.2v-.2h.2l.1.1.1-.1-.1-.1h.1l-.1-.2.1-.1h.3v-.2L50,42v.1h.1V42l-.1-.1-.1-.1h.3l-.2-.1.1-.1-.1-.1h.3l.1-.1-.1-.1.1-.1v.1l.2-.1.1.2.1-.1-.1-.1.2-.1.2.1L51,41l.1-.1v-.1h.1l-.1-.1.1-.2.1.2v-.3l.1.1v-.1l.1.1h.1v-.2l.1-.1.1.1h0v-.1h.1v.2l.3.1-.1-.1.1-.1.1.1.1-.1h-.1v-.1h.1l.1-.1v.1l.1-.1h-.1v-.3h.1v.1l.2.1-.1-.1h.1v-.1l.1-.1v0l.1.1v-.1h.1l-.1-.1h.2l-.1-.1.2-.1h0l-.2.1v-.1h.1v-.1H53l.3-.1.1-.1-.1-.1-.2-.1v-.1l-.1.1-.1-.1.1-.1-.2-.1.1-.1-.1-.1-.1.1v-.1l-.1-.1.3-.1-.1-.1h-.1l-.1-.2h-.1l-.2.1.1-.2h-.1l-.1-.1h.1l.1-.1h-.1v-.1h-.1l-.1-.2h.2v.1l-.1-.3.2-.2-.3.1v-.1l.1-.1-.2-.1v-.3h0v-.1h-.2v-.2h0l-.1-.1.1-.2.1-.1-.1-.1h.1v-.2l-.2-.1h-.2l.1-.1v-.3l-.1.1-.1-.1.2-.1-.1-.1h0l-.1-.2-.1.1-.1.1-.1-.1v-.2H51v-.1l-.1.1v-.2h-.1l-.1.1v-.1l-.1-.2-.1.1.1-.2-.1-.1v.1l-.2.2-.1-.1.1-.1-.1-.1h0v-.1H50v-.1l-.2.1v.1h-.1v-.3h-.2v.1l-.1-.1v-.1h-.2l.1-.1h-.1l.1-.1h-.1l.1-.1-.1-.1-.1.1L49,33v.1l-.1-.1.1-.1h-.2v-.2l-.1-.2-.1-.1h0v-.5l.1-.1.1-.2.2-.1.1-.3-.1-.4.1-.1.1-.1.2-.1.3-.5.1-.2h.1l.1-.3.1-.1v-.2l.1-.1-.1-.1.1-.2.2-.1v-.1h.1l.1-.3-.1-.3h.1l-.1-.1-.1-.1h.1l-.1-.2h-.2l.1-.1v-.1l-.1-.1h-.1l.1-.1-.1-.1.1-.1h-.1v.4l-.1-.1.2-.1v-.1h.1l-.1-.1.1-.1v-.3l.1.1v-.1h.1v.1l.1-.1v-.1h.1v-.1l-.1-.1.1-.1v-.3h-.1l.1-.1h-.1l.2-.1v-.2H51v-.1l.1.1v0h.3l.1.1.2-.1H52v-.1l.1-.1.1-.1v-.1h.1V25h.2v-.2l.1.1h.1l.1-.1h0l-.1-.1h0v-.1h0l.1-.2.1.1v-.1H53v-.1h.1l.1-.1h0l.1.1-.1.2.2-.1.2.2.1.1.1-.1.1.1.1-.1.4-.3,1.3-.3,1.8-.5h.2v-.1l.1-.1v-.2l-.3-.5.1-.1-.1-.1.2-.4-.2-.5v-.3l-.3-.3-.2-.4.1-.5-.1-.2.1-.2v-.1l-.4-.1v-.1h-.1l-.2-.2-.3-.1-.4-.3V18l.2-.5V17l.3-.4.2-.2.2-.1.3-.1.2-.2v-.1l-.3-.1.2-.2h.2l.1-.4-.5-.5h-.6v-.6H56l-.1.1-.2.2-.2-.4.1-.1-.1-.3.3-.4.1-.3.2-.4.1-.2.1-.1-.2-.1v-.2l-.2-.1-.2-.2v-.2l.1-.1.7-.5.1-.2.5.1.5.1.4.2.4.1.4.2.3.1.4.3.2.1.2.1.3-.1h.1l.2-.1.2.1.2-.2.1-.1h.1l.2-.2h.1l.2.1.1-.1-.1-.4-.1-.1v-.1l-.2-.1.1-.3.1-.1V10l-.2-.1-.1-.1v-.2l-.1-.2.1-.5.1-.2.2-.5-.2-.3h-.1l-.3-.1v-.2l-.1-.2v-.2l.3-.2v-.3h.1l.3-.1.1-.1.1-.1-.1-.2.1-.2.2.1.3-.1v.1l.1.3h.3l.2.3.4.2.4.4h.1l.1.1h.1l.3.1v.2h.2v.5l.1.1h.2l-.1.3-.1.1v.1l-.1.2h.1l.1.1h.2v.2l.1.1h.4l.2-.1h.2l.1.3H66v-.1h.1l.4.2.3-.3-.1-.3h.1v.1l.2.2h.1l.1-.1h.2l.1.2h.3l.1-.1L68,9l.2.1.2-.3.1-.2h.1v.1h.2l.3.3-.1.4h.2l.1.2.3.1v.7l-.1.1v.6l-.5.5-.1.1v.2l-.2.1v.2l-.2.1-.1.2v.1l.1.1v.2l-.1.1v.1l-.2.1h-1v.1H67l-.1.1h-.3v.2l.3.2v.3l.1.2.1-.1v.1l.1.2.4-.1-.1-.1.1-.1.1-.1.1-.1v-.2l.1-.1v.7h.7l.1-.3-.1-.1h.2v-.3l.2-.2.5-.1.6.4.1-.1h.1v-.1h.2l.1-.1h.1v-.1h.1v-.1h.1l.1-.1.2.1.2-.1.2.1h.5l.1-.1v0h.1v-.1h.1v-.2l.1.1v-.1h.3v-.1H73v-.1l.2-.3.1-.2-.1-.1.1-.2h.1V12l.1-.3.1.1v.1l.2-.1.1-.1.1-.3h.1v-.1h.1v-.2l.1.1v-.1l.3-.3v-.1h.2l.1-.1h.2l.2.2h.1l.2-.1.2.2.3-.2h.1v.1h.1v-.1l.1-.1h-.1l.2-.1.1-.2h.1v.1h.1l.3-.2.3-.3h.1v-.2l.1-.1v-.1l.1.1h.1v-.2h.3l.1-.2.1.1.1-.2-.1-.2.1.1h.1v-.1h.3l-.1-.1v-.1l.2-.1.1-.2.1.1.1-.2.1-.1.1.1.2-.2v.3l.2-.1.1-.2.3.1v-.1h.2V8l.2-.1-.1.1.2.1.8.1h.1l.1-.1.2-.3.2-.4.1-.1v.1l.1-.1v-.2l.5-.2v-.1l.2.1v-.2h.2l-.1-.1.2-.2.1.1.1-.1h.1v-.1h.1l.3-.1v-.1h.1V6h.2l.1-.1h.2v0l.2-.3h.3v-.2l-.1.1h-.1v-.2l.1.1v0l.1-.1h.3l-.1-.1h-.1l.1-.1L85.2,5h.1l.1-.1-.2-.1v-.1l.3.1.1-.1-.1-.1h.3v-.1h.1l.1-.1h.3l.1.1.1-.1v-.1h.1l.2-.1V4l.1.1.1-.2V4h.2v-.2h.1v-.2h.1v-.1l.2.2v-.2l.1.1.1-.1-.1-.1.1-.2h.1l.1.1.1-.1H88l.1-.1.1.1.1-.3h.1l.1-.1h.2l.2-.2.1-.1v0h.2v-.1h.1v-.1l.2.1h.4l.1-.1v.1l.1-.1.1.1h.1l.1-.1.1-.1h.1v-.1l.1.1.1-.1L91,2l.2-.2.3-.1.1-.1h.2v.1l.1-.1v-.1l.1.1.1-.1h.1l.1-.1h.1l-.1-.1h.2v-.1l.3-.1.3.2.1-.1h.6l.1.2h-.1l.1-.1.1.1v-.2h.3V1l.1.1v.2h.1v.1h.3l.2.2h.1v-.2l.4.1v.2h-.1l.1.1.2-.1.1-.3h.1v.2l.1.1h.1l.1-.1v.1h.1v-.1h.1v.2h.2l.1-.1v.1h.1l.1.1v-.1l.1.1.1-.2h.2v-.1h.3l.2.1v.1l.1-.1H98l.1.2h.1v0h.1l.1.2.1-.1.1.1V2h.1l.1.1V2l.1.1V2H99l.1.1v.1h.2l.1.1v-.1l.1.1.2-.1v.1h-.1l.1.1.1-.1v.1l.1-.2.2.1h.1l-.1.1h.1v.1l.1-.1.1.2h.2l.1.1-.3.4v.1l-.2.2L100,4l-.1.3-.1.1-.4.8-.1.5v.1l-.1.3v.2l.1-.1v.3h.1v.2l-.2.1.2.1h-.1l-.1.1h.1l-.1.1.1.1v-.1h.1v.2h.1l.1.1h.2l.5.2h.3l.1.1h.2l.1.1h.4l.1.1.1.1v.1l-.1.1v.1h.2l.1-.1h.2v.1h.2l.1.1.1.1.5.1.2.1h.1l.2-.1h.2l.1.2.5.3.1.1h-3.1v.2l.1.2h.1l.1-.2.1.1v-.2h.2l.1-.1h.3v-.1l-.2-.2.1-.1h.2l.1-.1-.1-.2.1-.1h.2v-.1l.1-.1h.1l.1-.1.1.1.3-.2.4-.2h.3l.2-.2.1-.1h.1l.2-.1.1.1h.2l.1-.1v-.1l.6-.1h.4l.1-.1h.1l.2.1v-.1l.4.2h.3l.2.2h.1v-.1l.1.1.2.1.1.2.1-.1h.1l.1-.2.1.2h.1l.2-.1h.1v.1l.3.2.1-.1.3.1.1-.1.3.2h.2l.1.1.1.3v.1h.1l.1.1v-.1l.1.3h.1v-.1l.1.1.1.1h.1l.1-.1.1.1h-.8V9l.2.1.1.2h.2v.1l.1.1.4.3.2.2.5.1.1.2.2.2.2.1v.1l.2-.1h.1v.1h.1l-.1.1.2.1.1.1.1-.1.2.2v-.7l.1.2h0l.3.2.2.2.1-.2.2-.2.2.1.1.1.1.1.2.3h.1l.3.1v.2h.3l.3.2.3.4h.5v.2l-.1.4.4.1.3.2.3-.1.1.1.2.3.3-.3h.1l.1.2.1.1.4.1.1.2.1-.1.2.2.2-.2.3-.2.2.1.2-.1.1.1.2-.1v-.2h.1l.1.2h.2v.2l.1.1.1.1.2.1.2.2.1.3h.1v.3h.2l.2-.1.5-.2.5-.1.1.1h.2l.4.2.3-.1v-.2h.2l.1-.1h.2l.1-.1.2-.1.1-.3h.2l.2-.1.4-.1.1-.1h.1l3.3,3,1.3,1.2,1,1,.4.3v.1l.3,1.9.1,1.5h.4l.2-.1h.1l.2.2.3-.1.2-.1h.3l.3.2h.1l.3.1.2.1.2.1.1-.1.1-.3h.1l.4-.1.3-.3.3.1.3-.2h.4l.3-.3h.1v-.3l.1-.1.1-.1v-.2l.2.2h.6l.1.5h.3l.4-.1.1-.1.1.1.1-.2h.1v-.4h.2v.1l.4.2.1.2-.1.2.1.2.2.1.3-.1.1-.1h.1l-.1-.2.1-.2h.2l.2-.1h.1v.1h.1l.2.3v.1l.3.1.2.4h.1l.1-.2h.1l.2.3h.1l.1.1v.1l-.1.1.2.1v.1l.4.1-.1.2.1.2h.2l.2-.1h.3v-.2l.1-.2.2-.1.1.1.1.1.1-.1.2-.3.1.1h.1l.3.3.1.4.1.1v-.1l.2.2v-.1l.1.1h.2l.1.1.1-.1.2-.1.1.1h.1l.1.1.1-.1h.5l.2-.1.1.1.1-.1h.2l.2-.1h.1l.1.2v.1h.1v.2h.1v.1h.1V24h.1v.1l.1-.1.3.2h.1v.4l-.2.1.1.1.1-.1v.1h.1v-.1h.2l.1-.1v.2h.1l.2-.1.1.1h.2v-.1l.2-.1v.1l-.1.2.1.1h.1l.1-.2h.1l-.1.3v-.5h-.1v.1l.1-.1.1.1v.1l.1.1H151V25h.2l.1.1h-.1l.1.1h.2l-.1.1h.1v.1h.1v-.1h.1l.1.2h.1v.1h.1v-.2h.2v.2h.3v-.2h.5l.1.1h0l-.2.3v.1h.2l.3.3v.2l.2.1.1.2v.2h.2v.2l.1.1v.2l-.3.2v.1h-.1l-3.4-.3h-.1l.1.2h.1l.1.2-.1.4-.2.1v.1l-.2.1v.1l-.3.4.1.2.1.1.1.3h-.3l-.1.1-.2.1-.1.4h0l-.1-.1H149V30h-.1l-.1.1v.2l-.2.1v.1l-.1.1-.1.1-.2.5-.1.2v.1l-.1.3h-.2V32l-.1.2-.2.1-.1-.2h-.1l.1-.2-.1-.2-.1.2-.1.3-.1.2h-.1l-.2.4-.3.3-.1.1h-.1v.2h-.1l.1.1h.1v.3h.1v.3h-.2v-.7l-.1-.1v.1h-.2l-.3-.2h-.1l-.1.1v.1l-.1-.1-.1.1H145l-.2.4v.1l-.1.2-.1.5-.2.4v.2l.1.1.1.1-.1.2v.3l-.2.1-.2.5-.2.1.2.1.2.1h.4l.1.1.2-.1.2.1v.2l.1.1v.2l.1.1-.1.1v.1h-.1v.1l-.1.1v.3l-.1.2h-.2l-.1-.2-.2.2h-.1l-.1.1-.2-.2H144v-.1l-.3-.2-.1.1-.3.1h-.1l-.1.1h.1l-.2-.1h-.3l-.1-.1V38h-.3l-.2.1v.3l-.2.4-.2.5-.3.3h-.1l-.1.4v.2l-.3.5V41h.2v.1l-.1.5-.2.3.1.5.3.1v.2l-.2.2.1.3-.1.1h-.1v.2l.1.1v.2l.3.2-.4.1-.2.3h-.1v.2h-.2v.2l.2.1-.2.2.1.1v.4l-.4.2.3.2.1.1.3-.1.2.1.2.2.5.1v.2l.2.3h.1v.2h.2v.3l-.1.2.1.1.1.1.2.5.3.2.2-.2h.3l-.1.1.1.2h-.1v.3l.2.1.1.2.2-.2h.1l.2.3.1.2.1-.3V49l.1.1.1.2.2.1-.1.2.1.1.2.1.1.1v.3l.1.1h.1l.1.3.1.1.3-.1.1.2h.3l.2.3-.1.2.1.2-.1.2.2.2.1.2-.1.2.1-.1.2.1.1.2v.1l-.5.6-.7.4v.1l.1.1.3.2.2.1v.4l-.4-.2-.2-.1h-.1l-.3-.2v-1.6l-.2.1-.1-.2h-.1l-.2-.2h-.2l-.1.1-.2-.1-.1.1h-.2v-.1H143l-.4-.1-.1.2-.3-.3h-.3l-.2-.3h-.1l-.3.2-.3.2h-.3v.3h-.4v.2l-.1.2.1.1-.2.1v.2l-.3.1-.1.2-.1.1-.2-.1-.1.1-.1-.1-.3.2.3-.2v-.2h-.4l-.1.1-.2-.1h-.2l.1-.3h-.1v-.1h-.1l-.2.1.1-.2-.1-.2h-.1l-.1-.1-.1.1-.1.1-.1-.1h-.1l-.3.4-.1.1-.1-.1h-.1l-.1-.2-.1.2h-.1l-.1.1,1.7,1.6.1.6-.4.1-.1-.1-.3-.1H137l-.1-.1h.3v-.2l-.2-.1h-.2v-.2l-.1.1-.1-.1v.1h-.1l-.1.1-.2.2h0l-.1-.1H136v.4h-.1l-.1-.1-.2-.1-.1.1-.1.3h-.2v-.2H135l-.1.3h-.1l.1-.2-.3.1v.2h-.2l-.4.2V56l-.1.1v.1l.1.1v.1h-.1v.2l.1.1-.5.4-.3.3h0v.4l.1.1v.6h-.2v.4h.3l-.2.1-.2.1-.2.3.1.1,1.2.1h.4l.5.1h.1v.2l-.1.8V61h-.1l-.1.7.1.1v.1l-.1.1-.1.1h-.1v.1l.2.1-.1.1.2-.1v.1h.1l-.1.1h.2l.2.2h.2l.1.1.5.1.1.1.1.5v.6l.2.2-.1.1.2.1v.2l-.1.1-.1.1-.1.1-.1-.1-.1.1-.2.1h-2.1l-.2-.3v-.4l-.1-.1-.1-.2-.2.1h-1l-.2.3.1.2-.1.2h.1l-.1.1.1.1h.1l.2.3.1-.1V65l.2.2h.1l.3-.1.1.1.1.2v.1h.2l.2.1.1.2.1.1v.2h.1l.1.1.3.1v.1h.2v.1l.1.2h.1v.1l.1.1h.3l.1-.1V67h-.1l-.4.3h-.2v.2l-.1.1.2.2-.1.2.1.1h.1v.2h.3l.1.2.1-.1h.1v.2l.1-.1v.3h.3l.1.1.1.1v.1h.1l.1.1v.2h.2l-.1.2.1.1.1.1V70h.1v.1h.1l-.1.1.1.1v.2l-.1.1h-.4v.2l.1.1-.1-.5h.1l.2.1v.3h-.3l-.2.1.1.1h.2l-.1.1v.1h.3l.1.1-.1.2h-.1l-.1.1h-.1l-.1.3v.2l.2.1-.1.1v.1l-.4.3V73l-.1.1v.1l.1.1v.2l.2.1-.1.1v.1l-.3.4v.1h-.4l-.3-.1-.3-.1v.2l.1.2-.1.3.1.2.1.2v.1l-.3.1v.1h-.3v.2h-.1l-.1.1h-.1l-.1.5-.1.1h-.2l-.1.2-.2.1H133l-.1.1-.1.3.1.1-.1.1v.3l-.1.2.1.1-.2.1v.2l.2.1.1.2h-.1v.1l.2.1-.1.2-.1.3h-.1l.1.2v.1h-.1V80l-.1.1-.2.2-.1-.1-.3.1v.2l-.2.3h-.1l-.1-.1-.2.1H131l-.1.1-.1.4-.1.1.1.2v.1l.1.2-.2.2v.3l-.1.1-.1.1v.1l-.1.3-.1.1v.2l-.1.2.1.1-.2.2h.1l-.1.1-.1.2-.1.1v.1l-.1.3-.3.2-.1-.1-.1.1v.1h-4.2V85l-.1.1v.5l-.1.1-.1.3.1.1-.1.1h-.3v.1l-.1.1-.2.1-.1.1-.1.1h-.2l.1.2-.2.1v.1l-.1.3h.2v.1l.2.5.5.1V89l-.1.2v.3l-.1.1.1.3v.2h-.2l-.1.1v.1l-.2.3v.2l-.1.1-.1.1v.1l.1.1h.5l-.1.2.1.1v-.1l.1.1-.1.1-.1.1h0l.1.1-.2.1-.1.2-.1.1v.1l-.1.1-.1.1.1.1-.1.1h-.1l.1.1.1.3h-.1V93h-.2v.4l-.1.1.1.1-.1.1h-.2l-.1.1h-.4l.1.1-.2.4.2.2-.1.1-.1.1-.2.1-.1.1.1.1-.2.1v.2l-.1.1.1.1-.1.2v-.1l-.1.1v.2l-.3-.1-.1.1-.3-.1h-.2l-.1.1-.3.1h-.3l-.1-.1-.2.2-.1.1v.1h-.1l-.1-.1-.2.1-.2.2v.1l.2.1v.1l.2.2h.1l.1.1h.2l.2.2.1.1v.1h-.2l-.1-.1v.3l-.3.3v.1h-.2v.2l-.1.1v.1h-.4v.4h-.1l-.1.2-.1.1-.1.1v.1l-.1.1v.1h-.1l.2.4-.1.1v.2l.1.1v-.1l.1.1-.1.2.1.1-.1.1-.1.1-.2.1-.1.1-.1.1v.4l-.1.2v.1h.1l.1.1-.2.1.1.1-.1.1.1.2-.2.1v.1l-.2.1h.1l.2.1-.1.1-.1.1h-.2l-.1-.1-.1.1v.3l-.1.1v.2l-.1.2.3.1v.1l.2.3-.1.1-.2.1-.1.3h-.2l-.1.1v.1l-.1.1v.1l-.3.1v.1l.1.1-.3.2-.1.1-.3.4.1.1h.1l-.2.2.1.1h.3v.2l.1.1h.1l.1-.1h.3l.2.1.1.1h-.1l.1.2.1-.1.1.1v.5l-.5.2v.1l-.4.1h-.3l-.3.1h-.1l-.1.2-.9.3-.1.1-.9.4-.6.3v.2l-.2.1h-.2l-.2.1-.4.1-.3.1-.1.1-.5.2-.5.3-.1.1-.4.2-.7.2-.5.2v.1l-.4.4-.5.2-.2.1h-.1l-.4.3h-.1l-.3.1-.2.1v.1l.1.1-.1.1-.2.3-.4.1v-.1h-.4l-.3.1v.2l-.2.1-.1-.2-.1-.3v-.1l.3-.2v-.4h-.3l-.2-.1v-.1h.9l-.4.3-.1-.1v-.1l-.1.1h-.1l-.1-.1h-.1l-.1-.1v-.1l-.1-.1-.1.1-.1-.1-.1.1h-.2l-.3.1-.2-.1-.1-.1-.1.1h-.2l-.1-.1h-.1l-.2.1v.1l-.3.2-.4.3h-.2l-.1.1-.4.2h-.6v-.1l-.1-.1h-.1l-.1.2-.5.1-.1.1-.1-.1-.2-.1v-.3l-.1.1h-.1l-.1.2h.4v.2h0v-.2l-.1.1-.2-.2h-.2v.1h-.2v.2l-.1.1v-.1l-.1-.2h-.1l-.1.1h-.3l-.2.3-.1-.1h-.1v-.1l-.2-.1h.1l-.1-.1v-.1H98l-.4.3h-.2l-.2.1-.2.1-.2-.1-.1.1h-.1v.1l-.1-.1v.2h-.2l-.1.1-.5.2-.2.1h-.1l-.3.1v.1h.1l-.1.1H95l-.1.1-.2-.2h-.3v.1l-.4.1h-.1v.2h-.1l-.1.1v-.1l-.2-.1v.2l-.2.1-.1-.1v.4h0l-.1.1-.1-.1-.1.2-.1.1h-.3l-.1.2-.2.1h0v-.1l-.2.1v.1l-.2.1-.1.1-.1-.1-.1.1-.1-.4v.1l-.1-.1h-.1l-.1.1v-.1l-.1.2h-.2l-.1.1-.1-.1h-.4l-.1-.1-.2.2-.1.1h-.2V116h-.4l-.2-.1-.1.1h-.2l-.1.2v.2l-.1-.1-.4.4-.3.1v.1l-.2.1v.1h-.2V117l-.3.1L87,117l-.2.1-.1-.1h-.1l-.3.1-.1.1v.2l-.3.1v.1l-.2.2v.1l-.1-.1h-.2l-.2-.1-.2.1-.3-.2h.5l-.2.2h-.2l-.2.1h-.1l-.1.1h-.1l-.1.1-.1.2v.1l-.2.1-.2.1h-.3l-.1-.1h-.1l-.1.1-.2.1-.1.3h-.6l-.3.2-.1.1-.4-.1h-.5v-.1l-.2.1-.3.1-.3.2-.2-.1-.1.1-.2.1h-.1l-.1.1-.2.1h-.1l-.2.2-.1.1v.1l.1.1-.2.2-.4.1h-.1l-.2.1h-.1l-.5.3.1.1-.1.2v.1h-.1l-.1.1-.3-.1-.5.1-.1.1h-.2l-.1.2h-.2l-.3.2h-.3l.1-.3-.1-.1-.1-.1h-.2l-.1-.1-.1-.1h-.1l-.3-.2h.9l.1.1-.2.5-.2-.1-.4.3h-.1l-.1.1h-.1l-.4.1-.1-.1v-.1l.1-.1.3-.2-.1-.2h-.2v-.2l-.2.2h.1l-.1.1h-.2l-.2.3-.5.1-.2.1h-.1l-.2-.2.1-.1v-.1l.2-.2h-.1l.1-.2h.1l-.1-.2v-.1l-.2-.1-.3.2-.3-.1-.1.1v.1l-.1.1-.1.1.1.1v.1h.2l.1.3.2.1v.1h.1l-.3.1-.1.1-.2-.1h-.2v.1l-.1.1h-.1v.1l-.3.1-.1.1-.4.1-.1.4.2.2h.1l.3-.1.3-.1h.4l.2.3v.2h.1v.2l-.1.1h-.1l-.1.2v.1l.1.1.1.1h.1v.1h-.2l-.1-.1h-.1l-.1-.2-.1-.1-.1.2h-.2l.1.5v.1l-.1.1-.2.1h-.1l-.1-.1v-.2l-.2-.1v.1l-.2-.1v.1h-.3l-.1.2h-.1v.3h-.1l-.2.1h-.1v-5h-.1v-.3h-.2V120l.1-.2h-.1l-.2.1v.1l-.2.2h-.2l-.1.1-.1.1-.2.1-.2.1v.1l-.2.1-.1.1-.3-.1-.3.2-.4-.1-.3.1-.2.2h-.2l-.2.2-.2-.1.1-.1.1-.3v-.1l-.1-.3v-.1l-.1.1-.5.1-.1-.1-.1.1-.5.2-.1.2-.1-.1h-.2v-.2h-.3l-.2.3-.3-.1-.3.1-.1.1-.3-.1-.1-.2-.1-.1v-.1h-.1v-.1h.2l-.1-.3.1-.1L62,120v-.2l.2-.4.2-.1v-.1h.1v-.1l.1-.1v-.1h-.3l-.1.1-.2-.3h-.1v-.1l-.1.1h-.2l-.3-.2v.1l-.2-.1v-.1h1.1l-.1-.3h-.2l-.1-.1.1-.1-.1-.1v-.1l.1-.1.2.1v-.1l.3-.1.1-.1.2.1.1-.1.1.1-.1.1h.1l.2-.1v-.2l-.1-.1-.1-.1h-.2l-.1-.1v-.1l.3-.1-.3-.3.2-.2h-.3v-.2l.3-.3v-.2l-.1.1h-.1l-.2-.1v-.1h-.2v-.2h-.5l-.1-.1-.2.1v-.2l-.5-.2.1-.1v-.2l-.2-.1h-.1v-.1l.1-.1-.1-.1h-.2l-.1.1v-.1l-.1-.1h-.2l-.2-.1v.1l-.3-.1-.1-.1h-.1v.5l-.3-.1v-.1l.1-.3-.1-.1.1-.2H59l-.1-.2h-.2v-.2l-.1-.1V113h-.1v-.1h-.1l-.1-.1h.1l.2-.2-.1-.2.1-.1-.1-.1v-.1l.1-.1.1-.2.1.1-.1-.2.3-.2-.1-.1.2-.5-.1-.1h.4l.1-.3.4-.1.2-.2v.2h-.2l-.1-.3-.2-.1-.2-.2-.3.1-.2-.1h-.5l-.1-.1v-.2h.1l.1.1.2-.1h.2l.3-.1h0l-.2-.1-.2-.2.1-.2H59v-.1l.2.1.1-.1v-.1h.1l.1-.1.3.2h.1v-.3l-.1-.1-.1-.2h-.1l-.1-.1-.2-.3v-.2l-.2-.1.1-.2-.2-.2.1-.1h.1l.1-.1.1-.2-.1-.1v-.1l-.1-.1H59l-.1-.2.1-.2.2-.1v-.1l.3-.3-.1-.2h.1l.1-.1h.2v-.6l.1-.2-.1-.2v-.1l.1-.1v-.2l.5.1.2-.1v-.3l.2-.1h.1l-.1-.2.1-.1h.2v-.2l.2-.1v-.1l-.1-.1.1-.1v-.1l.1-.2v-.1l.1-.1h.1v-.1l-.2-.2-.1-.1-.1-.2.1-.1v-.2l.2-.2-.1-.1v-.2l-.1-.1v-.2h-.2l-.2-.1h-.2l-.2-.1V100l-.4.2v.1l-.2-.1-.1-.1.1-.1h-.1v-.1l-.1-.1h-.1l-.1-.2-.1-.1V99h-.2l-.1.2H59l-.1.1-.1.1-.2.3-.1-.2-.1-.1v.1h-.2l-.3-.2-.1-.1.1-.2h-.3l-.1.1-.1.1-.4-.1h-.2l-.1.1v.1l-.1.1h-.2v.1h-.1v.1l-.3.1.2.7h-.1l-.1.1h-.2v.1l-.1-.1-.1.1-.2-.1-.1.1-.1-.1h-.1l-.2.1v-.1l-.1.1-.1-.1h-.1l-.1-.1h.1v-.1l-.1-.2h.1l.1-.2-.1-.2.1-.1.1-.1-.1-.1-.2-.1-.1-.2V99l-.1-.2h-.1l.1-.1-.2-.2v-.1h0l-.1-.2v-.1h-.1l-.1-.2-.2.1v-.2l.1-.1v-.1l.1-.1h-.5v.1l-.1-.2-.2-.3V97l-.1-.1.1-.3-.3-.3.2-.1V96h.2v-.1l-.3-.1-.1-.1h-.1l.1-.3-.1-.2-.1-.3-.1-.3.1-.1v-.2l.1-.3-.1-.1-.2-.1-.1-.2H52l-.1-.2v-.2h-.3l-.2-.2-.2-.4.2-.5.2-.4-.2-.4.2-.1.1-.3h.1l.1-.1.1-.4h.1l-.1-.2.2-.2v-.1l.1-.1.2.1H53v-.1l.1-.1.1-.2v-.2l.1-.2v-.2l-.2-.1v.6l-.2-.1V89h-.1l-.2-.4.1-.1-.1-.2v-.2h-.1l-.1-.2-.4-.1-.2-.1h-.2l-.3-.3-.3-.1-.1-.2h-.2l-.3-.2v-.1l.1-.1v-.1h-.1v-.1l.1-.1h-.1l.1-.1h-.1l.1-.1-.1-.1.1-.2h-.1v-.3l-.1-.3.2-.1-.1-.1h.1v.1h.1v-.3l.1-.2h.1l.2-.3h.1l.2-.5v-.1l-.2-.3-.1-.2h-.1V83l-.1-.2h-.1l-.3-.1-.2-.4-.4-.1-.2-.2h-.2l-.2-.3h-.5l-.1-.3-.4-.2v.1l.2-.1V81l-.1-.2-.2-.2-.3-.3v-.1l-.1.1-.1.1h-.2l-.2.2h-.4l-.2.1v.1h-.4l-.2.1v.3l-.3.3h-.2l-.2.1-.2-.2-.1-.1-.2-.2v-.2l-.5-.4h.9l-.3.1-.2.1-.3-.1h-.5l-.5.2-.2-.1h-.1l-.2.3-.1.1v.3h.1l.1.1v.1l-.1.2v.4l-.1.2-.3.3h-.1l-.4-.2-.2-.3-.1-.5-.4-.3h-.1l-.1.1V82l-.1.2-.1.2-.2.3-.3-.1-.1.3-.4.2h-.3l-.3-.1-.2-.2-.3-.1-.1-.3h.4l-.1-.1-.1-.3-.3-.5-.2-.1-.1-.1H38l-.1.1.1.1-.1.5v.1l.5.5v.1l-.1.2h-.1L38,83h-.5l-.1-.1-.2-.2-.3-.1h-.3l-.2.1H36l-.4-.1-.5.1h-.2l-.5.2h-.2l-.3-.1h-.4l-.2.1-.4.4-.3.1h-.3l-.1-.1h-.3l-.5-.2h-.1l-.3.1-.4.1H30l-.3.2-.1.1-.1.3.1.2v.1l-.1.1-.2.2-.2.4v.4l.2.3-.1.5.2.5V87l-.2.4-.1.1h.1l-.8-.5-.1-.1.1-1.6V85l-.1-.7-.2-.5-.1-.2-.4-.1-.2-.1h-.2l-.1.1-.4.7-.4.8-.2.2-.5.4v.1h-.1l-.2-.1-.5-.1h-.1l-.4-.5v-.2l-.1-.3-.5-.8V83l-.1-.2v-.5l.2-.7.2-.2h.3l.2-.1v-.4l-.1-.1h-.1l-.5-.1-.3.1-.3.2-.3.1L21.8,81h-.3l-.4-.4-.1-.1-.2-.4-.3-.1-.4-.1L20,80h-.3l-.4.1-.3.1v.1H17.9l-.5-.1h-.7l-.5.1-.3.2h0l-.2-.1-.7-.3-.7.1-.2-.1h-.2l-.1-.1-.4-.4-.2-.1-.1-.1h-.6l-.3.1h-.1l-.1-.1-.4-.1h-.3l-.4.2-.5-.2-.4.1h.2l-.2-.1H9.7v-.2L9.4,79l-.5-.6-.3-.1-.3-.1-.2-.1-.2.1-.2.1H7.4l-.2.1-.2.2H6.5l-.1.2-.3.4-.2.1-.2.2-.3.5H5.3l-.2.1H5l-.6.2-.7.2H3.5v.1l-.3.2v-.4l-.1.1-.3.3H2.2V81l-.3.2-.2.2H1.4v.1l-.5.6-.1-.2-.2-.3.1-.1.1-.3v-.4l-.2-.5.3-.6v-.3l-.2-.3-.1-.2v-1Z"/></g></g></svg>