<svg enable-background="new 0 0 492.009 492.009" version="1.1" viewBox="0 0 492.01 492.01" xml:space="preserve" xmlns="http://www.w3.org/2000/svg">




<circle cx="246" cy="246" r="246" display="none" fill="#fff" stop-color="#000000" style="paint-order:stroke markers fill"/>
	
		<path d="m314.34 62.977-58.944-58.944c-2.672-2.672-6.236-4.04-9.92-4.032-3.752-0.036-7.396 1.36-10.068 4.032l-57.728 57.728c-5.408 5.408-5.408 14.2 0 19.604l7.444 7.444c5.22 5.22 14.332 5.22 19.556 0l22.1-22.148v81.388c0 0.248 0.144 0.452 0.188 0.684 0.6 7.092 6.548 12.704 13.8 12.704h10.52c7.644 0 13.928-6.208 13.928-13.852v-79.716l22.108 22.152c5.408 5.408 14.18 5.408 19.584 0l7.432-7.436c5.408-5.412 5.408-14.208 0-19.608z"/>
	

	
		<path d="m314.34 409.44-7.44-7.456c-5.22-5.228-14.336-5.228-19.564 0l-22.108 22.152v-79.404c0-7.648-6.288-14.16-13.924-14.16h-10.528c-7.244 0-13.192 5.756-13.796 12.856-0.044 0.236-0.188 0.596-0.188 0.84v81.084l-22.1-22.148c-5.224-5.224-14.356-5.224-19.58 0l-7.44 7.444c-5.4 5.404-5.392 14.2 0.016 19.608l57.732 57.724c2.604 2.612 6.08 4.032 9.668 4.032h0.52c3.716 0 7.184-1.416 9.792-4.032l58.94-58.94c5.408-5.404 5.408-14.196 0-19.6z"/>
	

	
		<path d="m147.25 226.78h-79.1l22.152-22.032c2.612-2.608 4.048-6.032 4.048-9.74 0-3.712-1.436-7.164-4.048-9.768l-7.444-7.428c-5.408-5.408-14.204-5.4-19.604 8e-3l-58.944 58.94c-2.672 2.668-4.1 6.248-4.028 9.92-0.076 3.82 1.356 7.396 4.028 10.068l57.728 57.732c2.704 2.704 6.252 4.056 9.804 4.056s7.1-1.352 9.804-4.056l7.44-7.44c2.612-2.608 4.052-6.092 4.052-9.8 0-3.712-1.436-7.232-4.052-9.836l-22.144-22.184h80.728c0.244 0 0.644-0.06 0.876-0.104 7.096-0.6 12.892-6.468 12.892-13.716v-10.536c0-7.636-6.544-14.084-14.188-14.084z"/>
	

	
		<path d="m487.7 236.76-58.944-58.936c-5.404-5.408-14.2-5.408-19.604 0l-7.436 7.444c-2.612 2.604-4.052 6.088-4.052 9.796 0 3.712 1.436 7.072 4.052 9.68l22.148 22.032h-79.508c-7.644 0-13.78 6.444-13.78 14.084v10.536c0 7.248 5.564 13.108 12.664 13.712 0.236 0.048 0.408 0.108 0.648 0.108h81.188l-22.156 22.18c-2.608 2.604-4.048 6.116-4.048 9.816 0 3.716 1.436 7.208 4.048 9.816l7.448 7.444c2.7 2.704 6.248 4.06 9.8 4.06s7.096-1.352 9.8-4.056l57.736-57.732c2.664-2.664 4.092-6.244 4.028-9.92 0.06-3.82-1.368-7.4-4.032-10.064z"/>
	

	
		<path d="m246.01 207.54c-21.204 0-38.456 17.252-38.456 38.46 0 21.204 17.252 38.46 38.456 38.46s38.46-17.256 38.46-38.46c0-21.208-17.256-38.46-38.46-38.46z"/>
	
















</svg>
