<svg xmlns="http://www.w3.org/2000/svg" viewBox="0 0 173.77 175.45"><defs><style>.cls-1{fill:#b8da6b;stroke:#fff;stroke-miterlimit:10;stroke-width:0.8px;fill-rule:evenodd;}</style></defs><g id="Camada_2" data-name="Camada 2"><g id="svg2"><path id="path86" class="cls-1" d="M.6,19.34H.8l.1.1.1.3h.1l.1.3h.1l.2-.1.1.1v.2h.1l.2-.2.1.1.1-.2h.2l.1.1.1-.2.2-.2.2.2.4-.5-.1-.1V19l.1-.4v-.1l.1-.1h.4v.2l-.1.1.2-.2.2.1.1-.1.2.1.1.1.3.1v.1h.1l.1-.2v-.1h.1l.1-.2v.1h.3l.1.3v.1l.1-.1.1.2v-.2l-.1-.1.2.1H6v-.4l.2-.1.1-.1v-.5l.2-.3-.1-.1v.1l-.3-.2.1-.1-.4-.2v-.1l.1-.1h0l.1-.1-.1-.2-.1-.1v-.2L6,16l.1.1h.2l.2-.1.2.2.1-.2h.8l.2-.2-.1-.1H7.6l-.1-.2v-.1l.1-.1-.1-.1V15l.4-.1.1-.1v-.1H8l.2-.1v-.1l.1-.1.1-.2.1-.1.2.1-.1.4H9v-.1l.3.1.1-.1.1.1v.1l.2.1.1.1.4-.3h.2v-.1l.2.1.3.1.1.2v.3l.1.2v.1l.3.1h.2l.2-.2H12v.1h.3v-.2l.1-.1.3.1.2.2v-.1l.3.2v-.2l.1-.1v-.1l.2-.3-.1-.1.1-.1h-.7l.1-.1-.1-.2.1-.2-.1-.3h.1v-.2l-.4-.2.1-.1h.1v-.1h.2l.1.1.1-.1.1.1.1.1h.6l.1-.2v-.1l.1-.1h.3V13l.4.2V13l.1-.2v.1h.3l.2-.1.1.1.1-.1-.1-.2h.1v-.3l.2.1.1-.2.1.1h.1v.1l.2-.1.2.1.2-.1.1.1h.1l-.1-.2h.1l.1.2v.3l.2.1h.2v-.1l.1.2.1.1h.1v.1L18,13v-.1h.2l.2.1.1-.1.2-.1h.1V13h.1l.1-.1.2.1v-.1h.2v-.2l-.1-.1.2-.1.1-.1.1.1v-.3l.1-.2h.1l.1-.1-.1-.3.1-.1h.1l.1-.1h.1l.4-.1v-.1l.1-.2.1-.1-.1-.2.2-.2-.1-.2.1-.1-.1-.1v-.4H21l.4-.1v.1l.2-.1.2.1h.1l.2-.3v-.1l-.2-.1.2-.1V9l.1-.2.1.1.2-.1.2.1.1-.3.4.2h.2l-.1.1.2.2.1.2h.1l.1.1.1.1v-.3l.3-.1.2-.3h.2l.1-.1h-1l.3.1.1-.2.4-.1v-.3h.1l.2.1.1-.1.1.1v.2l.1.1.1.1v.4l.1.2h.2l.2.1.1.1.1.2.1.2h.1l.1.1h.3l.1.1.1-.2.1-.1H27l.4-.1.2.2V10l.2.1.1.1h.4v.1l.2-.1.1.1h.1v.1h.1l.1.1H29l.2.1h-.5l.1.1v.1l.1.1v-.2l.2-.1.1-.1.1-.2.1-.1.1-.1.2-.1v-.1h.1l.1-.2.3.1.3.1v-.2l.1.1H31v-.2h.1l.2-.2.1-.1.2.2h.1l.1.1.2.3h.3l.1-.1h.2l.2-.1.1-.2h.3l.2-.3.2.1.3-.1.1.1h.3v.1l.2.2h.1l.1.1h.1v-.2h.3l.2-.1.2.1h.1l.2.2H36l.1.2h.2l.2.2.2.2.3.1.1-.3.3-.1.1.1h.4L38,10l.1.2h.2l.2.2.1.1v.2h.2l.1-.1.2.1.1-.1h.1v.2h.1v-.1H40l.1.1h.1l.4.2v-.1h.2l.1-.1.1-.1.2.1.3-.4.3-.2.2-.1v-.3l-.3-.2v-.2l-.1-.1.1-.1-.2-.5h.2l.1.1.1-.2v-.3l.1-.1V8l-.1-.1-.4-.2.1-.2v-.1h-.1l-.2-.2-.3.1L40.9,7l.1-.1h-.1v-.2l-.1-.1h-.1l-.1-.1.1-.1-.2-.3H40l-.1-.2-.1-.1H38.7v-.1l.2-.1.1-.2v-.1h-.1v-.1l-.1-.1h-.1l-.2-.2-.1.1-.1-.2-.2.1h-.2l-.1-.1-.1-.1-.2-.1v-.1l.2-.1v.3l.2-.2v-.2l.1-.1.2-.1V4l-.1-.1.1-.2v-.3l.1-.1h.1v.1h.1l.1.2.1.2.1.1.3.1v-.1l.1-.1v-.1h0l-.1-.1H39v-.2l.2-.1v-.1l.1-.2h.1l.1-.2.2-.1h0v-.1h-.2l-.1-.2-.1.1v-.2l.3-.2v-.2l.1-.1.1-.1-.2-.1v-.2l.1-.1.1-.1h.1l.5-.1.2.1v.1h.2l.1.1.1.1.1.1.1.2h.1l.1.1h.2v.2l.3.1.6.1.1-.1.2.1.1.2-.1.1-.1.1.2.3.4.1h.2l.1-.3.3.1.3-.1.2.1h.2l.2-.1-.1-.1h.1l.1-.1.1.1.2-.1.1.2.3-.1h.3v-.1l.4-.1.3.1h.7l.5.3.5-.5L48.1,2l.5-.5h.5l.6.2.4-.3.5-.5.7-.1.3.5.5-.4.7-.5.7.2.2.8.3.3.6.9-.1.1v.2l.1.1.1.1.7.8.1.2.1.3h-.1l-.1.2.1.1-.1.1v.3l.1.3.3.3.1.1L56,6h.1v.2l-.1.1v.1l-.2.1v.1l-.1.1-.2.1v-.1h-.1l.1.1-.1.2.1.2-.2.1.1.4h-.1v.2l.1.1v.2l.1.2.1.2.1.1.1.1.2.1-.1.2h.2l.1.1v.2h-.1v.1l-.1.2h-.1l.1.5.1.1v.2l.1.2h0l.1.1.1.1V11h.1l-.3.2.1.2-.1.1v.1l.1.1h0l.4.1H57v-.1l.1.1h.2l.1.1.3-.1h.1l.3-.2.2.1.1-.1.3.1.2-.1v.1l.5.1.1.1.1.1.2.1h.1l.1.1.2-.1V12l.2.1V12h.1l.4.1.2-.1h.3l.2.2.1-.3.4.2v.1h.1v.1h.2l.1-.1v.1h.3l-.1.1h.1l.1.1H63v.1l.2-.1-.1.1-.1.1.2.1-.5-.1h0l.1.1-.1.1.1.1v.1L63,13l.1.1h.2v.2l.2.1.2.1v.2l.1.1v-.3l.1-.2H64v.2h.3l.1.1v-.1l.1.1v.2h.2l-.1.1.2.2v.1h-.1v.1h.1l.1.2.1-.1.1-.1v.1l-.1.2-.1.2v.1h.3l.2.4-.1.2.1.1-.1.2v-.1h.2l-.1-.1.2-.1.1.1h.1l.2-.2.2.1.1-.1-.1-.1h.1l.2-.1.1.2v.5l.2-.1.2.1.1-.2.2.1V16l.1-.1.2.1h.1l-.1.2v.1l-.1.1v.1h.1l.2-.1v-.2h.3l.1.2h.2v.1l-.1.4V17l.1-.1.3.1.2-.1V17l-.1.1v.1l.3-.1.1.1h.2l.1-.1-.1-.1-.2-.2.1-.1h.2l.2.1.1.2.1.1H70l.1-.2.1.2.4.1v-.1l.2-.2v-.1l-.1-.2.1-.1.3.2v.1l-.3.3.1.2.1.1.2-.2.1.1v.1h.2l.1-.4.2-.1.1.2-.1.2.1.3-.1.1-.2.1.1.2h.2l.1-.2.5-.1.3.3.1-.1v-.2h.3l.1.1.1.3-.2.1-.2.1v.4h.1l.3.1.1.2-.1.3-.2.2v.1l.1.2h.2l.7-.4.5.1v-.1l.1-.1h.1v.3l.1.3.2.2.1.2-.1.3v.1l-.1.1h-.2l-.2-.1h-.1l-.2.2v.9l.1.1.2.2v.2h.1l.1.2v.1l-.1.1v.1l.1.3.1.1.1.1v.4l-.1.1.1.3.6.5.1.1.7.4.2.2.2.4.3.2.5.4.1.1h.1l.1.1.1.3.4.3.1.2.1.3.1.1.2-.1.3.2v.1l-.1.1-.1.5-.4.5-.1.3v.2l.1.2v.2l-.1.1-.2.2.1.1-.2.3.2.1-.8-1-.2.5.1.4v.2l-.2.3.1.3.3.2.1.3.1.4.3.2.3.5-.1.1-.1.3.1.5.2.1.2.3.3.2.1.2.1.1v-.1l.1.2.3.1-.1.5v.2l.3.2.1.1v.5l.1.5.1.4.4,1,.1.1.4.1.4-.1.3.1.1.1.1.2.1.2,1,.7.1.4.2.2.3.2H84l.2.2.1.2v.4l-.2.4v-.1l.2.4.1.1-.7.5.2.2-.1.3.2.3.2.2V44l.4.5.2.1H85l.3-.2.4-.1h.5l.2.2.1.5v.7l.1.2.1.2v.8l-.3.5v.4l.2.1-.4.5-.1.2h.4l.3-.1.3-.1h.1l.2-.2.1.1.2.2.2.1.2.3.1.2-.1.4h-.3l-.1.1-.1.1V50l.3.3v.5l.1.1-.1.3-.2.2.1.1.1.1.3-.2.2.2.4.1.1.1.3.6h.4l.4.2h.5l.2.1h.8l.2.2h.4V53l.2.5-.1.3V54l.1.1h.1l.4.2.3-.1.1-.2v-.1l-.2-.2-.1-.1v-.1l.2-.1.2-.1.4-.1.3.1v-.1l.1-.1-.1-.5.1-.1h.1l.2.1v.6h.1l.1.1v-.1l.2-.4.2-.1.4.4.1.1,1.1-.1.4-.3,1-1,.2-.3.1-.2V51l-.1-.3-.1-1h.1v-1l.1-.9v-.5l.1-.1.1-.2.1-.1.9-1.6.4-.4.5-.6.2-.2.4-.3.5-.5.3-.5.2-.6.2-.2.6-.6.1-.7v-.1l.1-.2.2-.3.1-.1.3-.3.2-.3.4-.5.2-.4.5-.7.5-.2.8-.1.3-.2h.1l.3-.2.3-.3.2-.3.1-.1.3-.4h.1v-.1l.3-.4.1-.1.5-.5.2-.1h.2l1.2-.4.5-.1.5-.3,1-.7.3-.4.3-.3.4-.3.3-.3.3-.5.3-.5.2-.4.3-.8.3-.4.1-.3.1-.7.3-.5.2-.4.4-.4h.1l.1-.1.6-.5.5-.2.9-.2.2-.1.5-.1h1.3l.1.8.5.4.2.6.1.9-.1.3-.1,1.2v.4l-.2.5h.6l.5.2h.2l.1-.1.2.1.2.1v-.1l.3.1.1.1.8-.4.1-.1.2.2.2-.1h.4l.3-.2.2.2.2.2v-.1l-.1-.2v-.1l.1-.1v.1h.1l.1-.1h.1l.1-.1.5-.1.1.2h.1l-.1.2h.1l.1-.1.1.1h.1l.1.1v.1l.3.2.2.6.2.3.4.6.5.8.6.9.1.1.1.1.1-.1.2.1.1.1h.2v.1l.4.1v.1l.1.1v.1l-.1.1h-.1v.1h.3l.1.2,4.8,2.2.2.4.5.3.4.3.2.1h.3v-.1l.3-.1h.4l.2.1.1-.1.2.1.1-.1h.2l.1.1.2.2h.1l.3.2h.4l.2.1h.2l.2-.1.1-.1.5-.2h.5l.1.1.1-.1.3.1.1.1.1-.1h.5l.2.1.5-.2.5.2.2.2h.2l.1.1.1.1.1.1.1.4-.1.8V41l-.5.5-.2.3-.1.7-.3.4,3.2,1.1,3.2,1.2v.9h.2v-.2h.1v-.1l.1-.2.1-.1v-.4l.2-.2.2.1.2-.2.1.1.1-.2v-.2h.1v-.1l-.1-.1.1-.1.1-.1V44l-.1.1v-.2l.1-.1h.5l.1.3v.2h.2l-.1.1.1.1H152l.1.3-.1.2-.1.3-.1.1v.1l-.1.2h.1l.1-.1.1-.1.1.2h.1l.2-.2v-.4l.1-.1-.1-.3v-.2l.2-.1-.1-.1.1-.2-.1-.2.2-.2.2.1V44l-.2.2v.1h.1l.3-.1.1.1-.1.1.2.4-.1.3.1-.1.1-.2v-.1l.1-.1v-.1l-.1-.2-.1-.1V44l.3.1.1-.2v-.1l.2-.1h.2l.2.1-.1.1.2.4-.1.1-.1.2.2.1v-.1h.1l.3-.2.2.1-3.3.2.1.2.1.1v.1l-.1.1v.1l-.1.1.1.1v.1l-.1.4h.1l.1.1.1-.1.1.1.5-.8-.1-.3.1-.2-.1-.2.1-.1v-.1l.3.1v.2l.2.1.2.3-.1.2v.1l.1.1h.1l-.1.2.1.1.1.1V46l.1.1.1.1.3.5v.1l-.1.3.2-.1.1.1V46l-.1-.6.1-.4-.2-.1v-.1l.2-.3h-.1l.5-.2.3.1.1.1-.1.4V45l-.1.1v.2l.1-.2.1.2v-.1l.1.2h.1l.2-.2V45h.3v-.1l-.2-.1v-.1h.5l.3-.1.1-.1.3.1.3.1-.1.1v.1l-.1-.2v.1l.1.2h-.1v.3l.2-.1.1.2.1-.1.1.1.1-.1-.2-.2.1-.1.1.1V45h.2l.4.2.2.4-.2.2v.1h-.1l-.2-.1-.1.1-.1.3.3-.1-.1.1h.1l.1-.1V46h.2l.1.1.1-.1h-.1v-.1l.2-.2v-.1h.1l-.1.1.2-.1h.1l.1.1h0l-.1.2-.1.1.1.5h-.1l-.1.2.1.4v.1l.1-.1-.1-.1.1-.1.1.2v-.4h-.1v-.1l.2-.5.1.2V46h.1l-.1-.1v-.2h.3l.2-.1v-.1l.3-.1v.3l.2.1.1.3-.3.1.1.1.1.1.1.1H160l.1.1-.3.2.2-.1.1.1-.1.1.1.2v.1h.1l-.1-.1V47h.1v-.3l.1-.3-.1-.4.2.1-.1.4V47l-.1.3v.1h.1l.1-.2.2.2h.1l-.2-.2h-.1V47l.1-.1v-.6h.1v.1h.1l.1-.1v-.1l.3-.2.1.1.2-.2h.3V46l.2.4h-.1v-.1l-.1.1v.3l-.1.1h.1l-.1.2-.2.1v.1l.1.1.1-.2.1.1v.1h.1v-.1l.1.1v.1l-.1.1.1.1.1.4.1.1v.2h-.3v.1l.3.2h.2v-.3h.1v.1l.1-.1h-.1v-.6l.2-.1h.3v-.1l-.1-.1v-.1l.1.1-.1-.2V47l.2-.2.1.1V47h.1v-.3l.2-.1h-.3v-.1h.3l.2.2v.1l-.1.1V47l.1-.1v.4h-.4l.3.1.1.1-.1.2h-.1l-.2.2h.1l.2-.2.1.1-.1.1-.2.2v.2h.1v-.2l.1-.1v.1l.2-.1v-.2h.1l.1.3-.1.1h.1v.2l-.2.1v.2h0l.1.1v-.1l.1-.2.1-.2.3.3-.2.1h0l.1.1v-.1l.1-.1v-.2h-.1v-.1h0l-.1-.3.2-.1h.2l.1.2-.1-.3.1-.2.1.1.1.1.1.5.1.5v.1l-.1.2v0l.2-.2.1-.1v-.2l-.1-.3.1-.5.3-.1.1.1.1.3.2.1-.1.1h.1v-.2h.1v.1l.1-.1L166,48h-.2l-.1-.4v-.2h.2l.1.2.1-.1-.2-.2.2-.1v-.1h.1l.2.1v.1h-.1v.1l.1.1.3.1.1.1-.1.1.1.1.1.1v.1l.1.1-.1.1v-.2l-.2.1-.1-.2v.1l.1.2h-.1v.1l-.1.1-.1-.1h-.1l.2.3-.3.1.1.1h.1l.1.2v.2l-.2.2h-1.6l.1.1-.2.1h-.1l-.1.1.2.2h.1l-.1-.1h.3l.1-.2-.1.2h.3l.3-.2h.1l.1-.1v.1l.1.1h.2l.2-.4v-.1l.1-.1v-.4l.1-.1.2.2-.1.1v.5l.1.3v0l.1-.3v0h.1v.1l.1-.2-.2-.2.1-.2.1.1v-.3l.1-.1h0v-.1l.2-.1h.2l.2.1v.1l.1.1.1-.3.1-.1h.1v-.1h-.3l.4-.1.1.2v.2l-.1.1-.2.2h-.2v-.2l-.1.1-.2.2v.1h-.1l-.1.1.1.1.1-.1v.2h.1l-.1.1-.1-.1.1.2.1.1h-.2l.1-.1-.2.1h-.1l-.1.2.4-.1.1.1v.4h-.1l-.1-.1-.1.1.1.1v.2l.1-.1v.1l-.1.2h-.1l.1.1.1.2v-.4l.1-.2.2.2v-.1l-.1-.1v-.1l.2.1.3-.1.2.1v.2l-.1.1h-.1l-.1.1v.2h.1v-.2l.2.1v-.1l.1-.2-.1-.4-.2-.1h.1V50h.1l.1-.1h.2v.4l.1.3v.2l.1.1h.1l-.2-.2v-.2l.1.1v-.2l.2-.2.1-.1h.1l-.1.1.2.2v.5l-.2.2v.2h.4l.2.2.1-.1-.2-.2h-.3v-.1l.2-.1v-.6l.1-.1.2.1v.1l.1.3-.1.1h.1v-.1h.2l-.4-.1.1-.1-.1-.2-.2-.2.2-.2.1.1.2-.2.1.1v-.2l-.1.1-.2-.1.2-.2v.1l.1-.3h.1v-.1l.1.2-.1-.2.3-.1h-.4V49l.2-.1.1.1v-.1h.3l.2-.2h.1l.2.1.1.1v.5l-.2-.1H171l-.1.2-.1.2.3-.1-.1.3-.2.1-.1-.3.1.2-.1.1-.1-.1v.2h0l.2-.1v-.1h.1V50l-.1.1.1.3-.1.1h.1l.1.3v.3h-.3l-.1.2-.3.5-.2.2v.3l-.2.2v.3l.1-.2.2-.1.1-.2.1-.1v-.3l.2-.3.5-.4.1-.3v-.5l.1-.2.1-.1h.2l.1.1-.1.2V51l-.2.2-.2.5-.3.3h.1l.2-.1.2.3v.1h.1l-.2-.5.1-.1.1-.5h.1l.1.1.1.5-.1.1h.1v-.2h.1l-.1-.1v-.3l-.1-.2.1-.2.1-.1.5-.3h.1l.1-.1v-.1l.1-.1v-.1l.2.1v.5l-.4.3v.3l.1.2v.1h.1l.2.2-.2.4v.4l-.1.3-.1.3h-.2l-.3.1-.3.3.2.4-.4.4.2.5h.3v.4l.4-.1v.1l-.1.2-.1.3-.1.1-.1.4-.4.3.3.2v.1l-.5.5.2.2.1.1.2.2v.2l.2.8-.3.1v.1l.1.1v.1l-.2.3V60l.1.1v.2l-.1.2-.2.2-.3.1h-.1l-.1.1V61l-.1.1h-.2l-.2-.1-.3.1h-.5l-.1.1-.1.1-.1.4.1.5.1.1.2-.2.1.1h.1l.3-.1.5.1.1.2.1.1.1.2-.5.6v.1h.2l.1.4-.2.8-.2.5v.3l-.2.3-.1.1-.1.2v.3l.1.2v.3l-.1.1-.3.3v.1l.2.1-.2.2-.3.1-.2.2-.2.4v.1l-.2.1h-.2l-.1.3-.2.1-.2-.1-.1-.2-.3.1v.1l.2.2-.1.5-.1.1v.5l-.1.1-.4.3v.3l.2.1h.1l.3-.4.2.1v.1l-.1.2-.1.2-.2.2V72h.1l-.1.2v.2l.1.2-.1.2.1.1.2.1v.1l-.6.2h-.2l-.1-.1H167l-.1.1v.2l.1.1.1.1-.1.2h-.1l-.2.1.1.4-.5.1-.2.1h-.3l-.2.1v.4l-.1.1-.2-.4h-.1l-.1.1v.3l-.2.1v.2l-.2-.1v.1l-.2.1-.2.3.1.2v.1l.2-.1v.2l.1.3.1-.1h.1v.6l.1.2.2-.1.1-.1V77h.1v.5h.1l.1.1h.1v.1l.2-.1v.1h-.1l.2.1h-.1l-.1.1-.2-.2h-.2l-.1.1h.1v.1l.1.1-.2.1-.2-.1H165l.1.1-.1.1v.1h.1l-.1.1-.1.1-.1-.1h-.1l-.2.1v.1h.1l.2.2h-.1l.1.2.1.1v.1l-.2.1v.3h.2l.1.1v.1h-.2v.1h.1l.1.1-.1.2-.2-2.5-.1.1v.1l.2.1-.2.2.1.1-.2.1v.3l.1.2-.1.1v.3l-.1-.1-.3.1.1.4-.1.1H164v-.3h-.1l-.1.2h-.2l.1.2.2-.1V80l.1.1-.1.2h-.3l.1.3-.1.1-.2-.2h-.2l.3.2v.1l-.2.1.2.1v.2l-.1-.1h-.2l-.1.1.1.1-.1.2H163l-.1-.1-.1.1v.4h-.2l.2.2-.2.2.2.1v.2h-.3l-.1.2-.2-.1V83h-.1l-.1-.2h-.1l.1.1V83l-.2.1V83l-.1-.1-.1.1-.2.2h.1v.1h-.1v.1l-.1-.1-.1.1h0l-.1.1-.1.1-.1-.1v.3h-.1V84l.1.2-.1.1v-.5h-.1V84h.1l.1.2h-.2l.1.1h-.1v.1h.1v.2l-.3-.1.1.4h.1v-.2h-.2v.1l.2.3h-.2l.1.1-.2.1-.1.1h-.2v.1l-.2.1v.2h-.2V86l.1.1-.1.1.1.2h-.1l-.1.2-.1.1.1.1-.1.1h0l.1.1-.1.1h-.1l.1.1v.2l.1-.1.1.1-.3.2.1.4v.2l-.2.1.1.1v.2l-.1.2v.5l-.2.1v.3l-.2.1.1.2-.1.2-.2.1-.1.3h-.2V91l-.1-.1-.2.2-.2.1v.3l-.1.1h-.1v.3h0v.2l-.1-.1-.1.2h-.1l-.1.2H157l-.1.2-.3.2v.1h-.2l-.1.1v.1h-.1v.1H156v.1h-.1l.1-.1h-.2l-.1.1v.2h-.1v.3l-.2.2v.1l-.1.1.1.2v.2l.1.1-.1.1.1.2v.1l-.1.1-.1-.1-.2.1.1.1-.1.1v.2l-.1.1v.1h-.1l.1.4h-.2l-.2.3h-.1l-.1.2-.2-.1v.2H154l-.1.2-.4.2.1.1-.1.1v.2l-.1.2h.1l-.2.2v.2l-.2.2v.2l-.2.3-.2.3-.5.5-.2.5-.4.5-.1.1-.2.1-.2.1-.2.3-.4.3-.3-.1h.3l-.2-.1-.1.1-.1-.2h-.2l-.3-.1-.2.2-.2.3-1.7,1.4-1.1.9-.5.4-.3.2-1.6,1.3-.2.2-2.6,2-.3.2-.1-.1h-.1l-.1.1.1.2-.3.2-.1.2-1.3.9-2.6,2.2v.2l.1.1.2.1h.2v.1h.5l.4.1h.1l.2.4.4.1h.7l.6.1h.2l.3-.1.1-.1h.2l.1-.1h.1l.3-.1.3.1.1-.2h.1l.2.1.1.2.1.1.2.2v.3l.1.2.2.3v.1l.1.1.3.4.1.1.2.1.2.1.5.1h.3l.2.2.1.1.2.1.5.4v.5l-.1.2-.3.5-.2.3-.2.1-.1.1h-.1l-.3.1-.6-.1-.2.1-.1.2-.1.2v.5l.1.6v.1l.1.1.2.3.4.4v.1l.2.3v.4l-.3.2-.5.1-.2.1-.2.2-.2.3-.1.2v.2l.1.1.4.1.3.4v.2l-.1.3-.2.2-.4.3-.5.2-.4-.1-.2.1-.2.2-.2.2v.6l.1.3.1.5.1.2-.1.1v.1l.1.2.2.1.2.1.1.1.1.3-.1.4-.1-2.7-.2-.1-.4-.3-.3-.1h-.7l-.1.1-.2.3-.1.2-.3.3-.2.1-.5.5-.2.4-.1.1-.2.3v.3l-.2.2-.1.3v.2l.2.5v.4l-.1.2-.1.2-.3.2-.7.2-.3.5-.2.2h-.1l-.5.2h-.9l-.5.1-.2.1-.2.1-.4.2H133l-.2.3-.2.2-.5.4-.4.4-.5.3-.3.1h-.1l-.1.2-.3.3-.1.2v.5l.1.1.2.6v1.5l.1.8.1.4-.1.3-.3.5-.1.4-.3.4-.3.4-.2.3v.1l-.2.2-.5.5-.4.5-.2.4-.2.1-.1.7v.3l.3.5v.1l.3.6.1.2.2.2.4.2.5.4.3.2.3.4.3.2.4.1.2.1.1.2v.1l-.1.2-.1.1v.4l.1.6-.1.4v.4l-.2.3.1.5v.7l-.1.2-.2.1v.1l-.1.1v.3l-.1.2.1.3-.1.5-.1.3-.1.2-.2.4-.3.5-.1.7-.1.3-.2.5-.2.2-.3.2-.4.2h.2l-.4.5-.1.3-.1.2-.1.8v.2l-.2.3-.5.5-.1.3-.2.2-.1.4-.2.3-.6.9-.4.5-.3.4-.1.2-.3.1h-.4l-.5.2-.6.5-.2.1-.2.3-.2.2-.2.4-.1.3-.7.6-.1.3v.2l-.1.3-.2.4-.4.5-.1.1v.3l-.5.4-.4.5h-.4l-.1.5-.3.1-.2.2-.2.2v.1l-.1.4v.6l-.1.4-.4.4-.2.6v.4H118v.1l.2.3.1.3-.2.2-.1.2v.3l-.1.2-.1.2-.2.1v.4l-.2.3v.3l-.1.1v.2l-.5.6-.1.5-.1.3-.1.3-.1.1-8.3-.5-2.9-.2-3.3-.2-2.1-.2-10.1-3.2-4.9-.4h-.7l-6.1-.5-6.1-.5-7-.5-6.7-.5-1.6-.1-3.6-.4L42.3,167l-4.9-.5-1.6-.1-5.3-.5-.4.1h-.3v.1l-.3.2-.3.1h-.1l-.1-.2V166l-.1-.2v-.7h-.1l-.3-.7-.2-.3-.4-.1-.2-.1-.2.1h.2l-.8-.1-.2-.1-.5.1-.2-.1-.2-.1-.2-.1-.1-.2-.2-.2-.1-.1V163l.1-.2-.1-.3.3-.4v-.2l-.1-.2-.2-.1v-.3l-.2-.1-.2-.3-.1-.3-.5-.3-.7-.9-.1-.1-.2-.1-.3-.1-.2-.1-.1.1-.5.1h-.2l-.1-.1-.1-.3-.5-.1h-.5l-.3-.3-.2-.1-.1-.1.1-.4v-.4l-.2-.2h-.5l-.3-.2-.6-.4-.5.2h-.4l-.1-.3.1-.5-.2-.5-.2-.3-.1-.1.1-.6-.2-.1-.2-.1v-.1l-.1-.3.2-.2.1-.3-.1-.1-.3-.2V153l.1-.2v-.2l-.4-.5-.1-.3v.9l.3-.5V152l-.2-.4v-.3l.2-.3.1-.5.2-.5v-.3l-.3-.5-.2-.1L16,149l-.1-.1-.1-.2-.1-.7-.6-.5-.4-.7-.4-.4v-.3l-.1-1-.1-.3-.5-.8-.1-.5-.2-1.2-.1-.2L13,142h-.2l-.1-.1-.1-.6v-.1l-.4-.9-.4-.6-.5-.5-.4-.7-.1-.2-.7-.5-.2-.1v.1l-.2-.2-.3-.4V137l-.1-.5.1-.5-.2-.7-.3-.3-.1-.4-.2-.1-.1-.2-.2-.4H8.2l-.3-.1-.3-.3-.5-.8-.2-.2-.2-.2-.4-.1H6.2l-.1-.3-.2-.1-.4-.5-.4-1-.1-.5-.2-.3v-1.2l.2-.4.3-.3.3-.5.7-.6.3-.1.2-.3.1-.2.1-.5.1-.1h.5v-.1l.2-.1.1-.2L13.3,113l2.1-4.7,1.2-2.6.9-2.2,4-8.8L24.6,88l.9-2,.5-1.3.4-.9,1-2.3.5-1.3.1-.1,1.6-3.5,1-2.2.5-1.2.7-1.5.7-1.6.4-.8-.1-.1h-.2l-.2-.1-.3-.1-.1-.1v-.1l.5-.7.1-.2v.8l.1-.2.3-.6.1-.1.3-.2.5-.1.9-.5.5-.4.4-.3.4-.4.4-.6.5-.7.1-.2v-.1l-.6.2h-.6l-.1.1-.1.1-.1.1-.3-.1-.4.5-.4.1-.2.1-.1.1v.2h-.1L34,66l-.2.1h-.3l-.3-.1-.2.1-.1.2-.3.2h-.2l-.2-.2-.1-.1-.2.1-.2.1-.1.1-.4-.5h-.3l-.2.2-.3.1-.1.2-.2.1-.1-.1h-.2v.1l-.1.4-.1.1-.1-.1h-.2l-.3.1h-.4l-.3-.2-.1-.2-.3-.1-.3-.1h-.2l-.1-.1V66l.3-.4.3-.3L28,65v-.3l-.1-.3-.1-.1-.2-.2h-.2l-.4.2h-.7l-.2-.1-.3-.4-.3-.2-.1-.1h-.1l-.5-.1-.1-.1-.1-.3-.2-.2-.1-.2-.5.1-.1-.1-.3-.6-.2-.2-.1-.3.2-.2v-.1l-.1-.1L23,61v-.2l-.2-.2-.3.3-.2-.4h-.5v.2l-.1-.1.1-.4v-.1l-.2.2-.1-.2-.1.1h-.1l-.1-.2-.2.1-.1.1h-.1l-.2-.1-.1-.1.1-.1-.1-.1h-.1v.1l-.1.2h-.1V60h-.4l-.1.3-.3-.2-.3-.1.1.2-.2.1-.3-.3-.3.2-.1-.2.2-.1v-.2h2.2l-.1-.1v-.2h-.2l-.2.3-.2-.1.1-.2v-.1l-.5.2-.1-.2v-.2l-.2.1-.1-.1-.1-.2-.3.2.1-.4h-.2l-.1-.3h-.3l-.3-.2-.1.1-.1-.2.1-.1-.2-.2-.1.1V58l-.5.1L17,58l-.3.2-.2-.3h-.2l.1-.2-.1-.2-.1-.2v-.5l-.2.1-.3-.1v.1l-.2-.1-.2.1h-.1v-.3H15l-.1-.2-.1-.1-.1-.3h-.1v-.1l-.3-.1v-.1l-.3-.1h-.2l-.3.2-.1-.2-.1.1-.1-.1.1-.2-.1-.1-.3-.1-.2.1h-.1V55l-.3-.1v-.2l.1-.1h-.2l-.2-.2V54l.1-.1v-.3l.3-.8.1-.1v-.3l-.2-.2.1-.3v-.2l-.1-.1-.4-.1-.1-.3v-.1l-.1-.2-.2-.1h-.1l-.5.4-.1.2.1.1-.2.2-.4.1v.3l-.1.1-.4.5-.1.1-.3-.4-.2-.1-.3-.5-.4-.1-.2-.4H8.1v.1l-.7.1.1-.2-.3-.1-.1-.3L7,51l-.1-.1v-.1l-.1-.1v-.4L6.5,50l-.1-.1H6.1l-.2-.2.1-.3-.1-.1.1-.2.1-.1v.7l-.2-.1v-.2l-.4-.3.1-.3-.1-.2.3-.1v-.1l-.4-.3H5.3v.1H5.2L5.1,48H5l-.1-.2v-.2l-.1.1-.1-.1-.1.1H4.5v-.1l-.5-.4v-.1L3.9,47v-.1H3.8l-.2-.2v-.1H3.4l-.2-.1L2.9,46l-.2-.1-.1.1-.1-.1v-.1l-.3-.3-.3-.1v-.1l-.1-.4H1.7v-.1l-.2-.2v-.2l.1-.1V44l-.1-.1v-.3h.2l.1-.2V43l-.1-.2-.1-.1-.1-.4.1-.5-.1-.1H2.7l-.1-.3-.3-.1L2.1,41l-.2-.1-.1.1v-.1H1.5v-.1l-.4-.2-.4-.3v-.6l.1-.2v-.3H.7l-.1-.5v-.5l.3-.5v-.2l-.1-.1.1-.8-.2-.2H.6l-.1-.1v-.4l-.1-.2V19.34Zm171.9,31.9h0V51h.3l-.1.1h.1l.1.4v.2l-.1-.1-.3-.4Zm-3.1-1.6h0v0ZM149,45.54h0v0Zm19.6,4.8v-.2l.1-.1h.1l-.1.1-.1.2Zm-8.8-4.4h.2V46l.1-.1.1.1-.4.1v-.2Zm8.6,3.6h0l-.2.1v.1l-.4.3.1-.3.2-.4v-.1l.1-.1.1.1.1.3Z"/></g></g></svg>