<svg xmlns="http://www.w3.org/2000/svg" viewBox="0 0 92.66 62.14"><defs><style>.cls-1{fill:#59f;stroke:#fff;stroke-miterlimit:10;stroke-width:0.8px;fill-rule:evenodd;}</style></defs><g id="Camada_2" data-name="Camada 2"><g id="svg2"><path id="path64" class="cls-1" d="M1.49,43.25h0l.1-.3.2-.4.1-.2.2-.3.3-.2.4-.5.2-.3.2-.4.1-.5.2-.3.1-.3.2-.3H4l.1-.2-.1-.4-.1-.2-.2-.2-.1-.2.1-.2-.1-.3v-.3l.3-.7v-.1l.2-.4.1-.4.2-.7.3-.8.1-.3.2-.1.1-.2.2-.5.1-.3.2-.5.1-1v-.2l-.2-.6-.1-.4.2-.6.4-.4.3-.4.2-.5.1-.2-.6-.5-.2-.3-.5-.5-.1-.3v-.6l-.2-.3v-.2l-.1-.1.2-.4.4-.3.3-.4.1-.1H6l.4-.1,1-.7.5-.3.3-.3.1-.2.3-.8v-.4l-.1-.3.1-.2-.1-.1.1-.3.1-.5.3-.5v.2l.1-.5.1-.3.1-.2.1-.4.1-.5.2-.5v-.6l.4-.6v-.1l.2-.1.1-.1.4.1.7-.4.8-.5.6-.2.1-.1.5-.6.2-.4v-.1l.2-.5.2-.6.4-.5v-.2l.4-.4V9.45l.3-.4.1-.4.3-.2.2-.1.2-.2v-.1l.2-.3.2-.1.2-.1.5-.2.5-.3.3-.1.3-.3v-.1h.1l.4-.1.2-.3.1-.1.2-.1.2-.1.3-.1.8-.3h.1v-.1h.6l.1-.1.2-.2.6-.8h.1l.3-.5.1.3.1.3.2-.3.4-.1.2-.2.2-.2.2-.1v-.1l.2-.1.2-.1.1-.1L25,3l.3.1.6.5.2.1.5-.2H27l.1.1.4.1.4.2h.3l.5-.2.8-.5.2-.1h.1l.2.3.4.4h.1l.2.1.3.2h.1l.5-.3h.2v-.1H32l.1.1h.1l.2.1.5.2h.6l.3.1L34,4l.2-.1.4-.1.1.1.2.3v.5H35l.4-.2.2-.1.4-.1-.1-.5v-.1l.1-.4v.2l.1-.3.2-.3.1-.1.2-.1h.1l.2.1.5.3h.5l.4.1.5.3h.3l.5.5.1.1.1.1.2.2.3.1h.1l1-.3.2.1h.1l.1.1H42v.1l.1.4.1.2h.3l.3-.2h.7l.2.1.4.3.3.1.2.1.1-.1.4-.1.1.1h.2l.4-.2h.1l.3-.4h.3l.4.2h.2l.2-.1.4.1h.2l.4.1h.1l.3-.1.2.1.2.2h.1l.1.4.3.2h.1L50,6l.2.1.3.2.5.2h.7l.7.4h.2l.2-.1h.3l.2.3h.1l.2-.1h.5l.1.1.5.4.2.4L55,8l.11.3.29.1v.2l-.1.5.1.1H56l.1.1.1.1h.2l.3-.1.4-.6.1-.1.1-.1h.31l.1.2.29.1.21.1.2-.1.2-.2.4.1.2.1.1.1.1.2.1.1.2.1.2-.2H60l.3.2.2-.1.3.1.1-.2H61v-.3l.1-.1h.2l.2-.1.3.2v.1l.2.2.1.2h.5l.1-.2h.2l.2-.1.4.2.1.1v.1h.1l.2-.1.2.1h.3l.3-.1.2-.2.3.1h.3l.2-.3h.2l.2.1.3-.3v-.1l.3.1h.2L67,9h.2l.1-.1-.1-.2v-.1l.1-.1.3.2v.1l.1.2-.1.3-.1.1v.1l.3.3h.3l.2.1.3.2v.1h-.1v.1l-.1.2v.4h.2l.2.2.1-.1.1.1.1.1h.2l.3-.1.1.1.1.1h.1v.1l.1.1h.1l.1.1h.2l.2.1.2-.1H71l.1.1.1.1-.2.3.1.1.2.1.1.2.1-.1v.1l.1.1h.3l-.1.1.1.1.3.5v.3l.1.1h.1l-.1.2.1.1.2.4v.3l.1.2v.2l-.1.2-.1-.1v.3h.3l.3.2v.1l.1.1-.1.1-.1-.1-.3.1v.1H73v.2h.1l.1.1h.1v.2h.2L69,15.45l.1.1H69l-.1-.1h-.1l-.1.1-.1.1v.5l-.2-.1v.2l-.1.1.1.2h-.1l-.1.1.1.1.3.2-.1.1.1.2-.1.2.1.1v.1l-.2.2-.1.2.1.1v.2h.1v.1l-.1.1.2.1v.1l.2.1V19h.1v.2H69l.1.1h.1v.1h.1v.1l.1.1-.1.2v.1l.1.2h-.1l-.2-.1v.3l-.1.1.2.1-.1.1v.1l.1.2v.4l-.2.1-.2.1h-.1v.1l.1.1-.2-.1h-.1l.2.1-.1.1h-.1l.1.1v.2l.1.1.1.2.2-.2v.3l.1.1.1.1.1.1v.1h.1l.2.1v-.1l.2-.1v.1h.1V23l.1.1h-.3l.1.2.1-.1.1.1v.1h.1v.1h-.2v.1H70l.2.1v.1l-.1.1V24h.1l.1.1v.1h.1l-.1.1h0l-.1.1h.3v.1h.1v.2l.1.1.1.1.2.1v.1h.1l-.1.1.1.1v.1h.1l.3.1-.1.1h.1l-.1.1.3.1v.1l.1-.1.1.1.1-.1.1.1V26l.3.2h.1v.1l.1.1-.2.1v.7l-.2.1.1.1.4.3v.1h.2l.1.1-.1.1H73l.1.1-.1.2.1.1.1.1v.2l.1.1.1-.1h.1l.2.2h.1v.2h.3l.1.1h.2l.1.1-.3.3h-.1l-.2.3-.2.3v.1l.1.1.1-.2H74v.1l-.1.2-.2.2.1.1-.1.2h.1v.2h-.1l-.1.1-.1.1v.2l-.3.1h-.1l.1.2v.2l.1.1-.1.1-.1.2-.1-.1-.1.1h-.1v.2l.1.2V33h-.1l.2.1-.1.1-.1.1v.1l.1.1-.1.3h.1v.1H73V34l-.1.2H73v.1h.1l.3.3h.3l.2.1h.5v-.2h.2v-.1l.1-.1h.8l.1.1.2.1.1-.2H76v.1h.2v-.1h.1l.1.2h.1l.1-.1h.1l.1-.2.1-.1v-.2l.1-.1-.1.1-.1-.1.1-.1H77l.2.1.2-.1h.1v.1h-.1l-.1.3.2-.1h.1v.2h.2v.1H78l.1.2.2-.2h.3l.1.1h.1v-.1h.1l.5-.1.2.1h.1l-.2-.2.1-.1.2.2L80,34l.1.1.1.2h.2l.2.1.1.3.2-.1.1-.2h.11v.2h.1l.2-.1.4-.1.1.1.1.1v-.4l.2.1.1.1-.1.1h.1l-.1.1.1.1h-.1l.2.1.1-.2.2-.1v-.1h.2l.2-.2.1.1.1-.1.1.1.1.1.1-.1.1.2.1.1v.1l.1.2h.2V35h.1v.1h.1l.1.1v.1h.3v-1.8l.1.1v.1l-.1.1V34h-.1v.2l-.2.1-.1.1-.3.2v.3l-.1.1-.1.2.1.2-.1.1h.3v.2l-.1.1-.1.1H84l-.1.2V36h-.1v.5l.1.1-.1.1.1.1-.1.1v.2l-.1.2-.2.1v.1h-.1v.4h.1V38l.1.1v.2h.2v.1l.1.1v.2l.1.1.1.1.2.2h.1l.1-.2.1-.1.2-.3.1-.1h.2v-.2l.1-.4.5-.4h.2l.1-.1.3.1.2.1v.1h.1l.3.3v.2h.2v.1l.1-.1h.1v.3h-.1v.2l.2-.2.1-.2.2-.2v-.5h.1l.1.2H88v-.3l.1-.1v-.2h.2v-.2l.1-.1.1.2.1.1.1.1v.1h.1l-.1.1v.1l.2.1H89v.1l-.1.1.1.3-.1.2.1.1v.1l.2.3v.1l.2.2v.1l.2.1.2.1-.1.1h-.1v.2l-.1.2-.3.1.1.2.2.1h.2l.1.2.1.1.5.4.2-.1.2-.1.1.1.1-.1h.2v-.3l.2.1.1-.1h.2l-.1.1.1.1-.8.7-.2.2v.2h.1l-.1.1-.5.4-.3.3-.4.5-.3.4-.1.5-.1.1h-.2l-.4.1-.4.2-.4.1.5.3-.2.5h-.1v.3h-.1l-.1.1-.1.2H87l-.3.1-.5.4-.4.5-.5.8-.7,1.2-.1.5v.2l-.1-.1-.1.1-.2.1v.2l-.1.2.1.1-.2.4-.2.6-.1.1.1.1h-.1l-.1.1-.1-.1v.1h-.2v-.1h-.1v-.1l-.1-.1-.1-.1-.3.2v.1h-.2v.1H78.5l.2.1h-.2v-.1h-.1l-.1.1-.1.1v.1h-.1l-.1.1h-.1V52h-.3l-.1-.2h-.1l-.1.2H76l-.1.1-.2-.2v-.2l-.1.1h-.2v.1h-.1l-.1-.2-.1.1-.2-.1-.1.1h0l-.1.2v-.1h-.1V52l-.1-.1h-.1l-.1-.1h-.1l-.1.1h-.2V52h-.2l-.1.1-.2.1h-.2l.1.1-.1.1-.2.1v.3h-.1l-.1.1V53l-.1-.1V53l-.1-.1h-.1l-.1.1v.1l.1.1h0v.1h-.2l.1.1-.1.1v-1h-.2l-.3.2-.1.1H72v.1h-.1V53l-.1-.1.1.1h-.1v.1h-.1v.1h-.3v.1l-.1-.1v-.1l-.1.2-.2-.1v.1l-.1.1h-.1l-.1.1v-.2h-.3l-.1.2-.2.2-.1-.1v.1l-.1.1H70l-.1.1H70l.1.2v0l-.1.1h-.1v.1l-.1-.1-.1.1-.1-.1v.1l-.1-.2h-.1v.1l.1.1h-.2l-.1.2-.2-.1-.2-.3v.2h-.1v-.1h-.2v.1l-.1-.2h-.1v0h-.1L68,54l.1-.1v-.2H68v.2l-.2.1v-.2h-.1v-.1h-.1v.1l-.1-.1-.1.1-.1-.1h-.1l.2-.2h-.2l-.1-.2-.2-.1-.2.2h-.1l-.1-.2.2-.2h-.4v-.3l-.2-.1-.1-.2h-.1v.1H66v.2h-.1l-.1-.3-.1.1v.1l-.2-.1-.1-.3-.1.1h-.1l-.1-.2v-.2L65,52h-.1l.2-.1v-.2l-.1-.1v.2h-.1l-.1-.1h-.1l-.1-.1-.1-.1.1-.1-.4-.1-.1.1-.1-.1-.1-.1-.3.1-.1-.1.1-.1-.1-.1-.2.1-.1.1.2.1-.4.4.1-.2v-.3l-.1-.1-.3-.1v.1h-.2v.1l.1.2-.1.1-.3-.2H62l-.2.1h-.2l-.1.1v0l-.1-.3-.1.3-.3.2-.1-.1-.1.2-.2-.3-.2.2v-.1l.1-.3-.1-.1-.2.1-.1-.1-.1.1-.1.1H60l.1.1h.1l.1.1-.1.2-.1.1L60,52l-.1.1-.1-.1v-.1h-.2l-.1-.1h-.1l-.1.1-.1-.2v-.2l-.3-.1v.3l-.2-.1-.2.1-.3.1-.3.2v.2h-.2l.1.2v.1l-.1.1.1.1v.1h-.1v.1h.2V53l-.1-.1-.1.1-.1-.1-.2-.1-.1-.1v-.2l-.1.1v-.1l.1-.2-.1-.2-.5-.3v-.1l-.1.1h-.4l-.1-.2-.1-.1.1-.1-.2-.1v0H57v-.1h-.1v.2l-.1-.1h-.1l-.1-.1-.1.1-.1-.1-.2.1-.4.2h0v-.2h-.1l-.1-.3h-.1l-.3.3v.3l.1.1h.1l.2-.1h.2v.2l-.1.1h-.1l-.3.1h-.2l-.4-.1-.2.2-.1.2-.2.2.2.4h-.1l-.1.1-.2.1-.1.1-.1.2-.2.3-.1.1-.4.2.3.5-.1.1h-.4v-.3l-.1-.1-.5.1-.1.1-.1.1-.2.1-.1.3-.1.1-.1-.1-.3-.4h-.1l-.1.3-.1.3-.1.1h-.3v-.7l-.3-.3h-.1l-.1.1.2.4-.1.2h-.1l-.1-.2h-.3v-.3l-.3-.2-.1-.1-.7.3-.1-.1-.3-.2-.1.3H48v.2l-.1.1-.1.1-.2.1h-.2V55H48l-.1-.1-.2.1v.1h-.1l-.2.1H47l-.1.2-.1.1-.3.1v.1h-.1l-.1.2h.1V56l-.2.2.1.1.1.1-.3.1-.1.1v0l.1.1-.2.1v.1l.1.2.3.1-.1.1v.1h.2l.2.1-.1.1.1.1-.2.1v.1h-.1v.2l.1.1.1.2h.1l.1.2h.1v.1l.2.1-.1.1V59l.2.1-.1.1v.3l-.2.1.1.2-.1.1V60h-.3l-.1.1h-.2v.1h-.1v.2h-.3l-.1-.1-.2.1v-.1h-.1l-.3.1H45l-.2.1h-.2l-.2.2.2.2v.2l-.1.1-.2.1.1-.2-.4-.2-.1-.3-.2-.2v-.2l-.1-.2-.1-.1h-.3l.1-.2-.1-.1-.1-.2-.2-.1-.3.1h-1.3l-.2-.2-.3-.2-.4.3h-.2l-.4-.1-.7.2h-.2l-.3-.1-.3.2-.2-.1-.2.2h-.1l-.1-.1v-.1l-.3-.1H37l-.3-.2-.1.1-.2-.1h-.2V59l-.4.1-.1-.2v-.1H36v-.3l-.2-.1-.1-.1h-.1l-.1-.1h-.2l-.1-.2h-.1l-.1-.1v-.3l-.2-.1h-.2l-.1-.1h-.4l-.4-.4-.2.2-.3.1h-.3l-.1-.1h.1l-.2.1h-.1v-.1l-.3-.3H32l-.2.1-.1-.2-.1.2-.2-.2-.2.1h-.1l-.1-.1-.1-.1-.1.1-.2.1h-.7l-.2-.3h-.2l-.4-.3-.3.1-.2.1-.1-.1-.1.1-.2-.1-.2.2-.1-.1h-.2v-.1l-.1-.1-.2-.1v-.1l-.1-.1-.2-.1-.3-.3-.3.1H27l-.1-.1-.1.1-.1-.2-.2-.1-.1.1h-.1l-.1.1h-.1l-.2-.1-.2.1h-.1l-.1-.1h-.6l-.4.2H24l-.1-.1-.2.1h-.1l-.2.1-.5-.3-.5.4-.3.1-.4.2h-.2l-.1-.1-.1-.1h-.1l-.2-.1-.1-.1-.1-.1-.1-.2H21l-.1.1h-.1l-.1-.1h-.2l-.2-.2h-.1v.2l-.4-.2-.2-.2h-.1V55l-.1-.1v-.1l-.2-.3h-.1v-.2l-.4.2h-.1l-.1-.1h-.2v-.1h-.2v.1l-.1-.1-.1.1-.2-.2-.1.1-.5.4-.1.1h-.2l-.3.2h-.2l-.3.1-.4-.1h-.4v-.1l-.3-.2h-.1l-.1-.3-.3.1h-.3l-.2-.1-.1-.1h.1l-.1-.1-.1-.1.2-.3-.2-.1v-.2h-.1l-.2-.3-.1-.1-.3-.2-.1-.2-.1-.2h-.1l-.3-.2v.2l.1-.1-.1-.2.1-.3h.1v-.2l-.1-.2H13l-.1.1v-.2l-.1.1-.1-.1v-.1h-.2l.1-.1h-.1l.1-.1-.2-.1v-.1l-.1.1-.1-.1v-.2l-.1.1H12v-.2l-.3-.1h.1l-.1-.1-.1-.4h.2v-.2l.1.2H12l-.1-.2.1-.1h0l-.2.1.1-.2H12l.1-.1h-.3v-.1l-.1.1-.1-.1h.2v-.1h.1l.1-.1h-.2l.1-.2h-.1v-.1l-.1-.2-.1.1v-.1l.1-.2h.1l.1-.1.2.1v-.1h-.2l.1-.2v-.1h-.3l.2-.1v-.1l-.2-.1-.2-.1.1-.1h.2l-.1-.1h.2l-.3-.2-.2.1.1-.3V47h-.2l.1-.1-.2-.1h.2l-.1-.2.2.1v.1l.1-.1v-.1l.1-.1-.2-.1v.1l-.1-.2-.2-.1-.2.1.1-.2h.1V46l-.1.1L11,46l.1-.2-.1-.1-.3.2v-.1l-.1.1v-.1l.1-.1-.1-.1-.2.1h-.1v-.1h-.1v.1h-.1l.1.2-.1.2L10,46v-.2l-.1-.2h0v-.1l.1-.1-.3-.2-.1-.1-.1-.2-.2-.1-.1.1-.2.2-.1.1-.2-.2-.1-.2h-.2l-.1.3v.5h-.1v.1l-.2-.3-.2-.5v-.2l.4-.5v-.3l-.1-.1H8l-.5.4-.3.3h-.1l-.3-.1-.2.1-.1.2h.1l.4.2V45l.1.1H7l-.4-.3h-.1l-.1.1v.4h-.2l-.2-.2-.2-.4h-.2l-.5.3-.3.5h-.1l-.3-.2-.2.1v.3l-.1.2-.5.4.1.4-.1.1h-.1l-.2-.5-.3-.4-.2-.1-.3-.2-.3.2h-.1l-.1-.2.1-.2-.2-.1-.2-.1H2l-.4.1v-.7l-.1-.3v-.5l-.3-.2v-.2Z"/></g></g></svg>