<svg xmlns="http://www.w3.org/2000/svg" viewBox="0 0 56.75 33.35"><defs><style>.cls-1{fill:#ffa600;stroke:#fff;stroke-miterlimit:10;stroke-width:0.8px;fill-rule:evenodd;}</style></defs><g id="Camada_2" data-name="Camada 2"><g id="svg2"><path id="path96" class="cls-1" d="M.87,13.2h0l.5-.2v-.1h.3v-.2h.2l.2-.1.1-.1v-.1l.1-.1v-.1l-.1-.1.2-.2.1-.1.1-.1.2-.1v-.1l-.1-.1h.2l.2.1v-.2l-.2-.1-.1-.2h-.2v-.2l-.1-.1v-.2l-.1-.1-.1-.3V10l.1-.3h0l.2-.1.1-.1V9.3l-.2-.1V9l.1-.1.1-.1.2-.2V8.4l-.2-.2.2-.1V8L3,7.9V7.8l.2-.3-.1-.1.1-.2.2-.2.4-.4v.3L4,6.8V6.6l.5-.4h.1L4.37,6l-.2.1h-.9V6h-.2L3,5.9h.1l.1-.1V5.7h.2V5.5h.1l.1-.1h.3l-.1-.1.1-.1H4l.2.1h.1l.1.1.2-.2h.1l.2-.1.2-.1-.2.3-.2.3.1.2-.1.3L5,6h.2l.1.1.3.2.3-.1H6l.1.1.1.1.1.2.1.1v.2h.1l.1.1H7l.2.2.1.2h.3v.3l.5-.3h.1l.2-.1.1.1h.4l.2.2h.4l.2-.1.2.4h.3l.2-.2.1-.2.2-.1.1-.3.1-.1H11V6.9h.1V6.7h.1v.2l.2.1-.1.2h.2l.1-.1h.1l-.1-.3.2-.2-.1-.1h.5l.1-.1.1-.2.1-.1v.1l.2.2h.2l.2-.1.2-.2h.2l.1-.1-.1-.1V5.5l.4.2.1-.1.2-.1V5.4l.1-.2-.1-.1.1-.2.2-.1h.1l-.1-.1.2-.3h.7l-.1-.2V4l.1-.1-.2-.2.2-.1-.2-.1.2-.2h.1V3.1l.1-.1.5-.3h.1l.1.1.3.1h.5l.1-.2h.6l.2-.2.2-.1.2.1h.3V2.3h.5V2.2h.2l.1.1.4-.1V1.8l.1-.1h.8l.2-.4h.4l.3-.3.4-.1.1-.1.2.1h.2l.1-.2.1-.2.1-.1H23l.2.1.1.2.3-.1.2.1h.3L24,.8l.1.5v.2l.1.2-.2.5.2.1h.1l-.1.3-.1.1-.3.1V3l-.2.1-.3.1-.1.1h-.1l-.2.2-.3.3v.5h-1.8l-.3-.1-.2.1-.1.3-.1.1-.4.2h-.1l-.1.3v.4l-.2.2V6l-.1.1v.2l.1.2.1.1-.1.3-.1.8-.3.3h-.6l-.2.3v.1l.1.1-.1.4v.2h.1v.6l.1.2-.1.2.1.1-.2.5,1-.2h.2l.7.1.4-.2.4.1-.1.2.2.2.2.1v.4l-.1.2.2.2v.1l.1.1v.2l.3.2h.5l.5-.4.3-.4H23l.6-.2.2-.1.3-.1.1-.1.5-.4h.2l.1.2.1.3v.2l.1.2v.1h.2l-.1.1v.1l.3-.3.4-.2h.1l.5-.2.5-.2.9.8v.7l.5-.1-.2.6-.2.3v.2l-.1.3.3.5.4.2h.1l.3-.7h.5l.3.1h.4l.5-.8V13l-.1-.2.1-.1.1-.1h.2l.2-.2.3-.1.1-.1.1-.5-.1-.3-.1-.1-.1-.1h-.1v-.1h-.1l-.2-.1-.2-.3.2-.2.1-.6.3-.5-.1-.2.2-.1.1.1.5.2.2.3.1-.1.2.1V9.6l-.1-.4V8.7l-.1-.1h-.1l-.2-.1-.1-.1L32,8.1l-.2-.1-.3-.2h-.1V7.5l-.1-.3V7l.1-.2.3-.5V6.1l.1-.5.5.1h.4l.5-.9.5.2.3-.1.5-.3.2.2.2.2v.6l-.2.3v.4h.1l.3.1.2.1.1.5.4-.1h.6l.4-.1h.5l.1-.1h.1l.2-.1.1-.1h.1v.1H38V6.5l.2.4.2.2.4.1v.3l.1.1.4.1h.2l.3.1L41,7.7h1l.1-.1.6-.1h.2l.1-.1.3-.3.2.1h.1V7.1h.1l.3.1.2.1h.3l.2.2v.1l.1.1h.3v.1h.1l.1-.2h.3V7.5l.1.1H46l.1.1V7.6l.1.1h.2l.1-.1h.1l.2.1.1-.1v.1h.2l.3.1h.1l.3.2.2.1.3.4.2.1h.7l.3-.2h.4l.1-.2h.1l.1.3.1.2h.1l.4.1.2-.1h.1l.2-.3h.2l.1-.4h.09l.1-.1h.1l.4.4h.1l.3-.1.2-.2h.2l.3-.1.2-.1.1-.1.1.1V9.9l.2.5.1.2.2.1-.1.1V11l.1.2-.1.1.1.1-.1.3h.1v.2h.2v.8l.2.5v.2l.3.3.2.1.2.1-.1.2-.1.2v.1l.1.3.2.2-.1.1-.2.1h.1v.1h.1v-.1h.1v.4h-.1v.1h-.1v-.1l-.1-.1v.1l.1.3h.1l.1-.2.2-.2v-.3l-.1-.2h.2v.9l-.2.1v.2l.1.2.1.1-.1.4.2.2v.3l.2.2h.2v.7l-.1.2-.1.4.1.4v.5l.1.1-.1.2.1.2-.1.4.1.2-.1.2-.1.3v.9l.1.1-.1.1-.1.1.1.4-.2.2-.1.3h-.19l-.2-.1-.21.1-.29-.2-.1.2h-2V21.9h-.2l-.1-.1-.1-.1-.3.2H52l-.2-.3-.2-.2v-.1l-.1-.2.1-.2v-.2l-.3-.2-.4-.3-.2-.2-.3-.2-.1-.1h-.1l-.1.1-.2.1-.3-.1h.2l-.3-.1h-.1l-.2-.1-.2.1h-.1l-.2-.1-.4-.1-.2-.1-.5.2-.3.3h-.5l.1.1v.1h-.1v.3h-.3l-.1.1-.4.2-.1.2h-.1l-.2-.1-.1-.2h-.2l-.4-.1-.3.1-.1.5v.2l.1.2-.1.1-.1.1-.1.1v.3l-.1.3-.1.1v.1l.1.1.2-.1-.1.2v.1h-.1l-.1.2.3.4h-.2l-.1.1-.4.1-.2-.1H43l-.1.1v.1l-.2.2-.1.1-.2.2h-.6l-.1-.1-.2.1v.1h.3l-.3.1h-.1v.1l-.1.1h-.1l-.3.2h-.1l-.3.2h-.2l-.2-.1-.3.1h-.2l-.1.1v.3l-.3.2-.5-.1-.1.1h-.4l-.2.2h-.1l-.1.2-.1-.1h-.3l-.2-.2h-.1l-.1.1-.3-.3-.5-.1-.2.1h-.9l-.3.1-.1-.3-.1-.1-.5.4-.1.1v.1l.2.1v.1l-.1.2h-.3l-.3-.2-.1-.1h-.8l-.1-.1-.2.1H32l-.2.1h-.2l-.1.1v.7l-.1.1.1.1v.2h-.1l-.1.2v.1h.5l-.2.1-.1-.1-.2.1-.5-.8-.2-.1-.2.1-.1.1-.1.1.1.3-.1.2.1.1-.1.1-.1-.1-.4-.1-.1.3v.2l-.1.1v.9l-.3.2-.1.1v.1h.1v.2h.2l.1.1V30l-.2.1-.4.1-.3.1-.1.1.1.3h-.3l-.2-.1v.1l.1.1h-.1v.1h-.3l-.1.1-.1.2-.1.1-.2-.1h-.4l-.1.2-.6.3-.3.2h-.3l-.1.2-.3.3-.3.1v.2l-.1.1h-.4l-.2.1-.4-.2-.3-.4h-.1l-.5-.1-.1-.3-.4-.4v-.6l-.3.1-.2-.1-.1-.1v-.1l.2-.1-.1-.2.1-.2h.1v-.3l-.1-.3.1-.2-.2-.3v-.2l.1-.3v-.4l-.1-.1-.1-.1h-.2v-.1h-.1l-.1-.1v-.3l-.2-.1-.2.1v.2h-.2v-.1l-.1.1-.1-.1h-.3l-.2.1-.2-.1h-.4l-.3.2v.1H19l.1-.3v-.1h.1l.3-.1.1-.1h.1v-.1l-.1-.1.1-.1h-.2v-.1H20l.5-.4v-.2l-.1-.1.1-.1.3-.1v-.3h-.2l-.1-.1.2-.1.1-.1.1.1.3-.2.1-.1h.1l.1.1.1.1v-.1l.1-.1h.1l.1-.2h-.1v-.1l.3-.4-.2-.2V24l-.2-.2-.1-.1-.1-.2v-.1l-.1-.1-.2-.2v-.4l.2-.1.1-.3.1-.3.2-.2.3-.2.2-.3h.3l.2-.2h.3l.2-.2.4-.1v-.1l.3-.1.1.1.2-.2v-.1h-.1v.4l-.2-.1-.1-.1-.1-.2.1-.1v-.1h-.2l.2-.3-.2-.2-.3-.2h-.1v.1h-.2l-.1-.2v-.1l-.2-.1h-.3l-.2-.1-.1-.1-.1.1-.1-.2h-.3l-.1-.2-.1-.2-.3-.2-.2-.1-.3-.2H20l-.1.2h-.7l-.2.3-.1.2.1.2-.5.3h-.3l-.1.1-.2-.1h.9l-.1.1-.4-.1-.3.1-.1.1.1.2v.2l-.1.1-.1.3h0l-.1.1v.1l-.1.1-.1.1V21l-.3.1-.3.1-.3.2-.3.1v.2l-.1.1-.2.1-.2-.1-.1.1-.1-.2-.3.2v.2l-.4.1v.3l-.2.1h-.1l-.1.3h-.1l-.1.2-.1.1v.1l-.1.1.2.1.1.1v.2l-.2.1V24l-.2-.2v-.2h-.1v-.2l-.1-.1h-.2l-.2.3h-.5l-.2.1-.1.1.2.1-.2.1-.1.1.1.1.1.1h-.5v.3l-.3.2V25l-.2.1-.1.1-.1.1-.2-.1-.1.1H11v-.2l-.2-.1-.3-.1-.4.3-.1.1v.4l.1.2V26l-.1.1-.5-.1-.1-.1v-.1l-.1-.1-.1-.1-.1-.2H9l-.2-.1-.2.2-.3.2-.2.1-.1.1-.1.1h-.2v.1h0l-.2.1-.1-.1-.2-.2-.1-.4.1-.2-.1-.1.1-.1h-.3l.2-.3L7,24.7l-.1-.1.1-.2h-.1v-.3l-.1-.1-.1.1-.1-.1-.1.1-.2-.3-.1.1-.1.1v.1l-.1.1-.4.1.1.1-.1.2h-.3l-.1-.2h-.3l-.2.2h-.3l-.1.1v.2H4l-.2.1-.2-.1-.3.1-.1-.1-.1.1v-.2L3,25h-.2v-.2l-.2-.1v-.2l-.1-.2h.3V24l-.3-.1v-.1h-.1v-.1l-.2-.2h-.1l-.2-.4h-.1l-.1-.2h-.2l.1-.1v-.3l.1-.1H2l.1-.1.3-.1v-.1l.1-.1-.1-.1.1-.1v-.2l-.1-.1h.2l-.1-.1.1-.2.2-.2-.1-.2-.1-.1v-.1l.5-.1v-.1l.1-.1v-.1h.2v-.3h-.2l.1-.2.1-.1.1-.3.2-.3.2-.2v-.4l.1-.1.1-.2L4,17.8v-.2h-.2l-.1-.2.1-.1-.1-.1-.4.2-.2-.1L3,17.2l-.2-.1v-.2l-.1-.1.1-.2-.1-.1h-.2l-.1-.1h-.3l-.3.1v.4l.1-.1-.1-.1.1-.1v-.4l.1-.1.1-.2.1-.3v-.1l-.1-.1L2,15.3l-.1-.1L2,15v-.1l-.3-.1v-.2l-.3-.1h-.1l-.2-.1-.3-.2H.67l-.1-.1.1-.1h.1l.1-.2H1l-.1-.1v.2H.67l-.1-.2.2-.1-.1-.2.2-.2Z"/></g></g></svg>