<svg xmlns="http://www.w3.org/2000/svg" viewBox="0 0 92.33 31.69"><defs><style>.cls-1{fill:#f90;stroke:#fff;stroke-miterlimit:10;stroke-width:0.8px;fill-rule:evenodd;}</style></defs><g id="Camada_2" data-name="Camada 2"><g id="svg2"><path id="path82" class="cls-1" d="M1,20.4h.3l.4-.2.1-.1.3-.4h.5l.2-.1.1-.1h.2l.2-.2-.1-.3v-.2h.1l.1-.1h.2l.1-.1.1-.1.1-.1.2-.4v-.2h.2l.1.1h.1l.2-.1.1-.2h.1l.1-.1.1-.3v-.3l.4.1.1-.5.1-.3.5-.1.1-.3h.1l.2-.1.2.2V16l.1.1.3.2.2.2.2-.2.1-.2v0l.1-.1h.1v-.3h-.1l.1-.2h.3l.1.1.1.2v.1h.3l.3-.3-.1-.4.1-.1V15l.4-.1v-.2h.1v-.2l.1-.1-.1-.4.2-.1.1-.1.3-.1.1-.1.1-.1h.3v-.1l.1-.2.1-.1.1-.2h.2l.1-.1v-.2l.1-.1h.2l.1-.1v-.1l.1-.1.5.2v-.1l.1-.1V12l-.1-.1-.1-.2.1-.4.2-.5.1-.3.5-.8V9.4l.1-1.1V8.1L13,7.8v.5l-.2-.2-.1-.1h-.1l-.7-.3-.4-.1-.3-.3-.1-.5.2-.5.3-.5V5.1l-.1-.1V4.9L11,4.4l-.1-.1-.3-.7V3.4l.1-.2.5-.1.2-.1.1-.2,1.4-.5.6-.1h1.7l.7-.2.4.2h.2l.1.1.4.5,1.3-.3,1-.2H20l.2-.2.4.1.3-.1.6-.7h.1l.2.1.5-.2.1-.1.3.1h.6l.5-.1.6-.1h.3L25,1h.1l.2.2.3.2h.3l.1.1h.1l.2.3.2.2.3.2.4.3h.1l.2.2.1.2.2.2.4.1h.1l.4.2.2.1H29l.4.3.2.2.4.4.2.1v.1l.1.4.2.3.1.1h.1l.1.1h-.1l-.2.2-.1.1v.3l-.1.1v.2h.4l.1-.1.1.1v.1l.3.1v.3l-.1.1h.2l.1-.1h.2l.2-.1.3.1.2.3h.4l.2.1.1.3.3.2V8l.1.2.1.4v.2l.1.2-.2.2.1.1.4-.3.2-.3.4.1.1-.1h.1l.1.3v.1l.3.1.1-.1h.2V8.3l.1-.1.1-.2.1-.2-.1-.2.1-.2V7.3h.1l.1-.1.1.1h.1V7.1h.2l.1.1.2-.1V6.8l.2-.2.2.1h.5l.1-.3V6.3l-.2-.1.1-.2h.1v.1H38l.1-.1V5.9l.1.1.2-.1h.2l.1-.2.1-.1-.1-.1.2-.1H39V5.3h.2l.1.2h.2l.2.4h.1l.2.2v.1h.1v.1l.3.1v.3h.1l.1.2v.2l.2.1v.2H41l.1-.2v.2l.1-.1.1.1.3-.1.2.1.2-.1h.3V7.1l.1-.1h.3l.2-.2h.3l.1.2h.3l.1-.2-.1-.1.4-.1.1-.1V6.4l.1-.1.1-.1.2.3.1-.1.1.1.1-.1.1.1v.3H45l-.1.2.1.1.1.1-.2.3h.3l-.1.1.1.1-.1.2.1.4.2.2.1.1.2-.1h.4V8.4h.2l.1-.1.1-.1.2-.1.3-.2.2-.2.2.1h.1l.1.2.1.1.1.1v.1l.1.1.5.1.1-.1V8.3l-.1-.2V7.7l.1-.1.4-.3.3.1.2.1v.2h.2l.1-.1.2.1.1-.1.1-.1.2-.1V7.2l.3-.2V6.7h.5L51,6.6l-.1-.1.1-.1.2-.1.3-.4.1-.1.2-.1h.5l.2-.3h.2l.1.1v.2h.1v.2l.2.2V6l.2-.1V5.7l-.1-.1L53,5.5l.1-.1V5.3l.1-.1.1-.2h.1l.1-.3h.1l.2-.1V4.3l.4-.1V4l.3-.2.1.2.1-.1.2.1.2-.1.1-.1V3.6l.3-.1.3-.2.3-.1.3-.1V3l.1-.1.1-.1V2.7l.1-.1h.1l.1-.3.1-.1V2l-.1-.2.1-.1.3-.1.4.1.1-.1h.1l.2.1.1-.1h.3l.5-.3-.1-.2L59,.9l.2-.3h.7L60,.4h.7l.3.2.2.1.3.2.1.2.1.2H62l.1.2.1-.1.1.1.2.1h.3l.2.1v.1l.1.2h.2V1.9h.1l.3.2.2.2-.2.3h.2v.1l-.1.1.1.2.1.1.2.1v.2h.1v.1l-.2.2L64,3.6l-.3.1v.1l-.4.1-.2.2h-.3l-.2.2h-.3l-.2.3-.3.2-.2.2-.1.3-.1.3-.2.1v.4l.2.2.1.1v.1l.1.2.1.1.2.2v.3l.2.2-.3.4V8h.1l-.1.2h-.1l-.1.1v.1l-.1-.1-.1-.1h-.1l-.1.1-.3.2-.1-.1-.1.1-.2.1.1.1h.2V9l-.3.1-.1.1.1.1v.2l-4.8-.2h-.3v.1h-.2v.1h.2l-.1.1.1.1v.1h-.1l-.1.1-.3.1h-.1v.1l-.1.3h.2v.1l.3-.2h.4l.2.1.2-.1h.3l.1.1.1-.1v.1h.2v-.2l.2-.1.2.1v.3l.1.1h.1v.1h.2l.1.1.1.1v.4l-.1.3v.2l.2.3-.1.2.1.3v.1h-.1l-.1.2.1.2-.2.1v.1l.1.1.2.1.3-.1V14l.4.4.1.3.5.1h.1l.3.4.4.2.2-.1h.4l.1-.1V15l.3-.1.3-.3.1-.2h.3l.3-.2.6-.3.1-.2H63l.2.1.1-.1.1-.2.1-.1h.3v-.1h.1l-.1-.1v-.1l.2.1h.3l-.1-.3.1-.1.3-.1.4-.1.2-.1v-.2l-.1-.1h-.2V12h-.1v-.1l.1-.1.3-.2v-.9l.1-.1v-.2l.1-.3.4.1.1.1.1-.1-.1-.1.1-.2-.1-.3.1-.1.1-.1.2-.1.2.1.5.3.2-.1.1.1.2-.1h.3V9.5l.1-.2H68V9.1l-.1-.1.1-.1V8.2l.1-.1h.2l.2-.1h.3l.2-.1.1.1h.8l.1.1.3.2h.3l.1-.2V8l-.2-.1V7.8l.1-.1.5-.4.1.1.1.3.3-.1h.9l.2-.1.5.1.3.3.1-.1h.1l.2.2h.3l.1.1.1-.2h.1l.2-.2h.4l.1-.1.5.1.3-.2V7.3h0l.1-.1h.2l.3-.1.2.1H77l.3-.2h.2l.3-.2h.1l.1-.1V6.6h.1l.3-.1h.1V6.4l.2-.1.09.1h.6l.2-.2.1-.1.2-.2V5.8l.1-.1h.5l.2.1.4-.1.1-.1h.2l-.3-.4.1-.2h.1V4.9l.1-.2-.2.1-.1-.1V4.6l.1-.1.1-.3V3.9l.1-.1.1-.1.1-.1-.1-.2V3.2l.1-.5.3-.1.4.1h.2l.1.2.2.1h.1l.1-.2.4-.2.1-.1h.3V2.2h.3V2.1L84,2h.5l.3-.3.5-.2.2.1.4.1.2.1h.1l.2-.1.2.1h.1l.3.1h.1l.3.1.2-.1.1-.1h.1l.1.1.3.2.2.2.4.3.3.2V3l-.1.2.1.2v.1l.2.2.2.3h.1l.3-.2.1.1.1.1h.2v.1h.1l.1-.2.3.2L91,4l.2.1h.1l.1.1h-.2l.1.2.1.2.1.1v.2l.2.2v.2l-.2.3-.2.5h-.1l-.1.1.1.1h.2l-.1.2.1.2.1.3-.2.6v.3h-.2V8l.1.2v.2h.1v.5l.2.2v.4l-.1.6-.1.4v.3l-.4.4v.2l-.3.6-.4,1-.1.3v.3l-.1.3h.1l-.3.5-.1.3-.1.2V15l.2.1-.2.5v.1h.1l.1.1-.1.1h-.2l-.1.1.2.2-.4.8-.1.4-.1.2-.1.2v.3l-.1.1v.2l.1.2-.1.1V19h-.1l-.1-.1-.1.1-.1.1-.1.2-.1.1v.3l-.3.5-.1.1.1.3-.2.1-.1.2.1.2v.1l-.1.1-.1.2.1.2-.3.4v.2h.1l-.1.2h-.1l-.3.4v.3l.1.3v.1l-.2.1-.2.5V24l-.3-.2H83.37l-.2-.1-.2.1-.4-.2h-.3l-.7-.2-.6-.2-.1-.2h-.4v.1h-.3l-.1-.1v-.1H80l.1-.2h-.3v.1h-.1v.1l-.1-.1v-.1l-.1.1v-.1h-.2l-.2.2v-.2l-.1.1-.1.1h-.2v-.6h-.1l-.1.1-.1.2h-.3l-.2.2-.1.1h-.2l-.2.2h-.3l-.1.2-.2-.1-.1.1h-.2l-.2.1-.2-.1-.2-.1-.1-.1h-.1l.1-.1-.1-.1.1-.2v-.1l-.1-.2h0l-.2.2-.2-.1-.1.2h-.3l-.2-.2-.4.1-.1-.1-.1.1h-.2v.1l-.1.2h-.1l-.1.1-.2.1v.1H73l-.2.2-.4-.1-.5.1-.3.4-.5.2-.1.2.1.2.2.1.1.2-.1.1v.1l-.2.2-.2.1v.1h-.4l-.1.1h-.2l-.1.3-.1.1h-.1V26l-.2.2h-.5v.2l.1.1v.3h.2l.1.1v.2l.2.1v.1l-.3.1-.1-.1v.1h-.1v-.1h-.1l-.1-.1-.2.1h-.1v.1l-.1-.1-.1.1v-.1l-.1.1-.1.1-.1.2-.1.1h-.1l-.2-.1v.1l.1.1-.1.1-.1.1-.2-.1-.2.1h-.2l-.1-.1-.1.2-.1-.1v-.2h-.2V28l-.2.1v.1h-.1l-.1.1-.1.1-.1-.1H66l-.1.2v.1l-.1.1-.1.1-.9.3v.4h.1v.2h-.1l-.2.1h-.1l-.2.1v-.2h.4v-.1l-.1.1v-.1l-.1.1-.1-.1v-.1h-.1l-.1-.1v.1l-.2-.1-.3-.4-.2-.1-.8-.1-.5.3h-.5l-.1-.2-.1-.1h-.3l-.1.1h.1l-.3.1h-.1l-.2.2-.2.4.1.1v.1l-.3.2v.2l.1.1v.1h-.1l-.1.1H60l-.3-.3-.4-.2-.3-.5h-.4l-.1-.2v.2l-.1-.2.1-.3-.3-.4-.1-.1-.4-.2h-.1l-.2.3-.2.1-.3.2-.1-.1v-.3l.2-.2-.5-.4-.2.1-.3.3v-.5h-.1l-.1-.2v-.2l-.2-.2-.1-.1-.2-.2-.3-.4-.2-.2v-.2h-.2l-.1-.2-.9-.4-.2-.2-.3-.2h-.5l-.4-.4.1-.1v-.4h.4l-.2-.1h-.1l-.2-.1-.3.3-.3-.1-.2.1-.2.2-.1.2.1.1-.1.1h-.4l-.2-.1-.1-.1.1-.1v-.1l-.4.2v-.2l-.2.1v-.1l.1-.1.1-.1V24l-.2-.1-.1-.2v-.1l-.2-.2-.1-.2-.1-.1V23h-.1l-.1-.1v-.2l-.2-.2-.1.1h-.2l-.3.3h.3l-.3.2.1.1v.2l-.2.2.1.1-.1.5-.1.1-.1.2-.2.2-.2.1v.1l-.1.3-.1-.1-.2.1-.1.2-.4.4-.1.2-.1.1-.1.1v.1l-.2.2-.1.3-.2.1h-.5l-.1.2h-.3l-.2.1h-.4l-.1.1-.3.3-.3.3-.2.4v.3l-.4.4-.3.1-.5.5-.2-.5-.5-1,.1-.2-.2-.5-.2-.3-.1-.1-.1-.1-.1-.4.3-.3h-.2l-.1-.2.1-.2.3-.2.1-.1v-.1l-.1-.3-.3-.3v-.2h-.3l-.2.1h-.1l-.4.4-.3.3-.3-.1-.2-.1-.2-.1-.4-.3-.3-.3-.2-.3-.1-.2v-.1l.1-.1v-.1l.1-.1.4-.3.1-.2.1-.4-.2-.2-.4-.3-.5-.1-.3.1-.5.7-.1.2v.8l.7.4h-.1l-.2.1-.4-.2-.2-.4-.1-.2v-.3l-.1-.5-.1-.3-.2-.2-.3-.1-.4-.4-.4-.3-.1-.1H35l-.6-.1h-.2l-.2.1-.5.1-.3.1H33l-.1-.1-.2-.1-.2-.4-.4-.2-.2-.2h-.1l-.4-.1-.4-.1-.5-.1-.4-.1v-.1l-.2-.2-.1.1-.1.1-.3.1-.3-.1v.1H29l-.1-.1-.1-.1-.1-.2v-.6l.1-.1-.1-.2-.1-.1-.2-.1-.1-.3v-.2l-.1-.2-.1-.1h-.8l-.2-.2-.1-.1-.1-.1h-.2l-.4.1h-.1l-.1.3h-.4l-.1.1v.2l-.3.2-.5.2-.1.1-.4.1-.1.1-.1.1v.1l-.5.2h-.3l-.3.1h-.6l-.1.3.2.4.1.5v.3l.1.3-.1.1-.1.1-.1.1h-.2l-.6-.1-.5.4h-.2l-.2-.1-.7.2-.3.1-.1.1v.4l.3.5.1.4-.3.5-.2.1-.1.3-.1.1-.5.6-.3.1-.2.1h-1l-.2.2-.2.2-.5.3h-.5l-.1-.2-.3-.2-.3-.3h-.1l-.1-.1h-.3l-.1.1-.3.3-.2.5-.1.5.1.4-.1.3-.2,1-.2.2-.2.5v.4l-.4.4h-.1l-.3-.1-.3-.3h-.2l-.2.2-.3.5-.2.3-.1-.1-.3-.1h-.2l-.3.1-.1.1-.1.4h-.1l-.2.2-.1.1h-.3l-.5.2-.4-.1-.4-.1-.5-.3-.1-.1h-.4l-.4.2.1-.2.1-.2v-.3l.2-.1h.1v-.3l-.1-.2.2-.2-.1-.2.1-.1-.3-.4.1-.1h.1v-.1l.3.1.2-.1v-.2l.3-.1.1-.1v-.2h-.1v-.2l-.1-.2.2-.3V27l.1-.2v-.3l.1-.2-.2-.1-.1-.2h1.5l-.3-.2-.2-.1h-.1v-.2H9l-.2-.1-.2.1v-.1h-.2l-.1-.2-.2-.1.1-.2-.1-.1v-.3L8,24.4v-.2l-.1-.2-.1-.2-.1-.2v-.5h0v-.4l-.3-.1v-.2l-.2-.2v-.4h-.1l-.2-.2v.7l-.4.1h-.2v-.2L6,22.1l-.2.1h-.1l-.3.2-.2-.1.1-.4-.1-.4h-.6l-.1.1v-.1h-.3l-.1-.2L4,21.2v-.1l-.1-.1-.1-.2v-.1l.1-.1v-.1l.1-.2-.6.1-.1-.1-.1.1-.1-.1-.1.1-.1-.1-.1.1-.3-.1h.2l-.1.1v.1h-.3l-.2.2-.2.1h-.1l-.3-.2h-.3Z"/></g></g></svg>