<svg xmlns="http://www.w3.org/2000/svg" viewBox="0 0 76.79 116.66"><defs><style>.cls-1{fill:#ffa600;stroke:#fff;stroke-miterlimit:10;stroke-width:0.8px;fill-rule:evenodd;}</style></defs><g id="Camada_2" data-name="Camada 2"><g id="svg2"><path id="path70" class="cls-1" d="M1.19,105.49l-.1-.5.1-.2v-.2h.3l.1-.3.1-.1v-.1l.2-.1.1-.3.1-.3.1-.1.2-.5-.2-.2h.1v-.2l.1-.4v-.1l.2-.2v-.2l.1-.3v-.1l.1-.2-.1-.3-.1-.1-.1-.1v-.5l-.1-.1v-.1l.2-.3v-.1l.1-.4v-.1l.1-.1.2-.1.1-.3v-.2l-.1-.2.1-.1-.1-.2v-.1l-.1-.1.1-.1-.2-.1.2-.3-.1-.4.1-.3v-.1h.1V96l-.1-.2-.1-.1-.1-.1.1-.1-.1-.2v.6l.2-.2-.1-.2.2-.1v-.1l.1-.3.2-.1h0l.2-.1-.1-.2.1-.1h-.1l.1-.1-.1-.1v-.1h-.1l.1-.1h-.1v-.2h0l-.3-.4-.1-.2-.2-.2-.1-.1h-.2l-.2-.1-.1-.1-.1.1-.1-.1.1-.2H2v-.2h-.1v-.1l-.1-.2V92H2v-.2l-.1-.2v-.2l.1-.3h-.1v-.3l-.1-.3h.1l.1-.1-.2-.2-.1-.1-.1-.3-.1-.1v-.6h.1v-.2h-.1v-.3l-.1-.1-.1-.1.1-.2-.1-.2v-.2l-.3-.2-.1-.3-.2-.2V87l-.1-.3-.1-.2.2-.2v.2l.2-.1-.1-.1.1-.1L1,86l.1-.1h.1l.1-.1v-.1l-.2-.1-.1-.1.1-.2.2-.1.1-.2v-.1h.1l.3-.3.2.1.1-.4.2-.1h.2l-.1-.2.2-.1h.2l.3-.6.1-.1-.1-.1.1-.3.1-.2h.1v-.1l.3.1.2-.2-.4-.2v-.1l.4-.3.1-.1v-.2l.1-.1-.1-.2.1-.1.2-.3-.1-.1.1-.3-.1-.4.1-.1.1-.2v.2l.2-.1-.1-.1.2-.1h.1l.1-.1-.1-.2.2-.1v-.3l.2-.2v-.3l.2-.2v-.5l.7-.6-.1-.2.1-.1.1-.2h.2l.1-.2-.1-.3.1-.2.1-.2-.1-.2.2-.4v-.3l.1-.1-.2-.3.2-.2H7v-.1l-.3-.2.2-.3.1-.1v-.1l-.1-.1.1-.1.1-.1v-.3h.1l.2-.1v-.1l-.3-.2.3-.1v-.1l-.2-.1-.1-.2h.1l.1-.1v-.2l.2-.1.1-.2-.1-.3.2-.1v-.2l.1.1.1-.1-.1-.1.1-.2-.1-.2.1-.1v.1H8v-.1l-.1-.2.1-.2.2-.1v-.3h.1l.2-.1-.2-.1V69h.1l.2.1h.1l-.1-.2.1-.1h.2l.1-.1v-.1h.1l.1-.1v-.2l.1-.2h.1l.2.1.4-.4.1-.2.2-.1h.4l.2-.1.3.1.2-.2.1-.1h.1l.2.1v.1h.1l.2-.2.3-.1.1-.3.3-.2.1.1h.2l.1-.1.5-.2.3.1h.1l.2.1.4-.3h.2l.2-.2h.3l.2-.1.3-.1.1.1.1-.1.1-.2.1-.2.1-.2.1-.1.2.1.2-.1L17,65l.1-.1v1l.1-.1.4-.2.1-.2.4.1.1.1.5-.2.2.4.2.1h.4l.1-.5.1-.1.1-.4h.1l.2-.1.1-.1.3-.1.3-.5V64l.3-.2.1-.1.1-.3.5-.1h.1l.1-.4.2-.2h.2v.2l.4-.2.4-.1.3-.3.2-.2L24,62h.2l.5-.2.3.2h.1l.3-.5.2-.2v-.1l-.1-.3.1-.2.1-.2v-.3h.4l.5-.5v-.4l.2-.1H27v-.5l.2-.3.4-.2.1-.3.1-.1h.1v.3h.2l.1-.2-.3-.4v-.2h.4l.2.3h.1l.1-.2V57l.1-.2H29l.1-.1.6-.1.2-.2h.2l.2.1v.2l.2.1h.1l.1-.2.1-.1.5.1.4-.3.5-.1.1-.2.1-.1.1-.1.3.2.2-.2h.5l.2-.1h.1v.1l.1.1.4-.1.2.1.3.1.3.3.3.1.2.2h.2v-.1H36l.1.1v.1l.1.3.1.1.5.2.1.1.1.2.1.2.4.2v-.1l.2-.1.3.1h.2l.2-.1h.1v.1l.4.1.2-.4.5.1.4-.1.3-.2.1-.2h.1l.5-.1.5.1.3.2h.3l.4-.2.3-.3h.3l.2.2h.2l.4-.1H44l.2-.2.1-.4.5-.2.4-.5.1-.3v-.2l.1-.5.3-.4v-.5l.2-.4-.2-.1v-.1l.1-.1L46,53l-.1-.3.1-.3-.2-.3V52l.3-.5v-.3l.1-.1.3-.3v-.1l-.1-.1-.2.1-.1-.1.1-.3.1-.4-.1-.2v-.2l-.1-.1-.1-.2v-.1h-3.5l-.3-.1-.3-.1-.3-.4h-.3l-.2-.2-.1-.1-.1-.5v-.1l-.2-.1-.2-.1h-.4l-.2-.2-.1-.4-.3-.3v-.1l.1-.1.2-.1v.7l.1-.1v-.4l-.1-.1-.2-.2-.2-.2v-.2l-.1-.4-.1-.1V45l.3-.5-.3-.5.1-.3-.1-.2-.1-.5.1-.2v-.1h.3v-.2l-.2-.6.1-.5v-.1l-.1-.1-.1-.1v-.2l.1-.1.1-.2.5-.1h.2l.1-.2.1-.3.3-.2.1-.5L41,39v-.1l.1-.4.1-.1.4-.1.2-.2.1-.4.1-.1.4-.1.2-.1v-.2L43,37l.2-.1.1-.2.1-.5v-.3l-.2-.5v-.2l.4-.5v-.3l-.1-.5-.1-.3-.1-.5-.2-.3H43v-.6l-.3-.6v-.2l.1-.5-.2-.2v-.1l-.4-.4v-.5l-.1-.3-.5-.5h-.1l-.1-.3v-.3l.3-.3.1-.2v1.1l-.3-.2-.1-.1-.1-.2.1-.2.2-.2.2-.1h0l.1-.1.5-.6.1-.2.1-.2v-.1l-.1-.4.2-.3v-.3h.1v-.3l-.3-.2-.1-.2.1-.4-.2-.2-.5-.4v-.1h-.1l-.2.1h-.2v-.8l-.3-.5v.2l-.1-.5v-.3l.1-.3.5-.6.1-.1.1-.1h.5v-.1l-.3-.2.1-.2.1-.1.3-.1.2-.2v-.3l.2-.5.1-.1.2-.5h.2l.1.1h.1l.1-.3.1-.3.6-.5.2-.2v-.6L45,16l.1-.1.1-.1-.1-.2-.1-.3.1-.1.1-.2v-.2l-.2-.4v-.2l.1-.2.3-.3.3-.4h.2l.1-.2V13l.1-.3.3-.2.2-.1.2-.2.4-.5v-.3l.1-.2.3-.2v-.3l.1-.2.1.1h.1v.3l.2.2h.2l.2-.1.2-.3h.2v.2l.1.1.2-.1.1-.2v-.2l.3.1h.2l.4-.3.1.1.4.2h.1l.2-.1.5-.2.5.1.1-.1v.1l.1-.2-.1-.3.2-.1v-.1l.5-.1.2-.4.2-.1v-.3l.1-.2.1-.1h.2v-.3h-.5v.7l.1-.1.2-.2h.5l.2-.1.5-.1h.3l.2-.1.2-.3h.1v-.1l.1-.3.1-.2h.1l.2.1H56v-.6l.2-.2v-.4l.1-.1.2-.1.2-.1.3-.4.1-.2.4-.3.2-.1.1-.5v-.1l.3-.3-.1-.3-.1-.1-.4-.3-.1-.1-.2-.3-.2-.2.1-.4v-.3l.3-.1v-.1l-.1-.2v.2l.3-.3.2-.2.2.1.2.4.5.4.3.1h.1l.5.5.4.2v.1l.4.3.5.3H61l.3-.1h.1l.3.2h.4l.2-.2h.2l.5.1.1.1.1-.1.2.1.3-.1.4.2h.1l.4.2.1-.1h.1v.4h.1v.1l.3.2h.4V5l.2.3v.2l.1.2h-.1l.1.1-.1.2v.1l-.1.2h.1v.3l-.2.1v.1h-.2V7l-.2.2-.3.3-.1.2V8L64,9.49l-.2.5v.1l-.2.2v.2l-.1.2v.1l.3-.1v.5h.1l.1.2h.6V12l.2.2.1.4v.1l.2-.1h.2l-.3.1-.1.1v.5l-.2.3h-.4v.1l-.1.1v.1l.2.1.2.1.2.5-.1.6-.1.1.1.1.2.1h.5l.2.2h.3l.3.2V16H66l-.1.1-.1.5.2.2-.2.3-.5.5v.1l.2-.2v.1h.1l.1.3V18l.1.1.1.1v.1l.1.2.1.2.2.2.2.4-.2.5h-.1v.1h-.1V20l-.1.1.1.2.1.2-.3.2v.1H66l.2-.1.2-.1h.2l.2-.1.1.1.1-.1v.1l.2.1h.1l.3.1h.3l.1.1V21l-.2.2.1.2-.2.5-.1.1.2.3v.2l.2.1.4.1-.2.2-.5.7.2,1.1V25l-.2.1-.2.4-.2.2v.5l-.2.4v.5l-.2.3v.4l-.2.2-.1.3h-.1l-.1.3h-.3l.1.1h.2v.2l-.1.3v.2l.4.2.3.4.1.1-.4.5-.4.4-.1.2v.1l-.2.1v.1l.2.1.4.1v.1l-.2.1-.1.3v.1l-.2.1.1.5-.2.2.3.4-.1.2.2.3v.2h.2v.1l.1.1.1-.2.2.1.5.6.1-.1h.1V35l.2.1v.3l-.1.4h.5V36h.1v.1l.1.1v.2l.4.2.2-.2h.1l.1.3.2-.1v.3l.4.2.1.3.1-.1h.1l.2.3h.3l.1.2-.1.3.1.4-.3.2.3.2h.1l.1.2-.2.1v.4l.2.1v.2l-.1.3-.2.1-.1.3.1.1.2.3.1.2-.1.1h-2.4l-.1.1v.1l.1.2.1.1.1.1.1.2v.1l-.2.2v.5l-.1.1.1.2v.2l.3.2V44l.1.2.1.2-.1.4-.1.2-.4-3.1-.1.1.1.2.1.4.2.3-.1.2.1.4.1.4-.1.5.1.3.2.5-.1.3.3.3v.7l-.1.3-.1.1V47l-.2.2v.5l.3-.1.2.2.2.6.2.4-.1.3v1.1l.4.5.2.5.1.1.2.1.1.1V52l-.1.5-.2.1v.2l.1.5V54l.1.4v.4l.5.5.2.5v.1l.2.2v.1l-.2.4.1.1.3.3h.7l.3.3.3.2.1.1.5.1.6.1h.4l.2.1.1.1.2.2v.1l.1.3.1.1.1.3.1.1h.2l.2-.2.2-.1.3.1V59l-.2.2-.1.1-.2.2-.1.2h-.3l-.2.1v.4l-.1.2.2.5-.1.2v.6l.3.1v.1l-.3.1v.1l-.1-.1v.2h.1v.1l-.2.2v.1l-.2.4-.2.1v.1l-.3.4.1.2-.2.5v.2l-.1.1-.1.5-.1.7.1.4-.1.2-.4.2.1.2-.2.7-1.4.5-.1.2-.2.1-.5.1-.1.2v.2l.3.7.1.1.5.5v.1l.1.1V71l-.3.5-.2.5.1.5.3.3.4.1.7.3h.1l.1.1.2.2v.1l.1.3v.2l-.1,1.1v.3l-.5.8-.1.3-.2.5-.1.4.1.2.1.1V78l-.1.1v.1l-.5-.2-.1.1v.1l-.1.1h-.2l-.1.1v.2l-.1.1h-.2l-.1.2-.1.1-.1.2v.1h-.3l-.1.1-.1.1-.3.1-.1.1-.2.1.1.4-.1.1v.2h.4v.2l-.4.1v.1L70,81l.1.4-.3.3h-.3v-.1l-.1-.2-.1-.1H69l-.1.2H69v.3h-.1l-.1.1v.4l-.1.2-.2.2-.2-.2-.3-.2-.1-.1v-2.3l-.2-.2-.2.1h-.1l-.1.3-.5.1-.1.3-.1.5-.4-.1v.3l-.1.3-.1.1h-.1l-.1.2-.2.1h-.1l-.1-.1h-.2V82l-.2.4-.1.1-.1.1-.1.1h-.2l-.1.1h-.1V83l.1.3-.2.2h.3l-.1.1-.2.1h-.5l-.3.4-.1.1-.4.2h-.4v.1l-.2.2-.1.3-.2.4-.2.5-.1-.1-.4.5-.2.2h-.2l-.1.3h-.1v.1l-.1.1v.2l-.1.2h-.1l-.1.4-.2.1v.4l-.3.1-.1-.2h-.2l-.1.2h-.2v.2h-.1l-.5.1v.2l-.1.2h-.6v.1l-.1.4v.7l-.4.3-.2.2h-.1l-.3.3v.3l-.3.3-.2.8h-.2l-.2-.1h-.1l-.2.2-.3.1-.1.2-.1.1H55l-.2-.2h-.3l-.2-.3-.4.3-.4-.2-.2.1h0l-.5.3-.3.1h-.8l-.2.1h-.2l-.2-.1H51l-.2.1-.3.2-.1.1h-.3l-.3.1h-.1l-.1.2-.5.3v.4H49l-.1.1-.4.2-.3.2.3-1.1v.4l-.1.1-.2.1-.1.1-.3-.1-.2.1-.1.1.1.2-.1.2-.4.1-.4-.1-.3.1-.3-.1-.1.1-.1.2-.3.4-.1-.1-.2.1h-.2l-.3.1h-.2v-.1l-.3-.1-.1-.1V96l-.2.2-.2.2-.2.1v.3l-.1.1L43,97h-.2v-.3l-.2-.3v-.5l-.1-.2h-.1l-.2.2h.3l-.3-.4-.2-.1h-.3l-.3-.2v-.1l-.1-.2-.1-.4v-.2l.1-.3-.1-.1v-.1l-.2-.2-.2-.1-.3.1h-.1l-.5.1v-.3h-.4v-.1l-.2-.1h-.1v-.1h-.1L39,93l-.1.1h-.1v.2l-.2-.2h-.2l-.2.5-.3.2-.1-.1-.1-.2h-.3l-.2.1h-.4l-.1.2h-.2l-.1-.4h-.1l-.2-.1-.2-.3h-.4l-.3-.3-.3-.5-.1-.2-.4-.5-.2-.1h-.1l-.2-.1-.3.1-.2.1-.4.4-.2.2h.7l-.3.1h-.1l-.3.3-.3.4-.2.1-.5.5-.3.4-.8.3-.3.1-.2.2-.2.4-.3.2-.5.7V96l.1.4v.4l.2.1h0V97l-.1.2.3.1.4.6v.5l.2.5.2.1.1.1.5.2.1.2h.3l.2.2.2.1.2.2v.1l-.2.2v.2l-.1.2-.3.1v.2h-.2v.3h.2l.1.1v.1l-.2.4.3.3.2.1.1.2-.1.4-.3.2-.1.3v.2h-.9l-.1.1-.2.3.1.2v.3l-.1.6-.3.4-.5.5v.9l-.2.2-.3.2-.2.2-.1.1-.1.3-.2.2-.1.5v.1h-.7l-.4-.2-.2-.1h-.2l-.1.2-.1.4.1.5v.1l-.2.2-.1.1-.3.9-.1.2-.1.1h-.3l-.1.1-.2.4-.1.2h.3l-.2.1h-.2l-.2-.1-.2-.1-.3-.2h-.1l-.3.2h-.1l-.3-.1-.3-.2-.3-.5-.1-.1-.1-.1-.2-.1h-.2l-.1.1-.5.6-.1.1-.3.1-.4-.1h-.1l-.1.1-.1.2-.2.2-.3.1h.1l-.4-.3h-.4l-.2.1-.2.4-.1.1-.2.1h-.3l-.2.1-.1.1v.1h-.1l.2.5-.1.3v.1l-.3.1-.4-.1-.2.1-.1.1-.3.1-.1.1v.3h-.4l-.3.5v.3l-.1.1-.1.1-.4.3-.1-.2h-.1l-.3.3h-.2l-.1.1h-.1l-.3.3-.5-.5v-.1h-.1l-.3-.1h-.3l.4-1.5-.2-.1-.1-.1-.2-.1-.1-.1h-.2l-.3.1-.1-.1h-.6l-.7-.1h-.1v-.1l-.1-.1h-.4l-.1-.1-.2-.5v-.1l-.3-.1-.5-.1-.5-.4-.2-.8V111l-.1-.1-.1-.2h-.2l-.2-.1h-.1l-.1-.1-.1-.1v-.1l-.1-.6-.1-.3.1-.2v-.3l-.1-.2.2-.3.4-.4.1-.1v-.2l-.4-.3-.1-.3.1-.5-.1-.2-.4-.3-.2-.4-.2-.1-.1-.1-.3-.2-.1-.1v-.5l-.1-.1-.4-.3-.2-.3v-.1l-.2-.3-.2-.2h-.1l-.5.3h-.2l-.3.3-.2.1h.2l-.2.3.1.2.1.3-.1.3-.2.2-.6.4-.6-.1-.5-.3-.6.2Z"/></g></g></svg>