<svg xmlns="http://www.w3.org/2000/svg" viewBox="0 0 53 31.18"><defs><style>.cls-1{fill:#f90;stroke:#fff;stroke-miterlimit:10;stroke-width:0.8px;fill-rule:evenodd;}</style></defs><g id="Camada_2" data-name="Camada 2"><g id="svg2"><path id="path74" class="cls-1" d="M.9,20.88h0l.2-.2.1-.1.1-.3.2.1.1-.2.1-.1V20l-.1-.1v-.3l.4-.1v-.2l.4-.4v-.1l.1-.2.1-.3h.1l.2-.2-.1-.2.2-.1.3-.3h.1l.1-.1.1.1.1-.1v.2h.1v.1l.1.2L4,18l.3-.2v-.2l.1.2h.3l.2.1.2-.2h.2v-.1l.2-.2h.1l.1-.1v-.5l.1-.2.5-.5.2-.1.1-.1h.1l.2-.1v-.3l.2-.2.1-.2.2-.2.2-.5-.1-.2.2-.2v-.1l.5-.5.2-.4.2-.4H8.4v-.1H8.2l-.2.1v-.2l.1-.3v-.4l.1-.1.3-.3.3-.1.3-.5.2-.2v-.2l.1-.1v-.1l.5-.3.2-.1.2-.4h.2l.2-.1.1-.2.1-.1.1-.5v-.2l.3-.4.1-.2-.1-.3.1-.1v-.1l.1-.3.2-.1.4-.3.2-.2.1-.1h.1V6l-.1-.2v-.2l.1-.3v1l-.1-.1V6l.2-.3.1-.7.5-.5.1-.4.1-.1.1-.1.5-.2.3-.7.1-.5.2-.5,2.3-.5.3-.1,1.3-.3,1.3-.3.1-.1.1.2.3.5.2.2.4.4.3.2h.1l.3.1.2-.1.2-.1h.2l.2.1.4.2.2.1.2-.1.4-.2H24l.1-.1.1-.1.5.4.3.1h.3l.3.3.3.4.5.5.5.2.3.2.2-.1-.1.1.2.2.1-.1.1-.1h.1v.3l.2.1.3-.1.5.1.1-.2.2.1.1-.1h.2l.4.1.1-.1h.4l.3-.2h.3l.6.1.5.1.5.2h.3l.1-.1.2.1.3.1v.1l.3-.2h.2l.5.1h1.2l.4-.1.4-.2.3-.2H37l.3-.2h.4l.1-.1h.8l.5.2.4.2h.4l.4.1.4-.1.1.1h.1l.2.1.2.1.5.1.1.1h.2l.7.2.1.1.1-.1h.2v-.1l.6.4.5.1.4.2H45l.3.4.1.2.2.1.4.3.4.5.1.2.1.1.1.3.2.7.1.2.2.2.2.1.2.2v.2l.2.3h.1V10l.1.1.2.2.1.1v.2l.1.2v.1l.1.1v.3l.1.2.1.3h.1v.5l.1.3H49v.6l.1.2h.2v.1l-.1.6v.2l.1.1v.3l.1.2h.1v1l.1.2.1.1.1-.1h.1V17l.1.4h.3l.1.3h.1v.1l.1.2-.1.4.1.3v.1h.1v1.1l.1.6v-.1l.1.1v.1l.1.3.1.2h.1l.1.1h.3v.1l.1.7v.3l-.1.1.1.4.1.3.1.1h.3l.1.1.1.4.2.5v.7l-.1.1-.2.1-.3.1h-.2l-.2.2-.3.1h-.1l-.4-.4h-.1l-.1.1h-.1l-.1.4h-.2l-.2.3h-.1l-.2.1-.4-.1H46.2l-.1-.2-.1-.3h-.1l-.1.2h-.4l-.3.2h-.7l-.2-.1-.3-.4-.2-.1-.3-.2h-.1l-.3-.1h-.2v-.1l-.1.1-.2-.1h-.1l-.1.1h-.2l-.1-.1v.1l-.1-.1h-.3l-.1-.1v.1h-.3l-.1.2H41v-.1h-.3l-.1-.1v-.1l-.2-.2h-.3l-.2-.1-.3-.1h-.1v.1h-.1l-.2-.1-.3.3-.1.1h.3l-.6.1-.1.1h-1l-1.2.1-.3-.1h-.2l-.4-.1-.1-.1v-1.4l-.4-.1-.2-.2-.2-.4v.1h-.1v-.1h-.1l-.1.1-.2.1h-.1l-.1.1h-.5l-.4.1h-.6l-.4.1-.1-.5-.2-.1-.3-.1h-.1v-.3l.2-.3v-.5h0l-.2-.2-.2-.2-.5.3-.3.1-.5-.2-.5.9h-.4l-.5-.1-.1.5v.2l-.3.5-.1.2v.2l.1.3v.3h.1l.3.2.2.1.1.3.1.1.2.1h.1l.1.1v.5l.1.4V26l-.2-.1-.1.1-.2-.3-.5-.2-.1-.1-.2.1.1.2-.3.5-.1.6-.2.2.2.3.2.1h.1v.1h.1l.1.1.1.1.1.3-.1.5-.1.1-.3.1-.2.2h-.2l-.1.1-.1.1.1.2v.1l-.5.8h.2l-.3-.1h-.4l-.3.7h-.1l-.4-.2-.3-.5.1-.3v-.2l.2-.3.2-.6-.5.1v-.7l-.9-.8-.5.2-.5.2h0l-.4.2-.3.3v-.1l.1-.1h-.2v-.1l-.1-.2v-.4l-.1-.3-.1-.2h-.2l-.5.4-.1.1-.3.1-.2.1-.6.2h-.1l-.3.4-.5.4h-.5l-.3-.2v-.2l-.1-.1v-.1l-.2-.2.1-.2v-.4l-.2-.1-.2-.2.1-.2-.4-.1-.4.2-.7-.1h-.2l-1,.2.2-.5-.1-.1.1-.2-.1-.2v-.6h-.1V25l.1-.4-.1-.1v-.1l.2-.3h.8l.3-.3.1-.8.1-.3-.1-.1-.1-.2v-.2l.1-.1v.2l.2-.2v-.4l.1-.3h.1l.4-.2.1-.1.1-.3.2-.1.3.1h.2v-.5l.3-.3.2-.2H19l.1-.1.3-.1.2-.1v-.2l.3-.1.1-.1.1-.3H20l-.2-.1.2-.5-.1-.2v-.2l-.1-.5.1-.1h-.3l-.2-.1-.3.1L19,17l-.2-.1h-.1l-.1.1-.1.2-.1.2h-.2l-.2-.1-.1.1-.4.1-.3.3h-.4l-.2.4h-.8l-.1.1v.4l-.4.1-.1-.1H15v.1h-.5V19h-.3l-.2-.1.2.4-.2.2h-.6l-.1.2h-.5l-.3-.1-.1-.1h-.1l-.5.3-.1.1v.2h-.1l-.2.2.2.1-.2.1.2.2-.1.1V21l.1.2h-.4l-.2.3.1.1H11l-.2.1-.1.2.1.1-.1.2v.1l-.2.1-.1.1-.4-.2v.4l.1.1-.1.1H9.8l-.2.2-.2.1H9.2L9,23v-.1l-.1.1-.1.2-.1.1H8.2l.1.1-.2.2.1.3H8.1L8,24h.1l.1-.2-.2-.1v-.2H7.9v.2H7.8v.1H7.7l-.1.1-.1.3-.2.1-.1.2-.2.2H6.7l-.2-.4-.2.1H5.9l-.2-.2H5.3l-.1-.1-.2.1h.2l-.5.3v-.3H4.4L4.3,24l-.2-.2H3.7l-.1-.1H3.5v-.2l-.1-.1-.1-.2-.1-.1L3.1,23H3l-.3.1-.3-.2-.1-.1H2.1l-.3.1.1-.3-.1-.2.2-.3.2-.3-.2.1-.2.1H1.7l-.2.2-.1-.1H1.3L1.1,22H1l-.1.1.1.1H.7l-.2-.1-.1-.3v-.2l.2-.2v-.1l.3-.4Z"/></g></g></svg>