<svg xmlns="http://www.w3.org/2000/svg" viewBox="0 0 82.38 96.55"><defs><style>.cls-1{fill:#75bc11;stroke:#fff;stroke-miterlimit:10;stroke-width:0.8px;fill-rule:evenodd;}</style></defs><g id="Camada_2" data-name="Camada 2"><g id="svg2"><path id="path50" class="cls-1" d="M9.6,25.15v-1.1l-.3-.4-.5-.5-.2-.3-.3-.2v-.1l-.2-.5-.5-.3-.2-.2-.6-.4-.3-.1-.3-.2-.3-.1-.4.1-.1-.1-.3-.4-.3-.5-.4-.3-.3-.3-.1-.6-.3-.1-.3-.2L3.2,18l-.3-.2-.3-.2v-.1l-.1-.1L2.4,17l-.3-.4-.2-.5-.2-.2-.3-.2-.4-.3-.4-.3-.2-.5v-.5l.1-.3.3-.3H1l1.2.5.5.5.5,1,.5.4.5.2.2-.2h.3L5,16v-.1l.6-.1.4-.2h.6l.7.1.4-.1.2-.1h.3v.2h.3l.3.1.2.1h.4l.3-.2h.1l.2.3h.2l.3.3.3.5V17l-.1.1.1.2.3.3.4.7.2.1v.1l.5.1V19l.2.1h.1l.2.4h.1v-.3l.1.1.1-.2.1-.1.1-.2.1-.1h.2l.1-.1.1-.1.1.1.4-.2.1-.1.1.1v.5h.1l.1.1v.1h.3l.3.1.4-.1h.2l.3.1-.1.1.1.1.2.1.1.1h.1v-.1h.2l.2.1.3-.3H17l-.1-.1v-.1h-.2l-.1-.1v-.1l.1-.1v-.1l.1-.3v-.5H17l.2.1.1.1.2.4.2.1.2.3.3.3.1.2-.1.2.1.1-.1.1v.1h.3l.3-.1v.4H19l.1.1h.1l.2.2.1-.1.1.2v-.2l-.1-.3h.1l.1.1v-.1h.1l.2.1h.1l.2.1.2-.1v-.4l.3-.3.1-.1-.2-.2.1-.1V19H19.5l.1-.2h-.2v-.1l.3-.3h.2l.3-.1.5.4H21l.2-.1h.1v-.1l.1-.2.1.1.1.1h.1l.1.2.4-.1.1.1.4.1h.2l-.2.7-.2.2v.5l.1.1v.1l.3.4h.4l.2.1h.6l.3.2.3.2v.2l.2.2H25l.1.1v.1L25,22v.4l-.1.2h-.2l.2.1.5.3v.3h.2l.2.3.2.2.1.1h.3l.1-.1.4-.4.1-.2v-.3h.2l.3-.2.2-.2.3-.2.3-.4.2.1h.2l.1.2h.1l.1.3h.1l.1.2.3.2h.1v-.2h.1v-.2l.1-.1-.1-.2.1-.3-.1-.3v-.3l-.1-.1.2-.2v-.1h-.2l-.1-.2-.3-.2v-.1l.3-.2h-.8v-.1l-.2-.1-.1-.2v-.1l-.2-.1.1-.4v-.3l.3-.1.2-.2.1-.3-.3-.1-.1-.4h.1l.2-.2v-.2l.2-.1.5.2.2-.1h.5v-.1l.1-.1.3.1h.3l.1.1h.2l.1.2v.1h.4l-.1-.1v-.2l.2-.1h.1l.1-.1-.1-.2v-.3l-.1.1-.2-.1h.1l.1-.2-.1-.2h.2l.3-.1v-.1l-.2-.2.4.1v-.1l.1-.1h.1l.1.1.1.1.1-.2h.2v-.2h.1l-.5.3h-.2l.1-.2.1-.1.1.1h.1v-.1h.4v-.1l.1.1h.1l.1.1h.1v-.1l.3.3h.3v.3h.1l.2.2.1-.1h.1v.1H35l.2-.1.1.2h.4l.2.2.1-.1.1.1.2.1.3-.1v.2l.3.1h.2l.2.1v.1l.1-.1.1-.1h.3v-.2h-.1v-.2h.2l.1-.1v-.1h.1l.1.1h.1l.1-.1-.1-.1V16l.2-.1.3.2.1-.1.1-.1v.2l.1-.1h.2l.1-.2.1.1.1-.2.1-.1h.1l-.1.1v.2l.1.1.4.4.1.3.2.1v-.3l.1-.4V16h.2l.1-.1.2.1h.2l-.6-.1-.1-.1.1-.1H41v.2l.2.1h.2v-.1l.1-.3-.1-.2h.2v-.2l.1-.1V15l.2-.1V15h.3v-.1l-.1-.1v-.1h.1l.4-.1.1-.2h.1v.1l-.1.1.1.1.3-.1h.4l.1-.1h.2v.1H44v.3h.2l.1-.2.2-.1.1.2h.2l.3-.1h.1l.1-.1v-.1l.2-.1.2-.2h.1v-.1l.1-.3.1-.1-.2-.1v-.1l-.1-.2h.1l.1-.1-.1-.3h0l.1-.1v-.2l.4-.1.2-.2h.1l.1-.2H47l.1.1-.1.1h.2v-.1h.3v.1H48l.3.1h.2v-.2h.3l-.1-.2.2-.1v-.1h.4l-.1-.1.2-.1v-.1l-.3-.1v-.2H49l-.1-.1h-.1V11l-.2-.1.1-.3H49v-.1l.1.1h.2l.1.1h.1v-.2l.2.1.1.2.1-.2.4.2v-.2l.2.3h-.7l.2.2.1.1h.1v.1h.2v.2l.2-.2h.1v-.1l.3-.1.2-.2.2.1h.1l.1-.1h.7V11h.4v-.1l.1-.3h.3l.1-.1.1-.2-.1-.3h.3l.1-.1-.1-.1-.1-.1.2-.2-.1-.1v-.2l-.2-.1v-.2h.3v-.1l.2-.1.1-.2v-.3l.2-.2h.3l.1.1.3.1.3-.4h.1l.2-.1-.1-.1.1-.1h.3v-.1l.4-.1.2.1.1-.1.1-.2h.1l.1-.1h-.1l.1-.1-.1-.1.1-.1.2-.2h.2l.1-.1v-.1l.2-.1v-.1l.2-.2.1-.2.1-.1-.1-.1v.4l.4-.1v-.1l.2-.2.1-.1h.2l.1-.5-.1-.2-.9-.3-.2-.1v-.2l-.1-.2-.1-.3-.2-.1.1-.4-.1-.2.1-.2h0l-.1-.1-.1.2v-.1l-.1-.3.1-.2L56.9,2l-.3-.1v-.2l-.1-.1H56l-.2-.1.2-.3h.2l.2-.1.2-.1.3.1H57l.2.1.2.1.2-.1.1.1.1-.1h.1v.2l.3.2h.4l.1-.1.2-.1.4.1H60l.1.3h.1l.3-.2v-.2l.2.1.3-.2.2.1v.2l.2-.1H62l.1-.3h.4v-.1h.1l.1-.1V.75H63l.2-.1.1-.1.2-.1.2.1.1.2V1l.3.2.2-.1.3-.2.1.3.4.5.1.6v.1h.3l.1.1.1.1v.1l.1.2h.1l.3.2v.1l.1-.1.2.1h.1l.1.1h-1l.1.1-.2.2.2.1v.1h-.1v.4l.2.4-.1.1.1.1-.1.1.1.2h-.1v.2l-.1.2-.1.2-.1.9-.1.1-.1.1-.1.2.1.1-.1.2-.1.1.2.2v.3l-.2.4.2.1v.1l-.5.5-.2.3-.1.1.1.1v.4l-.4.2-.1-.1-.1.1h-.1l-.2.1.1.3h-.2l.1.2h0v-.1h-.1l-.1.1v.2l.1.1-.1.4.1.1h.8l-.1-.2.3-.1v.2l.2-.1.1.1v.2h.4l.1.1.2-.1.1.1.1-.1h.1l.1.2.2.1.1-.1v.1h.1l-.1-.1.1-.3h.1v.1l.3.1.1-.1v.1l.2.1-.1.1.3.1-.1.1.1.1.2-.2h.2l.1-.2v.1l.2.1-.1.2-.2-.3h.2l.2-.1.1.1.2.1.1-.1v-.2h.1l.1.3h.2v.1h.2l.2.3h.2l.2.2.1.1.3.3.2-.1.2.2-.2.1.1.3v.1l-.2.1-.2.2h-.4l-.1.2-.1.1v.2h.2l.1.1-.4.5.1.1v.3l.1.3v.1l.2.1h0l.3.2h.5l.4.2-.1.3-.1.1-.3.5h.1l.2.2h.2v.3l.3.1V18h-.1l-.1-.1V18l.1.1.2-.2v.2l-.1.1.1.1.1-.1h.1l-.1.1.1.1-.2.2v.1h.2l.1.1.1-.2h.2v.1h.3l.1.2h0l.1.1-.2.1v.2h-.1l-.1-.1h-.1l.1.1-.1.1h-.3v.4l-.2-.2.1.2h-.2l-.1.1v.4h.1v.3l.1.1v.2l-.1-.1-.1.1-.1.1.1.1v.1l-.1.1-.1-.2-.1.2-.2.1h0l.1-.1v-.1h-.1l-.1.2h-.1l-.2.1-.1.2-.2.1v.1h.1V22l.1.1.1.1-.1.1.1.2-.1.2-.2.1-.1-.1-.1.2h-.1l-.1.1-.1.1-.1.1v-.3h-.3L69,23l-.1.3h-.2l.1.1h-.1l-.2.2-.1-.1-.1.1-.2-.1v.2l-.1-.1-.2.1h-.1v.2l-.1.2-.1.1h.1v.1l-.2.1.1.1h.3v.2l.1.2.3.1.2.2v.3l-.3.1v.1h.2v.1h-.2L68,26l-.1.2v.3H68l.2-.1h.1l-.1.3.1.5.1.1v.2l-.1.1-.2-.1-.1.1.1.3L68,28l-.1.1-.1.1-.1.1-.1.4h-.2l-.1.3v.2l-.1.1.2.2-.2.1h-.3v.1l-.1.4.2.5-.1.1h0v.1h-.1l-.1.1V31h.2v.2h-.1l-.1-.1-.1.2-.2.1v.2l-.2.1v.1l.1.3-.1.2-.1.2v.2l.2.2-.1.1-.1.5v.1l-.3.4-.1.3.2.1v.1l-.2.2.1.2-.1.1.1.2-.1.1v.6l-.1.3.1.5-.1.2.1.5v.1l.2.3.1.1-.1.2v.1l.2.2v.2l.1.1H66v.2h.1l.3.2.2.2-.1.2.3.4-.1.1v.2l.1.1v.1l.3.2-.1.2.1.1V41l-.1.3.2.2h-.1v.2l-.2.2V42l.2.4.2.2.1-.2.1.2.2.2v.1h.1l.1.2L68,43l.1-.1v.2l.3.1.1.2.2-1.5h.1l.1-.1h.5v.1l.2.1-.1.2.2.2v.2l-.2.1.1.4h-.1l.1.1-.1.2-.1.1V44l.2.2-.1.1.1.1v.3l-.2.1-.1.3.1.4h.1v.1l.1.1-.1.1h.2l-.1.1h-.1l-.1.1h.1v.5h-.1l-.1.1.1.1-.1.3v.3l-.2.1.1.2-.1.1.2.3-.1.3.1.2h.3l.2-.1h.3l.1.2.1.1.2-.2-.1-.2.1-.1v.1l.2.3-.1.3V49l-.1.1V49l-.2.1-.1.2.1.1h-.1l-.1.2.1.1-.1.1v.1h.3l.1.2v.1l.1-.1.3.1.1.1.2.2.1-.1h.3l.1-.1.2-.1.2.2.1-.1v.1h.1l.1.1v-.6l.1.1v.2l.2.2v.2h.1v-.1l.1-.1.1.1v.4h0l.1.2.3.1h.3l.1.4.2.1-.1.3.1.2h.2l.2-.1v.3l.2.2v.1h.1l-.1.2h.3V53l.1-.1v-.2h.3l.1.1v.1l.1.4-.1.1v.2h.2l.1-.1h.1l.2.2.1.1-.1.1.1.1.1.3-.1.1h.1l.1.1.1.1.1.1h.3l.1.2.3.1v-.1h.3l.2.2.1.1h.1l.1.1h.3l.2.1.2-.1.1.1.1-.1.1.2.1.1h.1l.1-.1h.1l.1.2.4-.1.2.1h.2v-.1l.1.1.1.2.1.1.1-.1h.1l.6-.1V56l-.1.1v.1l.1.1.2.1.2.3-.2.1v.1l-.1.1.2.1v12.8H66.4l-.2.5-.1.9-.2.2-.2.1-.5.2v.1l-.3.3v.2l.1.1.1.1-.2.2v.1l-.1.1.1.2-.3.1-.2.3h-.2l.1.1-.4.4v.4l-.2.4h-1l-.1.2.1.1v.1l.1.1-.1.2h-.1l-.3.3.1.2-.2-.1-.1.1v.2l-.1.2-.2.1-.1-.1-.1.1.1.3-.1.4-.1.1.3.4-.1.1-.1.1v.4h-.3v.1l.1.3-.1.2v.1l-.2.1-.1.3-.1.1.1.1-.1.1.1.1v.2l-.5.4v.2l-.1.2V81l-.2.1.1.5v.1l.2.1V82l-.1.1.1.2.2-.1v.2l.2.1.1.2.1.1.2.2h.2v.3l.2.2-.1.3h.1v.3l-.1.2h-.1l-.4.2-.1.1h-.3l-.1.2h-.3l-.2.1L60,85l-.1.1-.1-.1h-.6l-.2.2-.1.1.1.1-.1.1.1.1-.1.2h-.1l-.2.2.2.1v.1l-.4.4h-.1l-.1-.1H58v-.1l-.5-.2v.3l-.3-.1h-.1l-.1.1h-.1v.1l-.3.1-.2.2.3-1,.1-.2h-.1l-.5-.2-.1.1-.3-.2-.3.1.1-.2-.1-.1-.1-.2.1-.2-.1-.1.1-.2-.3-.1v-.1l.1-.1.1-.2-.1-.2-.1.1-.1-.1-.1-.1h-.1V83l-.2-.1h-.5l-.1-.3v-.3l-.1-.1-.1-.1-.3.2-.4-.4v-.2h-.1v-.4l.1-.1-.1-.4h-.2l-.1.1h-.1l-.1-.1-.1.1h-.2l-.4-.2h-.2l-.1-.1-.1-.4-.4-.2H51l-.3.1-.1-.1-.1-.1-.3.1-.1.1v.1l-.3-.1h-.1l-.2-.1h-.1l-.1.1v.2l.1.2-.1.1v.3l-.1.1-.6.1h-.3l-.4.4-.3-.1-.2.1-.1.1-.4.2-.2.2h-.3v.3l-.1.1H46l-.1.1-.2.3v.3l-.1.2-.5.4-.3.2-.2.5v.7l.1.1v.1l-.2.2v.4l-.3.2v.3l-.1.1.1.3-.1.4.1.1h.2v.3l.2.2.1.2v.4l-.1.2h.1l-.1.1v.1l.2.2-.2.1v.1l.1.1.1.2-.1.1-.1.2-.1.2.1.3-.1.1-.1.1-.1.4-.1.3-.1.5-.2.2-.1.2.3.1.4.4v.2l-.1.2-.1.1-.3.4v.1h.1l.4.1.1.3H45l.2.1v.4l.3.5.5.2.1.2.1.1v.2l-.1.1v.4H46l-.1-.1-.7-.6L45,95l-.2-.3-.5-.4-.5-.2-.3-.1-.8-.3-.3-.3-.4-.1-.3-.1-.2.1-.2.2-.2.1h-.4l-.4-.1-.1-.3-.1-.4-.2-.3-.4-.5-.1-.5-.1-.3-.4-.4v-.3l-.3-.6-.1-.2-.3-.3-.3-.3h-.4l-.2-.1-.1-.1-.1-.1-.1-.1.1-.2-.2-.4h-.2l-.1-.1h-.1l-.2-.2-.1-.1-.4-.1v-.3h-.2l-.2-.1H35l-.2-.3-.2-.2-.2.1v-.1l-.2-.2-.1-.2h-.2l-.1-.2-.3-.4h-.1v-.1l-.2-.1.1-.1v-.1l-.1-.1v-.1L33,85l-.1-.2-.4-.1-.1-.1h-.2v.1l-.1-.1h.6l-.1-.2-.2.1-.3-.2L32,84v-.1l.2-.1-.1-.3H32v-.3l.2-.1v-.3l.1-.1.3.2v-.1l.2.1h.4V83l.1.1.1.1.1.2.2-.1v-.1l.1-.1.3.1.1-.1-.1-.1H34v-.1h.3v-.1l.1.1.2-.1v-.2h.3l.1-.1h.1l.1-.1v-.1l-.1-.2L35,82v-.1h.2v-.2l-.2-.2-.1-.1v-.2l-.1-.2.1-.1v-.1l.1-.1-.1-.3.1-.1h.1l.1-.2v-.2l.1-.1.1.1.1-.2h-.1v-.2l.4-.2.1-.1.2-.1.1-.3h.1v-.1l.2-.1-.1-.3.1-.1.1-.1v-.4l.1-.1-.5-.3-.1.1H36l-.1-.1-.1-.1.1-.1-.2-.3v-.1l.2-.1.1-.2h-.2l-.1-.2v-.3l.2-.1-.1-.3.1-.2v.6l-.2-.1h-.2l-.2-.2-.1-.2-.1-.2-.4-.3v-.2l-.1-.2-.1-.1v-.1h.1v-.4h0l-.3-.8L34,73l-.1-.2-.3-.1-.3-.2-.2-.3v-1.1l-.2-.4-.2-.2V70l-.2-.5.1-.5.1-.1.1-.3.1-.2v-.1l.1-.1-.1-.2-.1-.4-.1-.1-.3-.4-.3.2h-.2v-.6l-.2-.3.1-.5.1-.5-.3-1.3.1-.2.1-.3.4-.5.5-.4.1-.1v-.5l-.1-.1-.2-.2-.1-.4.2-.6.3-.3.1-.4v-.2l-.2-.3-.2-.3-.1-.2.1-.2-.1-.1v.1l.1-.3v-.1h-.8l-.3-.5-.1-.7-.5-1.1-.3-1.4-.2-.1-.1-.3.1-.2v-.1l-.2-.5-.1-.1H30l-.4-.2-.3-.3-.3-.2-.2-.2-.1-.4-.2-.1-.1-.2-.3-.4-.4-.2V51l.1-.4.4-.4.1-.2.1-.1.4-.3.1-.2-.1-1.5.4-.8.1-.5-.1-.5-.2-.2h-.1l-.3-.2-.9-.3v.5l-.2-.3h-.2l-1.1-.2-.4-.1-.5.2-.5.1-.6-.4-.2-.3-.3-.3-.2-.2-.2-.4-.1-.3v-.5h-.3l-.1-.1h-.4l-.9.3-.3.1-.4-.2-.7-.5-.1-.2-.5-.5V42l.1-.3-.1-.4-.3-.9v-.2l.4-.5v.2l-.2-.1-.5-.1-.7.1-1.3.3-.8.3-.5.1H15l-.6-.3-.5-.2-.4-.1-.9-.4-.3-.2-.1.1-.2-.2h-.1l-.1.1h-.1l-.1-.1.1-.1-.2-.1v-.1h-.2l-.1-.1.1-.2.1-.3v-.2l.1-.2h0v-.1l.1.1h.1v-.3l.3-.2v-.2l.2-.2.1-.2v-.2l-.1-.2h.1v-.2l-.2-.2v-.1l.2-.2h.1l-.1-.2-.2-.1v-.3l.1-.1v-.1H12v-.2l-.1-.2v-.1l.1-.1-.1-.1-.5-.3-.1-.2-.2-.4v-.4l-.5-.2-.1-.2-.2-.3-.1-.3-.5-.5L9.5,31l-.5-.5-.3-.3.1-.2.2-.4.1-.3v-.7l-.4-1,.1-.9-.3-.2-.1-.2.1-.3.2-.2.5-.5.4-.1Z"/></g></g></svg>