<svg xmlns="http://www.w3.org/2000/svg" viewBox="0 0 74.83 49.04"><defs><style>.cls-1{fill:#75c5f0;stroke:#fff;stroke-miterlimit:10;stroke-width:0.8px;fill-rule:evenodd;}</style></defs><g id="Camada_2" data-name="Camada 2"><g id="svg2"><path id="path94" class="cls-1" d="M.73,17.77h0l-.1-.2.1-.1.5-.1v-.1l-.3.1-.1-.2h.1l.2-.1h0V17l-.2-.1v-.1H1l.1.2h.1l.3-.1-.4-.3v-.1l.1-.2.2.2h.2l-.1-.1h-.1l-.2-.2-.1-.2h.2l.2.2.1.2.2-.1-.1-.1-.2-.1-.1-.4.1.1.2.2.1-.1.1-.1v-.1l-.1-.1-.1-.2h.2l.1.2.2-.2-.2-.2h.4v-.1l-.3-.2h.1v-.2l.2.1.2-.1v-.1l-.1-.2v-.1l.4.2h.2l-.2-.1-.2-.2.2-.1L3,14l-.1-.1.1-.2-.3-.1.1-.1.1-.2h-.2v-.1l.5.1v-.1l-.1-.1L3,13h-.3v-.1h.1l-.1-.1-.1-.2-.1-.1v-.1l.1.1h.1l-.1-.2h-.1l-.1-.2V12l.2-.1v-.1h-.2v.1h-.2l-.2-.2.2.1.1-.1h.1v-.2l-.1-.1-.1-.2-.1.2h-.3l.1-.2-.2-.1v-.2l.1.2L2,11l.1-.2-.2-.2v-.1H2l.1.2.2-.2-.2-.1v-.1h.2l-.1-.2v0H2V10h-.1l-.2-.1.1-.1.1.1v-.2H2l.1-.2L2,9.37h.1v-.3h.1v-.4h.2v-.1h-.1l-.2.1H2l.2-.1-.1-.1-.2-.1.2-.1.1.1v-.1l.1-.2h-.2v-.3h.1v.1l.1-.1.2.1-.1-.2.1-.1h.1l-.1-.2h.1l-.1-.1-.1.2v.6h-.1l.2-.1.1.1v-.2l-.1-.1v-.1l.1-.1v.1h.1v-.2h-.1v-.2h-.1l-.1-.1h.1l.1-.1L2.43,7v-.2h.1l.1-.1-.1-.1v-.1l.2-.1-.1-.1h.1v-.2l.2-.1H3l-.2.1h.1V6l.2-.3.1-.2.1-.2v-.2h0l.2.1h.3l.3-.1.1.3h.1l.3.2v.1H5l.4.1.3-.1h.2l.3-.2h.2l.1-.1L7,5l.1-.1.2.2.1-.1.1.1V5h.2v.1h.2l.1.1h.1l.4-.2v.2h.1l.2.3v.1l.1.1v.1H9l.2.2.4.2v.1h.1l.2.2h.2l.1.1h.1l.1-.1h.1l.1.2.1.1.1.1L11,7h.1l.1.1.1.1h.2l.4-.2.3-.1.5-.4.5.3.2-.1h.1l.2-.1.1.1h.5l.4-.2h.6l.1.1h.1l.2-.1.2.1H16l.1-.1h.1l.1-.1.2.1.1.2.1-.1.1.1h.1l.3-.1.3.3.2.1.1.1v.1l.2.1.1.1v.1h.2l.1.1.2-.2.2.1.1-.1.1.1.2-.1.3-.1.4.3h.2l.2.3H21l.2-.1.1-.1.1.1.1.1h.1l.2-.1L22,8l.1-.2.1.2.2-.1h.3l.3.3v.1h.1l.2-.1h.2l.1.1h.3l.3-.1.2-.2.4.4h.4l.1.1h.2l.2.1v.3l.1.1h.1l.1.2h.2l.1.1h.1l.1.1.2.1v.1h.2v.1l.1.2.4-.1v.1h.2l.2.1.1-.1.3.2h.4l.3.1v.1l.1.1h.1l.2-.2.2.1.3-.2.3.1h.2L31,10l.4.1h.2l.4-.3.3.2.2.2h1.4l.3-.1.2.1.1.2.1.1-.1.2h.3l.1.1.1.2v.2l.2.2.1.3.4.2-.1.2.2-.1.1-.1v-.8l-.2-.2.2-.2h.2l.2-.1h.2l.3-.1h.1v.1l.2-.1.1.1h.3v-.2h.1v-.1h.2l.1-.1h.3v-.1l.1-.1-.1-.2.2-.1v-.3l.1-.1-.2-.1v-.1l.1-.1-.2-.1v-.1h-.1l-.1-.2h-.1l-.1-.2-.1-.1v-.2h.1V8l.2-.1-.1-.1.1-.1-.2-.1h-.2v-.1l.1-.1-.3-.1-.1-.2V7l.2-.1-.1-.1v.3l.2.1V7l.1-.1.3-.1-.1-.1-.1-.1.2-.2v-.1h-.1l.1-.2h.1l.3-.1.1-.1.1-.2H39l.2-.1h.1v-.1l.2-.1.1.1h.1v-.1h.2l.2-.1.1-.1.1-.1v-.2h.1l.1-.3.3.2.1.1.7-.3.1.1.3.2v.3h.3l.1.2h.1l.1-.2-.2-.4.1-.1h.1l.3.3v.5h.3l.1-.1.1-.3.1-.3h.1l.3.4.1.1.1-.1.1-.3.2-.1.1-.1.1-.1.5-.1.1.1v.3h.4l.1-.1-.3-.5.4-.2.1-.1.2-.3.1-.2.1-.1.2-.1.1-.1h.1l-.2-.4.2-.2.1-.2.2-.2.4.1h.2l.3-.1H48l.1-.1v-.2h-.2l-.2.1h-.1l-.1-.1v-.3l.3-.3h.1l.1.3h.1v.3l.4-.2.2-.1.1.1.1-.1.1.1h.1l.1.1v-.2h.1v.1h.2v0l.2.1-.1.1.1.1.1.2h.4l.1-.1v.1l.5.3.1.2-.1.2V3l.1-.1V3l.1.1.2.1.1.1.1-.1.1.1v-.1h-.2v-.1h.1V3l-.1-.1.1-.1v-.1l-.1-.2h.2v-.2l.3-.2.3-.1.2-.1.2.1V2l.3.1v.2l.1.2.1-.1h.1l.1.1h.2v.1l.1.1.1-.1.1-.1.1-.1.1-.2-.1-.1v.1h-4l-.1-.1h-.1l.1-.1.1-.1.1.1.2-.1.1.1-.1.3v.1l.2-.2.2.3.1-.2.1.1.3-.2.1-.3.1.3v0l.1-.1h.2l.2-.1h.2l.3.2.1-.1-.1-.2v-.1h.2v-.1l.3.1.1.1v.3l-.1.2.4-.4-.2-.1.1-.1.2-.1.1.1-.1.1.1.1.3-.1.1.1.1.1.1-.1.4.1-.1.1.1.1.1.1h.1l.1.1h.1v-.2l.1.1v.2l-.2.1h.1l.1-.1v.2l.1.2H55l.1-.1.1.3.2.1v-.2l.1-.1.1.3h.1v-.2h-.1V3h.1l.1.2.2.1v.3h.4l-.2.2.1.2h.1l.2-.2.2.1.1.2h.2l-.2.2H57l.1.1.1-.1.1.1v-.1h.1v.1h.1v.2l.2-.1v-.2h.1v.2l-.1.1.2.1H58v0h.1l.1.2v-.1h.2v.1h.1v-.2l.2.3.2.1.1-.2h.2l-.1-.1v-.1h.1l.1.2v-.1l.1.1.1-.1.1.1v-.1h.1l.1-.1v0l-.1-.2h.1l.1-.1h-.1l.1-.1v-.2l.1.1.2-.2.1-.2h.3V4l.1-.1h.1l.1-.1v-.1l.2.1.1-.2v.1l.1.1v-.1h.3v-.1h.1v-.1h.1l-.1-.1.1.1v-.1h.1v-.1H62l.1-.1.3-.2h.2v.1l.1-.1-.1-.1h.2v-.1h0l-.1-.1v-.1l.1-.1h.1l.1.1v-.1l.1.1v-.1l.1-.1h.1v-.3l.2-.1.1-.1-.1-.1h.2l.2-.1.1-.1h.2v-.1h.2l.1-.1h.1l.1.1h.1l.1.1v-.1H65v.1l.1-.2h0l.1-.1.2.1.1-.1.1.2h.1v-.1h.2l.1-.1v.2l.2.2.1-.1h.1l.1-.2h.1l.1.2H67v-.1h.1l.1-.1h.1v-.1l.1-.1.1-.1h.1v.1h.2l-.2-.1h3.9V1h.2V.87l.3-.2.1.1.1.1V1h.1v.1h.2V1l.1.1.1-.1v.3l-.2.8.1.2.1.1V3l.2.6h.7l.1-.1.1.1-.1.5.2.3.2.1v-.1l.1-.1v.1l-.1.2-.1.1-.4.6-.3.5-.1.5-.4.6-.1.4v.3l-.3.4-.2.5-.3.5-.1.3-.1.1-.2.5-.1.7v.3l.1.2-.1.3.1.5.1.1.1.1.2.1v-.1l.2.1.1.2.1.1h.3l.1-.2v.1h.2l-.1.2h0l-.1.1-.1.4h-.3l-.1.1-.1.5-.1.4.1.2-.1.1.2.2.1-.1-.1.2V15h.1l-.1.1.1.1h-.1l-.1.1.2.3.2.1h.1v-.1l.1-.1.1.1v-.1h.1v.1l.1.2h.1l-.1.1.1.1H73v.2l-.1.1-.1.3-.1.1.1.2h-.1V17l-.1.1V17h-1.8v.2l.1.3.3.3.2.2h.3l.2-.1v-.1l.1-.2v-.5l.1-.1.1.1.1-.2.1.1-.2.2.2.3h.3v-.2l.1.2.1-.1-.1.2h-.1l-.1.1-.1.1-.1.2.1.3h.3l-.1.1h-.1l-.1.1h-.1l-.2.1v-.1l.2-.1v-.1l-.2-.2L72,18l-.3.1-.1.1-.2.1-.2.2v-.1l-.2.2h-.2V19l-.1.1v.3l.2.4.1.2.2.1V20h.1l.1-.1h.1V20h.1v-.1h.1l.1-.1v.4l.1.1h.2l-.1.1v.1h-.2v.2l.1.2-.1.2V21l-.1-.1v-.1h-.2l-.1.4v.1l.1.1h-.2v.1h.1l-.1.2h-.1l-.1.1H71l-.1-.1h-.1l-.3.1-.1.2-.1.2v.3l-.1.1.2.5v.2l.3.2-.1.2.2.2.4.1v.1l.1.2-.1.1h.1l-.1.1-.1.1h-.2v-.2h-.3l-.2.1h.1l-.1.2v.2l-.1.1-.1-.1V25l.1.1.2.1.3.1v.3l.1.2V26l-.1.2.1.2.1.2-.1.2v.1l-.1.1.2.2-.1.3.2.2.1.4-.1.1v-.1H71l-.1.1-.1.2.1.2.1.1v-.1h.2v.2l-.1.2H71l-.1.2-.3.2v.2l-.1.1v.1l.1.1-.1.1-.1.3v.3l.2.2.1-.1.2.2-.1.1v-.1l-.1.1v.4h-.1l-.1.2-.1.1v.1l-.1.2v.1h0v.1h.1v.1h-.1l-.1.1v.1h.1l-.1.1-.1.1v.1l-.2.4v.1H70v.1l-.1.1v.4l.2.1v-.1l.1.1-.5.3-.4.6-.1.4.1.1h.1l-.1.1-.3.4-.2.3-.1.4v.1h.1l-.1.1-.2.3-.1.3v.4h.3v.1l.1.1h-.1l-.2.2v.1h.1l-.1.2-.2.1-.2.2.1.1-.1.1H68l-.3.2v.2l.1.1-.2.1-.1-.1-.1.1h-.1l-.2.1-.3-1.6-1.2.6-1.1.7-1.5.9-1.4,1.1-.4.4-.2.1-.6.5-.6.7-1.1,1.2-.1.1-1.7,2-.9,1.3h-.5v-.1l.2-.1h-.1v0l-.1-.1v-.1l-.1-.1-.2.1h-.1l-.3-.2h-.2V47l-.1.1V47l-.1-.1h-.3v-.1l.1-.1-.2-.1v-.1h.1l-.1-.1h-.1v-.1l-.1-.2h-.2l-.3-.1-.2-.1h-.2l-.1-.1h0v-.1h-.2l-.1.1-.1.2-.2.1-.2.1-.1-.1-.4.2-.1.1h-.3v.1H51l-.3.1h-.4l.1.4h.1l.2.2.2.2h.2l.4.5-.2-.1h-.2l.1-.1v-.1h-.3l.1-.1h-.2v-.1l-.1-.1h-.2l-.1-.1h.1l-.2-.1h-.1V47l-.1.1v.2H50v-.1l-.1-.1V47h-.1l.1-.1v-.3h-.1v-.1h-.2l.3-.2H50l-.1-.1h-.1l.1-.1h-.1l.3-.1v-.1l-.1-.1h-.2l.2-.2v.1h.2l-.1.1h.2v.1h.3l-.1.2h-.1v.2l.3-.2-.1.2.2-.1-.1-.1.1-.1-.1.1v-.4h0v-.2h.1v-.3l.2-.1h.1v.1l-.2.1v.1H51l.1.1v.1l.2-.2v.2l.1-.1h.2l.1-.1.1.1H52l-.1-.1-.1-.1.1-.1v-.1h.2v-.3l-.1-.1h.4v.1l.1-.1-.1-.2h.3v-.2l.1-.1h-.1V44h.2v-.1l-.1-.1H53l-.1-.1h.2v-.1h-.3l-.1.1h-.2l-.3.1v.3h-.3l.6-.3v-.1l.1-.1v-.1h.1v-.1h.1v-.1h0l-.3.1.2-.2v-.1l.1-.1.1.1v-.3l.1.1.2-.1-.2-.1-.1-.1-.2-.1v-.3h.1v-.1h-.2l-.1-.1.2-.1-.1-.1.2-.1v-.2h.1v-.1H53v-.1h-.1l-.1.1v-.2l-.3.1.1-.1.1-.1h.1V41l-.2.1.1-.4h-.1v-.4l.2.1v-.2h-.1v-.1h-.1l.1-.1v-.2l.1-.1v0l.2.1.1-.1v-.1h.1l-.2-.1v-.2l.1-.2h.2l.1-.1v.1l.1.1h.1l.1-.1.1.1-.2.3h.1v.1l.2-.1-.1-.1.1-.2V39h.4v.2h.1V39l.1-.1h.2l-.1-.1h-.1v-.2h-.1v-.1h.1l.1-.1.2-.1h-.1l.1-.1-.1-.1.1-.1.1-.1.1-.2h.1l.1-.1v.2l.1.1h.1l.2-.2v.2l.4-.1h.3v.1h.1l.1-.1.1-.1-.1-.2h-.2V37l-.1.1-.1-.1-.1-.3-.2-.1h-.1l.1-.2.2-.2-.2-.2.1-.1h-.1v.2l-.3.1-.1-.1.1-.1v-.4h-.1v.1l-.2.1h.1l-.1.2.1.1-.1.1-.1-.1L55,36h-.1l-.1-.3h-.1v.2l.1.1-.2-.1-.2.3-.1-.1.1-.1H54v-.4l-.2-.1.3-.1h0l-.2-.1-.1.1-.2-.1v.1l.1.2h-.1l-.1.1h-.1l-.3-.2H53l-.1.1.1.1.1.1-.2.1-.1-.2-.1-.2h-.2l-.1-.2h-.1l-.1.1v.1l-.2.1-.2-.1-.1.1-.1.2-.1.1H51l-.2-.1-.2.2-.2-.2h-.2v-.1l.1-.2.1-.1v-.1l-.2-.1v-.1l-.1.1v.1l-.2.1-.1.2h-.1l.2.3.1.2-.3.1-.1-.1v-.3l-.2-.3h-.2l-.1-.1H49l-.2.2-.1.1-.1-.1-.2-.4v-.1l-.3.2.1.1h.1v.1l-.3.1-.2-.1h-.1v-.1l-.1-.1-.2-.1h-.2l-.1.1H47l.1.3H47l-.1.1v-.6l-.1-.1h-.1l-.1.1-.1.3h-.2l-.1-.2h-.6l-.1-.1-.2-.2h.1l-.3-.1h-.2v.3h-.1l-.1-.1-.2-.1-.2-.3-.2-.2H44l-.2.2h-.2l-.1-.2.1-.2-.3-.3-.3-.1.1-.3-.2-.3-.1-.1-.2-.1v-.3h-.3l-.5-.3h-.1v-.6l-.1-.1v-.1l-.1-.1-.1.2-.2-.1v-.1l.1-.2-.1-.3.1-.2h-.1v-.1l-.4.1v-.1l-.2-.3h-.1l-.3.3H40l-.1-.1.1-.3-.1-.2-.1-.1-.3-.1.1-.1.2-.1.1-.2v-.4l-.2-.2-.5-.1.1-.1-.2-.2.1-.2-.1-.1h-.2l-.4-.2-.1-.2-.1-.1-.1.1-.1.3h-.2V28l-.1-.1v-.4l-.3-.2-.2-.2v-.5H37l-.1-.1.1-.3-.1-.1-.2-.1h-.1l-.3.1h-.1V26l-.1-.3v-.1h-.3l-.3-.2-.2-.2H35l-.2-.1-.1.1-.1.1-.1-.1-.1-.2-.3-.2v-.2l-.1-.2-.2.1-.3-.1v-.2l.1-.1-.1-.1v-.3h-.1l-.2-.1-.3.2-.2-.2-.2-.1.1-.4V23l-.2-.1-.2.1-.1.1-.1.1-.1.2h-.2v-.3l-.3-.3v-.1h-.1l-.1-.1-.1-.1v-.4H31l-.1-.2h-.3l-.4.1-.2-.1V22h-.1v.1l-.1.2h-.1l-.1-.1-.1-.2.1-.4v-.2h1l-.2.3h-.2l-.1-.1.2-.5h-.1V21h-.3v.3l-.1.1h-.1l-.1-.2.1-.2v-.1l-.2-.1h-.2l-.1.1-.1.3-.1.1h-.1l-.2-.2-.2-.1v-.1L28,21h-.2v.2l.2.2v.2h-.2l-.3-.3-.2.1-.2.1-.1-.1.2-.5v1.2h-.5v.1l-.1.1.1.3v.1h-.2l-.2-.3v-.5l-.1-.1h-.1l-.2.1-.2.1h.1l-.1-.1.4-.3v-.2l-.3-.3h-.5l-.2-.1v-.2h.8v-.2l-.2-.1h-.3l-.2.1-.1-.1-.2-.1v-.1l-.1-.1.2-.1h-.1l-.3.2h-.2l-.3-.1-.2.1h-.2l-.1-.1v-.5l-.2-.1-.1.1h-.2l-.2.1h-.2l.1-.5-.1-.1h-.1l-.1.1-.2.2-.1.3-.1.2-.1.1h-.1V20h-.1l-.2-.3h-.1l-.4-.1v-.1l.2-.2.3-.1.1-.1-.3-.2-.1.1h-.6v.3l.1.2.1.2-.1.1v.1h-.1l-.2-.2-.2-.1-.2-.2H20l-.2.2-.2.1-.1-.3.1-.4h-.1v-.1h-.2V19l.1.4-.1.1h.5l-.1-.1-.1-.1-.3-.3v-.3l.1-.3v-.1h-.2l-.5.3v.5h-.3l-.5-.1-.2-.3-.2.1h-.4l-.1.1-.3.1-.1.1h.2l-.2-.1-.2-.3h-.2l-.1.1v.3l-.2.2h-.1l-.1-.1v-.1l-.1-.3-.1-.2h-.1l-.1.1-.2.2L15,19v-.1l-.2-.1v-.1l.1-.3v-.1h-.1v-.1h-.3l-.1-.1H14l-.2.1h-.2v-.5l-.1-.1h-.1l-.4.2v.1l-.2.1-.3.1h.3l-.1-.1v-.4l-.3-.1h-.1l-.1.3v.5l-.1.1-.2-.1-.1-.1h0v-.1l.1-.1.2-.3v-.2H12l-.1-.2h-.1l-.4.3h-.1l-.1-.1v-.3l.3-.4.1-.2-.1-.1H11l-.3.3V17l.1.3v.3l-.5.2-.3.1h-.1v-.1l-.2-.4-.1-.1-.1.1h-.1v.1l-.1.5-.1.1H9l-.5-.3h-.1l-.2.1-.5.3-.2.3h-.2v-.4l.3-.5.1-.2v-.3h.1l-.1-.1v.1h-.6L7,17l-.1-.2-.1-.1-.1.1h-.1l-.2.2-.1.3-.1.2-.6.2-.2-.1-.1-.2h-.4v.4l.2.2v.4h-.3v-.3l-.3-.3h-.3l-.4.2h-.3l-.2.5h-.1l-.1-.1v-.5l-.1-.1v-.1l-.2-.1h-.2l-.1.1-.2.1-.1.1h-.1l-.2.1h-.1l-.2-.5-.2-.1-.4.3-.1.1H.73Zm70.6,7.4h0v-.5l.2-.3.2-.1.3.1-.1-.5-.1-.1-.1.1-.1-.1v-.1l-.2-.1v-.1l.2-.1.1-.1.1-.1.3.1v-.1l-.1-.1.1-.1.1-.1-.2-.1-.1-.1.1-.1-.1-.1.2-.1v-.1l-.1-.1-.1-.1-.1-.1h-.1v.1l.1-.1h.1v-.1H72v-.2h-.3l-.1.1.1-.1.2-.1.1-.2.3.1h.3l.1-.1.4-.1.3-.1v-.1l-.1-.1.1.2-.1-.3v-.1l.1.1.1-.1.1-.1v.4h.1l.1.3.1.2.3.1.1-.2.1.1v.1l-.2.1v.5l-.3.1-.3.5-.2.3v.5l.1-.1h.1l-.1.2v.1l-.1.1-.1.2v.1h-.1l-.1.1v.1l-.3.3-.1.2-.1.4-.3.4v.1l-.1.2v.2h.1v.1h.2v.1h.2v.1h-.1l-.1.1v.1h.1l-.1.1-.2.1-.1-.1v-.1h-.1l-.2.1-.1.1-.1.4v.1l-.3.2v-.1h-.1l.1-.2.1-.1-.2-.2.1-.1-.1-.1-.1-.1v-.7l-.1-.1h.2l.1-.2.1-.1-.1-.4.2-.3h-.1l-.2.2Z"/></g></g></svg>