<svg xmlns="http://www.w3.org/2000/svg" viewBox="0 0 124.27 79.57"><defs><style>.cls-1{fill:red;stroke:#fff;stroke-miterlimit:10;stroke-width:0.8px;fill-rule:evenodd;}</style></defs><g id="Camada_2" data-name="Camada 2"><g id="svg2"><path id="path88" class="cls-1" d="M.5,40.65h0l-.1-.2v-.1l.1-.2.3-.4.3-.3.1-.1.5-.2.1-.1.2-.3.5-.3h.1l.1-.1.7-.2.4-.2h.1l.2-.4.5-.4.1-.2.7-.5.3-.1.4-.3.5-.2.3-.2.2-.1.3-.2.3-.3.5-.1.4-.2.3-.1.1-.1h.1l.1-.2.3-.3.1-.1.6-.5.1-.3.1-.1.2-.2.5-.6.4-1.2.1-.3.5-.5h.2v-.1l.2-.1.2-.3.6-.5.1-.3v-.2l.3-.6L14,28l.5-.2.1-.2.2-.2.4-.6v-.4L15,26v-.3l-.5-.4-.6.7.2-.3.2-.4.2-.1h.1l.5.1h.3l.4-.2.1-.1.2-.3.3-.3.1-.3.1-.3.1-.4.5-.5.1-.1v0l.1-.4.1-.5-.1-.1-.1-.5-.2-.3h-.2l.1-.2-.1-.5.1-.2.1-.1h.4l.3-.1h.1l.1-.2.3-.1.2-.5V19l.2-.3.1-.3.4-.5.2-.1H20l.5-.4.1-.2.1-.6-.2-.2-.1-.3v-.5l.1-.5v-.2l-.2-.3.1-.5.5-1L21,13l.1-.1v-.1l.1-.1.1-.1.6-.4.3-.3.1-.3.5-.7.2-.2.4-.3.2-.1v-.1l.5-.8.2-.1.1-.4.1-.1h.1l.3-.2.3-.2.8-.2h.5l.4-.1.3-.1h.1l.2-.1.2-.2.2-.1.5-.4.1-.2.2-.5.3-.6.4-.7V5l.5-.6v-.1h.3l.2-.2.3-.2v-.2h.6l.3-.3.1-.1.4-.1.3-.2v-.1h.2l.7-.2.6-.2H34l.2-.1h.1l.3-.5.2-.2.2-.1.3-.4.1-.2h.5l.2-.2.2-.1h.3l.2-.1.2-.1.2.1.3.1.3.1.5.6.3.1v.2h.3l.2.1h.1l.4-.1.5.2.4-.2h.3l.4.1.1.1h.1l.3-.1h.6l.1.1.2.1.4.4.1.1h.2l.2.1.7-.1.7.3.2.1h.6l.3-.2.5-.1h.7l.5.1h1.1v-.1l.3-.1.4-.1h.3l.1-.1.4.1.3.1.2.4.1.1.4.4h.3l1.1.1.3-.1.3-.2.3-.1.5.1h.1l.1.1v.4l-.2.1h-.3l-.2.2-.2.7v.5l.1.2v.7l.5.8.1.3v.2l.4.5h.1l.5.1.2.1h.1V8l.5-.4.2-.2.4-.8.4-.7.1-.1h.4l.2.1L58,6l.1.2.2.5.1.7v.3l-.1,1.6.1.1.8.5h.2l.1-.1.2-.4v.3l-.2-.5.1-.5-.2-.3V8l.2-.4.2-.2.1-.1v-.1L59.8,7l.1-.3.1-.1.3-.2h.6l.4-.1.3-.1h.1l.5.2h.3l.1.1h.3l.3-.1.4-.4.2-.1h.4l.3.1h.7l.5-.2h.2l.5-.1.4.1h.4l.2-.1h.3l.3.1.2.2.1.1h.5L69,6h.1l.1-.2v-.1l-.5-.5v-.1l.1-.5-.1-.1.1-.1h.3l.1.1.2.1.3.5.1.3.1.1h.2l.1.3.3.1.2.2.3.1h.3l.4-.2.1-.3.3.1.2-.3.1-.2.1-.2v-.5l.1-.1h.1l.4.3.1.5.2.3.4.2h.1l.3-.3.1-.2v-.4l.1-.2v-.1l-.1-.1h-.1v-.3l.1-.1.2-.3h.1l.2.1.5-.2h.5l.3.1.2-.1.3-.1h.1l.5.4v.2l.2.2.1.1.2.2.2-.1h.2l.3-.3V4l.2-.1H79v-.1l.2-.1h.4l.2-.2H80l.1-.1.1-.1v.1l.3.3.2.2.1.2v.2l-.2.1v.3l.4.2.1.3h.5l.2.3H82l.2.2.4.1.2.4.3.1h.1l.1.2v.3h.1l.1.2.2.3v.1l-.2.5h-.1l-.2.3h-.1l-.1.2v.3h-.1V9h-.1l.1.1-.2.1.1.3v.3h.1l-.1.2.1.1-.1.1h.1l-.1.1h.1l-.1.1v.1h.1v.1l-.1.1v.1l.3.2h.2l.1.2.3.1.3.3h.2l.2.1.4.1.1.2H85v.2l.1.2-.1.1.2.4h.1v.3l.2.1v.3l.2.1v.2l-.1.2v.2l-.1.2-.1.1v.1h-.5l-.2-.1-.1.1v.1l-.2.2.1.2h-.1l-.1.4-.1.1h-.1L84,16l-.2.1.2.4-.2.4-.2.5.2.4.2.2h.3v.2l.1.2h.2l.1.2.2.1.1.1-.1.3v.2l-.1.1.1.3.1.3.1.2-.1.3h.1l.1.1.3.1v.1h-.2V21l-.2.1.3.3-.1.3.1.1v.1l.2.3.1.2v-.1h.5l-.1.1v.1l-.1.1v.2l.2-.1.1.2h.1V23l.1.2v.3l.2.2-.1.1h.1l.1.2v.1l.1.2.2.1.1.1-.1.1-.1.1.1.2-.1.2h-.1l.1.2v.1h-.1l.1.1h.1l.1.1.1-.1v.1l.2-.1h.2l.1.1.1-.1.2.1.1-.1.1.1v-.1h.2l.1-.1h.1l.1-.1.3-.1v-.1h.1V25h.2l.1-.1v-.1l.1-.1h.2l.4.1.1-.1.1-.1h.3l-.1.2.1.1.3.2h.2V25l.1.1.1.2.2-.3.1-.1.1-.1h.1l.1-.2h.3v.5l.1.1.1.2h.1l.1.1v.1h.1l-.1.1.1.1.2.1v-.1l.4-.2v.1l.2.1h.2l.2.1h.2v.2l.1.1v.2l.1.1-.2.2v.2l-.1.1.1.2.1.1.2.2v.1h-.1l-.1.1v.1l-.1.2v.1l-.1.1.1.1v.1l-.2.1v.2h-.2l-.1.1.1.2h-.1l-.2.1v.3l-.2.1-.5-.1v.2l-.1.1v.1l.1.2-.1.2v.6h-.2l-.1.1h-.1l.1.2-.3.3v.1l-.2.1-.1.2.1.2h.2l.2.3v.1l.1.1-.1.2-.1.1H86.9l-.1.1.2.2-.1.2.2.1v.2l.2.3.1.1h.1l.1.2.1.1v.3h-.1l-.3-.2-.1.1h-.1v.1l-.1.1-.2-.1v.1h-.1l-.1.2.2.2.2.1v.1l-.3.1h-.2l-.2.1-.1-.1h-.1v.2l.1.1h.5l.2.1.3-.1.2.2.2.1.1.3h.2v.1l-.2.2-.4.1-.1.3h-.4l.1.1-.2.5.1.1-.3.2.1.2-.1-.1-.1.2-.1.1v.1l.1.1-.1.1.1.2-.2.2h-.1l.1.1h.1v.1h.1v.1l.1.1v.2h.1v.1h.1l.1.2H87l-.1.2.1.1-.1.3v.1l.3.1v.1h.1l.1.1.3.1v-.1l.2.1h.3l.1.1v.1l.1-.1h.2l.1.1-.1.1v.1h.1l.2.1v.2l-.1.1.5.2v.2l.2-.1.1.1h.5v.2h.2v.1l.2.1h.1l.1-.1v.2l-.3.3v.2h.3l-.2.2.3.3-.3.1v.1l.1.1h.2l.1.1.1.1v.2l-.2.1h-.1l.1-.1-.1-.1-.1.1-.2-.1-.1.1-.3.1v.1l-.2-.1-.1.1v.1l.1.1-.1.1.1.1H90l.1.3h.2v.1l.2.1v-.1l.3.2H91l.1-.1v.1h.1l.2.3.1-.1h.3v.1l-.1.1v.1h-.1v.1l-.2.1-.2.4v.2l.1.1-.1.1.1.3h-.2v.1h.1v.1l.1.1.1.2.3.1.1-.1.3-.1.3.1.2-.3h.3v.2h.2l.1.1.1-.2.5-.2.1-.1.1.1.5-.1.1-.1v.1l.1.3v.1l-.1.3-.1.1.2.1.2-.2h.2l.2-.2.3-.1.4.1.3-.2.3.1.1-.1.2-.1v-.1l.2-.1.2-.1.1-.1.1-.1h.2l.2-.2v-.1l.2-.1h.1l-.1.2V47h.2v.3h.1v.3h.1l.2-.1h.1v-.3h.1L99,47h.3v-.1l.2.1v-.1l.2.1v.2l.1.1h.1l.2-.1.1-.1V47l-.1-.5h.2l.1-.2.1.1.1.2h.1l.1.1h.2v-.1h-.1l-.1-.1-.1-.1v-.1l.1-.2h.1l.1-.1v-.2h-.1v-.2l-.2-.3h-.4l-.3.1-.3.1h-.1l-.2-.2.1-.4.4-.1.1-.1.3-.1v-.1h.1l.1-.1v-.1h.2l.2.1.1-.1.3-.1h-.1v-.1L101,44l-.1-.3h-.2v-.1l-.1-.1.1-.1.1-.1v-.1l.1-.1.3.1.3-.2.2.1v.1l.1.2h-.1l-.1.2h.1l-.2.2v.1l-.1.1.2.2h.1l.2-.1.5-.1.2-.3h.2l.1-.1h-.1l.2-.2v.2h.2l.1.2-.3.2-.1.1v.1l.1.1.4-.1h.1l.1-.1h.1l.4-.3.2.1.2-.5-.1-.1h.1l.3.2h.1l.1.1.1.1h.2l.1.1.1.1-.1.3h.3l.3-.2h.2l.1-.2h.2l.1-.1.5-.1.3.1.1-.1h.1v-.1l.1-.2-.1-.1.5-.3h.1l.2-.1h.1l.4-.1.2-.2-.1-.1v-.1l.1-.1.2-.2h.1l.2-.1.1-.1h.1l.2-.1.1-.1.2.1.3-.2.3-.1.2-.1v.1h.5l.4.1.1-.1.3-.2h.6l.1-.3.2-.1.1-.1h.1l.1.1h.3l.2-.1.2-.1v-.1h.4l.2.1h.2l.2.2.2.2.1.4v.1l-.1.2.1.1h.1v.3h.2l.1.1h.1l.1.1.1.2-.1.1v.2l.3-.1.1.1.1-.1.1.1-.1.3v.4h.1l.1.1.1-.1.2.2.1-.1v-.1l.1.1.1.2h.1l.2-.4.1.2.2-.1.2.2h.2l-.2.2V44h.1l-.1-.1h.3l.1.1h.1l.3-.4-.1-.1h.1l.1.1.2.1.1-.1h.1l.1-.1.2-.1h.2l.1.1h.1v-.1l-.1-.1v-.1l.2-.1V43h.1l.2.1h.2l-.1.2h.1v.3h.2l-.1-.2v-.1l.1.1v-.2l.1.1.2-.1.1.2.1-.1.1.1h.2l.1.2v-.1l.2-.1.3.2.1-.1h.3l.1.2.1-.1h.1v.2l.1.1h.1l.1.1-.1.1.2.2.2.2v.2l-.1.1h-.1V45l-.1.1-.2.1h-.1v.1h.1l-.1.1h-.3l-.3.3.1.1h-.2l-.1.2v.1l.1.1-.1.1h.2v.2h-.2l-.2.4-.2.1v-.1h-.2l-.3.2v.1h-.1l.1-.1-.1-.1-.6.3h-.4v-.1h-.3l-.1.1-.1.2-.1.1h-.1l-.3.1v-.1h-.1v-.1h-.1l.1-.2-.1-.1h-.3l-.2.2-.2.1-.2.2-.2.1-.3-.2-.3.2h-.1l-.4.2-.1.1v.1l-3-3.2-.2-.2-.2.3h-.3l-.1-.1-.1.1-.3.2-.2.2.1.1-.1.1v.1h-.6V46l-.1.1.1.1-.1.2h.1v.1l-.1.1v.2l-.1.1V47l-.1.1v.3l-.1.1h.1v.1h.1l-.1.2h.1l-.1.1.1.1-.2.1.1.1-.2.1.1.2-.1.1h-.2l-.1.1H111v.1h-.1l-.2.1v.2l-.1.1v.2l-.1.1.1.1h.1v.3h.3l.3.1-.1.1.2.1v.1l.1.1-.1.1.3-.1v.1l.3.1v.1l.1.2V51l.1.2h-.1l.3.1.2.2h.1l.1.1.1.1h-.2l-.5.1-.1-.1h-.2v.1l-.1.1h-.2l-.1.1h-.3l.1-.1.1-.2-.3-.1h-.2l-.3.2v-.9l.1-.1-.1-.2h-.3l-.1.2-.1.1h-.3l-.1.1v.2l-.1.1h-.1l-.1.1v.1l-.1.1-.1-.1h-.1l-.2.2-.1.1h.1l-.2.2v-.1l-.1-.1-.1.1-.1.1h0v.3l.1.1.1.1.2-.2h.1v.2h-.2l-.1.1h-.2l-.1.3V53h.1l-.2.2v.2l-.1-.1V53h-.2l-.1.1.1-.2h0l-.1.1-.2.1.3.1-.1.1h.1v.1l-.1.1v-.1h-.1v-.1l-.2-.1-.1.1.1-.2h-.2V53l-.2.1L107,53h-.1v.2l.2.1-.1.2h.1v.2h-.3v-.2l-.1-.1-.3.1-.2.2v.1l.2.1v.2h0l.1.1v.1h-.4l-.1.2h0l-.1-.1-.1.2v-.2h-.3l.1-.1-.1-.1h-.2l-.3.1-.3.2-.3.4V55l-.2.1-.1-.1-.2.1h-.1V55h.1l-.2.1-.2.3v.5l.1.3.1.3h.3v.2l-.2.2.2.4v.5l-.1-.1v.2l-.2.1-.2.1-.1-.1-.1.1V58l-.3-.1-.2.2h-.1l-.1.1h-.1v.1h-.2v-.2H102v-.2l-.1-.1h0V57l-.1-.1h-.4l-.1.1-.3.1h-.1V57l.1-.2h-.3v-.1h-.2l-.1.1v-.1h-.3l-.1.1-.1-.2h-.8v-.1H99l-.5.1v-.1l-.2-.1h-.5l-.7.1-1,.3-.2.1-.1.2-.2-.1-.3.2-.1.1v.1l-.1.1H95l.1-.1-.1-.1-.1-.1-.3.1-.5.3-.2.1v.2h-.1l-.1.1.3-.1-.1.1-.1.2v.2l-.2.1v.1h.1l-.1.1h-.1l-.3.2v.2l.1.1.1-.1v.1h.1l-.1.1-.1.1-.2.1v.4H93l-.1.1v.1l-.1-.1.1-.1h-.7l-.2.2-.1.1.1.1h-.2l-.1.1v.2l-.1.2v-.1l.1-.2-.1-.1.3-.4-.1.1-.1.1v-.1h-.2v-.3l.2-.1-.1-.2-.1-.1-.3-.1h-.3v.2l-.1-.2h-.1l-.1.1h.1l.1.2v.1h-.2v.2l.1.1h-.1v.1l-.1.2h-.1l.1-.2-.3-.1-.5.1-.5.3-1.5.6-1.4.8-1.1.5-.2.2-.3.1-.9.6-.6.4-.8.7v.4l-.1.1-.2.2.1.1.1.1v.1h.1l-.1.1.1.1h-.1v.1l-.1-.1-.1.1v.1H82l-.3.1-.4.2-.2.2-.6.5-.5.4-.1.1v.2l-.2.1-.4.3v.1l-.4.1L77,69.15h-.1v.1l-.5.3-.1.2-.6.2-.5.4-1.2.7-.5.4-1.6,1.3-.9.9-.5.5-.1.3-.1.3H70v.1l.1.3.1.1v.3l-.2.2-.1.4v.1H70v.1h-.2l-.3.2-.4.4-.7.5-.9,1h-.1v-.2l.2-.2.8-.7-.1-.1.1-.1h-.2l-.1.1-.2-.1v.3h-.2l-.1.1.3-.6-.2.1-.2.1-.5-.4-.1-.1-.1-.2h-.2l-.2-.1-.1-.2.3-.1.1-.2v-.2h.1l.1-.1-.2-.1-.2-.1v-.1l-.2-.2V75l-.2-.3v-.1l-.1-.1.1-.2L66,74l.1-.1v-.1H66l-.2-.1v-.1l.1-.1h-.1v-.1l-.1-.1-.1-.1-.1-.2-.1.1v.2h-.2v.2l-.1.1v.3H65l-.1-.2h-.1v.1l-.2.2-.1.2-.2.2v-.2h.1v-.3h-.1l-.1.1v-.1H64V74l-.3-.3h-.1v-.1l-.2-.1-.3-.1-.1.1h-.2l-.5.4-.1.4v.2H62l-.1.1-.2.3-.1.1-.1.2h.4l-.2-.2-.1-.1-.1-.1v-.2l-.1-.1v-.1h-.2v-.2l-.1-.1V74H61v-.4h.1v-.1l.2-.1.1-.2V73l.1-.1-.1-.1.1-.1-.1-.1v-.5h.1v.1l.1-.2h-.1l.1-.1.1-.1v-.2h-.3l.1-.1-.1-.2.1-.2.1-.1v0l.3-.2.1-.1.2-.1v-.2h.1v-.2l.1-.1V70l-.1-.1V70H62l-.1-.1h-.1v-.1h-.1v-.1h-.2l-.1-.2v-.1l-.1-.1-.1-.2-.1.1-.1-.1-.1-.1-.1.1-.1-.1-.2.2h-.2v.1l-.2.1-.1.2-.2-.1h.1l-.1-.1.1-.1h-.1l.1-.1-.1-.1-.2-.1v.4l-.1-.1-.1-.1-.4.1-.2.1h-.1v-.2h.2l-.1.2-.2.1-.1-.3-.2-.1h-.2l-.1-.2-.1-.1-.2.2-.2-.2-.1.1.2.2h-.1l-.2-.1-.5.1h.1v.1h-.1l-.1-.1h-.3l-.2.2-.1-.2h-.2V69h-.2v-.2h-.1l-.2.1.1-.3h.1v-.1h-.1l-.2.1-.2-.1H55l-.1.1.1.1.1-.1-.1.1v.2l-.1.1-.1.2h.1l-.1.1h-.1l-.1-.2h-.1v.1h-.2v-.1h-.1l-.1.2-.2-.1-.1-.1H53l-.1.1v.1h-.2v.2h-.5l-.2-.1h-.1l-.3-.3h-.1V69h-.1l.1-.2v-.1h-.1v-.1h-.1l.1-.3-.1-.1v-.1l.1-.1.1-.1-.2-.1h.1v-.1l-.1-.2v-.2h.1l.1-.1.1.1.1-.2.1-.1-.1-.1V67l-.1-.2h.1l.3-.1v-.2l.1-.1.1-.1h.1v-.2h-.1l.1-.2-.1-.1.2-.2.1-.2v-.1h-.1l-.1.2-.1-.1v-.1l.2-.3.2-.3h.1l.3-.3-.1-.1h-.2l-.1-.1h-.3V64h-.1l-.2-.2h-.1l-.1.1-.1-.1v.1l-.1-.1-.1-.1.1-.2-.1-.1h-.1l.1-.1-.1-.1h-.2v-.1l-.4-.3-.1-.1.2-.1V62l.2-.1-.1-.1v-.1h-.1l-.3-.2v-.1l-.1-.1-.1.1-.1-.1-.1.1v-.1l-.3-.1.1-.1h-.1L50,61h-.2v-.1l-.1-.1.1-.1h-.1v-.1l-.2-.1-.1-.1-.1-.1v-.2h-.1V60h-.3l.1-.1h0l.1-.1H49v-.1l-.1-.1h0v-.1l.1-.1v-.1l-.2-.1h-.1v-.1h.2V59h-.1v-.1l-.1-.1-.1.1-.1-.2h.3l-.1-.1v-.1h-.1v-.1l-.2.1v.1l-.2-.1h-.1v-.1l-.1-.1-.1-.1-.1-.1v-.3l-.2.2-.1-.2-.1-.1v-.2l-.1-.1h.1l.1-.1-.2-.1h.1l.2.1-.1-.1v-.1h.1l.2-.1.2-.1v-.4l-.1-.2v-.1l.1-.1-.2-.1.1-.1v-.3l.2.1h.1l-.1-.2v-.1l.1-.2-.1-.1V55H48v-.1h-.1l-.1-.1h-.1v-.2h-.1v-.1l-.2-.1v-.1l-.2-.1.1-.1V54h-.1v-.2l-.1-.1.1-.2.2-.2v-.1l-.1-.1.1-.2-.1-.2.1-.1-.3-.2-.1-.1.1-.1h.1l-.1-.2.1-.1v-.2l.2.1v-.5l.1-.1.1-.1h.1l.1.1h.1V52l.1-.1h-.2v-.2h-.1l-.1-.1h-.1v-.2h-.3v-.1l.3-.1.1.1.1-.1-.1-.1V51l-.3-.2H47v-.3l.1.1.1-.2v-.2l-.1-.2v-.3l-.2-.4-.1-.1.1-.2h0l-.1-.1v-.3l-.3-.5-.1-.1.1-.1h-.3l-.1-.1v-.1l-.1.1-.1-.2-.2-.1-.1-.1.2-.3-.1-.1-.1-.1h-.2l-.2.1-.2-.1h-.2l-.1-.1h-.1l-.1-.1v-.1h-.1l-.1-.1-.1-.1-.3.1h-.2l-.1-.1-.1-.1-.1.1-.2-.2H43v-.4l.1-.2v-.1h.1V46l-.3-.2-.2-.1h-.3l-.3-.3v-.1l.1-.1.1-.3-.1-.2v-.1l-.3-.2-.1.1v.1l.1.2-.1.1h-.2l-.1-.3h-.2l-.3-.1v.1l-.3.3-.2-.1h.4l-.2.3h-.3l-.3-.1-.2.2-.3.1h-.3l-.2-.1-.2.1h-.1v-.1l-.1-.1-.4-.2-.2.1h-.2l-.1.2h-.2l-.1-.2-.2-.2v-.1l-.3-.2-.2.1h-.2l-.1.1V45h-.1l-.1.2-.3-.1-.2.1-.3-.2h-.1l-.2.2-.2-.1-.1-.1-.1-.2-.1-.1-.2-.1-.4-.1-.2.2-.2.1-.2-.1-.3-.1-.1-.2h-.3l-.1.1-.1.1-.4.6-.3.1h-.2l-.1-.1-.1-.1h-.6l-.1-.1.1-.5v-.2l-.3-.1-.1-.3-.1-.1-.2-.4-.5-.4-.1-.1h.2l-.2.1h-.1l-.2-.3H29l-.2.1h-.2l-.7-.4h-.7l-.5-.2-.3-.2-.2-.1-.3-.1h0l-.3-.2-.1-.4h-.1l-.2-.2-.2-.1-.3.1h-.1l-.4-.1H24l-.4-.1-.2.1h-.2l-.4-.2h-.3l-.3.4h-.1l-.4.2h.2l-.1-.1-.4.1-.1.1-.2-.1-.3-.1-.4-.3-.2-.1h-.5l-.3.2h-.3l-.1-.2-.1-.4v-.1h-.2l-.1-.1h-.1l-.2-.1-1,.3h-.1l-.3-.1-.2-.2-.1-.1-.1-.1-.5-.5h-.3l-.5-.3-.4-.1h-.3l-.5-.3-.2-.1h-.1l-.2.1-.1.1-.2.3-.1.3v.1l-.1.4V40l.1.5-.4.1-.2.1-.4.2H12V41l-.2-.3-.1-.1-.4.1-.2.1-.2.2-.3-.1H10l-.5-.2-.2-.1H9.2l-.1-.1H8.9v.1H8.7l-.5.3H8.1l-.3-.2-.2-.1H7.5l-.4-.4-.2-.3H6.8l-.2.1-.8.5-.5.2H5l-.4-.2-.4-.1-.1-.1H3.7l-.5.2-.2-.1-.6-.5.5.1-.6.1-.1.1-.2.1-.2.1v.1l-.2.1-.2.2-.2.2H.9l-.2.3L.6,41Zm110.9,10.9h0m-2.4,4.7h0l.2.1v.1l-.1.1v-.1l-.1-.2Zm-3.4,1.5h0l-.2.1V58l.3.1-.1.1.1.1h.1l.2.2.1-.2.1.1h.1l.1.1-.1.1-.1-.1v.6h.1l-.1.1v.1l-.2.2-.3-.1-.2-.3.1-.2-.2-.3-.2.1v-.1l-.1.1H105l-.1-.1-.1.1h-.1v.1l-.2-.1-.1.2-.5.1h0l-.3.1-.3-.1-.2-.3v-.5h.1l.2-.2h.1v-.1l.2-.1h.1l-.1-.1h.1l.5-.5.2-.1v-.4h.1v-.1l.1-.1v-.2l.1-.3h0l.2-.1.2.1.1.1h.3v.1h.2l.1.1h.1l.1.1v.1l.1.1h.1l.1.2h.1l-.1.1v.2l-.1.2h.1v.1l-.2.1.1.1h.1l-.1.1h.2l-.1.1-.3-.1h-.2l-.3.1Zm-3.4,0h0l.1-.2-.1.2Zm3.1-3.5h0l.2-.1v.1Zm-6.5,3.6h0l.2-.1-.2.1Zm8.4-4.1h.2v.1l-.2-.1Zm0,3.3.2-.1.1-.1V57l.4.2-.1.1-.2-.1-.2.2-.2-.3Zm1.3-3.7h.3v.1l-.3.1-.3.3v-.3l-.1-.1.1-.1v0l.1.1.2-.1Z"/></g></g></svg>