<svg xmlns="http://www.w3.org/2000/svg" viewBox="0 0 27.45 31.22"><defs><style>.cls-1{fill:#f90;stroke:#fff;stroke-miterlimit:10;stroke-width:0.8px;fill-rule:evenodd;}</style></defs><g id="Camada_2" data-name="Camada 2"><g id="svg2"><path id="path78" class="cls-1" d="M1,18.68H1l.2-.2.1-.3v-.5l.1-.2h.1l.3-.1.1.2h.3l.2.1h.2l.1-.2.2.1.2-.2.1.1.1.1.3-.1h.1l.1.2h.1l.2.2v.5h.4l.4-.2.5-.2,1.6-.6-.2-1.6v-.1l-.1-.1v-.1l-.1-.1v-.1h.2v-.1l.1-.1V15l.1-.2v-.1H7l-.1-.3-.5-.8.1-.1-.1-.2.3-.1h-.1v-.1l.1-.1v-.1h.2v-.1l.1-.1h.1l.3-.2.1-.1h.3l.4-.2-.1-.1V12l-.4-1.7-.2-.1v-.1l.1-.5v-.2L7.25,9l-.4-.7v-.6l-.1-.2-.6-.4-.1.1-.3-.1h-.3v-.2h-.2l-.2.1h-.3l-.1-.1-.3-.5-.2-.1v-.1l.2-.3v-.3l.2-.2v.3l-.1-.1.1-.2.1-.2-.1-.1h-.1L4.15,5l-.3-.3h-.1l-.2-.4v-1l.2-.1.1-.2.2-.2h.2l.1-.1-.1-.1-.2-.1L4,2.38l-.1-.1-.2-.1L3.55,2v-.4l.1-.1.1.1v-.1l.1-.1v-.1l-.1-.1.1-.1L4,1V.88l.1-.2.2.2.5.1.5.2.3-.1h.1l.1.1.5.5h.1v.2h.3l.1.2.2.2.1.3h.1l.4-.2h.1l.5.1.4.2.2.1.1.2.1.2v.1l1,.6.2.1h.3l1.1.2.5.1.1.1.4.2.3.1h.2l.1.1.1.1.4.3.3.1.2.1.3.3.2.3.1.2v.1l.1.1h.6l.6.1.3.2.7.6.4.4h.3l.3-.2h.2l.4.2v.1l.1.2v.7l.1.1V9l.1.3.2.2.2.3.1.2.5.1.2.2h.2l.1.2v.3l.1.1.3.2.1.1.5.1h.1l.3.1v.1l-.1.1h.1l.2.1.2.2h.1l.2.1h.3l.1-.1h.3l.2-.2h.2l.1.1.1.1V12l.3.2.1.2.2.3.1.2v.5l.1.4-.1.4.3.2.1-.1h.3v.1h.1l.3-.1h.1v-.1l.3-.2.1.1.3.2h.1l.1.3.3.5.1.2v.4l-.1-.1-.5.1-.8.2-1.1.5-.5.3-.5.4-.4.3-.6.3-1.1.7-.5.5-.1.1-1.2,1.2-.4.5-.4.5-.5.6V22l-.4.5L17,24l-.4.7.1.1-.7.8-.7.9-.5.8-.4,1.1-.1.1v.2h-1.5l-.1.2h-.1l-.3.3-.3.3-.4.3-.2.1h-.7l-.2.2v.2h-.6l-.1-.1h-.2l.1.1h-.1l-.1-.1.1-.2h.1l-.2.1h-.2l-.1-.1-.1-.2H9l-.1.1-.1-.1V30h-.1l.1.2-.2.2v.2l-.2-.1h-.2l.1-.3h-.1l-.2.1h-.2v-.2h-.3l-.2-.2-.1.1-.1-.1h-.2l-.1-.1-.1.1-.2-.1v-.2l.1-.1-.1-.1h-.1l-.2-.1h-.1l-.1-.2h-.1l-.1-.1v-.2H6v-1.1H6l-.3.1v-.1l-.2-.1h.3l-.2-.1h.2l-.1.2v-.1l-.1.1-.1-.1v-.3h-.1l-.1-.1h-.2v.1H5v.2h-.1v-.1l-.1-.1-.1-.1h.1v-.1h0l-.1.1V27h-.2v-.1l.1-.1v-.1l-.1-.1-.1-.3v-.1l-.1.1-.1-.1v-.1h.2l-.2-.1v-.1h.1l-.2-.3v-.2l.2-.1v-.1l.1-.1-.1-.1.1-.1v-.1h-.1v-.1h.1l-.1-.2h.1l.1-.1v-.3l.1-.1h-.2l-.2-.1-.1.1-.3-.3-.1.1-.2-.1-.2-.2-.2-.1.1-.1-.1-.1.1-.2v-.1h-.1l-.2-.1-.1-.2v-.1h.1l.1-.3V22h-.1v-.1h-.1v-.1h0l-.1-.1v-.1h.1l-.1-.2v-.1l-.1-.1-.2-.1v.2h-.1l-.1-.1-.1-.2-.4-.2-.1-.2-.1-.1.1-.2v-.1l-.3-.1v-.2h-.1l-.1.1v-.1l-.2-.1v-.3l-.2-.3v.5l.1-.2.1-.1-.1-.3H.65l.1-.2v-.2Z"/></g></g></svg>