<?xml version="1.0" encoding="UTF-8" standalone="no"?>
<!-- Created with Inkscape (http://www.inkscape.org/) -->

<svg
   width="130.11969mm"
   height="172.45322mm"
   viewBox="0 0 130.11969 172.45322"
   version="1.1"
   id="svg1"
   xml:space="preserve"
   sodipodi:docname="ataque.svg"
   inkscape:export-filename="..\..\..\PatruLINO\htdocs\patrulino\Costumes\tie_fighterW.svg"
   inkscape:export-xdpi="96"
   inkscape:export-ydpi="96"
   xmlns:inkscape="http://www.inkscape.org/namespaces/inkscape"
   xmlns:sodipodi="http://sodipodi.sourceforge.net/DTD/sodipodi-0.dtd"
   xmlns="http://www.w3.org/2000/svg"
   xmlns:svg="http://www.w3.org/2000/svg"><sodipodi:namedview
     id="namedview1"
     pagecolor="#000000"
     bordercolor="#000000"
     borderopacity="0.25"
     inkscape:showpageshadow="2"
     inkscape:pageopacity="0.0"
     inkscape:pagecheckerboard="0"
     inkscape:deskcolor="#d1d1d1"
     inkscape:document-units="mm" /><defs
     id="defs1" /><g
     inkscape:label="Camada 1"
     inkscape:groupmode="layer"
     id="layer1"
     transform="translate(-30.891457,-29.965015)"><path
       style="fill:#b3b3b3;stroke:none;stroke-width:3.1197;stroke-linecap:square;stroke-linejoin:round;stroke-dasharray:none;paint-order:fill markers stroke"
       d="m 156.73932,195.94102 c -1.49159,0.0884 -12.18952,0.24883 -23.77317,0.3566 l -21.06119,0.19594 -1.47059,1.25636 -1.47059,1.25637 h -2.80207 -2.80208 v 0.92604 0.92604 h -7.408335 -7.40833 v -0.92604 -0.92604 h -2.76892 c -2.74211,0 -2.77862,-0.008 -3.77031,-0.8599 -0.55077,-0.47294 -1.13931,-1.03669 -1.30788,-1.25277 -0.26415,-0.33863 -3.24174,-0.42049 -21.56353,-0.5928 -11.69139,-0.10995 -22.47746,-0.27204 -23.96905,-0.36019 l -2.71197,-0.16027 v -1.65201 -1.65201 l 6.39284,-0.17461 c 3.51606,-0.096 10.09427,-0.1749 14.61823,-0.17526 4.52397,-3.6e-4 10.80271,-0.0785 13.95277,-0.1736 l 5.72738,-0.17296 2.28897,-2.8691 2.28896,-2.86911 h 5.41125 5.41126 l -0.005,-7.73906 c -0.005,-8.5029 0.0776,-7.88745 -1.97932,-14.75052 -0.54518,-1.81901 -1.15155,-3.9026 -1.34749,-4.63021 -0.19595,-0.7276 -1.14542,-4.06135 -2.10993,-7.40833 -0.96451,-3.34698 -1.93483,-6.7678 -2.15626,-7.60183 -0.36353,-1.36928 -0.53713,-1.60571 -1.78909,-2.43672 -0.76258,-0.50618 -1.94825,-1.43113 -2.63482,-2.05547 l -1.24832,-1.13515 2.98785,-2.91041 c 4.35137,-4.23862 3.91201,-3.99304 5.28985,-2.95673 2.76659,2.08084 6.76614,3.72137 10.09007,4.13874 4.95656,0.62237 11.375025,-1.28034 15.375455,-4.55793 l 0.76199,-0.62431 3.33905,3.40697 c 1.83648,1.87383 3.3731,3.50112 3.41472,3.61619 0.0734,0.20296 -1.47172,1.50667 -3.91339,3.30192 -0.90619,0.66628 -1.27094,1.15485 -1.52171,2.03824 -0.1814,0.63905 -0.67061,2.35253 -1.08712,3.80774 -1.93248,6.75164 -2.52624,8.8536 -2.9522,10.45104 -0.25222,0.94589 -0.9031,3.20807 -1.4464,5.02709 -2.38497,7.98516 -2.26784,7.15895 -2.18964,15.44625 l 0.0702,7.4402 5.42396,0.0835 5.42396,0.0835 0.79375,1.01962 c 0.43656,0.5608 1.44608,1.84454 2.24336,2.85278 l 1.44962,1.83315 5.69413,0.17196 c 3.13178,0.0946 9.39556,0.17224 13.91953,0.1726 4.52396,3.6e-4 11.10216,0.0792 14.61823,0.17526 l 6.3933,0.1746 v 1.65201 1.65202 z m -7.6501,-155.860013 c -5.69915,0.0964 -14.24188,0.18705 -18.98386,0.20145 -4.74197,0.0144 -9.23605,0.10368 -9.98684,0.19843 -1.35964,0.17159 -1.37419,0.1836 -3.65424,3.01655 l -2.28916,2.84427 h -5.40774 -5.40775 v 7.58351 c 0,5.91984 0.0861,7.87884 0.39229,8.92969 0.84465,2.89845 4.40011,15.32197 5.60996,19.60242 0.37018,1.30969 0.88716,3.09563 1.14886,3.96875 0.26168,0.87313 0.61123,2.09885 0.77678,2.72383 0.25011,0.94427 0.5335,1.28549 1.67665,2.01884 0.75662,0.48538 1.91145,1.36822 2.5663,1.96186 l 1.19062,1.07934 -3.48346,3.412632 -3.48347,3.412621 -1.57334,-1.094931 c -2.44627,-1.70241 -4.71038,-2.72679 -7.71537,-3.490762 -2.373825,-0.60351 -3.117365,-0.68178 -5.291675,-0.55703 -3.99159,0.22901 -7.86987,1.621312 -11.3106,4.060512 l -1.63709,1.160561 -3.49624,-3.486101 -3.49626,-3.486102 0.78,-0.68263 c 0.79418,-0.69506 1.4945,-1.23131 3.42809,-2.62497 0.90674,-0.65356 1.15309,-1.03669 1.49839,-2.33033 0.22728,-0.85149 0.78803,-2.85786 1.24611,-4.45859 0.45808,-1.60073 1.11753,-3.92245 1.46545,-5.15937 0.34792,-1.23693 0.99625,-3.49912 1.44074,-5.02709 0.88738,-3.05045 1.73737,-6.00888 2.77412,-9.65543 0.65595,-2.30719 0.67648,-2.61429 0.67648,-10.12031 v -7.74092 h -5.37307 -5.37306 l -2.30873,-2.87299 -2.30873,-2.87299 -1.77706,-0.16784 c -0.97738,-0.0923 -5.47826,-0.16868 -10.00195,-0.16972 -4.52369,-10e-4 -12.88783,-0.0808 -18.58698,-0.17716 l -10.36208,-0.17528 v -1.8091 -1.80909 l 4.56406,-0.008 c 2.51023,-0.004 13.23713,-0.11853 23.83753,-0.25383 l 19.27346,-0.24598 1.40623,-1.20139 1.40623,-1.20138 h 2.80207 2.80208 v -0.92604 -0.92604 h 7.39157 7.391575 l 0.0829,0.8599 0.0829,0.85989 2.76107,0.076 2.76107,0.0759 1.39496,1.19175 1.39497,1.19176 19.25959,0.24582 c 10.59278,0.1352 21.31342,0.24934 23.82366,0.25365 l 4.56407,0.008 v 1.80909 1.8091 z M 125.84823,121.8516 c -0.12675,0.71184 -0.37142,1.63457 -0.54371,2.05052 l -0.31325,0.75626 h -4.97937 c -2.73865,0 -5.04514,-0.10642 -5.12552,-0.23648 -0.0804,-0.13006 0.0409,-0.68411 0.26949,-1.23123 1.48829,-3.562 1.48745,-10.17336 -0.002,-13.73754 -0.22957,-0.54943 -0.41739,-1.10601 -0.41739,-1.23683 0,-0.13514 2.25167,-0.20689 5.21408,-0.16613 l 5.21408,0.0717 0.37887,1.19063 c 0.44691,1.40448 0.66775,10.4989 0.30448,12.53906 z m -3.361,-4.33272 c -0.78933,-0.62089 -1.7063,-0.54816 -2.53783,0.20128 -0.70834,0.63842 -0.50245,2.11825 0.38668,2.77921 1.94535,1.44614 4.0578,-1.48072 2.15115,-2.98049 z m -1.14423,2.11242 c -0.65646,0 -1.00258,-0.7585 -0.49328,-1.08099 0.6524,-0.41309 1.03075,-0.2591 1.03075,0.41953 0,0.48848 -0.14056,0.66146 -0.53747,0.66146 z m 1.33122,-7.40834 c -1.09968,-1.09968 -3.175,-0.31006 -3.175,1.20802 0,1.61571 1.30666,2.5272 2.6368,1.83936 0.41523,-0.21472 0.81586,-0.54174 0.89028,-0.7267 0.30601,-0.76057 0.14469,-1.8239 -0.35208,-2.32068 z m -1.08373,2.00007 c -0.15948,0.0986 -0.47123,-0.002 -0.69276,-0.22358 -0.48222,-0.48221 -0.24325,-0.98274 0.46918,-0.98274 0.56198,0 0.72781,0.89469 0.22358,1.20632 z m 1.53339,15.47318 c -0.77133,1.52206 -1.75359,3.24652 -2.18281,3.83215 -1.42809,1.94849 -2.58601,3.30085 -2.82627,3.30085 -0.23638,0 -6.61549,-6.48317 -6.76246,-6.87277 -0.0424,-0.1124 0.20553,-0.54677 0.55095,-0.96528 0.3454,-0.4185 0.85225,-1.14786 1.12631,-1.6208 l 0.49829,-0.8599 h 5.49921 c 3.02456,0 5.4992,0.0941 5.4992,0.20919 0,0.11505 -0.63109,1.4545 -1.40242,2.97656 z m -3.98957,-23.55867 h -5.42764 l -1.00633,-1.4769 c -0.55348,-0.8123 -1.12432,-1.64501 -1.26854,-1.85048 -0.20164,-0.28728 0.50029,-1.13792 3.03873,-3.682471 2.8861,-2.893052 4.23494,-3.874162 4.23494,-3.080402 0,0.12568 0.27176,0.51263 0.60392,0.859902 0.54405,0.56878 1.62224,2.13403 2.98648,4.335561 0.59126,0.95414 1.83209,3.52738 2.08468,4.32322 l 0.18141,0.57157 z m -10.00894,8.73126 h -5.37801 l -0.63771,-1.60551 -0.63771,-1.60552 3.69135,-3.69135 3.69134,-3.69134 1.55805,3.64321 c 1.61833,3.78419 2.77545,6.41051 2.97484,6.75207 0.0637,0.10914 -2.30425,0.19844 -5.26215,0.19844 z m 3.00488,8.26822 c -1.10666,2.72852 -2.11532,4.96094 -2.24147,4.96094 -0.32576,0 -7.32289,-7.01249 -7.32289,-7.33896 0,-0.1485 0.30639,-0.93924 0.68086,-1.75719 l 0.68085,-1.48718 h 5.13998 c 3.95297,0 5.13244,0.0764 5.10737,0.33073 -0.0179,0.1819 -0.93805,2.56315 -2.0447,5.29166 z m -4.81946,7.30952 c -0.58803,0.24184 -3.56399,1.5282 -6.20011,2.68 -0.58208,0.25433 -1.614765,0.7045 -2.294845,1.00037 -0.68008,0.29587 -1.30516,0.4693 -1.38906,0.3854 -0.0839,-0.0839 -0.15255,-2.45697 -0.15255,-5.27349 v -5.12095 l 0.7276,-0.28685 c 0.40018,-0.15777 1.13566,-0.46101 1.6344,-0.67388 l 0.906805,-0.38702 3.7058,3.70581 c 3.57591,3.57591 3.68324,3.71509 3.06196,3.97061 z m -3.13999,-24.19409 c -3.14576,3.13975 -3.74812,3.63201 -4.09354,3.34534 -0.222765,-0.18487 -0.914805,-0.48656 -1.537885,-0.67043 l -1.13286,-0.33429 -0.0718,-5.22663 -0.0718,-5.226631 0.61483,0.15432 c 1.15182,0.28909 9.840345,3.852901 9.911145,4.065301 0.0388,0.11635 -1.58932,1.86821 -3.61801,3.89302 z m -2.12375,10.73301 c -0.14674,0.21829 -0.5118,1.12703 -0.81124,2.01943 -0.52721,1.57117 -0.59226,1.64329 -2.054585,2.27765 -3.25266,1.41102 -2.95971,1.38485 -5.25189,0.46914 -1.14349,-0.45682 -2.18276,-0.93276 -2.30949,-1.05765 -0.1958,-0.19298 -0.72376,-1.36208 -1.73451,-3.84086 -0.15066,-0.36947 0.0559,-1.20786 0.68452,-2.77812 l 0.90029,-2.24897 2.04215,-0.86543 c 1.12317,-0.47599 2.239,-0.86294 2.47961,-0.8599 0.24061,0.003 1.3634,0.40066 2.4951,0.88359 l 2.057625,0.87805 0.77065,1.83394 c 0.95502,2.27268 1.06942,2.78685 0.73177,3.28913 z M 94.562245,134.447 c -0.0686,-0.001 -1.75876,-0.6514 -7.27605,-2.80001 -1.78263,-0.69421 -3.24115,-1.33185 -3.24115,-1.41698 0,-0.0851 1.65117,-1.80278 3.66928,-3.81702 l 3.66927,-3.66225 1.61852,0.62309 1.61851,0.62309 0.004,5.22552 c 0.002,2.87404 -0.0259,5.22508 -0.0623,5.22456 z m -0.39688,-25.75573 c -0.25466,0.0857 -0.96692,0.38924 -1.5828,0.67448 l -1.11979,0.51861 -3.71187,-3.70802 c -2.04153,-2.03941 -3.61636,-3.76705 -3.49961,-3.83921 0.11675,-0.0722 1.51709,-0.6809 3.11186,-1.35278 1.59478,-0.67188 3.25679,-1.390201 3.69335,-1.596281 1.00939,-0.47646 3.34338,-1.45262 3.47322,-1.45262 0.0543,0 0.0986,2.384991 0.0986,5.299981 0,4.81182 -0.0426,5.31432 -0.46302,5.45584 z m -8.25898,15.82557 c -2.03219,2.02831 -3.73637,3.63406 -3.78706,3.56833 -0.0507,-0.0657 -0.42714,-0.89341 -0.83656,-1.83929 -0.40942,-0.94589 -1.02696,-2.3484 -1.37231,-3.1167 -0.34534,-0.76829 -0.6279,-1.4446 -0.6279,-1.50289 0,-0.0583 -0.35719,-0.87769 -0.79375,-1.82089 -0.43656,-0.9432 -0.79375,-1.84447 -0.79375,-2.00283 0,-0.19792 1.65277,-0.28794 5.28662,-0.28794 h 5.28662 l 0.18211,0.72761 c 0.10016,0.40018 0.39964,1.08479 0.66551,1.52135 0.26587,0.43656 0.48385,0.85488 0.48439,0.92959 5.4e-4,0.0747 -1.66172,1.79535 -3.69392,3.82366 z m 2.93699,-11.1694 -0.68425,1.52136 h -5.23559 -5.23558 l 0.43348,-0.99219 c 0.42171,-0.96523 1.31537,-3.1894 2.47168,-6.15157 0.31243,-0.80037 0.77269,-1.90099 1.02279,-2.44584 l 0.45473,-0.99062 3.7285,3.76875 3.72849,3.76875 z m -11.40378,20.16537 c -1.88675,1.88256 -3.49483,3.35847 -3.57351,3.27979 -0.0787,-0.0787 -0.11254,-9.40804 -0.0753,-20.73193 l 0.0678,-20.588903 3.50585,3.505882 c 2.12106,2.121081 3.432,3.626611 3.31891,3.811531 -0.1028,0.16811 -0.59703,0.84143 -1.09827,1.49627 -1.30472,1.70451 -2.90159,5.2128 -3.39618,7.46137 -0.9094,4.13442 -0.42236,9.06716 1.26206,12.78206 0.87406,1.9277 2.35867,4.34131 2.99536,4.86972 0.23305,0.19341 0.42372,0.42809 0.42372,0.52151 0,0.0934 -1.5437,1.71014 -3.43045,3.5927 z m -6.33685,0.002 c -1.09381,-1.126 -3.97066,-7.1804 -3.98816,-8.39317 -0.002,-0.10914 0.42503,-0.19844 0.94801,-0.19844 h 0.95087 l -0.19,-1.38906 c -0.31506,-2.30339 -0.49398,-2.57969 -1.67058,-2.57969 -0.98498,0 -1.03747,-0.0436 -1.19426,-0.99218 -0.26444,-1.59986 -0.252,-1.61938 1.08695,-1.7053 l 1.25677,-0.0806 v -1.85208 -1.85209 l -1.28882,-0.0819 -1.28883,-0.082 0.16144,-0.97638 c 0.0888,-0.53701 0.16274,-1.18474 0.16434,-1.4394 0.002,-0.36977 0.23537,-0.46303 1.15701,-0.46303 h 1.1541 l 0.30111,-1.49933 c 0.47124,-2.34647 0.43987,-2.46942 -0.62997,-2.46942 -0.87958,0 -0.9219,-0.0402 -0.76508,-0.7276 0.4159,-1.82287 3.61233,-7.995311 4.14356,-8.001381 0.10914,-10e-4 0.19843,7.941851 0.19843,17.651321 0,17.40023 -0.007,17.6461 -0.50689,17.13177 z"
       id="path1"
       inkscape:export-filename="ataque.svg"
       inkscape:export-xdpi="96"
       inkscape:export-ydpi="96" /></g></svg>
