<?xml version="1.0" encoding="UTF-8" standalone="no"?>
<svg
   id="Calque_1_-_copie_2"
   enable-background="new 0 0 100 100"
   height="70"
   viewBox="0 0 78.938004 70"
   width="78.938004"
   version="1.1"
   sodipodi:docname="xwing.svg"
   inkscape:export-filename="xwing.svg"
   inkscape:export-xdpi="96"
   inkscape:export-ydpi="96"
   xmlns:inkscape="http://www.inkscape.org/namespaces/inkscape"
   xmlns:sodipodi="http://sodipodi.sourceforge.net/DTD/sodipodi-0.dtd"
   xmlns="http://www.w3.org/2000/svg"
   xmlns:svg="http://www.w3.org/2000/svg">
  <defs
     id="defs2" />
  <sodipodi:namedview
     id="namedview2"
     pagecolor="#ffffff"
     bordercolor="#000000"
     borderopacity="0.25"
     inkscape:showpageshadow="2"
     inkscape:pageopacity="0.0"
     inkscape:pagecheckerboard="0"
     inkscape:deskcolor="#d1d1d1" />
  <g
     id="g2"
     inkscape:export-filename="xwing.svg"
     inkscape:export-xdpi="96"
     inkscape:export-ydpi="96"
     style="fill:#ffffff"
     transform="translate(-10.781,-15)">
    <path
       d="m 88.825,47.071 -9.918,-1.065 c -0.255,-0.029 -0.517,0.046 -0.72,0.205 l -0.454,0.353 -43.015,-2.506 v -0.182 h 1.457 c 0.276,0 0.5,-0.224 0.5,-0.5 v -6.25 c 0,-0.276 -0.224,-0.5 -0.5,-0.5 H 34.718 V 19 h 0.596 v 0.313 c 0,0.276 0.224,0.5 0.5,0.5 h 2.875 c 0.276,0 0.5,-0.224 0.5,-0.5 v -1.406 h 17.445 v 1.072 c 0,0.653 1,0.653 1,0 v -1.072 h 5.834 c 0.663,0 0.663,-1 0,-1 h -5.834 v -1.073 c 0,-0.652 -1,-0.652 -1,0 v 1.073 H 39.189 V 15.5 c 0,-0.276 -0.224,-0.5 -0.5,-0.5 h -2.875 c -0.276,0 -0.5,0.224 -0.5,0.5 v 0.313 H 23.801 c -0.276,0 -0.5,0.224 -0.5,0.5 v 0.594 h -1.188 v -0.594 c 0,-0.648 -1,-0.648 -1,0 V 18.5 c 0,0.664 1,0.664 1,0 v -0.594 h 1.188 V 18.5 c 0,0.123 0.049,0.231 0.123,0.318 l -4.94,17.662 c -0.091,0.324 -0.012,0.672 0.208,0.926 L 19.208,38 h -5.431 -2.496 c -0.276,0 -0.5,0.224 -0.5,0.5 V 42 c 0,0.276 0.224,0.5 0.5,0.5 h 2.496 4.05 l -2.161,2.903 C 15.538,45.576 15.468,45.785 15.468,46 v 7.999 c 0,0.215 0.069,0.425 0.198,0.597 l 2.161,2.903 h -4.05 -2.496 c -0.276,0 -0.5,0.224 -0.5,0.5 v 3.5 c 0,0.276 0.224,0.5 0.5,0.5 h 2.496 5.431 l -0.517,0.594 c -0.221,0.254 -0.299,0.602 -0.208,0.926 l 4.94,17.662 C 23.35,81.268 23.3,81.376 23.3,81.499 v 0.594 h -1.188 v -0.594 c 0,-0.646 -1,-0.646 -1,0 v 2.188 c 0,0.648 1,0.648 1,0 V 83.093 H 23.3 v 0.594 c 0,0.276 0.224,0.5 0.5,0.5 H 35.314 V 84.5 c 0,0.276 0.224,0.5 0.5,0.5 h 2.875 c 0.276,0 0.5,-0.224 0.5,-0.5 v -1.406 h 17.445 v 1.073 c 0,0.638 1,0.638 1,0 v -1.073 h 5.834 c 0.68,0 0.68,-1 0,-1 h -5.834 v -1.072 c 0,-0.669 -1,-0.669 -1,0 v 1.072 H 39.189 v -1.406 c 0,-0.276 -0.224,-0.5 -0.5,-0.5 h -2.875 c -0.276,0 -0.5,0.224 -0.5,0.5 v 0.313 H 34.718 V 63.374 h 1.457 c 0.276,0 0.5,-0.224 0.5,-0.5 v -6.25 c 0,-0.276 -0.224,-0.5 -0.5,-0.5 h -1.457 v -0.182 l 43.015,-2.506 0.454,0.352 c 0.203,0.159 0.465,0.232 0.72,0.205 l 9.918,-1.065 c 0.509,-0.055 0.894,-0.483 0.894,-0.994 v -3.868 c 0,-0.511 -0.385,-0.941 -0.894,-0.995 z M 25.051,42.875 v -5.25 h 0.809 v 5.25 z m 1.808,-5.25 h 6.359 v 5.25 h -6.359 z m 8.817,5.25 h -1.457 v -5.25 h 1.457 z M 36.314,16 h 1.875 v 2.813 H 36.314 V 18.5 16.312 Z M 24.301,16.813 H 35.315 V 18 H 24.301 Z M 20.555,36.5 25.449,19 h 7.27 v 17.625 h -8.168 c -0.276,0 -0.5,0.224 -0.5,0.5 V 38 H 21.875 Z M 11.781,39 h 1.496 v 2.5 h -1.496 z m 2.496,2.5 V 39 h 9.773 v 2.5 z m 23.442,9.881 c -0.763,0 -1.383,-0.619 -1.383,-1.381 0,-0.763 0.62,-1.383 1.383,-1.383 0.761,0 1.381,0.62 1.381,1.383 0,0.762 -0.62,1.381 -1.381,1.381 z M 35.336,50 c 0,1.05 0.688,1.934 1.635,2.249 H 17.469 V 47.75 h 19.5 c -0.946,0.316 -1.633,1.2 -1.633,2.25 z m -23.555,8.499 h 1.496 v 2.5 h -1.496 z m 2.496,2.5 v -2.5 h 9.773 v 2.5 z m 18.942,-3.875 v 5.25 H 26.86 v -5.25 z m -7.36,5.25 H 25.05 v -0.875 -3.5 -0.875 h 0.809 z m 10.455,18.813 h 1.875 V 84 h -1.875 z m -1,2 H 24.301 v -1.188 h 11.014 v 1.188 z m -9.865,-2.188 -4.895,-17.5 1.289,-1.5 h 2.207 v 0.875 c 0,0.276 0.224,0.5 0.5,0.5 h 8.168 V 80.999 Z M 35.676,62.374 h -1.457 v -5.25 h 1.457 z m -2.015,-8.373 c -0.529,0.03 -0.942,0.469 -0.942,0.998 v 1.125 h -8.168 c -0.276,0 -0.5,0.224 -0.5,0.5 v 0.875 h -3.707 l -2.875,-3.831 v -0.419 h 20.25 c 0.276,0 0.5,-0.224 0.5,-0.5 V 52.326 C 39.292,52.096 40.1,51.141 40.1,50 c 0,-1.142 -0.808,-2.097 -1.881,-2.328 V 47.25 c 0,-0.276 -0.224,-0.5 -0.5,-0.5 H 17.469 V 46.332 L 20.328,42.5 h 3.723 v 0.875 c 0,0.276 0.224,0.5 0.5,0.5 h 8.168 V 45 c 0,0.53 0.413,0.967 0.942,0.999 0,0 44.366,2.577 44.384,2.577 l 0.617,0.732 v 1.385 l -0.617,0.732 c -0.019,0 -44.384,2.576 -44.384,2.576 z m 54.058,-2.966 -8.623,0.927 -0.119,-0.093 0.567,-0.672 c 0.076,-0.09 0.118,-0.204 0.118,-0.322 v -1.75 c 0,-0.118 -0.042,-0.232 -0.118,-0.322 l -0.567,-0.673 0.119,-0.092 8.623,0.926 z"
       id="path1"
       style="fill:#ffffff" />
    <path
       d="M 56.501,47.846 44.22,46.752 c -0.101,-0.011 -0.202,0.013 -0.291,0.063 l -2.041,1.156 c -0.157,0.089 -0.253,0.255 -0.253,0.435 v 3.188 c 0,0.18 0.097,0.347 0.254,0.436 l 2.041,1.155 c 0.075,0.042 0.16,0.064 0.246,0.064 0.015,0 0.029,-0.001 0.044,-0.002 l 12.281,-1.093 c 0.259,-0.023 0.456,-0.239 0.456,-0.498 v -3.313 c 0,-0.258 -0.197,-0.474 -0.456,-0.497 z m -0.544,3.353 -11.67,1.038 -1.652,-0.936 v -2.604 l 1.652,-0.936 11.67,1.04 z"
       id="path2"
       style="fill:#ffffff" />
    <circle
       cx="37.719002"
       cy="50"
       r="0.59899998"
       id="circle2"
       style="fill:#ffffff" />
  </g>
  <path
     style="fill:#ff6600;stroke:#000000;stroke-width:0.3861;stroke-linecap:round;stroke-linejoin:round;paint-order:stroke fill markers"
     d="m 23.517584,44.71686 v -2.574003 h 0.643501 0.643501 v 2.574003 2.574002 h -0.643501 -0.643501 z"
     id="path3" />
  <path
     style="fill:#ff6600;stroke:#000000;stroke-width:0.3861;stroke-linecap:round;stroke-linejoin:round;paint-order:stroke fill markers"
     d="m 23.517584,25.28314 v -2.574002 h 0.643501 0.643501 v 2.574002 2.574003 h -0.643501 -0.643501 z"
     id="path4" />
  <path
     style="fill:#ff6600;stroke:#000000;stroke-width:0.3861;stroke-linecap:round;stroke-linejoin:round;paint-order:stroke fill markers"
     d="M 10.529166,22.232996 C 10.169578,21.829548 9.8767319,21.467579 9.8783949,21.42862 c 0.0017,-0.03896 1.0901481,-3.951143 2.4188541,-8.693742 l 2.415828,-8.622909 3.565703,-0.03421 3.565703,-0.03421 v 8.753645 8.753645 h -4.157015 c -3.061633,0 -4.197709,0.04069 -4.311454,0.15444 -0.08494,0.08494 -0.15444,0.403475 -0.15444,0.70785 V 22.96654 H 12.202267 11.18296 Z"
     id="path5" />
  <path
     style="fill:#ffffff;stroke:#000000;stroke-width:0.3861;stroke-linecap:round;stroke-linejoin:round;paint-order:stroke fill markers"
     d="m 14.69837,65.791506 c -0.03274,-0.08848 -1.133908,-3.999788 -2.447038,-8.691793 L 9.8638209,48.568796 10.110589,48.255082 c 0.967103,-1.229473 0.953749,-1.22162 2.077452,-1.22162 h 1.033533 v 0.553411 c 0,0.304375 0.0695,0.622908 0.15444,0.70785 0.113745,0.113745 1.249821,0.15444 4.311454,0.15444 h 4.157015 v 8.751609 8.751609 H 18.30119 c -2.717086,0 -3.557173,-0.03751 -3.60282,-0.160875 z"
     id="path6" />
  <path
     style="fill:#ffffff;stroke:#000000;stroke-width:0.3861;stroke-linecap:round;stroke-linejoin:round;paint-order:stroke fill markers"
     d="m 40.935716,37.654734 c 4.492022,-0.419524 5.016974,-0.492149 5.18018,-0.716655 0.134555,-0.185094 0.181611,-0.689936 0.181611,-1.94842 0,-1.432807 -0.03524,-1.739301 -0.225225,-1.958738 -0.205151,-0.236956 -0.66685,-0.298449 -5.18018,-0.689933 -2.725226,-0.236385 -4.839125,-0.445259 -4.697555,-0.464164 0.14157,-0.01891 7.17825,0.369357 15.637066,0.862806 l 15.379665,0.897181 0.289575,0.334846 c 0.410013,0.474112 0.410013,1.582439 0,2.057012 l -0.289575,0.335171 -15.315315,0.892664 c -8.423424,0.490965 -15.460103,0.886454 -15.637066,0.878863 -0.176963,-0.0076 1.927606,-0.223875 4.676819,-0.480633 z"
     id="path7" />
  <path
     style="fill:#ff6600;fill-opacity:1;stroke:#000000;stroke-width:0.3861;stroke-linecap:round;stroke-linejoin:round;paint-order:stroke fill markers"
     d="m 8.1700939,40.530546 c -0.76094,-1.022247 -1.383526,-1.946395 -1.383526,-2.053662 0,-0.172601 1.173727,-0.195031 10.2059201,-0.195031 7.766337,0 10.242836,-0.03692 10.36036,-0.15444 0.08494,-0.08494 0.15444,-0.273265 0.15444,-0.418496 0,-0.179209 0.175756,-0.357557 0.546976,-0.555045 1.715655,-0.912718 1.73845,-3.386317 0.03951,-4.287602 -0.40452,-0.214597 -0.586488,-0.393059 -0.586488,-0.575187 0,-0.145231 -0.0695,-0.333554 -0.15444,-0.418496 -0.117524,-0.117524 -2.594023,-0.15444 -10.36036,-0.15444 -9.0321931,0 -10.2059201,-0.02243 -10.2059201,-0.195031 0,-0.107267 0.622586,-1.031415 1.383526,-2.053662 l 1.383526,-1.858632 1.8339771,-0.0055 1.833977,-0.0055 v 0.439924 c 0,0.903507 -0.29242,0.847077 4.389574,0.847077 h 4.233335 v 0.637445 c 0,0.77037 0.186063,1.219237 0.579749,1.398612 0.161679,0.07367 2.64859,0.266897 5.526467,0.429401 5.819125,0.328587 5.500484,0.233284 3.835869,1.147276 L 30.85349,33.011881 V 35 36.988198 l 0.933076,0.512324 c 1.664615,0.913992 1.983256,0.818689 -3.835869,1.147276 -2.877877,0.162504 -5.364788,0.355735 -5.526467,0.429401 -0.393686,0.179375 -0.579749,0.628242 -0.579749,1.398612 v 0.637445 h -4.233335 c -4.681994,0 -4.389574,-0.05643 -4.389574,0.847077 v 0.439924 l -1.833977,-0.0055 -1.8339771,-0.0055 z"
     id="path8" />
  <path
     style="fill:#ff6600;fill-opacity:1;stroke:#000000;stroke-width:0.3861;stroke-linecap:round;stroke-linejoin:round;paint-order:stroke fill markers"
     d="m 16.156816,65.856417 c -1.166796,-0.03501 -1.386341,-0.07492 -1.442776,-0.262242 -0.470106,-1.560403 -4.709969,-16.816944 -4.709969,-16.948147 0,-0.0984 0.275096,-0.476589 0.611325,-0.840417 l 0.611326,-0.661507 0.990075,-0.07334 0.990075,-0.07334 0.03953,0.693696 0.03953,0.693696 4.279279,0.03391 4.27928,0.03391 v 8.749874 8.749874 l -2.155728,-0.02733 c -1.185649,-0.01503 -2.775022,-0.04592 -3.531939,-0.06863 z"
     id="path9" />
  <path
     style="fill:#ffffff;fill-opacity:1;stroke:#000000;stroke-width:0.3861;stroke-linecap:round;stroke-linejoin:round;paint-order:stroke fill markers"
     d="M 68.615539,36.470177 C 68.915752,36.113393 68.94873,35.967884 68.94873,35 c 0,-0.967884 -0.03298,-1.113393 -0.333191,-1.470177 -0.243028,-0.288823 -0.281091,-0.395975 -0.140658,-0.395975 0.219369,0 7.073076,0.730768 7.906281,0.842997 l 0.546976,0.07368 V 35 35.949479 l -0.546976,0.07368 c -0.833205,0.112229 -7.686912,0.842997 -7.906281,0.842997 -0.140433,0 -0.10237,-0.107152 0.140658,-0.395975 z"
     id="path10" />
  <path
     style="fill:#008080;fill-opacity:1;stroke:#000000;stroke-width:0.3861;stroke-linecap:round;stroke-linejoin:round;paint-order:stroke fill markers"
     d="m 1.1237619,25.21879 v -1.222651 h 0.643501 0.6435 v 1.222651 1.222651 h -0.6435 -0.643501 z"
     id="path11" />
  <path
     style="fill:#008080;fill-opacity:1;stroke:#000000;stroke-width:0.3861;stroke-linecap:round;stroke-linejoin:round;paint-order:stroke fill markers"
     d="m 1.1237619,44.71686 v -1.158301 h 0.643501 0.6435 v 1.158301 1.158301 h -0.6435 -0.643501 z"
     id="path12" />
</svg>
